<svg width="21" height="20" viewBox="0 0 21 20" fill="none" xmlns="http://www.w3.org/2000/svg">
<path d="M10.363 0.949224C7.46261 0.949224 5.06365 3.07833 5.06365 5.71117C5.06365 7.27118 5.91254 8.65034 7.20021 9.51916C3.10979 10.7494 0.143517 14.291 0.143517 18.4639C0.143517 18.4833 0.143311 18.5042 0.143517 18.5236L0.143311 18.5234C0.144136 18.7196 0.224236 18.9084 0.367722 19.0532C0.511414 19.1981 0.708364 19.2886 0.920175 19.3072C0.948046 19.3083 0.975711 19.3083 1.00358 19.3072L10.3635 19.2561H19.7235H19.7233C19.9514 19.2564 20.1706 19.1731 20.3319 19.0245C20.4933 18.8759 20.5838 18.674 20.5834 18.4639C20.5834 14.2918 17.6157 10.7502 13.5267 9.51915C14.8158 8.65034 15.6539 7.27117 15.6539 5.71116C15.6539 3.07833 13.264 0.949219 10.3635 0.949219L10.363 0.949224ZM10.363 2.53376C12.3614 2.53376 13.9332 3.95723 13.9332 5.71117C13.9332 7.46511 12.3615 8.89714 10.363 8.89714C8.36457 8.89714 6.78358 7.46511 6.78358 5.71117C6.78358 3.95723 8.36436 2.53376 10.363 2.53376ZM10.363 10.6354C14.7798 10.6354 18.3964 13.7105 18.8256 17.6719H10.363V17.6717H10.354L1.89142 17.7228C2.29606 13.7375 5.92835 10.6352 10.3635 10.6352L10.363 10.6354Z" fill="#0D3C84"/>
</svg>
