<svg width="25" height="26" viewBox="0 0 25 26" fill="none" xmlns="http://www.w3.org/2000/svg">
<path d="M20.5628 9.66718L14.8962 3.41718C14.7988 3.30927 14.6799 3.22294 14.5471 3.16374C14.4144 3.10454 14.2707 3.07377 14.1253 3.07343H6.83366C6.48756 3.0693 6.14405 3.13339 5.82272 3.26203C5.5014 3.39067 5.20856 3.58135 4.96093 3.82317C4.7133 4.065 4.51574 4.35323 4.37951 4.67142C4.24329 4.9896 4.17107 5.3315 4.16699 5.6776V21.3026C4.17107 21.6487 4.24329 21.9906 4.37951 22.3088C4.51574 22.627 4.7133 22.9152 4.96093 23.157C5.20856 23.3988 5.5014 23.5895 5.82272 23.7182C6.14405 23.8468 6.48756 23.9109 6.83366 23.9068H18.167C18.5131 23.9109 18.8566 23.8468 19.1779 23.7182C19.4993 23.5895 19.7921 23.3988 20.0397 23.157C20.2873 22.9152 20.4849 22.627 20.6211 22.3088C20.7574 21.9906 20.8296 21.6487 20.8337 21.3026V10.3651C20.833 10.1069 20.7365 9.85822 20.5628 9.66718V9.66718ZM14.5837 6.19843L17.4378 9.32343H15.3545C15.2454 9.31684 15.1387 9.2886 15.0407 9.24034C14.9426 9.19208 14.8552 9.12477 14.7834 9.04235C14.7117 8.95993 14.657 8.86404 14.6227 8.76028C14.5884 8.65652 14.5752 8.54696 14.5837 8.43801V6.19843ZM18.167 21.8234H6.83366C6.76113 21.8277 6.68848 21.8175 6.61988 21.7936C6.55128 21.7697 6.48807 21.7325 6.43388 21.6841C6.37969 21.6357 6.33558 21.5771 6.30408 21.5116C6.27258 21.4462 6.25431 21.3751 6.25033 21.3026V5.6776C6.25431 5.60506 6.27258 5.53402 6.30408 5.46855C6.33558 5.40308 6.37969 5.34448 6.43388 5.29609C6.48807 5.24771 6.55128 5.21049 6.61988 5.18658C6.68848 5.16268 6.76113 5.15254 6.83366 5.15676H12.5003V8.43801C12.4835 9.20533 12.7709 9.94814 13.2998 10.5043C13.8286 11.0605 14.5561 11.3849 15.3232 11.4068H18.7503V21.3026C18.7463 21.3751 18.7281 21.4462 18.6966 21.5116C18.6651 21.5771 18.621 21.6357 18.5668 21.6841C18.5126 21.7325 18.4494 21.7697 18.3808 21.7936C18.3122 21.8175 18.2395 21.8277 18.167 21.8234Z" fill="#0D3C84"/>
<path d="M14.5833 14.5318H13.5417V13.4901C13.5417 13.2138 13.4319 12.9489 13.2366 12.7535C13.0412 12.5582 12.7763 12.4484 12.5 12.4484C12.2237 12.4484 11.9588 12.5582 11.7634 12.7535C11.5681 12.9489 11.4583 13.2138 11.4583 13.4901V14.5318H10.4167C10.1404 14.5318 9.87545 14.6415 9.6801 14.8369C9.48475 15.0322 9.375 15.2972 9.375 15.5734C9.375 15.8497 9.48475 16.1146 9.6801 16.31C9.87545 16.5053 10.1404 16.6151 10.4167 16.6151H11.4583V17.6568C11.4583 17.933 11.5681 18.198 11.7634 18.3933C11.9588 18.5887 12.2237 18.6984 12.5 18.6984C12.7763 18.6984 13.0412 18.5887 13.2366 18.3933C13.4319 18.198 13.5417 17.933 13.5417 17.6568V16.6151H14.5833C14.8596 16.6151 15.1246 16.5053 15.3199 16.31C15.5153 16.1146 15.625 15.8497 15.625 15.5734C15.625 15.2972 15.5153 15.0322 15.3199 14.8369C15.1246 14.6415 14.8596 14.5318 14.5833 14.5318Z" fill="#0D3C84"/>
</svg>
