<svg width="17" height="15" viewBox="0 0 17 15" fill="none" xmlns="http://www.w3.org/2000/svg">
<path d="M10.1912 5.73532H15.0442C15.8482 5.73532 16.5 6.32784 16.5 7.0589V13.6765C16.5 14.4075 15.8482 15 15.0442 15H7.76479C6.96063 15 6.30885 14.4075 6.30885 13.6765V9.26468H1.45582C0.651775 9.26468 0 8.67216 0 7.9411V1.32347C0 0.592523 0.651775 0 1.45582 0H8.73522C9.53938 0 10.1912 0.592523 10.1912 1.32347V5.73532ZM1.45594 0.882315C1.188 0.882315 0.970694 1.07986 0.970694 1.32345V7.94108C0.970694 8.18476 1.18799 8.38231 1.45594 8.38231H8.73534C9.00339 8.38231 9.2207 8.18477 9.2207 7.94108V1.32345C9.2207 1.07986 9.0034 0.882315 8.73534 0.882315H1.45594ZM10.1912 6.61763V7.9411C10.1912 8.67216 9.53938 9.26468 8.73522 9.26468H7.2794V13.6765C7.2794 13.9201 7.49669 14.1177 7.76476 14.1177H15.0442C15.3121 14.1177 15.5294 13.9201 15.5294 13.6765V7.0589C15.5294 6.81521 15.3121 6.61766 15.0442 6.61766L10.1912 6.61763ZM4.40942 4.63237L3.53931 3.84137C3.34987 3.66914 3.34987 3.38979 3.53931 3.21745C3.72887 3.04523 4.03617 3.04523 4.22562 3.21745L5.09573 4.00845L5.96583 3.21745C6.15527 3.04523 6.46256 3.04523 6.65214 3.21745C6.84158 3.38978 6.84158 3.66913 6.65214 3.84137L5.78203 4.63237L6.65214 5.42337C6.84158 5.59559 6.84158 5.87495 6.65214 6.04729C6.46258 6.21951 6.15528 6.21951 5.96583 6.04729L5.09573 5.25628L4.22562 6.04729C4.03618 6.21951 3.72889 6.21951 3.53931 6.04729C3.34987 5.87496 3.34987 5.5956 3.53931 5.42337L4.40942 4.63237ZM10.0491 10.0556L10.9192 10.8465L13.0024 8.95261C13.192 8.78038 13.4993 8.78038 13.6887 8.95261C13.8783 9.12493 13.8783 9.40429 13.6887 9.57652L11.2623 11.7824C11.0728 11.9547 10.7656 11.9547 10.576 11.7824L9.3628 10.6795C9.17324 10.5072 9.17324 10.2278 9.3628 10.0556C9.55236 9.88328 9.85954 9.88328 10.0491 10.0556L10.0491 10.0556Z" fill="black" fill-opacity="0.47"/>
</svg>
