<svg width="8" height="9" viewBox="0 0 8 9" fill="none" xmlns="http://www.w3.org/2000/svg">
<path d="M4.99995 6.41797H2.96495C2.94019 6.3303 2.90405 6.24625 2.85745 6.16797L5.49995 3.52547C5.65044 3.61782 5.82339 3.66711 5.99995 3.66797C6.18712 3.66858 6.3707 3.61664 6.52982 3.51807C6.68893 3.41951 6.81719 3.27826 6.9 3.1104C6.98281 2.94255 7.01685 2.75482 6.99824 2.56858C6.97964 2.38233 6.90914 2.20505 6.79476 2.05689C6.68038 1.90873 6.52672 1.79565 6.35125 1.7305C6.17578 1.66536 5.98555 1.65076 5.8022 1.68838C5.61885 1.726 5.44973 1.81433 5.3141 1.94331C5.17846 2.07229 5.08174 2.23674 5.03495 2.41797H2.96495C2.9041 2.18231 2.75939 1.97692 2.55795 1.84032C2.3565 1.70372 2.11215 1.64527 1.8707 1.67594C1.62925 1.70661 1.40727 1.82429 1.24637 2.00691C1.08547 2.18954 0.996704 2.42458 0.996704 2.66797C0.996704 2.91136 1.08547 3.1464 1.24637 3.32903C1.40727 3.51166 1.62925 3.62933 1.8707 3.66C2.11215 3.69067 2.3565 3.63222 2.55795 3.49562C2.75939 3.35902 2.9041 3.15364 2.96495 2.91797H5.03495C5.05971 3.00564 5.09585 3.08969 5.14245 3.16797L2.49995 5.81047C2.34946 5.71812 2.17651 5.66883 1.99995 5.66797C1.81278 5.66736 1.6292 5.7193 1.47008 5.81787C1.31097 5.91644 1.18271 6.05768 1.0999 6.22554C1.01709 6.39339 0.983053 6.58112 1.00166 6.76737C1.02026 6.95361 1.09076 7.13089 1.20514 7.27905C1.31952 7.42721 1.47318 7.54029 1.64865 7.60544C1.82412 7.67059 2.01435 7.68518 2.1977 7.64756C2.38105 7.60994 2.55017 7.52161 2.6858 7.39263C2.82144 7.26366 2.91816 7.0992 2.96495 6.91797H4.99995V7.66797H6.99995V5.66797H4.99995V6.41797ZM1.99995 3.16797C1.90106 3.16797 1.80439 3.13865 1.72216 3.08371C1.63994 3.02877 1.57585 2.95068 1.53801 2.85931C1.50017 2.76795 1.49026 2.66742 1.50956 2.57043C1.52885 2.47344 1.57647 2.38434 1.6464 2.31442C1.71632 2.24449 1.80541 2.19687 1.9024 2.17758C1.9994 2.15829 2.09993 2.16819 2.19129 2.20603C2.28265 2.24388 2.36074 2.30796 2.41568 2.39019C2.47063 2.47241 2.49995 2.56908 2.49995 2.66797C2.49995 2.80058 2.44727 2.92776 2.3535 3.02152C2.25973 3.11529 2.13256 3.16797 1.99995 3.16797ZM5.99995 2.16797C6.09884 2.16797 6.19551 2.1973 6.27774 2.25224C6.35996 2.30718 6.42405 2.38527 6.46189 2.47663C6.49973 2.56799 6.50964 2.66853 6.49034 2.76552C6.47105 2.86251 6.42343 2.9516 6.3535 3.02152C6.28358 3.09145 6.19449 3.13907 6.0975 3.15836C6.0005 3.17766 5.89997 3.16775 5.80861 3.12991C5.71725 3.09207 5.63916 3.02798 5.58422 2.94576C5.52927 2.86353 5.49995 2.76686 5.49995 2.66797C5.49995 2.53536 5.55263 2.40819 5.6464 2.31442C5.74016 2.22065 5.86734 2.16797 5.99995 2.16797ZM1.99995 7.16797C1.90106 7.16797 1.80439 7.13865 1.72216 7.08371C1.63994 7.02877 1.57585 6.95068 1.53801 6.85931C1.50017 6.76795 1.49026 6.66742 1.50956 6.57043C1.52885 6.47344 1.57647 6.38434 1.6464 6.31442C1.71632 6.24449 1.80541 6.19687 1.9024 6.17758C1.9994 6.15829 2.09993 6.16819 2.19129 6.20603C2.28265 6.24388 2.36074 6.30796 2.41568 6.39019C2.47063 6.47241 2.49995 6.56908 2.49995 6.66797C2.49995 6.80058 2.44727 6.92776 2.3535 7.02152C2.25973 7.11529 2.13256 7.16797 1.99995 7.16797ZM5.49995 6.16797H6.49995V7.16797H5.49995V6.16797Z" fill="#0D3C84"/>
</svg>
