<svg width="9" height="11" viewBox="0 0 9 11" fill="none" xmlns="http://www.w3.org/2000/svg">
<path d="M0.319954 4.6448C0.496738 4.6448 0.639909 4.50747 0.639909 4.33818V0.658185C0.639909 0.488767 0.496605 0.351562 0.319954 0.351562C0.14317 0.351562 0 0.488767 0 0.658185V4.33818C0 4.5076 0.14317 4.6448 0.319954 4.6448Z" fill="#00000078"/>
<path d="M7.53089 0.351562C7.35411 0.351562 7.21094 0.488896 7.21094 0.658185V4.33818C7.21094 4.5076 7.35424 4.64481 7.53089 4.64481C7.70768 4.64481 7.85085 4.50747 7.85085 4.33818V0.658185C7.85085 0.488767 7.70754 0.351562 7.53089 0.351562Z" fill="#00000078"/>
<path d="M3.92406 4.64494C4.61876 4.64494 5.18406 4.10319 5.18406 3.43744V1.55906C5.18406 0.893311 4.61876 0.351562 3.92406 0.351562C3.22937 0.351562 2.66406 0.893311 2.66406 1.55906V3.43744C2.66406 4.10319 3.22937 4.64494 3.92406 4.64494ZM3.30411 1.55919C3.30411 1.23152 3.58228 0.965071 3.92406 0.965071C4.26598 0.965071 4.54402 1.23165 4.54402 1.55919V3.43757C4.54402 3.76525 4.26585 4.0317 3.92406 4.0317C3.58214 4.0317 3.30411 3.76512 3.30411 3.43757V1.55919Z" fill="#00000078"/>
<path d="M8.47035 5.875C8.29356 5.875 8.15039 6.01233 8.15039 6.18162V9.86162C8.15039 10.031 8.2937 10.1682 8.47035 10.1682C8.64713 10.1682 8.7903 10.0309 8.7903 9.86162L8.79044 6.18162C8.79044 6.0122 8.64713 5.875 8.47035 5.875H8.47035Z" fill="#00000078"/>
<path d="M1.26 5.875C0.565303 5.875 0 6.41675 0 7.0825V8.96088C0 9.6265 0.565303 10.1682 1.26 10.1682C1.9547 10.1682 2.52 9.6265 2.52 8.96075V7.08237C2.52 6.41675 1.9547 5.875 1.26 5.875ZM1.87996 8.96075C1.87996 9.28842 1.60178 9.555 1.26 9.555C0.918079 9.555 0.639909 9.28842 0.639909 8.96075V7.08237C0.639909 6.75482 0.918079 6.48825 1.26 6.48825C1.60179 6.48825 1.87996 6.75483 1.87996 7.0825V8.96075Z" fill="#00000078"/>
<path d="M4.86547 5.875C4.17077 5.875 3.60547 6.41675 3.60547 7.0825V8.96088C3.60547 9.62663 4.17077 10.1684 4.86547 10.1684C5.56017 10.1684 6.12547 9.62663 6.12547 8.96088V7.0825C6.12547 6.41675 5.56017 5.875 4.86547 5.875ZM5.48542 8.96075C5.48542 9.28842 5.20725 9.55487 4.86547 9.55487C4.52355 9.55487 4.24551 9.28829 4.24551 8.96075V7.08237C4.24551 6.75469 4.52369 6.48825 4.86547 6.48825C5.20739 6.48825 5.48542 6.75483 5.48542 7.08237V8.96075Z" fill="#00000078"/>
</svg>
