<svg width="14" height="14" viewBox="0 0 14 14" fill="none" xmlns="http://www.w3.org/2000/svg">
<path d="M6.272 0.879999C5.408 0.869333 4.78933 1.05067 4.416 1.424C4.05333 1.79733 3.888 2.45333 3.92 3.392L3.952 4.576C3.97333 5.10933 3.90933 5.552 3.76 5.904C3.62133 6.256 3.40267 6.52267 3.104 6.704C2.816 6.88533 2.45333 6.98667 2.016 7.008H0.688V6.64C1.488 6.64 2.048 6.496 2.368 6.208C2.69867 5.90933 2.848 5.46667 2.816 4.88L2.752 3.52C2.72 2.688 2.816 2.02667 3.04 1.536C3.27467 1.04533 3.62667 0.687999 4.096 0.464C4.576 0.239999 5.15733 0.127999 5.84 0.127999H6.272V0.879999ZM5.84 13.872C5.15733 13.872 4.576 13.7653 4.096 13.552C3.62667 13.3387 3.27467 12.9813 3.04 12.48C2.816 11.9893 2.72 11.3333 2.752 10.512L2.816 9.136C2.848 8.54933 2.69867 8.112 2.368 7.824C2.048 7.536 1.488 7.392 0.688 7.392V7.008H2.016C2.45333 7.02933 2.816 7.13067 3.104 7.312C3.40267 7.49333 3.62133 7.76 3.76 8.112C3.90933 8.464 3.97333 8.90667 3.952 9.44L3.92 10.624C3.888 11.552 4.05333 12.208 4.416 12.592C4.78933 12.976 5.408 13.1627 6.272 13.152V13.872H5.84ZM7.8625 0.879999V0.127999H8.2945C8.97717 0.127999 9.55317 0.239999 10.0225 0.464C10.5025 0.687999 10.8545 1.04533 11.0785 1.536C11.3132 2.02667 11.4092 2.688 11.3665 3.52L11.3185 4.88C11.2865 5.46667 11.4305 5.90933 11.7505 6.208C12.0812 6.496 12.6465 6.64 13.4465 6.64V7.008H12.1025C11.6758 6.98667 11.3132 6.88533 11.0145 6.704C10.7158 6.52267 10.4972 6.256 10.3585 5.904C10.2198 5.552 10.1558 5.10933 10.1665 4.576L10.2145 3.392C10.2358 2.45333 10.0652 1.79733 9.7025 1.424C9.33983 1.05067 8.7265 0.869333 7.8625 0.879999ZM8.2945 13.872H7.8625V13.152C8.7265 13.1627 9.33983 12.976 9.7025 12.592C10.0652 12.208 10.2358 11.552 10.2145 10.624L10.1665 9.44C10.1558 8.90667 10.2198 8.464 10.3585 8.112C10.4972 7.76 10.7158 7.49333 11.0145 7.312C11.3132 7.13067 11.6758 7.02933 12.1025 7.008H13.4465V7.392C12.6465 7.392 12.0812 7.536 11.7505 7.824C11.4305 8.112 11.2865 8.54933 11.3185 9.136L11.3665 10.512C11.4092 11.3333 11.3132 11.9893 11.0785 12.48C10.8545 12.9813 10.5025 13.3387 10.0225 13.552C9.55317 13.7653 8.97717 13.872 8.2945 13.872Z" fill="black" fill-opacity="0.47"/>
</svg>
