<svg width="17" height="18" viewBox="0 0 17 18" fill="none" xmlns="http://www.w3.org/2000/svg">
<path d="M8.2456 13.2211C7.8832 13.2211 7.53453 13.0764 7.27462 12.8185L3.83004 9.37077C3.29428 8.83526 3.29428 7.96679 3.83004 7.43006C4.36678 6.89332 5.235 6.89332 5.77186 7.43006L8.03877 9.69612L13.9153 0.958351C14.3389 0.329528 15.1919 0.162706 15.8217 0.586488C16.4513 1.0082 16.6173 1.86217 16.1964 2.49185L9.38555 12.6131C9.15548 12.9544 8.78755 13.1738 8.37898 13.2133C8.33503 13.2171 8.29108 13.2209 8.24578 13.2209" fill="#723614"/>
<path d="M13.0697 10.3878V14.4487C13.0697 14.9557 12.6596 15.364 12.1535 15.364H3.00211C2.49705 15.364 2.08591 14.9557 2.08591 14.4487V5.29603C2.08591 4.79194 2.49705 4.3808 3.00211 4.3808H9.37394L10.595 2.55008H3.00217C1.48967 2.55008 0.256104 3.78365 0.256104 5.29603V14.4487C0.256104 15.963 1.48967 17.1946 3.00217 17.1946L12.1535 17.1945C13.6679 17.1945 14.8996 15.9629 14.8996 14.4485V7.64142L13.0697 10.3878Z" fill="#723614"/>
</svg>
