<svg width="51" height="51" viewBox="0 0 51 51" fill="none" xmlns="http://www.w3.org/2000/svg">
<path d="M29.1473 30.9718C29.1522 31.095 29.1075 31.2151 29.0232 31.3056C28.9393 31.3961 28.8226 31.4493 28.6994 31.4539H21.7503C21.4928 31.4451 21.2913 31.2293 21.2995 30.9718V30.0488H5.79843V31.5905C5.78847 31.9164 5.908 32.2328 6.13084 32.4705C6.35396 32.7084 6.6619 32.8481 6.98778 32.8595H44.0152C44.3405 32.8481 44.6482 32.7081 44.8704 32.4702C45.0927 32.2322 45.2117 31.916 45.2011 31.5905V30.0488H29.1478L29.1473 30.9718Z" fill="#0D3C84"/>
<path d="M41.4715 9.86923C41.4712 9.35781 41.2678 8.86774 40.9058 8.50658C40.5437 8.14543 40.0531 7.94279 39.5416 7.94336H10.9081C10.3969 7.94308 9.90656 8.14571 9.54511 8.50687C9.18339 8.86802 8.98047 9.35813 8.98047 9.86922V28.9476H41.4711L41.4715 9.86923ZM39.4736 26.6286H10.9763V10.7523H39.4736V26.6286Z" fill="#0D3C84"/>
</svg>
