<svg width="50" height="50" viewBox="0 0 50 50" fill="none" xmlns="http://www.w3.org/2000/svg">
<path d="M15.4028 20.2361H15.8333C15.7297 19.3093 15.7719 18.372 15.9583 17.4583C15.4286 17.5598 14.881 17.5116 14.3771 17.3192C13.8732 17.1268 13.4328 16.7978 13.1055 16.3691C12.7781 15.9404 12.5767 15.4289 12.5237 14.8921C12.4708 14.3554 12.5685 13.8144 12.8058 13.3301C13.0432 12.8457 13.4108 12.437 13.8674 12.1499C14.3241 11.8628 14.8517 11.7086 15.391 11.7046C15.9304 11.7006 16.4602 11.847 16.9211 12.1273C17.3819 12.4077 17.7555 12.8109 18 13.2917C18.6192 12.5775 19.3454 11.9637 20.1528 11.4722C19.614 10.6491 18.8706 9.98 17.9956 9.53048C17.1205 9.08095 16.1437 8.86639 15.1607 8.90781C14.1778 8.94923 13.2225 9.24521 12.3884 9.76677C11.5542 10.2883 10.8698 11.0176 10.4022 11.8831C9.93452 12.7487 9.69969 13.7208 9.72065 14.7044C9.74161 15.6879 10.0177 16.6492 10.5217 17.494C11.0258 18.3389 11.7407 19.0383 12.5963 19.5238C13.4519 20.0094 14.419 20.2644 15.4028 20.2639V20.2361Z" fill="#0D3C84"/>
<path d="M18.0556 25.1945C17.2683 24.3024 16.6642 23.2642 16.2778 22.1389H15.4028C13.7539 22.0793 12.1103 22.3592 10.574 22.9613C9.03774 23.5634 7.64161 24.4748 6.47225 25.6389L6.13892 26.0278V35.75H8.91669V27.0972C10.7371 25.5934 13.0426 24.8035 15.4028 24.875C16.2966 24.8756 17.1872 24.9828 18.0556 25.1945Z" fill="#0D3C84"/>
<path d="M43.5417 25.5833C42.388 24.4302 41.0101 23.5259 39.4932 22.9263C37.9763 22.3267 36.3525 22.0445 34.7222 22.0972C34.2778 22.0972 33.8889 22.0972 33.4722 22.1806C33.0651 23.3384 32.4272 24.4015 31.5972 25.3056C32.6127 25.0123 33.6653 24.8673 34.7222 24.875C37.0658 24.7983 39.3569 25.5785 41.1667 27.0694V35.7778H43.9445V25.9722L43.5417 25.5833Z" fill="#0D3C84"/>
<path d="M24.8056 25.4167C26.0335 25.4167 27.2338 25.0526 28.2547 24.3704C29.2757 23.6882 30.0714 22.7186 30.5413 21.5842C31.0112 20.4497 31.1342 19.2014 30.8946 17.9972C30.6551 16.7929 30.0638 15.6866 29.1955 14.8184C28.3273 13.9501 27.221 13.3588 26.0167 13.1193C24.8124 12.8797 23.5642 13.0027 22.4297 13.4726C21.2953 13.9425 20.3257 14.7382 19.6435 15.7592C18.9613 16.7801 18.5972 17.9804 18.5972 19.2083C18.5972 20.8549 19.2513 22.434 20.4156 23.5983C21.5799 24.7626 23.159 25.4167 24.8056 25.4167ZM24.8056 15.7917C25.4841 15.7917 26.1473 15.9929 26.7115 16.3698C27.2756 16.7468 27.7153 17.2826 27.975 17.9094C28.2346 18.5363 28.3026 19.226 28.1702 19.8915C28.0378 20.557 27.7111 21.1682 27.2313 21.648C26.7516 22.1278 26.1403 22.4545 25.4748 22.5869C24.8094 22.7192 24.1196 22.6513 23.4927 22.3916C22.8659 22.132 22.3301 21.6923 21.9532 21.1281C21.5762 20.564 21.375 19.9007 21.375 19.2222C21.375 18.3124 21.7364 17.4398 22.3798 16.7965C23.0231 16.1531 23.8957 15.7917 24.8056 15.7917Z" fill="#0D3C84"/>
<path d="M25.1389 27.4028C23.3234 27.3388 21.5138 27.6429 19.8191 28.2969C18.1243 28.951 16.5795 29.9413 15.2778 31.2083L14.9305 31.5972V41.7778C14.9359 42.0653 14.9982 42.349 15.1137 42.6124C15.2292 42.8758 15.3956 43.1138 15.6035 43.3126C15.8113 43.5114 16.0564 43.6671 16.3247 43.7708C16.593 43.8745 16.8791 43.924 17.1667 43.9167H33.0972C33.3847 43.924 33.6709 43.8745 33.9392 43.7708C34.2074 43.6671 34.4526 43.5114 34.6604 43.3126C34.8682 43.1138 35.0347 42.8758 35.1502 42.6124C35.2657 42.349 35.3279 42.0653 35.3333 41.7778V31.5694L34.9861 31.1806C33.6889 29.9129 32.1462 28.9239 30.4528 28.2743C28.7594 27.6246 26.9511 27.3281 25.1389 27.4028ZM32.5417 41.125H17.6805V32.7083C19.7797 30.9925 22.429 30.0945 25.1389 30.1806C27.8278 30.0902 30.4581 30.9785 32.5417 32.6806V41.125Z" fill="#0D3C84"/>
<path d="M36.625 16.6667C36.2454 17.0277 35.7714 17.2741 35.2578 17.3773C34.7442 17.4805 34.2118 17.4364 33.7222 17.25C33.8596 17.8797 33.9294 18.5222 33.9306 19.1667C33.9468 19.4813 33.9468 19.7965 33.9306 20.1111C34.1921 20.1578 34.4567 20.1856 34.7222 20.1944C35.6185 20.1914 36.5012 19.9758 37.298 19.5653C38.0947 19.1549 38.7828 18.5613 39.3056 17.8333C38.3613 17.5733 37.4588 17.1804 36.625 16.6667Z" fill="#0D3C84"/>
<path d="M31.875 9.625C31.0377 10.1102 30.3356 10.7979 29.8333 11.625C30.6349 12.1581 31.3474 12.8143 31.9444 13.5694C32.1189 13.1238 32.4003 12.7279 32.7639 12.4167C32.3365 11.5331 32.0372 10.593 31.875 9.625Z" fill="#0D3C84"/>
<path d="M42.125 14.8194C45.9603 14.8194 49.0694 11.7103 49.0694 7.87499C49.0694 4.03968 45.9603 0.930542 42.125 0.930542C38.2897 0.930542 35.1805 4.03968 35.1805 7.87499C35.1805 11.7103 38.2897 14.8194 42.125 14.8194Z" fill="#0D3C84"/>
</svg>
