<svg width="22" height="21" viewBox="0 0 22 21" fill="none" xmlns="http://www.w3.org/2000/svg">
<path fill-rule="evenodd" clip-rule="evenodd" d="M11.3096 2.30366C11.1774 2.05497 10.8227 2.05497 10.6904 2.30367L2.15103 18.3636C2.02605 18.5987 2.19549 18.8829 2.46061 18.8829H19.5393C19.8046 18.8829 19.9739 18.5987 19.8489 18.3636L11.3096 2.30366ZM8.83291 1.3057C9.7586 -0.435231 12.2414 -0.435234 13.1671 1.3057L21.7065 17.3657C22.5814 19.011 21.3953 21 19.5393 21H2.46061C0.604648 21 -0.581342 19.011 0.293521 17.3657L8.83291 1.3057ZM12.4041 15.3543C12.4041 16.1338 11.7755 16.7657 11 16.7657C10.2245 16.7657 9.59589 16.1338 9.59589 15.3543C9.59589 14.5748 10.2245 13.9429 11 13.9429C11.7755 13.9429 12.4041 14.5748 12.4041 15.3543ZM12.0531 7.94431C12.0531 7.35968 11.5816 6.88574 11 6.88574C10.4184 6.88574 9.94692 7.35968 9.94692 7.94431V11.4729C9.94692 12.0575 10.4184 12.5314 11 12.5314C11.5816 12.5314 12.0531 12.0575 12.0531 11.4729V7.94431Z" fill="#FF5711"/>
</svg>
