<svg width="198" height="139" viewBox="0 0 198 139" fill="none" xmlns="http://www.w3.org/2000/svg">
<rect x="0.5" y="0.5" width="197" height="137.486" rx="5.5" fill="#161A23" stroke="#353E52"/>
<mask id="path-2-inside-1_951_9164" fill="white">
<path d="M0 5.99999C0 2.68629 2.68629 0 6 0H192C195.314 0 198 2.68629 198 6V22.8902H0V5.99999Z"/>
</mask>
<path d="M0 5.99999C0 2.68629 2.68629 0 6 0H192C195.314 0 198 2.68629 198 6V22.8902H0V5.99999Z" fill="#F1F1F1"/>
<path d="M-1 6C-1 2.13401 2.13401 -1 6 -1H192C195.866 -1 199 2.13401 199 6H197C197 3.23858 194.761 1 192 1H6C3.23858 1 1 3.23858 1 6H-1ZM199 23.8902H-1L1 21.8902H197L199 23.8902ZM-1 23.8902V6C-1 2.13401 2.13401 -1 6 -1V1C3.23858 1 1 3.23858 1 6V21.8902L-1 23.8902ZM192 -1C195.866 -1 199 2.13401 199 6V23.8902L197 21.8902V6C197 3.23858 194.761 1 192 1V-1Z" fill="#F1F0F0" mask="url(#path-2-inside-1_951_9164)"/>
<circle cx="16.5954" cy="12.0175" r="5.15029" fill="#8A8A8A"/>
<circle cx="155.081" cy="12.0175" r="2.86127" fill="#8A8A8A"/>
<circle cx="164.237" cy="12.0175" r="2.86127" fill="#8A8A8A"/>
<circle cx="173.393" cy="12.0175" r="2.86127" fill="#8A8A8A"/>
<rect x="8.01147" y="29.7578" width="36.6243" height="33.1908" rx="3" fill="#393D45"/>
<rect x="8.01147" y="75.5391" width="36.6243" height="33.1908" rx="3" fill="#393D45"/>
<rect x="56.0808" y="29.7578" width="36.6243" height="33.1908" rx="3" fill="#393D45"/>
<rect x="56.0808" y="75.5391" width="36.6243" height="33.1908" rx="3" fill="#393D45"/>
<rect x="104.15" y="29.7578" width="36.6243" height="33.1908" rx="3" fill="#393D45"/>
<rect x="104.15" y="75.5391" width="36.6243" height="33.1908" rx="3" fill="#393D45"/>
<rect x="152.22" y="29.7578" width="36.6243" height="33.1908" rx="3" fill="#393D45"/>
<rect x="152.22" y="75.5391" width="36.6243" height="33.1908" rx="3" fill="#393D45"/>
</svg>
