<svg width="10" height="10" viewBox="0 0 10 10" fill="none" xmlns="http://www.w3.org/2000/svg">
<path d="M7.97786 6.94596V2.95833C7.97786 2.09382 6.5172 1.36328 4.78776 1.36328C3.05833 1.36328 1.59766 2.09382 1.59766 2.95833V6.94596C1.59766 7.81048 3.05833 8.54102 4.78776 8.54102C6.5172 8.54102 7.97786 7.81048 7.97786 6.94596ZM4.78776 2.16081C6.25959 2.16081 7.15282 2.76174 7.18034 2.95594C7.15282 3.15492 6.25959 3.75586 4.78776 3.75586C3.31593 3.75586 2.4227 3.15492 2.39518 2.96073C2.4227 2.76174 3.31593 2.16081 4.78776 2.16081ZM2.39518 3.99791C2.98495 4.33566 3.84548 4.55339 4.78776 4.55339C5.73004 4.55339 6.59057 4.33566 7.18034 3.99791V4.94976C7.15282 5.14874 6.25959 5.74967 4.78776 5.74967C3.31593 5.74967 2.4227 5.14874 2.39518 4.95215V3.99791ZM2.39518 6.94596V5.99172C2.98495 6.32948 3.84548 6.5472 4.78776 6.5472C5.73004 6.5472 6.59057 6.32948 7.18034 5.99172V6.94357C7.15282 7.14255 6.25959 7.74349 4.78776 7.74349C3.31593 7.74349 2.4227 7.14255 2.39518 6.94596Z" fill="#0D3C84"/>
</svg>
