<svg width="19" height="18" viewBox="0 0 19 18" fill="none" xmlns="http://www.w3.org/2000/svg">
<path d="M15.7186 14.6474C15.0856 14.0164 14.4526 13.3853 13.8197 12.7543C13.7298 12.6644 13.6399 12.5746 13.5501 12.4847C13.6067 12.6234 13.6653 12.7602 13.722 12.8989V10.7381V10.4294C13.722 10.1227 13.4524 9.82967 13.1359 9.84336C12.8174 9.85703 12.5498 10.1012 12.5498 10.4294V12.809V12.9008C12.5557 13.0767 12.6299 13.2232 12.7491 13.3443C12.8487 13.444 12.9484 13.5436 13.0499 13.6432C13.4114 14.0027 13.7709 14.3622 14.1323 14.7217C14.3843 14.9737 14.6383 15.2257 14.8903 15.4777C15.1072 15.6946 15.5057 15.7122 15.7187 15.4777C15.9336 15.2433 15.9492 14.8799 15.7187 14.6474L15.7186 14.6474Z" fill="#F1A81A"/>
<path d="M17.0643 12.9048C17.0643 13.1041 17.0506 13.3034 17.0252 13.5007C17.033 13.4479 17.0389 13.3972 17.0467 13.3444C16.992 13.7449 16.8865 14.1376 16.7282 14.5107C16.7478 14.4638 16.7673 14.417 16.7868 14.3701C16.6989 14.5752 16.5973 14.7745 16.4801 14.9659C16.4215 15.0597 16.3609 15.1535 16.2945 15.2434C16.2789 15.2649 16.2652 15.2844 16.2496 15.3059C16.2418 15.3157 16.234 15.3254 16.2261 15.3371C16.1929 15.3821 16.2808 15.259 16.2789 15.2688C16.2711 15.3098 16.1929 15.3762 16.1656 15.4075C16.0249 15.5735 15.8725 15.7279 15.7104 15.8725C15.6694 15.9096 15.6264 15.9447 15.5834 15.9799C15.5639 15.9955 15.5443 16.0112 15.5228 16.0288C15.4564 16.0835 15.644 15.9389 15.5502 16.0073C15.4603 16.0737 15.3704 16.1382 15.2767 16.1968C15.0637 16.3335 14.8371 16.4527 14.6046 16.5523C14.6515 16.5328 14.6984 16.5133 14.7453 16.4937C14.3721 16.65 13.9814 16.7575 13.579 16.8122C13.6317 16.8044 13.6825 16.7985 13.7353 16.7907C13.3328 16.8434 12.9245 16.8415 12.522 16.7887C12.5748 16.7966 12.6256 16.8024 12.6783 16.8102C12.2915 16.7555 11.9125 16.6539 11.553 16.5035L11.6937 16.5621C11.428 16.4488 11.172 16.314 10.9317 16.1519C10.877 16.1167 10.8243 16.0796 10.7715 16.0405C10.7344 16.0131 10.627 15.9213 10.7793 16.0483C10.75 16.0249 10.7207 16.0034 10.6934 15.978C10.5859 15.8901 10.4824 15.7963 10.3847 15.7006C10.287 15.6029 10.1913 15.5013 10.1034 15.3958C10.0799 15.3684 10.0565 15.3391 10.033 15.3098C9.93927 15.1926 10.0995 15.3997 10.0389 15.3196C9.99983 15.2668 9.96272 15.216 9.92559 15.1613C9.75172 14.9074 9.60519 14.6378 9.48601 14.3545L9.54462 14.4951C9.39223 14.1259 9.28673 13.741 9.23398 13.3464C9.2418 13.3991 9.24766 13.4499 9.25547 13.5027C9.20468 13.1061 9.20468 12.7056 9.25547 12.309C9.24766 12.3617 9.2418 12.4125 9.23398 12.4653C9.28868 12.0648 9.39419 11.6721 9.55243 11.299L9.49382 11.4396C9.58174 11.2345 9.68333 11.0352 9.80055 10.8437C9.85916 10.75 9.91972 10.6562 9.98615 10.5663C10.0018 10.5448 10.0155 10.5253 10.0311 10.5038C10.0389 10.494 10.0467 10.4843 10.0545 10.4725C10.0877 10.4276 9.99982 10.5507 10.0018 10.5409C10.0096 10.4999 10.0877 10.4335 10.1151 10.4022C10.2558 10.2362 10.4081 10.0818 10.5703 9.93723C10.6113 9.90011 10.6543 9.86494 10.6973 9.82978C10.7168 9.81415 10.7364 9.79852 10.7578 9.78093C10.8243 9.72623 10.6367 9.8708 10.7305 9.80242C10.8204 9.736 10.9102 9.67153 11.004 9.61292C11.2169 9.47616 11.4436 9.35698 11.676 9.25735C11.6292 9.27689 11.5823 9.29642 11.5354 9.31596C11.9085 9.15966 12.2993 9.05221 12.7017 8.99751C12.649 9.00532 12.5982 9.01118 12.5454 9.019C12.944 8.9682 13.3464 8.9682 13.745 9.019C13.6922 9.01118 13.6414 9.00532 13.5887 8.99751C13.9872 9.05221 14.376 9.15771 14.7472 9.31401L14.6065 9.2554C14.8898 9.37652 15.1594 9.525 15.4134 9.70084C15.4701 9.73992 15.5228 9.78094 15.5775 9.82001C15.4173 9.7067 15.5365 9.78876 15.5717 9.81806C15.601 9.84151 15.6303 9.8669 15.6596 9.8923C15.7612 9.98021 15.8589 10.0701 15.9526 10.1658C16.0464 10.2615 16.1363 10.3612 16.2203 10.4647C16.2476 10.4999 16.3336 10.6171 16.2183 10.4589C16.2379 10.4862 16.2594 10.5116 16.2789 10.539C16.3219 10.5976 16.3629 10.6562 16.402 10.7168C16.5563 10.9512 16.6872 11.1973 16.7966 11.4552L16.738 11.3146C16.8904 11.6799 16.9939 12.0609 17.0467 12.4516C17.0389 12.3989 17.033 12.3481 17.0252 12.2953C17.0506 12.4985 17.0643 12.7017 17.0643 12.9048C17.0662 13.2116 17.3339 13.5046 17.6504 13.4909C17.9669 13.4773 18.2384 13.2331 18.2365 12.9048C18.2325 11.8323 17.8946 10.748 17.2459 9.89032C16.8982 9.42926 16.5016 9.04048 16.0288 8.70638C15.558 8.37426 15.0168 8.12808 14.462 7.97961C13.4422 7.70805 12.3149 7.75298 11.3302 8.13981C10.8575 8.32541 10.4276 8.56375 10.0271 8.87244C9.63248 9.17721 9.29842 9.52888 9.00341 9.92938C8.42707 10.7089 8.11059 11.6642 8.05196 12.6274C7.98358 13.7761 8.32938 14.9718 9.01902 15.8959C9.66177 16.7555 10.5253 17.4002 11.5451 17.744C12.5161 18.0703 13.6102 18.084 14.5928 17.789C15.4993 17.5174 16.3414 16.988 16.9626 16.2729C17.5898 15.5501 18.0333 14.6592 18.17 13.7077C18.2091 13.4401 18.2364 13.1724 18.2364 12.9028C18.2364 12.5961 17.9668 12.303 17.6503 12.3167C17.3319 12.3324 17.0662 12.5766 17.0642 12.9048L17.0643 12.9048Z" fill="#F1A81A"/>
<path d="M2.69887 1.0475H2.13818C1.86662 1.0475 1.5931 1.04555 1.33131 1.12956C0.545949 1.37963 0.00672709 2.1064 0.000868306 2.93281C-0.00108538 3.31574 0.000868306 3.7006 0.000868306 4.08353V6.61938V9.64759V12.287V13.6272C0.000868306 14.2739 0.307593 14.8522 0.835102 15.2214C1.18676 15.4676 1.60289 15.5399 2.02097 15.5399H4.07036H7.06338H9.02293H9.12061C9.42734 15.5399 9.72039 15.2703 9.70671 14.9538C9.69303 14.6353 9.44882 14.3677 9.12061 14.3677H8.38798H6.62577H4.51582H2.71453C2.43907 14.3677 2.16163 14.3697 1.88616 14.3677C1.82951 14.3677 1.7748 14.3638 1.7201 14.3579C1.77285 14.3657 1.82364 14.3716 1.87639 14.3794C1.76308 14.3638 1.65367 14.3345 1.54622 14.2935C1.59311 14.313 1.64 14.3325 1.68689 14.3521C1.61265 14.3208 1.54036 14.2837 1.47198 14.2388C1.46612 14.2348 1.41923 14.2055 1.41923 14.2016C1.41923 14.1997 1.53841 14.2993 1.47784 14.2466C1.44658 14.2192 1.41337 14.1919 1.38407 14.1606C1.35671 14.1333 1.33132 14.104 1.30592 14.0766C1.27271 14.0395 1.26099 13.9848 1.34304 14.1254C1.33523 14.1118 1.3235 14.0981 1.31374 14.0844C1.26685 14.0121 1.22582 13.9379 1.19261 13.8578C1.21215 13.9047 1.23168 13.9516 1.25122 13.9985C1.20824 13.891 1.18088 13.7836 1.16526 13.6683C1.17307 13.721 1.17893 13.7718 1.18675 13.8246C1.17112 13.6859 1.17698 13.5452 1.17698 13.4045V12.6348V10.054V6.90271V4.20274C1.17698 3.78076 1.17503 3.36072 1.17698 2.93871C1.17698 2.88205 1.18089 2.82344 1.18675 2.76678C1.17893 2.81953 1.17307 2.87033 1.16526 2.92308C1.18089 2.80976 1.21019 2.70036 1.25122 2.59291C1.23168 2.63979 1.21214 2.68668 1.19261 2.73357C1.22387 2.65933 1.26099 2.58704 1.30592 2.51867C1.30983 2.51281 1.33914 2.46592 1.34304 2.46592C1.345 2.46592 1.24536 2.58509 1.29811 2.52453C1.32546 2.49327 1.35281 2.46005 1.38407 2.43075C1.41142 2.4034 1.44072 2.378 1.46808 2.3526C1.5052 2.31939 1.5599 2.30767 1.41924 2.38972C1.43291 2.38191 1.44659 2.37019 1.46026 2.36042C1.53255 2.31353 1.60679 2.2725 1.68689 2.23929C1.64 2.25883 1.59311 2.27837 1.54623 2.2979C1.65368 2.25492 1.76113 2.22757 1.8764 2.21194C1.82365 2.21976 1.77285 2.22562 1.7201 2.23343C1.89007 2.21389 2.06395 2.22366 2.23393 2.22366H2.70084C3.00757 2.22366 3.30062 1.95406 3.28693 1.63757C3.26935 1.31522 3.0271 1.04755 2.69888 1.04755L2.69887 1.0475Z" fill="#F1A81A"/>
<path d="M13.5258 2.21964H14.0396C14.2252 2.21964 14.4167 2.20791 14.6003 2.2294C14.5476 2.22159 14.4968 2.21573 14.444 2.20791C14.5573 2.22354 14.6667 2.25285 14.7742 2.29387C14.7273 2.27434 14.6804 2.2548 14.6335 2.23526C14.7078 2.26652 14.78 2.30364 14.8484 2.34858C14.8543 2.35249 14.9012 2.38179 14.9012 2.3857C14.9012 2.38765 14.782 2.28802 14.8426 2.34077C14.8738 2.36812 14.907 2.39547 14.9363 2.42673C14.9637 2.45408 14.9891 2.48338 15.0145 2.51074C15.0477 2.54786 15.0594 2.60256 14.9774 2.46189C14.9852 2.47557 14.9969 2.48924 15.0067 2.50292C15.0536 2.5752 15.0946 2.64945 15.1278 2.72955L15.0692 2.58888C15.1122 2.69633 15.1395 2.80378 15.1551 2.91905C15.1473 2.8663 15.1415 2.81551 15.1337 2.76276C15.161 3.00501 15.1434 3.25508 15.1434 3.49929V4.98602V8.42252V9.21182C15.1434 9.51854 15.413 9.81159 15.7295 9.79791C16.048 9.78423 16.3156 9.54002 16.3156 9.21182V8.17442V5.92379V3.74936V3.09292C16.3156 2.86044 16.3078 2.62601 16.2414 2.40134C16.0284 1.68435 15.413 1.16663 14.6765 1.06696C14.3346 1.02007 13.979 1.04547 13.6352 1.04547H13.5238C13.2171 1.04547 12.924 1.31508 12.9377 1.63157C12.9533 1.95002 13.1976 2.21962 13.5258 2.21962L13.5258 2.21964Z" fill="#F1A81A"/>
<path d="M6.71351 2.21969H9.29626H9.66162C9.96834 2.21969 10.2614 1.95008 10.2477 1.63359C10.234 1.31514 9.98982 1.0475 9.66162 1.0475H7.07886H6.71351C6.40678 1.0475 6.11373 1.31711 6.12741 1.63359C6.14304 1.95009 6.3853 2.21969 6.71351 2.21969Z" fill="#F1A81A"/>
<path d="M4.12988 0.586553V2.99934V3.34514C4.12988 3.65186 4.39949 3.94491 4.71598 3.93123C5.03443 3.91755 5.30207 3.67334 5.30207 3.34514V0.932354V0.586553C5.30207 0.279828 5.03246 -0.0132213 4.71598 0.000461052C4.39948 0.0141367 4.12988 0.258347 4.12988 0.586553Z" fill="#F1A81A"/>
<path d="M0.604376 5.76758H1.00878H2.1048H3.73222H5.71909H7.8857H10.0816H12.1291H13.8522H15.0967C15.294 5.76758 15.4894 5.76954 15.6867 5.76758H15.7121C16.0188 5.76758 16.3119 5.49797 16.2982 5.18149C16.2845 4.86304 16.0403 4.5954 15.7121 4.5954H15.3077H14.2117H12.5843H10.5974H8.43078H6.23484H4.18741H2.46429H1.2198C1.02248 4.5954 0.827115 4.59344 0.629774 4.5954H0.604376C0.297651 4.5954 0.00460091 4.865 0.0182833 5.18149C0.0339127 5.49994 0.27617 5.76758 0.604376 5.76758Z" fill="#F1A81A"/>
<path d="M3.84974 3.9609H5.3443H5.56311C5.86983 3.9609 6.16289 3.69129 6.1492 3.3748C6.13553 3.05635 5.89132 2.78871 5.56311 2.78871H4.06855H3.84974C3.54301 2.78871 3.24996 3.05832 3.26364 3.3748C3.27732 3.6913 3.52153 3.9609 3.84974 3.9609Z" fill="#F1A81A"/>
<path d="M10.98 0.615805V3.02859V3.37439C10.98 3.68111 11.2496 3.97416 11.5661 3.96048C11.8845 3.9468 12.1522 3.70259 12.1522 3.37439V0.961605V0.615805C12.1522 0.309079 11.8826 0.0160298 11.5661 0.0297122C11.2476 0.0433878 10.98 0.285644 10.98 0.615805Z" fill="#F1A81A"/>
<path d="M10.6991 3.9609H12.1937H12.4125C12.7192 3.9609 13.0122 3.69129 12.9986 3.3748C12.9849 3.05635 12.7407 2.78871 12.4125 2.78871H10.9179H10.6991C10.3924 2.78871 10.0993 3.05832 10.113 3.3748C10.1286 3.6913 10.3709 3.9609 10.6991 3.9609Z" fill="#F1A81A"/>
</svg>
