<svg width="12" height="13" viewBox="0 0 12 13" fill="none" xmlns="http://www.w3.org/2000/svg">
<path d="M10.0568 10.1209C9.65178 9.71715 9.24677 9.3134 8.84179 8.90965C8.78429 8.85215 8.72679 8.79465 8.66929 8.73715C8.70554 8.8259 8.74304 8.9134 8.77929 9.00216V7.61966V7.42216C8.77929 7.22592 8.60679 7.03842 8.40429 7.04717C8.20054 7.05592 8.0293 7.21217 8.0293 7.42216V8.94466V9.00341C8.03305 9.11591 8.08055 9.20966 8.1568 9.28715C8.22055 9.35091 8.2843 9.41465 8.3493 9.47841C8.58054 9.70839 8.81055 9.93841 9.0418 10.1684C9.20305 10.3297 9.36555 10.4909 9.52681 10.6522C9.66556 10.7909 9.92057 10.8022 10.0568 10.6522C10.1943 10.5022 10.2043 10.2697 10.0568 10.1209L10.0568 10.1209Z" fill="#00000078"/>
<path d="M10.9182 9.004C10.9182 9.1315 10.9094 9.25899 10.8932 9.38526C10.8982 9.35151 10.9019 9.31901 10.9069 9.28526C10.8719 9.54151 10.8044 9.79275 10.7032 10.0315C10.7157 10.0015 10.7282 9.9715 10.7407 9.9415C10.6844 10.0727 10.6194 10.2002 10.5444 10.3228C10.5069 10.3828 10.4682 10.4428 10.4257 10.5003C10.4157 10.514 10.4069 10.5265 10.3969 10.5403C10.3919 10.5465 10.3869 10.5528 10.3819 10.5603C10.3607 10.589 10.4169 10.5103 10.4157 10.5165C10.4107 10.5428 10.3607 10.5853 10.3432 10.6053C10.2532 10.7115 10.1557 10.8103 10.0519 10.9028C10.0257 10.9265 9.99819 10.949 9.97069 10.9715C9.95819 10.9815 9.94569 10.9915 9.93194 11.0028C9.88944 11.0378 10.0094 10.9453 9.94944 10.989C9.89194 11.0315 9.83444 11.0728 9.77444 11.1103C9.63819 11.1978 9.49319 11.274 9.34445 11.3378C9.37445 11.3253 9.40445 11.3128 9.43445 11.3003C9.19571 11.4003 8.9457 11.469 8.68821 11.504C8.72197 11.499 8.75446 11.4953 8.78821 11.4903C8.53071 11.524 8.26947 11.5228 8.01196 11.489C8.04571 11.494 8.07821 11.4978 8.11196 11.5028C7.86447 11.4678 7.62195 11.4028 7.39196 11.3065L7.48196 11.344C7.31196 11.2715 7.1482 11.1853 6.99447 11.0815C6.95947 11.059 6.92572 11.0353 6.89196 11.0103C6.86821 10.9928 6.79946 10.934 6.89696 11.0153C6.87822 11.0003 6.85947 10.9865 6.84197 10.9703C6.77322 10.914 6.70697 10.854 6.64447 10.7928C6.58197 10.7303 6.52072 10.6653 6.46447 10.5978C6.44947 10.5803 6.43447 10.5615 6.41947 10.5428C6.35947 10.4678 6.46197 10.6003 6.42322 10.549C6.39821 10.5153 6.37447 10.4828 6.35071 10.4478C6.23946 10.2853 6.14571 10.1128 6.06946 9.93152L6.10696 10.0215C6.00946 9.78527 5.94196 9.53903 5.90821 9.28653C5.91321 9.32028 5.91696 9.35278 5.92196 9.38653C5.88946 9.13277 5.88946 8.87654 5.92196 8.62278C5.91696 8.65653 5.91321 8.68903 5.90821 8.72278C5.94321 8.46653 6.01071 8.21528 6.11196 7.97654L6.07446 8.06654C6.13071 7.93529 6.19571 7.8078 6.27071 7.68528C6.30821 7.62528 6.34696 7.56528 6.38946 7.50778C6.39946 7.49403 6.40821 7.48153 6.41821 7.46778C6.42321 7.46153 6.42821 7.45528 6.43321 7.44778C6.45446 7.41903 6.39821 7.49778 6.39946 7.49153C6.40446 7.46528 6.45446 7.42278 6.47196 7.40278C6.56196 7.29653 6.65946 7.19778 6.7632 7.10527C6.78945 7.08152 6.81695 7.05902 6.84445 7.03652C6.85695 7.02652 6.86945 7.01652 6.8832 7.00527C6.9257 6.97028 6.8057 7.06277 6.8657 7.01902C6.9232 6.97652 6.9807 6.93527 7.0407 6.89777C7.17695 6.81027 7.32196 6.73402 7.47069 6.67027C7.44069 6.68277 7.41069 6.69527 7.38069 6.70777C7.61943 6.60777 7.86945 6.53902 8.12693 6.50402C8.09318 6.50902 8.06068 6.51277 8.02693 6.51777C8.28192 6.48527 8.53943 6.48527 8.79443 6.51777C8.76068 6.51277 8.72818 6.50902 8.69443 6.50402C8.94942 6.53902 9.19818 6.60652 9.43569 6.70652L9.34569 6.66902C9.52694 6.74652 9.69944 6.84152 9.86194 6.95403C9.89819 6.97903 9.93194 7.00528 9.96694 7.03028C9.86444 6.95778 9.94069 7.01028 9.96319 7.02903C9.98194 7.04403 10.0007 7.06028 10.0194 7.07653C10.0844 7.13278 10.1469 7.19028 10.2069 7.25153C10.2669 7.31277 10.3244 7.37653 10.3782 7.44278C10.3957 7.46528 10.4507 7.54028 10.3769 7.43903C10.3894 7.45653 10.4032 7.47278 10.4157 7.49028C10.4432 7.52778 10.4694 7.56528 10.4944 7.60403C10.5932 7.75403 10.6769 7.91153 10.7469 8.07653L10.7094 7.98653C10.8069 8.22029 10.8732 8.46404 10.9069 8.71403C10.9019 8.68028 10.8982 8.64778 10.8932 8.61403C10.9094 8.74403 10.9182 8.87403 10.9182 9.00402C10.9194 9.20027 11.0907 9.38777 11.2932 9.37901C11.4957 9.37026 11.6694 9.21401 11.6682 9.00402C11.6657 8.31778 11.4494 7.62402 11.0344 7.07526C10.8119 6.78027 10.5582 6.53151 10.2557 6.31775C9.95442 6.10525 9.60818 5.94774 9.25318 5.85275C8.60068 5.679 7.87942 5.70775 7.24944 5.95525C6.94694 6.074 6.67193 6.22649 6.41568 6.424C6.16317 6.619 5.94944 6.844 5.76068 7.10026C5.39193 7.599 5.18944 8.21024 5.15193 8.82649C5.10818 9.56149 5.32943 10.3265 5.77067 10.9177C6.18192 11.4677 6.73442 11.8802 7.38692 12.1002C8.00818 12.309 8.70818 12.3177 9.33691 12.129C9.91691 11.9552 10.4557 11.6165 10.8532 11.159C11.2544 10.6965 11.5382 10.1265 11.6257 9.51771C11.6507 9.34646 11.6682 9.17522 11.6682 9.00272C11.6682 8.80647 11.4957 8.61897 11.2932 8.62772C11.0894 8.63772 10.9194 8.79397 10.9182 9.00398L10.9182 9.004Z" fill="#00000078"/>
<path d="M1.7268 1.42188H1.36805C1.1943 1.42188 1.0193 1.42063 0.851801 1.47438C0.34931 1.63438 0.00430413 2.09938 0.000555561 2.62814C-0.000694451 2.87314 0.000555561 3.11938 0.000555561 3.36439V4.98688V6.92439V8.61315V9.47066C0.000555561 9.88442 0.196805 10.2544 0.534316 10.4907C0.759317 10.6482 1.02556 10.6944 1.29306 10.6944H2.6043H4.5193H5.77306H5.83556C6.03181 10.6944 6.21931 10.5219 6.21055 10.3194C6.2018 10.1157 6.04555 9.94442 5.83556 9.94442H5.36681H4.23931H2.88932H1.73682C1.56057 9.94442 1.38306 9.94567 1.2068 9.94442C1.17056 9.94442 1.13555 9.94192 1.10056 9.93817C1.13431 9.94317 1.1668 9.94692 1.20056 9.95192C1.12805 9.94192 1.05806 9.92317 0.989306 9.89692C1.01931 9.90942 1.04931 9.92192 1.07931 9.93442C1.03181 9.91442 0.985555 9.89067 0.941806 9.86192C0.938056 9.85942 0.908055 9.84067 0.908055 9.83817C0.908055 9.83692 0.984304 9.90067 0.945554 9.86692C0.925555 9.84942 0.904304 9.83192 0.885554 9.81192C0.868054 9.79442 0.851804 9.77567 0.835554 9.75817C0.814304 9.73442 0.806805 9.69942 0.859306 9.78942C0.854306 9.78067 0.846805 9.77192 0.840556 9.76317C0.810556 9.71692 0.784306 9.66942 0.763056 9.61817C0.775556 9.64817 0.788057 9.67817 0.800556 9.70817C0.773056 9.63942 0.755554 9.57067 0.745557 9.49692C0.750557 9.53067 0.754307 9.56317 0.759307 9.59692C0.749307 9.50817 0.753057 9.41817 0.753057 9.32816V8.83566V7.18441V5.16816V3.44066C0.753057 3.17067 0.751807 2.90192 0.753057 2.63191C0.753057 2.59566 0.755557 2.55816 0.759307 2.52191C0.754307 2.55566 0.750557 2.58816 0.745557 2.62191C0.755557 2.54941 0.774306 2.47941 0.800556 2.41066C0.788055 2.44066 0.775554 2.47066 0.763056 2.50066C0.783056 2.45316 0.806807 2.40691 0.835557 2.36316C0.838057 2.35941 0.856807 2.32941 0.859308 2.32941C0.860558 2.32941 0.796807 2.40566 0.830558 2.36691C0.848058 2.34691 0.865557 2.32566 0.885557 2.30691C0.903057 2.28941 0.921806 2.27316 0.939308 2.25691C0.963059 2.23566 0.998057 2.22816 0.908057 2.28066C0.916807 2.27566 0.925557 2.26816 0.934306 2.26191C0.980555 2.23191 1.02806 2.20566 1.07931 2.18441C1.04931 2.19691 1.01931 2.20941 0.989308 2.22191C1.05806 2.19441 1.12681 2.17691 1.20056 2.16691C1.16681 2.17191 1.13431 2.17566 1.10056 2.18066C1.20931 2.16816 1.32056 2.17441 1.42931 2.17441H1.72806C1.9243 2.17441 2.1118 2.00191 2.10305 1.79941C2.0918 1.59317 1.9368 1.42191 1.7268 1.42191L1.7268 1.42188Z" fill="#00000078"/>
<path d="M8.6539 2.16971H8.98265C9.1014 2.16971 9.22391 2.16221 9.34139 2.17596C9.30764 2.17096 9.27514 2.16721 9.24139 2.16221C9.31389 2.17221 9.38389 2.19096 9.45264 2.21721C9.42264 2.20471 9.39264 2.19221 9.36264 2.17971C9.41014 2.19971 9.45639 2.22346 9.50014 2.25221C9.50389 2.25471 9.53389 2.27346 9.53389 2.27596C9.53389 2.27721 9.45764 2.21346 9.49639 2.24721C9.51639 2.26471 9.53764 2.28221 9.55639 2.30221C9.57389 2.31971 9.59015 2.33846 9.60639 2.35596C9.62764 2.37971 9.63514 2.41471 9.58264 2.32471C9.58764 2.33346 9.59514 2.34221 9.60139 2.35096C9.63139 2.39721 9.65764 2.44471 9.67889 2.49596L9.64139 2.40596C9.66889 2.47471 9.68639 2.54346 9.69639 2.61721C9.69139 2.58346 9.68764 2.55096 9.68264 2.51721C9.70014 2.67221 9.68889 2.83221 9.68889 2.98846V3.9397V6.13845V6.64345C9.68889 6.8397 9.86139 7.0272 10.0639 7.01845C10.2676 7.0097 10.4389 6.85345 10.4389 6.64345V5.9797V4.5397V3.14846V2.72846C10.4389 2.57971 10.4339 2.42972 10.3914 2.28597C10.2551 1.82722 9.86137 1.49598 9.39012 1.43221C9.17137 1.40221 8.94388 1.41846 8.72388 1.41846H8.65263C8.45638 1.41846 8.26888 1.59096 8.27764 1.79345C8.28764 1.9972 8.44389 2.1697 8.65389 2.1697L8.6539 2.16971Z" fill="#00000078"/>
<path d="M4.29521 2.17186H5.94772H6.18148C6.37773 2.17186 6.56522 1.99936 6.55647 1.79687C6.54772 1.59312 6.39147 1.42188 6.18148 1.42188H4.52897H4.29521C4.09896 1.42188 3.91146 1.59438 3.92022 1.79687C3.93022 1.99937 4.08522 2.17186 4.29521 2.17186Z" fill="#00000078"/>
<path d="M2.64062 1.12529V2.66904V2.89029C2.64062 3.08654 2.81313 3.27404 3.01562 3.26528C3.21937 3.25653 3.39061 3.10028 3.39061 2.89029V1.34654V1.12529C3.39061 0.92904 3.21811 0.741541 3.01562 0.750295C2.81312 0.759045 2.64062 0.915296 2.64062 1.12529Z" fill="#00000078"/>
<path d="M0.387008 4.43804H0.645751H1.34701H2.38827H3.65951H5.04575H6.45076H7.76075H8.86324H9.65949C9.78574 4.43804 9.91074 4.43929 10.037 4.43804H10.0532C10.2495 4.43804 10.437 4.26554 10.4282 4.06305C10.4195 3.8593 10.2632 3.68806 10.0532 3.68806H9.79451H9.09325H8.05199H6.78074H5.3945H3.9895H2.67951H1.57702H0.780767C0.654518 3.68806 0.529521 3.68681 0.403258 3.68806H0.387008C0.190759 3.68806 0.00325945 3.86056 0.0120137 4.06305C0.0220137 4.2668 0.177015 4.43804 0.387008 4.43804Z" fill="#00000078"/>
<path d="M2.46318 3.28124H3.41943H3.55943C3.75568 3.28124 3.94318 3.10874 3.93443 2.90624C3.92568 2.70249 3.76942 2.53125 3.55943 2.53125H2.60318H2.46318C2.26693 2.53125 2.07943 2.70375 2.08819 2.90624C2.09694 3.10875 2.25319 3.28124 2.46318 3.28124Z" fill="#00000078"/>
<path d="M7.02539 1.14091V2.68466V2.90591C7.02539 3.10216 7.19789 3.28966 7.40038 3.28091C7.60414 3.27216 7.77538 3.11591 7.77538 2.90591V1.36216V1.14091C7.77538 0.944665 7.60288 0.757166 7.40038 0.76592C7.19663 0.77467 7.02539 0.929671 7.02539 1.14091Z" fill="#00000078"/>
<path d="M6.84404 3.28124H7.80029H7.94029C8.13654 3.28124 8.32404 3.10874 8.31529 2.90624C8.30654 2.70249 8.15028 2.53125 7.94029 2.53125H6.98404H6.84404C6.64779 2.53125 6.46029 2.70375 6.46904 2.90624C6.47904 3.10875 6.63405 3.28124 6.84404 3.28124Z" fill="#00000078"/>
</svg>
