<svg width="15" height="14" viewBox="0 0 15 14" fill="none" xmlns="http://www.w3.org/2000/svg">
<path d="M13.2375 11.0606C13.2375 11.1538 13.2311 11.247 13.2192 11.3393C13.2229 11.3147 13.2256 11.2909 13.2293 11.2662C13.2037 11.4536 13.1543 11.6373 13.0803 11.8118C13.0895 11.7899 13.0986 11.768 13.1077 11.746C13.0666 11.842 13.0191 11.9352 12.9643 12.0248C12.9368 12.0686 12.9085 12.1125 12.8774 12.1545C12.8701 12.1646 12.8637 12.1737 12.8564 12.1838C12.8528 12.1884 12.8491 12.1929 12.8454 12.1984C12.8299 12.2194 12.871 12.1619 12.8701 12.1664C12.8665 12.1856 12.8299 12.2167 12.8171 12.2313C12.7513 12.309 12.68 12.3812 12.6042 12.4488C12.585 12.4662 12.5649 12.4826 12.5448 12.4991C12.5356 12.5064 12.5265 12.5137 12.5164 12.5219C12.4854 12.5475 12.5731 12.4799 12.5292 12.5119C12.4872 12.543 12.4451 12.5731 12.4013 12.6005C12.3017 12.6645 12.1956 12.7203 12.0869 12.7669C12.1088 12.7577 12.1308 12.7486 12.1527 12.7395C11.9781 12.8126 11.7953 12.8628 11.6071 12.8884C11.6318 12.8848 11.6555 12.882 11.6802 12.8784C11.4919 12.903 11.3009 12.9021 11.1127 12.8775C11.1373 12.8811 11.1611 12.8839 11.1858 12.8875C11.0048 12.8619 10.8275 12.8144 10.6593 12.744L10.7251 12.7714C10.6009 12.7184 10.4811 12.6554 10.3687 12.5795C10.3431 12.5631 10.3185 12.5457 10.2938 12.5274C10.2764 12.5146 10.2261 12.4717 10.2974 12.5311C10.2837 12.5201 10.27 12.5101 10.2572 12.4982C10.207 12.4571 10.1585 12.4132 10.1128 12.3684C10.0671 12.3227 10.0223 12.2752 9.98121 12.2258C9.97024 12.2131 9.95928 12.1993 9.94831 12.1856C9.90444 12.1308 9.97938 12.2277 9.95105 12.1902C9.93277 12.1655 9.91541 12.1418 9.89804 12.1162C9.8167 11.9974 9.74816 11.8713 9.6924 11.7387L9.71982 11.8045C9.64853 11.6318 9.59918 11.4518 9.57451 11.2672C9.57816 11.2918 9.5809 11.3156 9.58456 11.3403C9.5608 11.1547 9.5608 10.9674 9.58456 10.7819C9.5809 10.8065 9.57816 10.8303 9.57451 10.855C9.6001 10.6676 9.64945 10.4839 9.72348 10.3094L9.69606 10.3752C9.73719 10.2792 9.78471 10.186 9.83955 10.0964C9.86696 10.0526 9.8953 10.0087 9.92637 9.96666C9.93368 9.95661 9.94008 9.94747 9.94739 9.93742C9.95104 9.93285 9.9547 9.92828 9.95836 9.92279C9.97389 9.90177 9.93277 9.95935 9.93368 9.95478C9.93734 9.93559 9.97389 9.90451 9.98669 9.88989C10.0525 9.81221 10.1238 9.74001 10.1996 9.67238C10.2188 9.65501 10.2389 9.63856 10.259 9.62211C10.2682 9.6148 10.2773 9.60749 10.2874 9.59926C10.3184 9.57367 10.2307 9.6413 10.2746 9.60932C10.3166 9.57824 10.3587 9.54808 10.4025 9.52066C10.5021 9.45669 10.6082 9.40094 10.7169 9.35433C10.695 9.36347 10.673 9.37261 10.6511 9.38175C10.8257 9.30864 11.0085 9.25837 11.1967 9.23278C11.172 9.23644 11.1483 9.23918 11.1236 9.24283C11.31 9.21907 11.4983 9.21907 11.6847 9.24283C11.6601 9.23918 11.6363 9.23644 11.6116 9.23278C11.7981 9.25837 11.9799 9.30772 12.1536 9.38084L12.0878 9.35342C12.2203 9.41008 12.3464 9.47954 12.4652 9.5618C12.4917 9.58007 12.5164 9.59927 12.542 9.61754C12.4671 9.56454 12.5228 9.60292 12.5393 9.61663C12.553 9.6276 12.5667 9.63948 12.5804 9.65136C12.6279 9.69248 12.6736 9.73452 12.7175 9.7793C12.7614 9.82409 12.8034 9.8707 12.8427 9.91913C12.8555 9.93558 12.8957 9.99042 12.8418 9.91639C12.8509 9.92919 12.861 9.94107 12.8701 9.95386C12.8902 9.98128 12.9094 10.0087 12.9277 10.037C12.9999 10.1467 13.0611 10.2619 13.1123 10.3825L13.0849 10.3167C13.1562 10.4876 13.2046 10.6658 13.2293 10.8486C13.2256 10.8239 13.2229 10.8001 13.2192 10.7755C13.2311 10.8705 13.2375 10.9656 13.2375 11.0606C13.2384 11.2041 13.3636 11.3412 13.5117 11.3348C13.6597 11.3284 13.7868 11.2141 13.7859 11.0606C13.784 10.5589 13.6259 10.0516 13.3225 9.65043C13.1598 9.43475 12.9743 9.25288 12.7531 9.0966C12.5329 8.94123 12.2797 8.82607 12.0202 8.75662C11.5431 8.62958 11.0157 8.6506 10.5551 8.83156C10.334 8.91838 10.1329 9.02987 9.94554 9.17428C9.76092 9.31685 9.60465 9.48135 9.46664 9.66871C9.19703 10.0334 9.04898 10.4803 9.02156 10.9308C8.98957 11.4682 9.15133 12.0275 9.47395 12.4598C9.77463 12.8619 10.1786 13.1635 10.6557 13.3243C11.1099 13.477 11.6217 13.4834 12.0814 13.3454C12.5054 13.2183 12.8993 12.9707 13.19 12.6362C13.4833 12.298 13.6908 11.8813 13.7548 11.4362C13.7731 11.311 13.7859 11.1858 13.7859 11.0597C13.7859 10.9162 13.6597 10.7791 13.5117 10.7855C13.3627 10.7928 13.2384 10.907 13.2375 11.0606L13.2375 11.0606Z" fill="black" fill-opacity="0.47"/>
<path d="M2.31578 0.894535H1.83467C1.60166 0.894535 1.36696 0.892858 1.14234 0.964942C0.468453 1.17952 0.0057722 1.80313 0.000745053 2.51223C-0.000931316 2.8408 0.000745053 3.17103 0.000745053 3.49961V5.6755V8.27386V10.5386V11.6886C0.000745053 12.2435 0.263931 12.7397 0.716561 13.0565C1.01831 13.2677 1.37536 13.3298 1.7341 13.3298H3.49259H6.06075H7.74215H7.82597C8.08916 13.3298 8.34061 13.0984 8.32887 12.8269C8.31713 12.5536 8.10759 12.324 7.82597 12.324H7.19733H5.68526H3.87482H2.32921C2.09285 12.324 1.85479 12.3256 1.61843 12.324C1.56981 12.324 1.52287 12.3206 1.47594 12.3156C1.5212 12.3223 1.56478 12.3273 1.61004 12.334C1.51282 12.3206 1.41894 12.2955 1.32674 12.2603C1.36697 12.277 1.40721 12.2938 1.44744 12.3106C1.38374 12.2837 1.32171 12.2519 1.26304 12.2133C1.25801 12.21 1.21778 12.1848 1.21778 12.1815C1.21778 12.1798 1.32003 12.2653 1.26807 12.22C1.24125 12.1966 1.21275 12.1731 1.1876 12.1463C1.16413 12.1228 1.14234 12.0977 1.12055 12.0742C1.09205 12.0423 1.08199 11.9954 1.1524 12.1161C1.14569 12.1044 1.13564 12.0926 1.12725 12.0809C1.08702 12.0189 1.05182 11.9552 1.02332 11.8864C1.04008 11.9267 1.05685 11.9669 1.07361 12.0071C1.03673 11.9149 1.01326 11.8227 0.999853 11.7238C1.00656 11.7691 1.01159 11.8127 1.01829 11.8579C1.00488 11.7389 1.00991 11.6182 1.00991 11.4975V10.837V8.62257V5.91861V3.60189C1.00991 3.23982 1.00823 2.87939 1.00991 2.51729C1.00991 2.46867 1.01326 2.41838 1.01829 2.36977C1.01159 2.41503 1.00656 2.45861 0.999853 2.50388C1.01326 2.40665 1.03841 2.31277 1.07361 2.22057C1.05685 2.2608 1.04008 2.30104 1.02332 2.34127C1.05014 2.27757 1.08199 2.21554 1.12055 2.15687C1.1239 2.15184 1.14905 2.11161 1.1524 2.11161C1.15408 2.11161 1.06858 2.21386 1.11385 2.1619C1.13732 2.13508 1.16078 2.10658 1.1876 2.08143C1.21107 2.05796 1.23622 2.03617 1.25969 2.01438C1.29154 1.98588 1.33848 1.97582 1.21778 2.04623C1.22951 2.03952 1.24125 2.02947 1.25298 2.02108C1.31501 1.98085 1.37871 1.94565 1.44744 1.91715C1.40721 1.93392 1.36698 1.95068 1.32674 1.96744C1.41894 1.93056 1.51114 1.90709 1.61005 1.89368C1.56478 1.90039 1.5212 1.90542 1.47594 1.91212C1.62178 1.89536 1.77098 1.90374 1.91683 1.90374H2.31747C2.58065 1.90374 2.8321 1.6724 2.82036 1.40084C2.80528 1.12425 2.59741 0.894572 2.31578 0.894572L2.31578 0.894535Z" fill="black" fill-opacity="0.47"/>
<path d="M11.6075 1.90792H12.0484C12.2077 1.90792 12.372 1.89786 12.5295 1.9163C12.4843 1.9096 12.4407 1.90457 12.3954 1.89786C12.4926 1.91127 12.5865 1.93642 12.6787 1.97162C12.6385 1.95486 12.5982 1.93809 12.558 1.92133C12.6217 1.94815 12.6837 1.98 12.7424 2.01856C12.7474 2.02191 12.7877 2.04706 12.7877 2.05041C12.7877 2.05209 12.6854 1.96659 12.7374 2.01185C12.7642 2.03532 12.7927 2.05879 12.8179 2.08561C12.8413 2.10908 12.8631 2.13423 12.8849 2.1577C12.9134 2.18955 12.9235 2.23649 12.8531 2.11579C12.8598 2.12752 12.8698 2.13926 12.8782 2.15099C12.9184 2.21301 12.9536 2.27672 12.9821 2.34545L12.9318 2.22475C12.9687 2.31695 12.9922 2.40915 13.0056 2.50806C12.9989 2.46279 12.9939 2.41921 12.9872 2.37395C13.0106 2.58181 12.9955 2.79638 12.9955 3.00593V4.28163V7.23033V7.90758C12.9955 8.17077 13.2269 8.42222 13.4984 8.41048C13.7717 8.39874 14.0013 8.1892 14.0013 7.90758V7.01744V5.08628V3.2205V2.65725C14.0013 2.45776 13.9946 2.25661 13.9376 2.06383C13.7549 1.44861 13.2269 1.00439 12.5949 0.918864C12.3015 0.878631 11.9964 0.900424 11.7014 0.900424H11.6058C11.3426 0.900424 11.0912 1.13176 11.1029 1.40332C11.1163 1.67657 11.3259 1.90791 11.6075 1.90791L11.6075 1.90792Z" fill="black" fill-opacity="0.47"/>
<path d="M5.75915 1.90033H7.9753H8.28879C8.55198 1.90033 8.80343 1.66899 8.79169 1.39743C8.77995 1.12418 8.57041 0.894531 8.28879 0.894531H6.07265H5.75915C5.49597 0.894531 5.24451 1.12587 5.25625 1.39743C5.26967 1.669 5.47754 1.90033 5.75915 1.90033Z" fill="black" fill-opacity="0.47"/>
<path d="M3.5415 0.503294V2.57359V2.8703C3.5415 3.13349 3.77284 3.38494 4.0444 3.3732C4.31765 3.36147 4.5473 3.15192 4.5473 2.8703V0.800009V0.503294C4.5473 0.240108 4.31596 -0.0113446 4.0444 0.000395607C3.77283 0.01213 3.5415 0.221676 3.5415 0.503294Z" fill="black" fill-opacity="0.47"/>
<path d="M0.517454 4.94599H0.86445H1.80489H3.20131H4.90615H6.76522H8.64945H10.4063H11.8848H12.9526C13.1219 4.94599 13.2896 4.94767 13.4589 4.94599H13.4807C13.7439 4.94599 13.9953 4.71466 13.9836 4.4431C13.9719 4.16985 13.7623 3.9402 13.4807 3.9402H13.1337H12.1932H10.7968H9.09199H7.23292H5.34869H3.59189H2.11336H1.04552C0.876207 3.9402 0.708576 3.93852 0.539247 3.9402H0.517454C0.254268 3.9402 0.00281554 4.17154 0.0145558 4.4431C0.0279666 4.71634 0.235836 4.94599 0.517454 4.94599Z" fill="black" fill-opacity="0.47"/>
<path d="M3.30408 3.39447H4.58649H4.77424C5.03743 3.39447 5.28888 3.16313 5.27714 2.89157C5.2654 2.61832 5.05586 2.38867 4.77424 2.38867H3.49183H3.30408C3.04089 2.38867 2.78944 2.62001 2.80118 2.89157C2.81291 3.16314 3.02246 3.39447 3.30408 3.39447Z" fill="black" fill-opacity="0.47"/>
<path d="M9.42236 0.530638V2.60093V2.89765C9.42236 3.16083 9.6537 3.41228 9.92526 3.40054C10.1985 3.38881 10.4282 3.17926 10.4282 2.89765V0.827352V0.530638C10.4282 0.267451 10.1968 0.0159991 9.92526 0.0277394C9.65201 0.0394738 9.42236 0.247343 9.42236 0.530638Z" fill="black" fill-opacity="0.47"/>
<path d="M9.182 3.39447H10.4644H10.6522C10.9154 3.39447 11.1668 3.16313 11.1551 2.89157C11.1433 2.61832 10.9338 2.38867 10.6522 2.38867H9.36976H9.182C8.91882 2.38867 8.66737 2.62001 8.67911 2.89157C8.69252 3.16314 8.90039 3.39447 9.182 3.39447Z" fill="black" fill-opacity="0.47"/>
</svg>
