<svg width="162" height="160" viewBox="0 0 162 160" fill="none" xmlns="http://www.w3.org/2000/svg">
<ellipse cx="5.0625" cy="4.99922" rx="5.0625" ry="4.99922" fill="#F8F8FB"/>
<ellipse cx="96.1875" cy="4.99922" rx="5.0625" ry="4.99922" fill="#F8F8FB"/>
<ellipse cx="5.0625" cy="94.9855" rx="5.0625" ry="4.99922" fill="#F8F8FB"/>
<ellipse cx="96.1875" cy="94.9855" rx="5.0625" ry="4.99922" fill="#F8F8FB"/>
<ellipse cx="5.0625" cy="34.9934" rx="5.0625" ry="4.99922" fill="#F8F8FB"/>
<ellipse cx="96.1875" cy="34.9934" rx="5.0625" ry="4.99922" fill="#F8F8FB"/>
<ellipse cx="5.0625" cy="124.982" rx="5.0625" ry="4.99922" fill="#F8F8FB"/>
<ellipse cx="96.1875" cy="124.982" rx="5.0625" ry="4.99922" fill="#F8F8FB"/>
<ellipse cx="5.0625" cy="64.9895" rx="5.0625" ry="4.99922" fill="#F8F8FB"/>
<ellipse cx="96.1875" cy="64.9895" rx="5.0625" ry="4.99922" fill="#F8F8FB"/>
<ellipse cx="5.0625" cy="154.976" rx="5.0625" ry="4.99922" fill="#F8F8FB"/>
<ellipse cx="96.1875" cy="154.976" rx="5.0625" ry="4.99922" fill="#F8F8FB"/>
<ellipse cx="35.4375" cy="4.99922" rx="5.0625" ry="4.99922" fill="#F8F8FB"/>
<ellipse cx="126.562" cy="4.99922" rx="5.0625" ry="4.99922" fill="#F8F8FB"/>
<ellipse cx="35.4375" cy="94.9855" rx="5.0625" ry="4.99922" fill="#F8F8FB"/>
<ellipse cx="126.562" cy="94.9855" rx="5.0625" ry="4.99922" fill="#F8F8FB"/>
<ellipse cx="35.4375" cy="34.9934" rx="5.0625" ry="4.99922" fill="#F8F8FB"/>
<ellipse cx="126.562" cy="34.9934" rx="5.0625" ry="4.99922" fill="#F8F8FB"/>
<ellipse cx="35.4375" cy="124.982" rx="5.0625" ry="4.99922" fill="#F8F8FB"/>
<ellipse cx="126.562" cy="124.982" rx="5.0625" ry="4.99922" fill="#F8F8FB"/>
<ellipse cx="35.4375" cy="64.9895" rx="5.0625" ry="4.99922" fill="#F8F8FB"/>
<ellipse cx="126.562" cy="64.9895" rx="5.0625" ry="4.99922" fill="#F8F8FB"/>
<ellipse cx="35.4375" cy="154.976" rx="5.0625" ry="4.99922" fill="#F8F8FB"/>
<ellipse cx="126.562" cy="154.976" rx="5.0625" ry="4.99922" fill="#F8F8FB"/>
<ellipse cx="65.8125" cy="4.99922" rx="5.0625" ry="4.99922" fill="#F8F8FB"/>
<ellipse cx="156.938" cy="4.99922" rx="5.0625" ry="4.99922" fill="#F8F8FB"/>
<ellipse cx="65.8125" cy="94.9855" rx="5.0625" ry="4.99922" fill="#F8F8FB"/>
<ellipse cx="156.938" cy="94.9855" rx="5.0625" ry="4.99922" fill="#F8F8FB"/>
<ellipse cx="65.8125" cy="34.9934" rx="5.0625" ry="4.99922" fill="#F8F8FB"/>
<ellipse cx="156.938" cy="34.9934" rx="5.0625" ry="4.99922" fill="#F8F8FB"/>
<ellipse cx="65.8125" cy="124.982" rx="5.0625" ry="4.99922" fill="#F8F8FB"/>
<ellipse cx="156.938" cy="124.982" rx="5.0625" ry="4.99922" fill="#F8F8FB"/>
<ellipse cx="65.8125" cy="64.9895" rx="5.0625" ry="4.99922" fill="#F8F8FB"/>
<ellipse cx="156.938" cy="64.9895" rx="5.0625" ry="4.99922" fill="#F8F8FB"/>
<ellipse cx="65.8125" cy="154.976" rx="5.0625" ry="4.99922" fill="#F8F8FB"/>
<ellipse cx="156.938" cy="154.976" rx="5.0625" ry="4.99922" fill="#F8F8FB"/>
</svg>
