<svg width="18" height="18" viewBox="0 0 18 18" fill="none" xmlns="http://www.w3.org/2000/svg">
<path d="M11.632 7.85601H6.5344C5.90808 7.85601 5.58396 8.61209 6.03764 9.06557L8.67284 11.7008C8.95369 11.9816 9.4072 11.9816 9.68804 11.6792L12.1504 9.04403C12.5609 8.59035 12.2585 7.85599 11.632 7.85599V7.85601Z" fill="#F47D2E"/>
<path d="M9.14806 0.511963C4.37446 0.511963 0.508057 4.37836 0.508057 9.15197C0.508057 13.9256 4.37446 17.792 9.14806 17.792C13.9217 17.792 17.7881 13.9256 17.7881 9.15197C17.7881 4.37836 13.9217 0.511963 9.14806 0.511963ZM9.14806 16.928C4.84966 16.928 1.37206 13.4504 1.37206 9.15197C1.37206 4.85356 4.84966 1.37596 9.14806 1.37596C13.4465 1.37596 16.9241 4.85356 16.9241 9.15197C16.9239 13.4504 13.4463 16.928 9.14806 16.928Z" fill="#F47D2E"/>
</svg>
