<svg width="24" height="24" viewBox="0 0 24 24" fill="none" xmlns="http://www.w3.org/2000/svg">
<rect width="24" height="24" rx="5" fill="#11A9FF" fill-opacity="0.1"/>
<g clip-path="url(#clip0_0_282)">
<path d="M9.5 10.3335C9.36739 10.3335 9.24021 10.3862 9.14645 10.4799C9.05268 10.5737 9 10.7009 9 10.8335C9 10.9661 9.05268 11.0933 9.14645 11.187C9.24021 11.2808 9.36739 11.3335 9.5 11.3335H14.5C14.6326 11.3335 14.7598 11.2808 14.8536 11.187C14.9473 11.0933 15 10.9661 15 10.8335C15 10.7009 14.9473 10.5737 14.8536 10.4799C14.7598 10.3862 14.6326 10.3335 14.5 10.3335H9.5ZM9 12.8335C9 12.7009 9.05268 12.5737 9.14645 12.4799C9.24021 12.3862 9.36739 12.3335 9.5 12.3335H14.5C14.6326 12.3335 14.7598 12.3862 14.8536 12.4799C14.9473 12.5737 15 12.7009 15 12.8335C15 12.9661 14.9473 13.0933 14.8536 13.187C14.7598 13.2808 14.6326 13.3335 14.5 13.3335H9.5C9.36739 13.3335 9.24021 13.2808 9.14645 13.187C9.05268 13.0933 9 12.9661 9 12.8335ZM9 14.8335C9 14.7009 9.05268 14.5737 9.14645 14.4799C9.24021 14.3862 9.36739 14.3335 9.5 14.3335H11.5C11.6326 14.3335 11.7598 14.3862 11.8536 14.4799C11.9473 14.5737 12 14.7009 12 14.8335C12 14.9661 11.9473 15.0933 11.8536 15.187C11.7598 15.2808 11.6326 15.3335 11.5 15.3335H9.5C9.36739 15.3335 9.24021 15.2808 9.14645 15.187C9.05268 15.0933 9 14.9661 9 14.8335Z" fill="#10A7FD"/>
<path d="M13.5 3.3335H8C7.46957 3.3335 6.96086 3.54421 6.58579 3.91928C6.21071 4.29436 6 4.80306 6 5.3335V17.3335C6 17.8639 6.21071 18.3726 6.58579 18.7477C6.96086 19.1228 7.46957 19.3335 8 19.3335H16C16.5304 19.3335 17.0391 19.1228 17.4142 18.7477C17.7893 18.3726 18 17.8639 18 17.3335V7.8335L13.5 3.3335ZM13.5 4.3335V6.3335C13.5 6.73132 13.658 7.11285 13.9393 7.39416C14.2206 7.67546 14.6022 7.8335 15 7.8335H17V17.3335C17 17.5987 16.8946 17.8531 16.7071 18.0406C16.5196 18.2281 16.2652 18.3335 16 18.3335H8C7.73478 18.3335 7.48043 18.2281 7.29289 18.0406C7.10536 17.8531 7 17.5987 7 17.3335V5.3335C7 5.06828 7.10536 4.81393 7.29289 4.62639C7.48043 4.43885 7.73478 4.3335 8 4.3335H13.5Z" fill="#10A7FD"/>
</g>
<defs>
<clipPath id="clip0_0_282">
<rect width="16" height="16" fill="white" transform="translate(4 3.3335)"/>
</clipPath>
</defs>
</svg>
