<svg width="22" height="17" viewBox="0 0 22 17" fill="none" xmlns="http://www.w3.org/2000/svg">
<path d="M20.3595 7.22483C19.8012 6.51945 19.0508 6.02562 18.2206 5.79884C18.2233 5.72606 18.225 5.6525 18.225 5.57816C18.225 2.5022 15.7225 0 12.6464 0C10.9645 0 9.41306 0.735754 8.36125 2.00164C7.48619 1.3576 6.35445 1.1543 5.25212 1.47451C4.16922 1.78879 3.31231 2.61362 2.95968 3.68182C2.72287 4.40022 2.71207 5.15336 2.91288 5.83667C2.14643 6.07551 1.45435 6.5352 0.938927 7.16185C0.223968 8.03175 -0.100176 9.13328 0.0270776 10.2641C0.260749 12.3501 2.07159 13.9229 4.23854 13.9229H8.62149V12.5933L4.23854 12.5931C2.74932 12.5931 1.50676 11.5276 1.34789 10.1149C1.26134 9.345 1.48124 8.59578 1.96597 8.00543C2.45287 7.41336 3.14106 7.05243 3.84865 6.99137L4.23507 6.98918L4.62682 6.30884L4.41741 5.96999C4.0759 5.41734 4.00672 4.75215 4.2227 4.09809C4.43431 3.45621 4.971 2.93991 5.62269 2.75083C6.49135 2.499 7.38597 2.75772 7.95504 3.42853L8.54712 4.12658L9.02744 3.34715C9.80687 2.08347 11.1598 1.32909 12.6465 1.32909C14.9896 1.32909 16.8956 3.23508 16.8956 5.57781C16.8956 5.78175 16.8818 5.97551 16.8541 6.15566L16.7641 6.38464L17.0905 6.96108L17.4288 6.99912C18.1766 7.08222 18.8467 7.45536 19.3167 8.04916C19.784 8.64031 19.9902 9.38436 19.8975 10.1444C19.7261 11.5407 18.4858 12.5932 17.0108 12.5932L12.9355 12.5933V13.9229H17.0108C19.1566 13.9229 20.9648 12.3683 21.2166 10.3056C21.3536 9.19111 21.0488 8.09659 20.3599 7.22497L20.3595 7.22483Z" fill="#2DA2E1"/>
<path d="M12.5452 4.14718C13.3744 4.13763 14.1646 4.52062 14.677 5.18893L15.7313 4.37913C14.9626 3.37761 13.8062 2.84235 12.5356 2.81759C11.7783 2.82323 11.0425 3.0414 10.4084 3.44817L11.1261 4.5674C11.5488 4.29601 12.0396 4.15063 12.5452 4.14718H12.5452Z" fill="#2DA2E1"/>
<path d="M11.117 7.56595C11.0347 7.4254 10.8306 7.42837 10.7525 7.57127L9.15704 10.4866C9.05984 10.6643 9.2461 10.8626 9.42937 10.7768L10.3181 10.3613V17H11.6479L11.6482 10.3493L12.5324 10.7318C12.7181 10.8122 12.8986 10.6084 12.7962 10.4338L11.117 7.56595Z" fill="#2DA2E1"/>
</svg>
