<svg width="14" height="6" viewBox="0 0 14 6" fill="none" xmlns="http://www.w3.org/2000/svg">
<path d="M2.928 5.79894C2.44267 5.79894 2.01067 5.68694 1.632 5.46294C1.25867 5.23894 0.965333 4.91894 0.752 4.50294C0.544 4.0816 0.44 3.57494 0.44 2.98294C0.44 2.39094 0.544 1.88427 0.752 1.46294C0.965333 1.0416 1.25867 0.721604 1.632 0.502937C2.01067 0.278937 2.44267 0.166937 2.928 0.166937C3.424 0.166937 3.85867 0.278937 4.232 0.502937C4.60533 0.721604 4.896 1.0416 5.104 1.46294C5.312 1.88427 5.416 2.39094 5.416 2.98294C5.416 3.57494 5.30933 4.0816 5.096 4.50294C4.888 4.92427 4.59733 5.24694 4.224 5.47094C3.856 5.6896 3.424 5.79894 2.928 5.79894ZM2.928 5.18294C3.21067 5.18294 3.448 5.09494 3.64 4.91894C3.83733 4.74294 3.98933 4.49227 4.096 4.16694C4.20267 3.8416 4.256 3.4496 4.256 2.99094C4.256 2.52694 4.20267 2.1296 4.096 1.79894C3.98933 1.46827 3.83733 1.2176 3.64 1.04694C3.448 0.870937 3.21067 0.782937 2.928 0.782937C2.656 0.782937 2.41867 0.870937 2.216 1.04694C2.01867 1.2176 1.86667 1.46827 1.76 1.79894C1.65333 2.1296 1.6 2.52427 1.6 2.98294C1.6 3.44694 1.65333 3.84427 1.76 4.17494C1.86667 4.50027 2.01867 4.75094 2.216 4.92694C2.41867 5.0976 2.656 5.18294 2.928 5.18294ZM6.88138 5.78294C6.67338 5.78294 6.50271 5.71894 6.36938 5.59094C6.24138 5.4576 6.17738 5.29227 6.17738 5.09494C6.17738 4.89227 6.24138 4.7296 6.36938 4.60694C6.50271 4.47894 6.67338 4.41494 6.88138 4.41494C7.09471 4.41494 7.26538 4.47894 7.39338 4.60694C7.52138 4.73494 7.58538 4.8976 7.58538 5.09494C7.58538 5.2976 7.52138 5.46294 7.39338 5.59094C7.26538 5.71894 7.09471 5.78294 6.88138 5.78294ZM8.78825 5.52694C8.78825 5.1056 8.85492 4.74294 8.98825 4.43894C9.12158 4.1296 9.31092 3.86827 9.55625 3.65494C9.80158 3.43627 10.0976 3.24694 10.4443 3.08694L10.9403 2.85494C11.0736 2.79094 11.2043 2.7216 11.3323 2.64694C11.4603 2.56694 11.5749 2.47894 11.6763 2.38294C11.7829 2.28694 11.8656 2.18027 11.9243 2.06294C11.9883 1.94027 12.0203 1.8016 12.0203 1.64694L13.0763 1.78294C13.0763 2.06027 13.0229 2.30294 12.9163 2.51094C12.8149 2.7136 12.6763 2.8896 12.5003 3.03894C12.3243 3.18827 12.1243 3.31627 11.9003 3.42294C11.6763 3.5296 11.4443 3.62027 11.2043 3.69494L10.7163 3.87094C10.4763 3.95094 10.2736 4.03894 10.1083 4.13494C9.94292 4.23094 9.80692 4.33494 9.70025 4.44694C9.59892 4.55894 9.52158 4.69227 9.46825 4.84694L8.78825 5.71094V5.52694ZM8.78825 5.71094V5.52694L9.46825 4.84694H13.0683V5.71094H8.78825ZM11.8443 4.84694C12.0843 4.84694 12.2443 4.8016 12.3243 4.71094C12.4043 4.62027 12.4443 4.44694 12.4443 4.19094V3.97494H13.0683V4.84694H11.8443ZM9.58025 2.25494C9.45225 2.25494 9.33758 2.2256 9.23625 2.16694C9.13492 2.10827 9.05225 2.0256 8.98825 1.91894C8.92425 1.80694 8.89225 1.67894 8.89225 1.53494C8.89225 1.25227 8.98558 1.0096 9.17225 0.806937C9.35892 0.604271 9.61225 0.449604 9.93225 0.342937C10.2523 0.230937 10.6096 0.174937 11.0043 0.174937C11.3883 0.174937 11.7349 0.230937 12.0443 0.342937C12.3589 0.454937 12.6096 0.630937 12.7963 0.870937C12.9829 1.1056 13.0763 1.4096 13.0763 1.78294L12.0203 1.64694C12.0203 1.45494 11.9669 1.29227 11.8603 1.15894C11.7589 1.0256 11.6176 0.926937 11.4363 0.862937C11.2603 0.793604 11.0576 0.758937 10.8283 0.758937C10.5989 0.758937 10.3883 0.785604 10.1963 0.838937C10.0096 0.892271 9.85492 0.97227 9.73225 1.07894C9.60958 1.18027 9.53225 1.30827 9.50025 1.46294L9.45225 1.24694C9.66558 1.2416 9.83358 1.28427 9.95625 1.37494C10.0843 1.46027 10.1483 1.58294 10.1483 1.74294C10.1483 1.88694 10.1003 2.0096 10.0043 2.11094C9.90825 2.20694 9.76692 2.25494 9.58025 2.25494Z" fill="#00000078"/>
</svg>
