<svg width="40" height="49" viewBox="0 0 40 49" fill="none" xmlns="http://www.w3.org/2000/svg">
<path d="M20.0004 28.9795C16.4133 28.9795 12.7556 27.456 9.42282 24.5736C6.93114 22.4186 5.50421 20.2855 5.44476 20.1958C5.28033 19.9479 5.27871 19.6249 5.4407 19.3753C5.49942 19.2847 6.90865 17.132 9.39198 14.9574C12.7134 12.0491 16.3817 10.5117 20.0004 10.5117C23.6374 10.5117 27.3361 12.048 30.6968 14.9545C33.2102 17.1281 34.6433 19.2798 34.7031 19.3704C34.8682 19.6204 34.8679 19.9461 34.7023 20.1959C34.6428 20.2856 33.2149 22.4199 30.7039 24.5755C27.3475 27.4565 23.6463 28.9795 20.0004 28.9795ZM6.96434 19.7783C7.48719 20.481 8.68958 21.985 10.4134 23.4705C12.5424 25.3051 15.9338 27.4921 20.0004 27.4921C24.1434 27.4921 27.5708 25.3044 29.7166 23.4692C31.4503 21.9864 32.6549 20.4852 33.1801 19.7811C32.6543 19.0722 31.4446 17.5553 29.7059 16.057C27.5574 14.2057 24.1297 11.9989 20.0004 11.9989C13.1217 11.999 8.17897 18.1174 6.96434 19.7783Z" fill="#A9BBC9"/>
<path d="M20.049 26.1409C16.551 26.1409 13.7051 23.2719 13.7051 19.7453C13.7051 16.2187 16.551 13.3496 20.049 13.3496C23.547 13.3496 26.3929 16.2187 26.3929 19.7453C26.3929 23.2719 23.547 26.1409 20.049 26.1409ZM20.049 14.837C17.3644 14.837 15.1804 17.0388 15.1804 19.7453C15.1804 22.4518 17.3644 24.6536 20.049 24.6536C22.7335 24.6536 24.9175 22.4518 24.9175 19.7453C24.9175 17.0388 22.7335 14.837 20.049 14.837Z" fill="#A9BBC9"/>
<path d="M20.0734 22.6462C18.5074 22.6462 17.2334 21.3618 17.2334 19.783C17.2334 18.2043 18.5074 16.9199 20.0734 16.9199C21.6394 16.9199 22.9134 18.2043 22.9134 19.783C22.9134 21.3617 21.6393 22.6462 20.0734 22.6462ZM20.0734 18.4073C19.3209 18.4073 18.7087 19.0245 18.7087 19.783C18.7087 20.5417 19.3209 21.1588 20.0734 21.1588C20.8259 21.1588 21.4381 20.5417 21.4381 19.783C21.438 19.0245 20.8258 18.4073 20.0734 18.4073Z" fill="#A9BBC9"/>
</svg>
