<svg width="9" height="8" viewBox="0 0 9 8" fill="none" xmlns="http://www.w3.org/2000/svg">
<path d="M1.33333 1.28498C1.21546 1.28498 1.10241 1.3253 1.01906 1.39708C0.935714 1.46885 0.888889 1.5662 0.888889 1.66771V5.11223C0.888889 5.21373 0.935714 5.31108 1.01906 5.38285C1.10241 5.45463 1.21546 5.49495 1.33333 5.49495H7.55556C7.67343 5.49495 7.78648 5.45463 7.86983 5.38285C7.95318 5.31108 8 5.21373 8 5.11223V1.66771C8 1.5662 7.95318 1.46885 7.86983 1.39708C7.78648 1.3253 7.67343 1.28498 7.55556 1.28498H1.33333ZM1.33333 0.519531H7.55556C7.90918 0.519531 8.24832 0.640499 8.49837 0.855824C8.74841 1.07115 8.88889 1.36319 8.88889 1.66771V5.11223C8.88889 5.41674 8.74841 5.70878 8.49837 5.92411C8.24832 6.13943 7.90918 6.2604 7.55556 6.2604H1.33333C0.979711 6.2604 0.640573 6.13943 0.390524 5.92411C0.140476 5.70878 0 5.41674 0 5.11223V1.66771C0 1.36319 0.140476 1.07115 0.390524 0.855824C0.640573 0.640499 0.979711 0.519531 1.33333 0.519531ZM3.11111 6.64313H5.77778C5.89565 6.64313 6.0087 6.68345 6.09205 6.75522C6.1754 6.827 6.22222 6.92435 6.22222 7.02585C6.22222 7.12736 6.1754 7.2247 6.09205 7.29648C6.0087 7.36825 5.89565 7.40858 5.77778 7.40858H3.11111C2.99324 7.40858 2.88019 7.36825 2.79684 7.29648C2.71349 7.2247 2.66667 7.12736 2.66667 7.02585C2.66667 6.92435 2.71349 6.827 2.79684 6.75522C2.88019 6.68345 2.99324 6.64313 3.11111 6.64313Z" fill="#0D3C84"/>
</svg>
