<svg width="809" height="537" viewBox="0 0 809 537" fill="none" xmlns="http://www.w3.org/2000/svg">
<g filter="url(#filter0_d_2265_12716)">
<rect width="120" height="35" rx="4" fill="white"/>
<rect x="137.6" width="120" height="35" rx="4" fill="white"/>
<rect x="275.2" width="120" height="35" rx="4" fill="white"/>
<rect x="412.8" width="120" height="35" rx="4" fill="white"/>
<rect x="550.4" width="120" height="35" rx="4" fill="white"/>
<rect x="688" width="120" height="35" rx="4" fill="white"/>
</g>
<g filter="url(#filter1_d_2265_12716)">
<rect y="55.6665" width="120" height="35" rx="4" fill="white"/>
<rect x="137.6" y="55.6665" width="120" height="35" rx="4" fill="white"/>
<rect x="275.2" y="55.6665" width="120" height="35" rx="4" fill="white"/>
<rect x="412.8" y="55.6665" width="120" height="35" rx="4" fill="white"/>
<rect x="550.4" y="55.6665" width="120" height="35" rx="4" fill="white"/>
<rect x="688" y="55.6665" width="120" height="35" rx="4" fill="white"/>
</g>
<g filter="url(#filter2_d_2265_12716)">
<rect y="111.333" width="120" height="35" rx="4" fill="white"/>
<rect x="137.6" y="111.333" width="120" height="35" rx="4" fill="white"/>
<rect x="275.2" y="111.333" width="120" height="35" rx="4" fill="white"/>
<rect x="412.8" y="111.333" width="120" height="35" rx="4" fill="white"/>
<rect x="550.4" y="111.333" width="120" height="35" rx="4" fill="white"/>
<rect x="688" y="111.333" width="120" height="35" rx="4" fill="white"/>
</g>
<g filter="url(#filter3_d_2265_12716)">
<rect y="167" width="120" height="35" rx="4" fill="white"/>
<rect x="137.6" y="167" width="120" height="35" rx="4" fill="white"/>
<rect x="275.2" y="167" width="120" height="35" rx="4" fill="white"/>
<rect x="412.8" y="167" width="120" height="35" rx="4" fill="white"/>
<rect x="550.4" y="167" width="120" height="35" rx="4" fill="white"/>
<rect x="688" y="167" width="120" height="35" rx="4" fill="white"/>
</g>
<g filter="url(#filter4_d_2265_12716)">
<rect y="222.667" width="120" height="35" rx="4" fill="white"/>
<rect x="137.6" y="222.667" width="120" height="35" rx="4" fill="white"/>
<rect x="275.2" y="222.667" width="120" height="35" rx="4" fill="white"/>
<rect x="412.8" y="222.667" width="120" height="35" rx="4" fill="white"/>
<rect x="550.4" y="222.667" width="120" height="35" rx="4" fill="white"/>
<rect x="688" y="222.667" width="120" height="35" rx="4" fill="white"/>
</g>
<g filter="url(#filter5_d_2265_12716)">
<rect y="278.333" width="120" height="35" rx="4" fill="white"/>
<rect x="137.6" y="278.333" width="120" height="35" rx="4" fill="white"/>
<rect x="275.2" y="278.333" width="120" height="35" rx="4" fill="white"/>
<rect x="412.8" y="278.333" width="120" height="35" rx="4" fill="white"/>
<rect x="550.4" y="278.333" width="120" height="35" rx="4" fill="white"/>
<rect x="688" y="278.333" width="120" height="35" rx="4" fill="white"/>
</g>
<g filter="url(#filter6_d_2265_12716)">
<rect y="334" width="120" height="35" rx="4" fill="white"/>
<rect x="137.6" y="334" width="120" height="35" rx="4" fill="white"/>
<rect x="275.2" y="334" width="120" height="35" rx="4" fill="white"/>
<rect x="412.8" y="334" width="120" height="35" rx="4" fill="white"/>
<rect x="550.4" y="334" width="120" height="35" rx="4" fill="white"/>
<rect x="688" y="334" width="120" height="35" rx="4" fill="white"/>
</g>
<g filter="url(#filter7_d_2265_12716)">
<rect y="389.667" width="120" height="35" rx="4" fill="white"/>
<rect x="137.6" y="389.667" width="120" height="35" rx="4" fill="white"/>
<rect x="275.2" y="389.667" width="120" height="35" rx="4" fill="white"/>
<rect x="412.8" y="389.667" width="120" height="35" rx="4" fill="white"/>
<rect x="550.4" y="389.667" width="120" height="35" rx="4" fill="white"/>
<rect x="688" y="389.667" width="120" height="35" rx="4" fill="white"/>
</g>
<g filter="url(#filter8_d_2265_12716)">
<rect y="445.333" width="120" height="35" rx="4" fill="white"/>
<rect x="137.6" y="445.333" width="120" height="35" rx="4" fill="white"/>
<rect x="275.2" y="445.333" width="120" height="35" rx="4" fill="white"/>
<rect x="412.8" y="445.333" width="120" height="35" rx="4" fill="white"/>
<rect x="550.4" y="445.333" width="120" height="35" rx="4" fill="white"/>
<rect x="688" y="445.333" width="120" height="35" rx="4" fill="white"/>
</g>
<g filter="url(#filter9_d_2265_12716)">
<rect y="501" width="120" height="35" rx="4" fill="white"/>
<rect x="137.6" y="501" width="120" height="35" rx="4" fill="white"/>
<rect x="275.2" y="501" width="120" height="35" rx="4" fill="white"/>
<rect x="412.8" y="501" width="120" height="35" rx="4" fill="white"/>
<rect x="550.4" y="501" width="120" height="35" rx="4" fill="white"/>
<rect x="688" y="501" width="120" height="35" rx="4" fill="white"/>
</g>
<defs>
<filter id="filter0_d_2265_12716" x="0" y="0" width="809" height="36" filterUnits="userSpaceOnUse" color-interpolation-filters="sRGB">
<feFlood flood-opacity="0" result="BackgroundImageFix"/>
<feColorMatrix in="SourceAlpha" type="matrix" values="0 0 0 0 0 0 0 0 0 0 0 0 0 0 0 0 0 0 127 0" result="hardAlpha"/>
<feOffset dx="0.5" dy="0.5"/>
<feGaussianBlur stdDeviation="0.25"/>
<feComposite in2="hardAlpha" operator="out"/>
<feColorMatrix type="matrix" values="0 0 0 0 0 0 0 0 0 0 0 0 0 0 0 0 0 0 0.25 0"/>
<feBlend mode="normal" in2="BackgroundImageFix" result="effect1_dropShadow_2265_12716"/>
<feBlend mode="normal" in="SourceGraphic" in2="effect1_dropShadow_2265_12716" result="shape"/>
</filter>
<filter id="filter1_d_2265_12716" x="0" y="55.6665" width="809" height="36" filterUnits="userSpaceOnUse" color-interpolation-filters="sRGB">
<feFlood flood-opacity="0" result="BackgroundImageFix"/>
<feColorMatrix in="SourceAlpha" type="matrix" values="0 0 0 0 0 0 0 0 0 0 0 0 0 0 0 0 0 0 127 0" result="hardAlpha"/>
<feOffset dx="0.5" dy="0.5"/>
<feGaussianBlur stdDeviation="0.25"/>
<feComposite in2="hardAlpha" operator="out"/>
<feColorMatrix type="matrix" values="0 0 0 0 0 0 0 0 0 0 0 0 0 0 0 0 0 0 0.25 0"/>
<feBlend mode="normal" in2="BackgroundImageFix" result="effect1_dropShadow_2265_12716"/>
<feBlend mode="normal" in="SourceGraphic" in2="effect1_dropShadow_2265_12716" result="shape"/>
</filter>
<filter id="filter2_d_2265_12716" x="0" y="111.333" width="809" height="36" filterUnits="userSpaceOnUse" color-interpolation-filters="sRGB">
<feFlood flood-opacity="0" result="BackgroundImageFix"/>
<feColorMatrix in="SourceAlpha" type="matrix" values="0 0 0 0 0 0 0 0 0 0 0 0 0 0 0 0 0 0 127 0" result="hardAlpha"/>
<feOffset dx="0.5" dy="0.5"/>
<feGaussianBlur stdDeviation="0.25"/>
<feComposite in2="hardAlpha" operator="out"/>
<feColorMatrix type="matrix" values="0 0 0 0 0 0 0 0 0 0 0 0 0 0 0 0 0 0 0.25 0"/>
<feBlend mode="normal" in2="BackgroundImageFix" result="effect1_dropShadow_2265_12716"/>
<feBlend mode="normal" in="SourceGraphic" in2="effect1_dropShadow_2265_12716" result="shape"/>
</filter>
<filter id="filter3_d_2265_12716" x="0" y="167" width="809" height="36" filterUnits="userSpaceOnUse" color-interpolation-filters="sRGB">
<feFlood flood-opacity="0" result="BackgroundImageFix"/>
<feColorMatrix in="SourceAlpha" type="matrix" values="0 0 0 0 0 0 0 0 0 0 0 0 0 0 0 0 0 0 127 0" result="hardAlpha"/>
<feOffset dx="0.5" dy="0.5"/>
<feGaussianBlur stdDeviation="0.25"/>
<feComposite in2="hardAlpha" operator="out"/>
<feColorMatrix type="matrix" values="0 0 0 0 0 0 0 0 0 0 0 0 0 0 0 0 0 0 0.25 0"/>
<feBlend mode="normal" in2="BackgroundImageFix" result="effect1_dropShadow_2265_12716"/>
<feBlend mode="normal" in="SourceGraphic" in2="effect1_dropShadow_2265_12716" result="shape"/>
</filter>
<filter id="filter4_d_2265_12716" x="0" y="222.667" width="809" height="36" filterUnits="userSpaceOnUse" color-interpolation-filters="sRGB">
<feFlood flood-opacity="0" result="BackgroundImageFix"/>
<feColorMatrix in="SourceAlpha" type="matrix" values="0 0 0 0 0 0 0 0 0 0 0 0 0 0 0 0 0 0 127 0" result="hardAlpha"/>
<feOffset dx="0.5" dy="0.5"/>
<feGaussianBlur stdDeviation="0.25"/>
<feComposite in2="hardAlpha" operator="out"/>
<feColorMatrix type="matrix" values="0 0 0 0 0 0 0 0 0 0 0 0 0 0 0 0 0 0 0.25 0"/>
<feBlend mode="normal" in2="BackgroundImageFix" result="effect1_dropShadow_2265_12716"/>
<feBlend mode="normal" in="SourceGraphic" in2="effect1_dropShadow_2265_12716" result="shape"/>
</filter>
<filter id="filter5_d_2265_12716" x="0" y="278.333" width="809" height="36" filterUnits="userSpaceOnUse" color-interpolation-filters="sRGB">
<feFlood flood-opacity="0" result="BackgroundImageFix"/>
<feColorMatrix in="SourceAlpha" type="matrix" values="0 0 0 0 0 0 0 0 0 0 0 0 0 0 0 0 0 0 127 0" result="hardAlpha"/>
<feOffset dx="0.5" dy="0.5"/>
<feGaussianBlur stdDeviation="0.25"/>
<feComposite in2="hardAlpha" operator="out"/>
<feColorMatrix type="matrix" values="0 0 0 0 0 0 0 0 0 0 0 0 0 0 0 0 0 0 0.25 0"/>
<feBlend mode="normal" in2="BackgroundImageFix" result="effect1_dropShadow_2265_12716"/>
<feBlend mode="normal" in="SourceGraphic" in2="effect1_dropShadow_2265_12716" result="shape"/>
</filter>
<filter id="filter6_d_2265_12716" x="0" y="334" width="809" height="36" filterUnits="userSpaceOnUse" color-interpolation-filters="sRGB">
<feFlood flood-opacity="0" result="BackgroundImageFix"/>
<feColorMatrix in="SourceAlpha" type="matrix" values="0 0 0 0 0 0 0 0 0 0 0 0 0 0 0 0 0 0 127 0" result="hardAlpha"/>
<feOffset dx="0.5" dy="0.5"/>
<feGaussianBlur stdDeviation="0.25"/>
<feComposite in2="hardAlpha" operator="out"/>
<feColorMatrix type="matrix" values="0 0 0 0 0 0 0 0 0 0 0 0 0 0 0 0 0 0 0.25 0"/>
<feBlend mode="normal" in2="BackgroundImageFix" result="effect1_dropShadow_2265_12716"/>
<feBlend mode="normal" in="SourceGraphic" in2="effect1_dropShadow_2265_12716" result="shape"/>
</filter>
<filter id="filter7_d_2265_12716" x="0" y="389.667" width="809" height="36" filterUnits="userSpaceOnUse" color-interpolation-filters="sRGB">
<feFlood flood-opacity="0" result="BackgroundImageFix"/>
<feColorMatrix in="SourceAlpha" type="matrix" values="0 0 0 0 0 0 0 0 0 0 0 0 0 0 0 0 0 0 127 0" result="hardAlpha"/>
<feOffset dx="0.5" dy="0.5"/>
<feGaussianBlur stdDeviation="0.25"/>
<feComposite in2="hardAlpha" operator="out"/>
<feColorMatrix type="matrix" values="0 0 0 0 0 0 0 0 0 0 0 0 0 0 0 0 0 0 0.25 0"/>
<feBlend mode="normal" in2="BackgroundImageFix" result="effect1_dropShadow_2265_12716"/>
<feBlend mode="normal" in="SourceGraphic" in2="effect1_dropShadow_2265_12716" result="shape"/>
</filter>
<filter id="filter8_d_2265_12716" x="0" y="445.333" width="809" height="36" filterUnits="userSpaceOnUse" color-interpolation-filters="sRGB">
<feFlood flood-opacity="0" result="BackgroundImageFix"/>
<feColorMatrix in="SourceAlpha" type="matrix" values="0 0 0 0 0 0 0 0 0 0 0 0 0 0 0 0 0 0 127 0" result="hardAlpha"/>
<feOffset dx="0.5" dy="0.5"/>
<feGaussianBlur stdDeviation="0.25"/>
<feComposite in2="hardAlpha" operator="out"/>
<feColorMatrix type="matrix" values="0 0 0 0 0 0 0 0 0 0 0 0 0 0 0 0 0 0 0.25 0"/>
<feBlend mode="normal" in2="BackgroundImageFix" result="effect1_dropShadow_2265_12716"/>
<feBlend mode="normal" in="SourceGraphic" in2="effect1_dropShadow_2265_12716" result="shape"/>
</filter>
<filter id="filter9_d_2265_12716" x="0" y="501" width="809" height="36" filterUnits="userSpaceOnUse" color-interpolation-filters="sRGB">
<feFlood flood-opacity="0" result="BackgroundImageFix"/>
<feColorMatrix in="SourceAlpha" type="matrix" values="0 0 0 0 0 0 0 0 0 0 0 0 0 0 0 0 0 0 127 0" result="hardAlpha"/>
<feOffset dx="0.5" dy="0.5"/>
<feGaussianBlur stdDeviation="0.25"/>
<feComposite in2="hardAlpha" operator="out"/>
<feColorMatrix type="matrix" values="0 0 0 0 0 0 0 0 0 0 0 0 0 0 0 0 0 0 0.25 0"/>
<feBlend mode="normal" in2="BackgroundImageFix" result="effect1_dropShadow_2265_12716"/>
<feBlend mode="normal" in="SourceGraphic" in2="effect1_dropShadow_2265_12716" result="shape"/>
</filter>
</defs>
</svg>
