<svg width="24" height="24" viewBox="0 0 24 24" fill="none" xmlns="http://www.w3.org/2000/svg">
<path d="M6.92826 11.4181C7.19813 12.1327 7.60401 12.7822 8.12088 13.3269L6.92826 11.4181ZM6.92826 11.4181C6.65827 10.7033 6.52997 9.93834 6.55092 9.1699L6.92826 11.4181ZM14.9475 17.5446C14.9272 16.1509 15.4272 14.8051 16.3392 13.7948L17.9498 10.1102L18.0491 10.1225C18.0491 10.1225 18.0491 10.1224 18.0491 10.1224C18.2207 8.73792 17.9558 7.33228 17.2945 6.12009C16.633 4.90777 15.6112 3.95527 14.3842 3.40881C13.157 2.86231 11.7929 2.75259 10.5005 3.09639L10.5005 3.09639C9.20808 3.44029 8.05937 4.21849 7.22951 5.31123C6.39961 6.40371 5.9337 7.75089 5.90227 9.14653C5.87985 10.0043 6.02395 10.8578 6.32567 11.6556C6.62719 12.453 7.08015 13.1782 7.65729 13.7867C8.57955 14.7956 9.0884 16.1449 9.07315 17.545V17.546V17.6121C9.0184 17.6807 8.98753 17.7666 8.98554 17.8556L8.98551 17.8556V17.8578L8.9855 19.8383L8.98552 19.8395C8.98907 20.1368 9.09266 20.4237 9.27879 20.6498C9.44892 20.8565 9.67835 21.0002 9.93285 21.0597C9.98086 21.3391 10.1177 21.5949 10.3234 21.7842C10.5466 21.99 10.8351 22.1028 11.1339 22.0999H12.8699C13.1686 22.1028 13.4571 21.99 13.6804 21.7843C13.8858 21.5952 14.0225 21.3398 14.0707 21.0608C14.3308 21.0042 14.566 20.8597 14.74 20.6495C14.9301 20.4197 15.0345 20.1265 15.0353 19.8238V19.8235V17.843H15.0353L15.0353 17.8406C15.0331 17.7518 15.0024 17.6659 14.9475 17.5972L14.9475 17.5461L14.9475 17.5446ZM9.08551 17.8578V19.8383C9.08879 20.1133 9.18464 20.3781 9.35601 20.5862C9.52725 20.7943 9.76302 20.9322 10.0218 20.9755L9.08551 17.8578ZM12.8706 21.3241L12.8706 21.3242L11.1335 21.3241H11.1333C11.0328 21.3243 10.9345 21.2901 10.8532 21.2256L10.8532 21.2255C10.8066 21.1886 10.7671 21.1428 10.7366 21.0906H13.2674C13.2369 21.1428 13.1974 21.1886 13.1507 21.2255L13.1507 21.2256C13.0695 21.2901 12.9712 21.3243 12.8706 21.3241ZM14.2809 19.8193V19.8238C14.2809 19.9562 14.2307 20.0823 14.1428 20.1747C14.055 20.2668 13.9371 20.3176 13.8151 20.3176H10.1915C10.0696 20.3176 9.95153 20.2668 9.8638 20.1747C9.77588 20.0823 9.72571 19.9562 9.72571 19.8238V19.6625H14.2773L14.2809 19.8193ZM15.8063 13.2564C14.7748 14.386 14.1968 15.8858 14.1874 17.4463H9.8163C9.80356 15.887 9.22476 14.3892 8.19477 13.2595L8.19479 13.2595L8.19342 13.258C7.68587 12.7232 7.28706 12.0851 7.02181 11.3827L7.02181 11.3827C6.75644 10.6802 6.63029 9.92818 6.65089 9.17262L6.65089 9.17244C6.68679 7.75914 7.22636 6.41238 8.16157 5.39764C9.09675 4.38307 10.3594 3.77452 11.6998 3.6904C12.7788 3.62478 13.8517 3.90408 14.7769 4.49207C15.7023 5.08012 16.4368 5.9496 16.8826 6.98602L16.9744 6.94651L16.8826 6.98603C17.3285 8.02262 17.4644 9.17694 17.2723 10.2967C17.0802 11.4163 16.5692 12.4478 15.8074 13.2552L15.8063 13.2564ZM14.2761 18.2401L14.2803 18.8864H9.72875V18.2401H14.2761Z" fill="#8A8A8A" stroke="#8A8A8A" stroke-width="0.2"/>
<path d="M15.9941 8.48212C15.9958 8.33706 15.8903 8.21303 15.7468 8.19121L15.351 8.14173V8.14186C15.27 7.81043 15.1385 7.49355 14.961 7.20211L15.2084 6.88796C15.2885 6.7777 15.2813 6.62653 15.191 6.52431L14.4606 5.78833C14.3521 5.6969 14.1935 5.6969 14.0851 5.78833L13.7737 6.03274C13.481 5.85586 13.1631 5.72443 12.8309 5.64286L12.7814 5.24729C12.7595 5.10379 12.6355 4.99833 12.4904 5.00002H11.4777C11.3325 4.99833 11.2083 5.10379 11.1866 5.24729L11.1371 5.64286C10.8049 5.72442 10.487 5.85584 10.1942 6.03274L9.89447 5.78833C9.78119 5.70261 9.62243 5.71118 9.51902 5.80872L8.78862 6.52428C8.69716 6.63272 8.69716 6.79116 8.78862 6.8996L9.03312 7.21376C8.85618 7.50544 8.7247 7.8222 8.6431 8.15337L8.24738 8.20286C8.10382 8.22454 7.99833 8.3487 8.00002 8.49376V9.51779C7.99833 9.66286 8.10382 9.78688 8.24738 9.8087L8.6431 9.85818C8.72468 10.1903 8.85616 10.5081 9.03312 10.8007L8.78862 11.0916C8.69872 11.1995 8.69872 11.3561 8.78862 11.4639L9.51902 12.1883C9.62165 12.2867 9.78041 12.2966 9.89447 12.2115L10.2059 11.9643C10.4986 12.1412 10.8165 12.2726 11.1487 12.3542L11.1982 12.7497C11.2187 12.8944 11.3432 13.0014 11.4892 13H12.5136C12.6597 13.0014 12.7842 12.8944 12.8046 12.7497L12.8541 12.3542C13.1863 12.2726 13.5043 12.1412 13.797 11.9643L14.1084 12.2115C14.2176 12.284 14.3618 12.2744 14.4606 12.1883L15.191 11.4639C15.2878 11.3618 15.2976 11.2049 15.2142 11.0916L14.9669 10.7774C15.1438 10.4848 15.2753 10.1669 15.3569 9.8348L15.7526 9.78532V9.78545C15.8962 9.76363 16.0017 9.63961 16 9.49454L15.9941 8.48212ZM15.4295 9.25587L15.0831 9.2995L15.0833 9.29963C14.9633 9.31756 14.8671 9.40795 14.8417 9.52652C14.7672 9.92391 14.6106 10.3013 14.382 10.6348C14.3127 10.7346 14.3127 10.8668 14.382 10.9665L14.5974 11.2429L14.2364 11.6065L13.9628 11.3912C13.8624 11.3207 13.7286 11.3207 13.6282 11.3912C13.2948 11.6177 12.9184 11.7733 12.5223 11.8479C12.4028 11.8737 12.3121 11.9713 12.2954 12.0924L12.2517 12.4386L11.7279 12.4385L11.6988 12.0894C11.682 11.9685 11.5913 11.8708 11.4718 11.8451C11.0753 11.7701 10.6987 11.6137 10.366 11.3855C10.2655 11.3148 10.1317 11.3148 10.0313 11.3855L9.7577 11.6008L9.37067 11.2429L9.58608 10.9665C9.65519 10.8668 9.65519 10.7346 9.58608 10.6348C9.35742 10.3013 9.20074 9.92391 9.12617 9.52652C9.10084 9.40795 9.00457 9.31755 8.88466 9.29963L8.5383 9.256V8.73236L8.89636 8.69743C9.01719 8.67912 9.11358 8.5873 9.13788 8.46756C9.21284 8.07119 9.36939 7.69484 9.59765 7.36211C9.6682 7.26185 9.6682 7.12795 9.59765 7.02758L9.37069 6.74836L9.74315 6.37018L10.0168 6.58551C10.1172 6.65603 10.251 6.65603 10.3514 6.58551C10.6841 6.3572 11.0608 6.20071 11.4573 6.12577C11.5759 6.10045 11.6663 6.00422 11.6842 5.88435L11.7279 5.55565H12.2517L12.2954 5.90188C12.3081 6.02421 12.401 6.12304 12.5223 6.1433C12.9188 6.21824 13.2955 6.37473 13.6282 6.60291C13.7286 6.67342 13.8624 6.67342 13.9628 6.60291L14.2364 6.38758L14.6089 6.74837L14.3935 7.02188C14.323 7.12214 14.323 7.25604 14.3935 7.35641C14.6219 7.68901 14.7784 8.06549 14.8534 8.46186C14.8776 8.58147 14.9741 8.67328 15.0949 8.6916L15.4413 8.73238L15.4295 9.25587Z" fill="#8A8A8A"/>
<path d="M12 7C11.4691 7 10.96 7.21105 10.5848 7.58668C10.2097 7.96231 9.9993 8.47174 10 9.00263C10.0007 9.53351 10.2124 10.0423 10.5885 10.417C10.9646 10.7917 11.4742 11.0014 12.0052 11C12.5361 10.9986 13.0446 10.7863 13.4188 10.4096C13.7929 10.0331 14.0021 9.5232 14 8.99231C13.9979 8.46325 13.7864 7.95645 13.4115 7.58312C13.0367 7.20968 12.5291 7 12 7ZM12 10.4988C11.6021 10.4988 11.2205 10.3409 10.939 10.0597C10.6575 9.77857 10.4991 9.39719 10.4987 8.99931C10.4983 8.60142 10.6558 8.2196 10.9366 7.93785C11.2174 7.65599 11.5987 7.49716 11.9966 7.49625C12.3944 7.49533 12.7764 7.65244 13.0586 7.93292C13.3407 8.21352 13.4999 8.59454 13.5013 8.9924C13.502 9.3912 13.3442 9.77404 13.0626 10.0565C12.7811 10.339 12.3988 10.4981 12 10.4988H12Z" fill="#8A8A8A"/>
</svg>
