<svg width="226" height="207" viewBox="0 0 226 207" fill="none" xmlns="http://www.w3.org/2000/svg">
<g filter="url(#filter0_d_951_9435)">
<rect x="5" y="3" width="216" height="197" rx="8" fill="white" shape-rendering="crispEdges"/>
<rect x="14.5" y="17.5" width="197" height="137.486" rx="5.5" fill="#161A23" stroke="#353E52"/>
<mask id="path-3-inside-1_951_9435" fill="white">
<path d="M14 23C14 19.6863 16.6863 17 20 17H206C209.314 17 212 19.6863 212 23V39.8902H14V23Z"/>
</mask>
<path d="M14 23C14 19.6863 16.6863 17 20 17H206C209.314 17 212 19.6863 212 23V39.8902H14V23Z" fill="#F1F1F1"/>
<path d="M13 23C13 19.134 16.134 16 20 16H206C209.866 16 213 19.134 213 23H211C211 20.2386 208.761 18 206 18H20C17.2386 18 15 20.2386 15 23H13ZM213 40.8902H13L15 38.8902H211L213 40.8902ZM13 40.8902V23C13 19.134 16.134 16 20 16V18C17.2386 18 15 20.2386 15 23V38.8902L13 40.8902ZM206 16C209.866 16 213 19.134 213 23V40.8902L211 38.8902V23C211 20.2386 208.761 18 206 18V16Z" fill="#F1F0F0" mask="url(#path-3-inside-1_951_9435)"/>
<circle cx="30.5954" cy="29.0175" r="5.15029" fill="#8A8A8A"/>
<circle cx="169.081" cy="29.0175" r="2.86127" fill="#8A8A8A"/>
<circle cx="178.237" cy="29.0175" r="2.86127" fill="#8A8A8A"/>
<circle cx="187.393" cy="29.0175" r="2.86127" fill="#8A8A8A"/>
<rect x="22.0115" y="46.7578" width="36.6243" height="33.1908" rx="3" fill="#393D45"/>
<rect x="22.0115" y="92.5391" width="36.6243" height="33.1908" rx="3" fill="#393D45"/>
<rect x="70.0808" y="46.7578" width="36.6243" height="33.1908" rx="3" fill="#393D45"/>
<rect x="70.0808" y="92.5391" width="36.6243" height="33.1908" rx="3" fill="#393D45"/>
<rect x="118.15" y="46.7578" width="36.6243" height="33.1908" rx="3" fill="#393D45"/>
<rect x="118.15" y="92.5391" width="36.6243" height="33.1908" rx="3" fill="#393D45"/>
<rect x="166.22" y="46.7578" width="36.6243" height="33.1908" rx="3" fill="#393D45"/>
<rect x="166.22" y="92.5391" width="36.6243" height="33.1908" rx="3" fill="#393D45"/>
<path d="M104.35 175.8C104.35 176.867 104.177 177.843 103.83 178.73C103.483 179.61 102.993 180.367 102.36 181C101.733 181.633 100.977 182.127 100.09 182.48C99.21 182.827 98.23 183 97.15 183H91.71V168.6H97.15C98.23 168.6 99.21 168.777 100.09 169.13C100.977 169.477 101.733 169.967 102.36 170.6C102.993 171.233 103.483 171.993 103.83 172.88C104.177 173.76 104.35 174.733 104.35 175.8ZM101.96 175.8C101.96 174.973 101.847 174.23 101.62 173.57C101.4 172.91 101.08 172.353 100.66 171.9C100.247 171.447 99.7433 171.1 99.15 170.86C98.5567 170.613 97.89 170.49 97.15 170.49H94.06V181.11H97.15C97.89 181.11 98.5567 180.99 99.15 180.75C99.7433 180.51 100.247 180.163 100.66 179.71C101.08 179.25 101.4 178.693 101.62 178.04C101.847 177.38 101.96 176.633 101.96 175.8ZM112.121 178.54C111.354 178.567 110.708 178.63 110.181 178.73C109.654 178.823 109.228 178.947 108.901 179.1C108.574 179.247 108.338 179.423 108.191 179.63C108.051 179.837 107.981 180.063 107.981 180.31C107.981 180.55 108.018 180.757 108.091 180.93C108.171 181.097 108.278 181.237 108.411 181.35C108.551 181.457 108.711 181.537 108.891 181.59C109.078 181.637 109.281 181.66 109.501 181.66C110.061 181.66 110.541 181.557 110.941 181.35C111.348 181.137 111.741 180.83 112.121 180.43V178.54ZM106.421 174.22C107.574 173.147 108.948 172.61 110.541 172.61C111.128 172.61 111.648 172.707 112.101 172.9C112.561 173.087 112.944 173.353 113.251 173.7C113.564 174.047 113.801 174.46 113.961 174.94C114.128 175.413 114.211 175.94 114.211 176.52V183H113.251C113.044 183 112.888 182.97 112.781 182.91C112.674 182.843 112.584 182.713 112.511 182.52L112.301 181.69C112.041 181.923 111.784 182.133 111.531 182.32C111.278 182.5 111.014 182.653 110.741 182.78C110.474 182.907 110.184 183 109.871 183.06C109.564 183.127 109.224 183.16 108.851 183.16C108.438 183.16 108.051 183.103 107.691 182.99C107.338 182.877 107.031 182.707 106.771 182.48C106.511 182.247 106.304 181.96 106.151 181.62C106.004 181.28 105.931 180.88 105.931 180.42C105.931 180.027 106.034 179.643 106.241 179.27C106.454 178.897 106.801 178.563 107.281 178.27C107.768 177.97 108.404 177.723 109.191 177.53C109.984 177.337 110.961 177.227 112.121 177.2V176.52C112.121 175.787 111.964 175.24 111.651 174.88C111.338 174.52 110.878 174.34 110.271 174.34C109.858 174.34 109.511 174.393 109.231 174.5C108.951 174.6 108.708 174.71 108.501 174.83C108.294 174.95 108.111 175.063 107.951 175.17C107.791 175.27 107.621 175.32 107.441 175.32C107.294 175.32 107.168 175.283 107.061 175.21C106.961 175.13 106.878 175.033 106.811 174.92L106.421 174.22ZM119.16 174.69C119.48 174.043 119.866 173.537 120.32 173.17C120.773 172.797 121.316 172.61 121.95 172.61C122.17 172.61 122.376 172.637 122.57 172.69C122.763 172.737 122.936 172.81 123.09 172.91L122.94 174.53C122.913 174.643 122.87 174.723 122.81 174.77C122.756 174.81 122.683 174.83 122.59 174.83C122.49 174.83 122.346 174.813 122.16 174.78C121.973 174.74 121.776 174.72 121.57 174.72C121.27 174.72 121.003 174.763 120.77 174.85C120.543 174.937 120.336 175.063 120.15 175.23C119.97 175.397 119.81 175.6 119.67 175.84C119.53 176.08 119.4 176.353 119.28 176.66V183H117.13V172.8H118.38C118.606 172.8 118.763 172.843 118.85 172.93C118.936 173.01 118.996 173.153 119.03 173.36L119.16 174.69ZM127.062 168.2V176.78H127.522C127.669 176.78 127.789 176.76 127.882 176.72C127.976 176.68 128.072 176.597 128.172 176.47L131.032 173.2C131.132 173.067 131.242 172.967 131.362 172.9C131.482 172.833 131.636 172.8 131.822 172.8H133.772L130.332 176.68C130.132 176.94 129.912 177.147 129.672 177.3C129.806 177.393 129.922 177.5 130.022 177.62C130.122 177.733 130.219 177.863 130.312 178.01L133.982 183H132.062C131.889 183 131.739 182.973 131.612 182.92C131.492 182.86 131.386 182.753 131.292 182.6L128.342 178.6C128.242 178.447 128.142 178.35 128.042 178.31C127.942 178.263 127.792 178.24 127.592 178.24H127.062V183H124.912V168.2H127.062Z" fill="#0D3C84"/>
</g>
<defs>
<filter id="filter0_d_951_9435" x="0" y="0" width="226" height="207" filterUnits="userSpaceOnUse" color-interpolation-filters="sRGB">
<feFlood flood-opacity="0" result="BackgroundImageFix"/>
<feColorMatrix in="SourceAlpha" type="matrix" values="0 0 0 0 0 0 0 0 0 0 0 0 0 0 0 0 0 0 127 0" result="hardAlpha"/>
<feOffset dy="2"/>
<feGaussianBlur stdDeviation="2.5"/>
<feComposite in2="hardAlpha" operator="out"/>
<feColorMatrix type="matrix" values="0 0 0 0 0.541176 0 0 0 0 0.541176 0 0 0 0 0.541176 0 0 0 0.5 0"/>
<feBlend mode="normal" in2="BackgroundImageFix" result="effect1_dropShadow_951_9435"/>
<feBlend mode="normal" in="SourceGraphic" in2="effect1_dropShadow_951_9435" result="shape"/>
</filter>
</defs>
</svg>
