<svg width="228" height="209" viewBox="0 0 228 209" fill="none" xmlns="http://www.w3.org/2000/svg">
<g filter="url(#filter0_d_951_9418)">
<rect x="6" y="4" width="216" height="197" rx="8" fill="white" shape-rendering="crispEdges"/>
<rect x="15.5" y="18.5" width="197" height="137.486" rx="5.5" fill="white" stroke="#F1F0F0"/>
<mask id="path-3-inside-1_951_9418" fill="white">
<path d="M15 24C15 20.6863 17.6863 18 21 18H207C210.314 18 213 20.6863 213 24V40.8902H15V24Z"/>
</mask>
<path d="M15 24C15 20.6863 17.6863 18 21 18H207C210.314 18 213 20.6863 213 24V40.8902H15V24Z" fill="#F1F1F1"/>
<path d="M14 24C14 20.134 17.134 17 21 17H207C210.866 17 214 20.134 214 24H212C212 21.2386 209.761 19 207 19H21C18.2386 19 16 21.2386 16 24H14ZM214 41.8902H14L16 39.8902H212L214 41.8902ZM14 41.8902V24C14 20.134 17.134 17 21 17V19C18.2386 19 16 21.2386 16 24V39.8902L14 41.8902ZM207 17C210.866 17 214 20.134 214 24V41.8902L212 39.8902V24C212 21.2386 209.761 19 207 19V17Z" fill="#F1F0F0" mask="url(#path-3-inside-1_951_9418)"/>
<circle cx="31.5954" cy="30.0175" r="5.15029" fill="#8A8A8A"/>
<circle cx="170.081" cy="30.0175" r="2.86127" fill="#8A8A8A"/>
<circle cx="179.237" cy="30.0175" r="2.86127" fill="#8A8A8A"/>
<circle cx="188.393" cy="30.0175" r="2.86127" fill="#8A8A8A"/>
<rect x="23.0115" y="47.7578" width="36.6243" height="33.1908" rx="3" fill="#F1F1F1"/>
<rect x="23.0115" y="93.5391" width="36.6243" height="33.1908" rx="3" fill="#F1F1F1"/>
<rect x="71.0808" y="47.7578" width="36.6243" height="33.1908" rx="3" fill="#F1F1F1"/>
<rect x="71.0808" y="93.5391" width="36.6243" height="33.1908" rx="3" fill="#F1F1F1"/>
<rect x="119.15" y="47.7578" width="36.6243" height="33.1908" rx="3" fill="#F1F1F1"/>
<rect x="119.15" y="93.5391" width="36.6243" height="33.1908" rx="3" fill="#F1F1F1"/>
<rect x="167.22" y="47.7578" width="36.6243" height="33.1908" rx="3" fill="#F1F1F1"/>
<rect x="167.22" y="93.5391" width="36.6243" height="33.1908" rx="3" fill="#F1F1F1"/>
<path d="M101.03 182.04V184H92.71V169.6H95.05V182.04H101.03ZM105.282 173.8V184H103.132V173.8H105.282ZM105.642 170.72C105.642 170.913 105.602 171.097 105.522 171.27C105.449 171.443 105.345 171.597 105.212 171.73C105.079 171.857 104.922 171.96 104.742 172.04C104.569 172.113 104.382 172.15 104.182 172.15C103.989 172.15 103.805 172.113 103.632 172.04C103.465 171.96 103.319 171.857 103.192 171.73C103.065 171.597 102.962 171.443 102.882 171.27C102.809 171.097 102.772 170.913 102.772 170.72C102.772 170.52 102.809 170.333 102.882 170.16C102.962 169.987 103.065 169.837 103.192 169.71C103.319 169.577 103.465 169.473 103.632 169.4C103.805 169.32 103.989 169.28 104.182 169.28C104.382 169.28 104.569 169.32 104.742 169.4C104.922 169.473 105.079 169.577 105.212 169.71C105.345 169.837 105.449 169.987 105.522 170.16C105.602 170.333 105.642 170.52 105.642 170.72ZM112.023 178.81C112.69 178.81 113.19 178.64 113.523 178.3C113.857 177.96 114.023 177.517 114.023 176.97C114.023 176.41 113.857 175.967 113.523 175.64C113.19 175.313 112.69 175.15 112.023 175.15C111.363 175.15 110.863 175.313 110.523 175.64C110.19 175.967 110.023 176.41 110.023 176.97C110.023 177.237 110.067 177.483 110.153 177.71C110.24 177.937 110.367 178.133 110.533 178.3C110.7 178.46 110.907 178.587 111.153 178.68C111.407 178.767 111.697 178.81 112.023 178.81ZM115.013 184.5C115.013 184.273 114.947 184.093 114.813 183.96C114.687 183.82 114.513 183.713 114.293 183.64C114.073 183.56 113.817 183.503 113.523 183.47C113.23 183.43 112.917 183.403 112.583 183.39C112.257 183.37 111.92 183.353 111.573 183.34C111.233 183.32 110.903 183.287 110.583 183.24C110.263 183.407 110 183.607 109.793 183.84C109.593 184.073 109.493 184.343 109.493 184.65C109.493 184.85 109.543 185.037 109.643 185.21C109.75 185.383 109.91 185.533 110.123 185.66C110.343 185.787 110.62 185.887 110.953 185.96C111.293 186.033 111.7 186.07 112.173 186.07C113.12 186.07 113.83 185.923 114.303 185.63C114.777 185.337 115.013 184.96 115.013 184.5ZM117.173 174.17V174.97C117.173 175.237 117.013 175.4 116.693 175.46L115.673 175.63C115.847 176.017 115.933 176.447 115.933 176.92C115.933 177.42 115.833 177.873 115.633 178.28C115.44 178.687 115.17 179.033 114.823 179.32C114.477 179.607 114.063 179.827 113.583 179.98C113.103 180.133 112.583 180.21 112.023 180.21C111.81 180.21 111.6 180.2 111.393 180.18C111.193 180.153 110.997 180.12 110.803 180.08C110.61 180.193 110.467 180.313 110.373 180.44C110.28 180.567 110.233 180.697 110.233 180.83C110.233 181.05 110.33 181.213 110.523 181.32C110.717 181.427 110.97 181.503 111.283 181.55C111.603 181.597 111.967 181.627 112.373 181.64C112.78 181.653 113.193 181.677 113.613 181.71C114.033 181.743 114.447 181.8 114.853 181.88C115.26 181.953 115.62 182.08 115.933 182.26C116.253 182.433 116.51 182.67 116.703 182.97C116.897 183.27 116.993 183.66 116.993 184.14C116.993 184.58 116.883 185.01 116.663 185.43C116.443 185.85 116.123 186.223 115.703 186.55C115.29 186.877 114.783 187.137 114.183 187.33C113.583 187.53 112.9 187.63 112.133 187.63C111.373 187.63 110.71 187.557 110.143 187.41C109.583 187.263 109.113 187.063 108.733 186.81C108.36 186.563 108.08 186.277 107.893 185.95C107.713 185.623 107.623 185.283 107.623 184.93C107.623 184.45 107.773 184.04 108.073 183.7C108.38 183.36 108.793 183.093 109.313 182.9C109.033 182.767 108.807 182.583 108.633 182.35C108.467 182.117 108.383 181.81 108.383 181.43C108.383 181.13 108.493 180.817 108.713 180.49C108.933 180.163 109.263 179.887 109.703 179.66C109.197 179.38 108.797 179.01 108.503 178.55C108.21 178.083 108.063 177.54 108.063 176.92C108.063 176.413 108.16 175.957 108.353 175.55C108.553 175.143 108.83 174.797 109.183 174.51C109.537 174.223 109.953 174.003 110.433 173.85C110.92 173.697 111.45 173.62 112.023 173.62C112.903 173.62 113.67 173.803 114.323 174.17H117.173ZM121.422 175.01C121.842 174.597 122.302 174.267 122.802 174.02C123.302 173.767 123.885 173.64 124.552 173.64C125.112 173.64 125.602 173.733 126.022 173.92C126.448 174.107 126.805 174.37 127.092 174.71C127.385 175.05 127.605 175.46 127.752 175.94C127.898 176.413 127.972 176.937 127.972 177.51V184H125.832V177.51C125.832 176.823 125.672 176.29 125.352 175.91C125.038 175.53 124.558 175.34 123.912 175.34C123.432 175.34 122.985 175.45 122.572 175.67C122.165 175.89 121.782 176.19 121.422 176.57V184H119.272V169.2H121.422V175.01ZM134.016 184.16C133.169 184.16 132.516 183.923 132.056 183.45C131.603 182.97 131.376 182.297 131.376 181.43V175.49H130.256C130.136 175.49 130.033 175.453 129.946 175.38C129.859 175.3 129.816 175.183 129.816 175.03V174.16L131.466 173.92L131.936 170.97C131.969 170.857 132.026 170.767 132.106 170.7C132.186 170.627 132.293 170.59 132.426 170.59H133.526V173.94H136.356V175.49H133.526V181.28C133.526 181.647 133.616 181.927 133.796 182.12C133.976 182.313 134.216 182.41 134.516 182.41C134.683 182.41 134.826 182.39 134.946 182.35C135.066 182.303 135.169 182.257 135.256 182.21C135.343 182.157 135.416 182.11 135.476 182.07C135.543 182.023 135.606 182 135.666 182C135.786 182 135.883 182.067 135.956 182.2L136.596 183.25C136.263 183.543 135.869 183.77 135.416 183.93C134.963 184.083 134.496 184.16 134.016 184.16Z" fill="#0D3C84"/>
<rect x="6" y="4" width="216" height="197" rx="8" stroke="#FF5711" stroke-width="2" shape-rendering="crispEdges"/>
</g>
<defs>
<filter id="filter0_d_951_9418" x="0" y="0" width="228" height="209" filterUnits="userSpaceOnUse" color-interpolation-filters="sRGB">
<feFlood flood-opacity="0" result="BackgroundImageFix"/>
<feColorMatrix in="SourceAlpha" type="matrix" values="0 0 0 0 0 0 0 0 0 0 0 0 0 0 0 0 0 0 127 0" result="hardAlpha"/>
<feOffset dy="2"/>
<feGaussianBlur stdDeviation="2.5"/>
<feComposite in2="hardAlpha" operator="out"/>
<feColorMatrix type="matrix" values="0 0 0 0 0.541176 0 0 0 0 0.541176 0 0 0 0 0.541176 0 0 0 0.5 0"/>
<feBlend mode="normal" in2="BackgroundImageFix" result="effect1_dropShadow_951_9418"/>
<feBlend mode="normal" in="SourceGraphic" in2="effect1_dropShadow_951_9418" result="shape"/>
</filter>
</defs>
</svg>
