<svg width="226" height="207" viewBox="0 0 226 207" fill="none" xmlns="http://www.w3.org/2000/svg">
<g filter="url(#filter0_d_951_9452)">
<rect x="5" y="3" width="216" height="197" rx="8" fill="white" shape-rendering="crispEdges"/>
<rect x="14.5" y="17.5" width="197" height="137.486" rx="5.5" fill="white" stroke="#F1F0F0"/>
<mask id="path-3-inside-1_951_9452" fill="white">
<path d="M14 23C14 19.6863 16.6863 17 20 17H206C209.314 17 212 19.6863 212 23V39.8902H14V23Z"/>
</mask>
<path d="M14 23C14 19.6863 16.6863 17 20 17H206C209.314 17 212 19.6863 212 23V39.8902H14V23Z" fill="#0D3C84"/>
<path d="M13 23C13 19.134 16.134 16 20 16H206C209.866 16 213 19.134 213 23H211C211 20.2386 208.761 18 206 18H20C17.2386 18 15 20.2386 15 23H13ZM213 40.8902H13L15 38.8902H211L213 40.8902ZM13 40.8902V23C13 19.134 16.134 16 20 16V18C17.2386 18 15 20.2386 15 23V38.8902L13 40.8902ZM206 16C209.866 16 213 19.134 213 23V40.8902L211 38.8902V23C211 20.2386 208.761 18 206 18V16Z" fill="#F1F0F0" mask="url(#path-3-inside-1_951_9452)"/>
<circle cx="30.5954" cy="29.0175" r="5.15029" fill="#8A8A8A"/>
<circle cx="169.081" cy="29.0175" r="2.86127" fill="#8A8A8A"/>
<circle cx="178.237" cy="29.0175" r="2.86127" fill="#8A8A8A"/>
<circle cx="187.393" cy="29.0175" r="2.86127" fill="#8A8A8A"/>
<rect x="22.0115" y="46.7578" width="36.6243" height="33.1908" rx="3" fill="#BDE0FE"/>
<rect x="22.0115" y="92.5391" width="36.6243" height="33.1908" rx="3" fill="#BDE0FE"/>
<rect x="70.0808" y="46.7578" width="36.6243" height="33.1908" rx="3" fill="#BDE0FE"/>
<rect x="70.0808" y="92.5391" width="36.6243" height="33.1908" rx="3" fill="#BDE0FE"/>
<rect x="118.15" y="46.7578" width="36.6243" height="33.1908" rx="3" fill="#BDE0FE"/>
<rect x="118.15" y="92.5391" width="36.6243" height="33.1908" rx="3" fill="#BDE0FE"/>
<rect x="166.22" y="46.7578" width="36.6243" height="33.1908" rx="3" fill="#BDE0FE"/>
<rect x="166.22" y="92.5391" width="36.6243" height="33.1908" rx="3" fill="#BDE0FE"/>
<path d="M88.71 180.274C88.8367 180.274 88.9467 180.324 89.04 180.424L89.97 181.434C89.3833 182.141 88.6633 182.688 87.81 183.074C86.9567 183.454 85.9367 183.644 84.75 183.644C83.6967 183.644 82.7433 183.464 81.89 183.104C81.0433 182.738 80.32 182.231 79.72 181.584C79.12 180.931 78.6567 180.154 78.33 179.254C78.01 178.354 77.85 177.364 77.85 176.284C77.85 175.204 78.02 174.214 78.36 173.314C78.7067 172.408 79.19 171.631 79.81 170.984C80.4367 170.331 81.1833 169.824 82.05 169.464C82.9233 169.104 83.8833 168.924 84.93 168.924C85.97 168.924 86.8867 169.094 87.68 169.434C88.48 169.768 89.1733 170.214 89.76 170.774L88.99 171.864C88.9367 171.938 88.8733 172.001 88.8 172.054C88.7267 172.108 88.6267 172.134 88.5 172.134C88.3667 172.134 88.2133 172.074 88.04 171.954C87.8733 171.828 87.6567 171.691 87.39 171.544C87.13 171.391 86.8 171.254 86.4 171.134C86.0067 171.008 85.5133 170.944 84.92 170.944C84.2333 170.944 83.6033 171.064 83.03 171.304C82.4567 171.544 81.9633 171.894 81.55 172.354C81.1367 172.814 80.8133 173.374 80.58 174.034C80.3533 174.694 80.24 175.444 80.24 176.284C80.24 177.131 80.36 177.888 80.6 178.554C80.84 179.214 81.17 179.774 81.59 180.234C82.01 180.688 82.5033 181.034 83.07 181.274C83.6367 181.514 84.2467 181.634 84.9 181.634C85.3 181.634 85.6567 181.614 85.97 181.574C86.29 181.528 86.5833 181.458 86.85 181.364C87.1167 181.264 87.3667 181.141 87.6 180.994C87.84 180.848 88.0767 180.668 88.31 180.454C88.4433 180.334 88.5767 180.274 88.71 180.274ZM100.435 173.284V183.484H99.135C98.8483 183.484 98.665 183.348 98.585 183.074L98.425 182.124C98.2117 182.351 97.985 182.558 97.745 182.744C97.5117 182.931 97.2617 183.091 96.995 183.224C96.7283 183.358 96.4417 183.461 96.135 183.534C95.835 183.608 95.5117 183.644 95.165 183.644C94.605 183.644 94.1117 183.551 93.685 183.364C93.2583 183.178 92.8983 182.914 92.605 182.574C92.3183 182.234 92.1017 181.828 91.955 181.354C91.8083 180.874 91.735 180.348 91.735 179.774V173.284H93.885V179.774C93.885 180.461 94.0417 180.994 94.355 181.374C94.675 181.754 95.1583 181.944 95.805 181.944C96.2783 181.944 96.7183 181.838 97.125 181.624C97.5383 181.404 97.925 181.104 98.285 180.724V173.284H100.435ZM109.536 175.134C109.483 175.228 109.423 175.294 109.356 175.334C109.289 175.374 109.206 175.394 109.106 175.394C108.993 175.394 108.869 175.361 108.736 175.294C108.603 175.221 108.446 175.141 108.266 175.054C108.086 174.968 107.873 174.891 107.626 174.824C107.386 174.751 107.103 174.714 106.776 174.714C106.509 174.714 106.266 174.748 106.046 174.814C105.833 174.874 105.649 174.964 105.496 175.084C105.349 175.198 105.236 175.334 105.156 175.494C105.076 175.648 105.036 175.814 105.036 175.994C105.036 176.234 105.109 176.434 105.256 176.594C105.403 176.754 105.596 176.894 105.836 177.014C106.076 177.128 106.349 177.231 106.656 177.324C106.963 177.418 107.276 177.518 107.596 177.624C107.916 177.731 108.229 177.854 108.536 177.994C108.843 178.134 109.116 178.308 109.356 178.514C109.596 178.714 109.789 178.961 109.936 179.254C110.083 179.541 110.156 179.891 110.156 180.304C110.156 180.784 110.069 181.228 109.896 181.634C109.723 182.041 109.469 182.394 109.136 182.694C108.803 182.994 108.386 183.228 107.886 183.394C107.393 183.561 106.826 183.644 106.186 183.644C105.833 183.644 105.489 183.611 105.156 183.544C104.829 183.484 104.516 183.401 104.216 183.294C103.923 183.181 103.646 183.048 103.386 182.894C103.133 182.741 102.906 182.574 102.706 182.394L103.206 181.574C103.266 181.474 103.339 181.398 103.426 181.344C103.519 181.284 103.633 181.254 103.766 181.254C103.906 181.254 104.043 181.301 104.176 181.394C104.316 181.481 104.476 181.578 104.656 181.684C104.843 181.791 105.066 181.891 105.326 181.984C105.586 182.071 105.909 182.114 106.296 182.114C106.616 182.114 106.893 182.078 107.126 182.004C107.359 181.924 107.553 181.818 107.706 181.684C107.859 181.551 107.973 181.401 108.046 181.234C108.119 181.061 108.156 180.878 108.156 180.684C108.156 180.424 108.083 180.211 107.936 180.044C107.789 179.878 107.593 179.734 107.346 179.614C107.106 179.494 106.829 179.388 106.516 179.294C106.209 179.201 105.896 179.101 105.576 178.994C105.256 178.888 104.939 178.764 104.626 178.624C104.319 178.484 104.043 178.308 103.796 178.094C103.556 177.874 103.363 177.611 103.216 177.304C103.069 176.991 102.996 176.611 102.996 176.164C102.996 175.758 103.076 175.371 103.236 175.004C103.403 174.638 103.643 174.314 103.956 174.034C104.276 173.754 104.666 173.534 105.126 173.374C105.593 173.208 106.129 173.124 106.736 173.124C107.423 173.124 108.046 173.234 108.606 173.454C109.166 173.674 109.636 173.974 110.016 174.354L109.536 175.134ZM115.846 183.644C115 183.644 114.346 183.408 113.886 182.934C113.433 182.454 113.206 181.781 113.206 180.914V174.974H112.086C111.966 174.974 111.863 174.938 111.776 174.864C111.69 174.784 111.646 174.668 111.646 174.514V173.644L113.296 173.404L113.766 170.454C113.8 170.341 113.856 170.251 113.936 170.184C114.016 170.111 114.123 170.074 114.256 170.074H115.356V173.424H118.186V174.974H115.356V180.764C115.356 181.131 115.446 181.411 115.626 181.604C115.806 181.798 116.046 181.894 116.346 181.894C116.513 181.894 116.656 181.874 116.776 181.834C116.896 181.788 117 181.741 117.086 181.694C117.173 181.641 117.246 181.594 117.306 181.554C117.373 181.508 117.436 181.484 117.496 181.484C117.616 181.484 117.713 181.551 117.786 181.684L118.426 182.734C118.093 183.028 117.7 183.254 117.246 183.414C116.793 183.568 116.326 183.644 115.846 183.644ZM124.613 173.124C125.366 173.124 126.046 173.248 126.653 173.494C127.266 173.741 127.786 174.091 128.213 174.544C128.646 174.998 128.98 175.548 129.213 176.194C129.446 176.841 129.563 177.568 129.563 178.374C129.563 179.181 129.446 179.908 129.213 180.554C128.98 181.201 128.646 181.754 128.213 182.214C127.786 182.668 127.266 183.018 126.653 183.264C126.046 183.511 125.366 183.634 124.613 183.634C123.853 183.634 123.166 183.511 122.553 183.264C121.946 183.018 121.426 182.668 120.993 182.214C120.56 181.754 120.226 181.201 119.993 180.554C119.76 179.908 119.643 179.181 119.643 178.374C119.643 177.568 119.76 176.841 119.993 176.194C120.226 175.548 120.56 174.998 120.993 174.544C121.426 174.091 121.946 173.741 122.553 173.494C123.166 173.248 123.853 173.124 124.613 173.124ZM124.613 181.954C125.533 181.954 126.216 181.648 126.663 181.034C127.116 180.414 127.343 179.531 127.343 178.384C127.343 177.238 127.116 176.354 126.663 175.734C126.216 175.108 125.533 174.794 124.613 174.794C123.68 174.794 122.986 175.108 122.533 175.734C122.08 176.354 121.853 177.238 121.853 178.384C121.853 179.531 122.08 180.414 122.533 181.034C122.986 181.648 123.68 181.954 124.613 181.954ZM132.029 183.484V173.284H133.329C133.622 173.284 133.809 173.421 133.889 173.694L134.029 174.584C134.215 174.371 134.409 174.178 134.609 174.004C134.809 173.824 135.022 173.671 135.249 173.544C135.482 173.411 135.729 173.308 135.989 173.234C136.255 173.161 136.542 173.124 136.849 173.124C137.175 173.124 137.475 173.171 137.749 173.264C138.022 173.358 138.262 173.491 138.469 173.664C138.682 173.838 138.865 174.048 139.019 174.294C139.172 174.541 139.299 174.818 139.399 175.124C139.552 174.771 139.745 174.468 139.979 174.214C140.212 173.961 140.472 173.754 140.759 173.594C141.045 173.434 141.349 173.318 141.669 173.244C141.995 173.164 142.325 173.124 142.659 173.124C143.205 173.124 143.692 173.211 144.119 173.384C144.552 173.558 144.915 173.811 145.209 174.144C145.509 174.471 145.735 174.874 145.889 175.354C146.042 175.834 146.119 176.381 146.119 176.994V183.484H143.969V176.994C143.969 176.274 143.812 175.734 143.499 175.374C143.192 175.008 142.735 174.824 142.129 174.824C141.855 174.824 141.599 174.871 141.359 174.964C141.119 175.058 140.909 175.194 140.729 175.374C140.549 175.554 140.405 175.781 140.299 176.054C140.199 176.321 140.149 176.634 140.149 176.994V183.484H137.999V176.994C137.999 176.248 137.849 175.701 137.549 175.354C137.249 175.001 136.809 174.824 136.229 174.824C135.829 174.824 135.459 174.928 135.119 175.134C134.779 175.334 134.465 175.611 134.179 175.964V183.484H132.029Z" fill="#0D3C84"/>
</g>
<defs>
<filter id="filter0_d_951_9452" x="0" y="0" width="226" height="207" filterUnits="userSpaceOnUse" color-interpolation-filters="sRGB">
<feFlood flood-opacity="0" result="BackgroundImageFix"/>
<feColorMatrix in="SourceAlpha" type="matrix" values="0 0 0 0 0 0 0 0 0 0 0 0 0 0 0 0 0 0 127 0" result="hardAlpha"/>
<feOffset dy="2"/>
<feGaussianBlur stdDeviation="2.5"/>
<feComposite in2="hardAlpha" operator="out"/>
<feColorMatrix type="matrix" values="0 0 0 0 0.541176 0 0 0 0 0.541176 0 0 0 0 0.541176 0 0 0 0.5 0"/>
<feBlend mode="normal" in2="BackgroundImageFix" result="effect1_dropShadow_951_9452"/>
<feBlend mode="normal" in="SourceGraphic" in2="effect1_dropShadow_951_9452" result="shape"/>
</filter>
</defs>
</svg>
