<svg width="226" height="207" viewBox="0 0 226 207" fill="none" xmlns="http://www.w3.org/2000/svg">
<g filter="url(#filter0_d_951_9472)">
<rect x="5" y="3" width="216" height="197" rx="8" fill="white" shape-rendering="crispEdges"/>
<rect x="14.5" y="17.5" width="197" height="137.486" rx="5.5" fill="white" stroke="#F1F0F0"/>
<mask id="path-3-inside-1_951_9472" fill="white">
<path d="M14 23C14 19.6863 16.6863 17 20 17H206C209.314 17 212 19.6863 212 23V39.8902H14V23Z"/>
</mask>
<path d="M14 23C14 19.6863 16.6863 17 20 17H206C209.314 17 212 19.6863 212 23V39.8902H14V23Z" fill="#0D3C84"/>
<path d="M13 23C13 19.134 16.134 16 20 16H206C209.866 16 213 19.134 213 23H211C211 20.2386 208.761 18 206 18H20C17.2386 18 15 20.2386 15 23H13ZM213 40.8902H13L15 38.8902H211L213 40.8902ZM13 40.8902V23C13 19.134 16.134 16 20 16V18C17.2386 18 15 20.2386 15 23V38.8902L13 40.8902ZM206 16C209.866 16 213 19.134 213 23V40.8902L211 38.8902V23C211 20.2386 208.761 18 206 18V16Z" fill="#F1F0F0" mask="url(#path-3-inside-1_951_9472)"/>
<circle cx="30.5954" cy="29.0175" r="5.15029" fill="#8A8A8A"/>
<circle cx="169.081" cy="29.0175" r="2.86127" fill="#8A8A8A"/>
<circle cx="178.237" cy="29.0175" r="2.86127" fill="#8A8A8A"/>
<circle cx="187.393" cy="29.0175" r="2.86127" fill="#8A8A8A"/>
<rect x="22.0115" y="46.7578" width="36.6243" height="33.1908" rx="3" fill="#BDE0FE"/>
<rect x="22.0115" y="92.5391" width="36.6243" height="33.1908" rx="3" fill="#BDE0FE"/>
<rect x="70.0808" y="46.7578" width="36.6243" height="33.1908" rx="3" fill="#BDE0FE"/>
<rect x="70.0808" y="92.5391" width="36.6243" height="33.1908" rx="3" fill="#BDE0FE"/>
<rect x="118.15" y="46.7578" width="36.6243" height="33.1908" rx="3" fill="#BDE0FE"/>
<rect x="118.15" y="92.5391" width="36.6243" height="33.1908" rx="3" fill="#BDE0FE"/>
<rect x="166.22" y="46.7578" width="36.6243" height="33.1908" rx="3" fill="#BDE0FE"/>
<rect x="166.22" y="92.5391" width="36.6243" height="33.1908" rx="3" fill="#BDE0FE"/>
<path d="M86.24 171.544C86.1667 171.664 86.09 171.754 86.01 171.814C85.93 171.868 85.83 171.894 85.71 171.894C85.5833 171.894 85.44 171.841 85.28 171.734C85.1267 171.628 84.9333 171.511 84.7 171.384C84.4733 171.251 84.2033 171.131 83.89 171.024C83.5767 170.911 83.2033 170.854 82.77 170.854C82.37 170.854 82.0167 170.904 81.71 171.004C81.41 171.104 81.1567 171.244 80.95 171.424C80.7433 171.604 80.5867 171.818 80.48 172.064C80.38 172.304 80.33 172.568 80.33 172.854C80.33 173.221 80.4267 173.528 80.62 173.774C80.8133 174.014 81.0667 174.221 81.38 174.394C81.7 174.568 82.0633 174.721 82.47 174.854C82.8767 174.981 83.29 175.118 83.71 175.264C84.1367 175.411 84.5533 175.578 84.96 175.764C85.3667 175.951 85.7267 176.188 86.04 176.474C86.36 176.761 86.6167 177.111 86.81 177.524C87.0033 177.938 87.1 178.441 87.1 179.034C87.1 179.674 86.99 180.274 86.77 180.834C86.55 181.394 86.23 181.884 85.81 182.304C85.3967 182.718 84.8833 183.044 84.27 183.284C83.6633 183.524 82.97 183.644 82.19 183.644C81.73 183.644 81.28 183.598 80.84 183.504C80.4067 183.418 79.99 183.294 79.59 183.134C79.1967 182.968 78.8267 182.768 78.48 182.534C78.1333 182.301 77.8233 182.041 77.55 181.754L78.23 180.634C78.29 180.541 78.3667 180.468 78.46 180.414C78.5533 180.361 78.6567 180.334 78.77 180.334C78.9233 180.334 79.0933 180.408 79.28 180.554C79.4667 180.694 79.69 180.851 79.95 181.024C80.2167 181.191 80.5367 181.348 80.91 181.494C81.2833 181.634 81.73 181.704 82.25 181.704C83.0967 181.704 83.75 181.498 84.21 181.084C84.6767 180.671 84.91 180.101 84.91 179.374C84.91 178.968 84.8133 178.638 84.62 178.384C84.4267 178.124 84.17 177.908 83.85 177.734C83.5367 177.561 83.1767 177.414 82.77 177.294C82.3633 177.174 81.95 177.048 81.53 176.914C81.11 176.774 80.6967 176.614 80.29 176.434C79.8833 176.248 79.52 176.008 79.2 175.714C78.8867 175.414 78.6333 175.048 78.44 174.614C78.2467 174.174 78.15 173.628 78.15 172.974C78.15 172.454 78.25 171.951 78.45 171.464C78.6567 170.978 78.9533 170.548 79.34 170.174C79.7333 169.794 80.2167 169.491 80.79 169.264C81.3633 169.038 82.0167 168.924 82.75 168.924C83.5767 168.924 84.3333 169.054 85.02 169.314C85.7133 169.574 86.31 169.944 86.81 170.424L86.24 171.544ZM92.4487 183.644C91.6021 183.644 90.9487 183.408 90.4887 182.934C90.0354 182.454 89.8087 181.781 89.8087 180.914V174.974H88.6887C88.5687 174.974 88.4654 174.938 88.3787 174.864C88.2921 174.784 88.2487 174.668 88.2487 174.514V173.644L89.8987 173.404L90.3687 170.454C90.4021 170.341 90.4587 170.251 90.5387 170.184C90.6187 170.111 90.7254 170.074 90.8587 170.074H91.9587V173.424H94.7887V174.974H91.9587V180.764C91.9587 181.131 92.0487 181.411 92.2287 181.604C92.4087 181.798 92.6487 181.894 92.9487 181.894C93.1154 181.894 93.2587 181.874 93.3787 181.834C93.4987 181.788 93.6021 181.741 93.6887 181.694C93.7754 181.641 93.8487 181.594 93.9087 181.554C93.9754 181.508 94.0387 181.484 94.0987 181.484C94.2187 181.484 94.3154 181.551 94.3887 181.684L95.0287 182.734C94.6954 183.028 94.3021 183.254 93.8488 183.414C93.3954 183.568 92.9287 183.644 92.4487 183.644ZM105.933 173.284L100.313 186.384C100.24 186.538 100.15 186.658 100.043 186.744C99.9434 186.831 99.7868 186.874 99.5734 186.874H97.9834L99.8634 182.794L95.7034 173.284H97.5734C97.7534 173.284 97.8901 173.328 97.9834 173.414C98.0834 173.494 98.1568 173.591 98.2034 173.704L100.633 179.494C100.693 179.661 100.747 179.828 100.793 179.994C100.847 180.154 100.897 180.321 100.943 180.494C100.997 180.321 101.05 180.151 101.103 179.984C101.157 179.818 101.217 179.651 101.283 179.484L103.613 173.704C103.66 173.584 103.737 173.484 103.843 173.404C103.957 173.324 104.08 173.284 104.213 173.284H105.933ZM109.923 168.684V183.484H107.773V168.684H109.923ZM119.666 177.234C119.666 176.874 119.613 176.541 119.506 176.234C119.406 175.921 119.256 175.651 119.056 175.424C118.856 175.191 118.606 175.011 118.306 174.884C118.013 174.751 117.673 174.684 117.286 174.684C116.506 174.684 115.893 174.908 115.446 175.354C115 175.801 114.716 176.428 114.596 177.234H119.666ZM114.536 178.554C114.563 179.134 114.653 179.638 114.806 180.064C114.96 180.484 115.163 180.834 115.416 181.114C115.676 181.394 115.983 181.604 116.336 181.744C116.696 181.878 117.096 181.944 117.536 181.944C117.956 181.944 118.32 181.898 118.626 181.804C118.933 181.704 119.2 181.598 119.426 181.484C119.653 181.364 119.846 181.258 120.006 181.164C120.166 181.064 120.313 181.014 120.446 181.014C120.62 181.014 120.753 181.081 120.846 181.214L121.456 182.004C121.203 182.304 120.916 182.558 120.596 182.764C120.276 182.971 119.936 183.141 119.576 183.274C119.216 183.401 118.846 183.491 118.466 183.544C118.086 183.604 117.716 183.634 117.356 183.634C116.65 183.634 115.993 183.518 115.386 183.284C114.786 183.044 114.263 182.694 113.816 182.234C113.376 181.774 113.03 181.204 112.776 180.524C112.53 179.844 112.406 179.061 112.406 178.174C112.406 177.468 112.516 176.808 112.736 176.194C112.963 175.581 113.283 175.048 113.696 174.594C114.116 174.141 114.623 173.784 115.216 173.524C115.816 173.258 116.493 173.124 117.246 173.124C117.873 173.124 118.453 173.228 118.986 173.434C119.52 173.634 119.98 173.931 120.366 174.324C120.753 174.718 121.053 175.201 121.266 175.774C121.486 176.341 121.596 176.988 121.596 177.714C121.596 178.048 121.56 178.271 121.486 178.384C121.413 178.498 121.28 178.554 121.086 178.554H114.536ZM138.342 181.854V183.484H130.492V181.854H133.492V172.834C133.492 172.514 133.502 172.188 133.522 171.854L131.212 173.804C131.112 173.884 131.009 173.938 130.902 173.964C130.802 173.984 130.705 173.984 130.612 173.964C130.525 173.944 130.445 173.914 130.372 173.874C130.305 173.828 130.252 173.778 130.212 173.724L129.542 172.784L133.882 169.054H135.632V181.854H138.342Z" fill="#0D3C84"/>
</g>
<defs>
<filter id="filter0_d_951_9472" x="0" y="0" width="226" height="207" filterUnits="userSpaceOnUse" color-interpolation-filters="sRGB">
<feFlood flood-opacity="0" result="BackgroundImageFix"/>
<feColorMatrix in="SourceAlpha" type="matrix" values="0 0 0 0 0 0 0 0 0 0 0 0 0 0 0 0 0 0 127 0" result="hardAlpha"/>
<feOffset dy="2"/>
<feGaussianBlur stdDeviation="2.5"/>
<feComposite in2="hardAlpha" operator="out"/>
<feColorMatrix type="matrix" values="0 0 0 0 0.541176 0 0 0 0 0.541176 0 0 0 0 0.541176 0 0 0 0.5 0"/>
<feBlend mode="normal" in2="BackgroundImageFix" result="effect1_dropShadow_951_9472"/>
<feBlend mode="normal" in="SourceGraphic" in2="effect1_dropShadow_951_9472" result="shape"/>
</filter>
</defs>
</svg>
