<svg width="18" height="17" viewBox="0 0 18 17" fill="none" xmlns="http://www.w3.org/2000/svg">
<path d="M17.9999 0.788099H0.815472L0.815601 17.1914H18L17.9999 0.788099ZM6.2407 16.3218H1.72848V12.0147H6.2407V16.3218ZM6.2407 11.1435L1.72848 11.1433V6.83622H6.2407V11.1435ZM6.2407 5.96673L1.72848 5.96661V1.65948H6.2407V5.96673ZM11.6639 16.3218H7.15172V12.0147H11.6639V16.3218ZM11.6639 11.1435L7.15172 11.1433V6.83622H11.6639V11.1435ZM11.6639 5.96673L7.15172 5.96661V1.65948H11.6639V5.96673ZM17.0872 16.3218H12.575V12.0147H17.0872V16.3218ZM17.0872 11.1435L12.575 11.1433V6.83622H17.0872V11.1435ZM17.0872 5.96673L12.575 5.96661V1.65948H17.0872V5.96673Z" fill="#2DA2E1"/>
</svg>
