<svg width="24" height="24" viewBox="0 0 24 24" fill="none" xmlns="http://www.w3.org/2000/svg">
<rect width="24" height="24" rx="5" fill="#FF5711" fill-opacity="0.1"/>
<path d="M13.1625 10.235L10.3 10.5938L10.1975 11.0688L10.76 11.1725C11.1275 11.26 11.2 11.3925 11.12 11.7587L10.1975 16.0938C9.955 17.215 10.3288 17.7425 11.2075 17.7425C11.8888 17.7425 12.68 17.4275 13.0388 16.995L13.1487 16.475C12.8987 16.695 12.5338 16.7825 12.2912 16.7825C11.9475 16.7825 11.8225 16.5413 11.9113 16.1163L13.1625 10.235ZM13.25 7.625C13.25 7.95652 13.1183 8.27446 12.8839 8.50888C12.6495 8.7433 12.3315 8.875 12 8.875C11.6685 8.875 11.3505 8.7433 11.1161 8.50888C10.8817 8.27446 10.75 7.95652 10.75 7.625C10.75 7.29348 10.8817 6.97554 11.1161 6.74112C11.3505 6.5067 11.6685 6.375 12 6.375C12.3315 6.375 12.6495 6.5067 12.8839 6.74112C13.1183 6.97554 13.25 7.29348 13.25 7.625Z" fill="#FF5711"/>
</svg>
