<svg width="16" height="16" viewBox="0 0 16 16" fill="none" xmlns="http://www.w3.org/2000/svg">
<path d="M8.66699 2C7.07569 2 5.54957 2.63214 4.42435 3.75736C3.29913 4.88258 2.66699 6.4087 2.66699 8H0.666992L3.33366 10.66L6.00033 8H4.00033C4.00033 5.42 6.08699 3.33333 8.66699 3.33333C11.247 3.33333 13.3337 5.42 13.3337 8C13.3337 10.58 11.247 12.6667 8.66699 12.6667C7.38033 12.6667 6.21366 12.14 5.37366 11.2933L4.42699 12.24C4.9826 12.7987 5.64332 13.2418 6.37103 13.5439C7.09875 13.846 7.87907 14.001 8.66699 14C10.2583 14 11.7844 13.3679 12.9096 12.2426C14.0349 11.1174 14.667 9.5913 14.667 8C14.667 6.4087 14.0349 4.88258 12.9096 3.75736C11.7844 2.63214 10.2583 2 8.66699 2ZM8.00033 5.33333V8.66667L10.8337 10.3467L11.347 9.49333L9.00033 8.1V5.33333H8.00033Z" fill="#11A9FF"/>
</svg>
