<svg width="21" height="17" viewBox="0 0 21 17" fill="none" xmlns="http://www.w3.org/2000/svg">
<path fill-rule="evenodd" clip-rule="evenodd" d="M21 1.21421C21 0.543564 20.447 0 19.7648 0H1.23523C0.552973 0 0 0.543564 0 1.21421V15.7856C0 16.4562 0.552973 17 1.23523 17H19.7648C20.447 17 21 16.4562 21 15.7856V1.21421ZM1.23534 1.21421H19.7649V12.1427L16.2406 9.54456C15.7486 9.1819 15.0605 9.23008 14.6258 9.65738L12.9249 11.3292L7.56614 7.11494C7.1149 6.76021 6.47379 6.76021 6.02257 7.11494L1.2355 10.8796L1.23534 1.21421ZM19.7649 15.7856V13.6607L15.4994 10.5158L13.7984 12.1879C13.3534 12.6253 12.6447 12.6639 12.1533 12.2775L6.79404 8.06326L1.23518 12.4347V15.7856L19.7649 15.7856ZM16.059 4.85705C16.059 4.18641 15.506 3.64284 14.8237 3.64284C14.1415 3.64284 13.5883 4.18641 13.5883 4.85705C13.5883 5.5277 14.1415 6.07147 14.8237 6.07147C15.506 6.07147 16.059 5.5277 16.059 4.85705ZM14.8237 2.42863C16.1882 2.42863 17.2942 3.51581 17.2942 4.85705C17.2942 6.1983 16.1882 7.28569 14.8237 7.28569C13.4593 7.28569 12.3531 6.1983 12.3531 4.85705C12.3531 3.51581 13.4593 2.42863 14.8237 2.42863Z" fill="#886CC4"/>
</svg>
