<svg width="18" height="8" viewBox="0 0 18 8" fill="none" xmlns="http://www.w3.org/2000/svg">
<path d="M1.06 7V6.32H2.23V2.34H0.53V1.58H0.91C1.31 1.58 1.62333 1.53667 1.85 1.45C2.07667 1.36333 2.24 1.23 2.34 1.05C2.44 0.863333 2.50333 0.63 2.53 0.35V0.18H3.54V6.32H4.42V7H1.06ZM5.59469 6.77C5.59469 6.24333 5.67802 5.79 5.84469 5.41C6.01135 5.02333 6.24802 4.69667 6.55469 4.43C6.86135 4.15667 7.23135 3.92 7.66469 3.72L8.28469 3.43C8.45135 3.35 8.61469 3.26333 8.77469 3.17C8.93469 3.07 9.07802 2.96 9.20469 2.84C9.33802 2.72 9.44135 2.58667 9.51469 2.44C9.59469 2.28667 9.63469 2.11333 9.63469 1.92L10.9547 2.09C10.9547 2.43667 10.888 2.74 10.7547 3C10.628 3.25333 10.4547 3.47333 10.2347 3.66C10.0147 3.84667 9.76469 4.00667 9.48469 4.14C9.20469 4.27333 8.91469 4.38667 8.61469 4.48L8.00469 4.7C7.70469 4.8 7.45135 4.91 7.24469 5.03C7.03802 5.15 6.86802 5.28 6.73469 5.42C6.60802 5.56 6.51135 5.72667 6.44469 5.92L5.59469 7V6.77ZM5.59469 7V6.77L6.44469 5.92H10.9447V7H5.59469ZM9.41469 5.92C9.71469 5.92 9.91469 5.86333 10.0147 5.75C10.1147 5.63667 10.1647 5.42 10.1647 5.1V4.83H10.9447V5.92H9.41469ZM6.58469 2.68C6.42469 2.68 6.28135 2.64333 6.15469 2.57C6.02802 2.49667 5.92469 2.39333 5.84469 2.26C5.76469 2.12 5.72469 1.96 5.72469 1.78C5.72469 1.42667 5.84135 1.12333 6.07469 0.87C6.30802 0.616666 6.62469 0.423333 7.02469 0.29C7.42469 0.15 7.87135 0.0799997 8.36469 0.0799997C8.84469 0.0799997 9.27802 0.15 9.66469 0.29C10.058 0.43 10.3714 0.65 10.6047 0.95C10.838 1.24333 10.9547 1.62333 10.9547 2.09L9.63469 1.92C9.63469 1.68 9.56802 1.47667 9.43469 1.31C9.30802 1.14333 9.13135 1.02 8.90469 0.94C8.68469 0.853333 8.43135 0.81 8.14469 0.81C7.85802 0.81 7.59469 0.843333 7.35469 0.91C7.12135 0.976666 6.92802 1.07667 6.77469 1.21C6.62135 1.33667 6.52469 1.49667 6.48469 1.69L6.42469 1.42C6.69135 1.41333 6.90135 1.46667 7.05469 1.58C7.21469 1.68667 7.29469 1.84 7.29469 2.04C7.29469 2.22 7.23469 2.37333 7.11469 2.5C6.99469 2.62 6.81802 2.68 6.58469 2.68ZM15.138 7.1C14.578 7.1 14.0847 7.00333 13.658 6.81C13.238 6.61 12.9147 6.32333 12.688 5.95C12.4614 5.57 12.3614 5.11 12.388 4.57H13.178C13.198 4.89 13.2814 5.16667 13.428 5.4C13.5747 5.62667 13.7747 5.8 14.028 5.92C14.288 6.03333 14.5847 6.09 14.918 6.09C15.4247 6.09 15.8014 5.97333 16.048 5.74C16.3014 5.5 16.428 5.20667 16.428 4.86C16.428 4.58 16.348 4.35 16.188 4.17C16.028 3.98333 15.7914 3.84333 15.478 3.75C15.1714 3.65667 14.7914 3.61667 14.338 3.63V3.07C15.1314 3.01 15.778 3.05 16.278 3.19C16.778 3.33 17.148 3.55 17.388 3.85C17.628 4.15 17.748 4.51667 17.748 4.95C17.748 5.35 17.648 5.71333 17.448 6.04C17.2547 6.36 16.9647 6.61667 16.578 6.81C16.1914 7.00333 15.7114 7.1 15.138 7.1ZM14.338 2.94C14.978 2.94 15.4614 2.85 15.788 2.67C16.1214 2.48333 16.288 2.19667 16.288 1.81C16.288 1.49667 16.1547 1.25333 15.888 1.08C15.6214 0.9 15.2747 0.81 14.848 0.81C14.588 0.81 14.3547 0.84 14.148 0.9C13.948 0.953333 13.7847 1.03333 13.658 1.14C13.5314 1.24667 13.448 1.37667 13.408 1.53L13.318 1.33C13.538 1.32333 13.7247 1.36333 13.878 1.45C14.038 1.53667 14.118 1.67667 14.118 1.87C14.118 2.05 14.0547 2.19333 13.928 2.3C13.808 2.40667 13.6447 2.46 13.438 2.46C13.2047 2.46 13.008 2.38667 12.848 2.24C12.688 2.09333 12.608 1.88667 12.608 1.62C12.608 1.28667 12.718 1.00667 12.938 0.78C13.1647 0.553333 13.4647 0.38 13.838 0.26C14.2114 0.14 14.6214 0.0799997 15.068 0.0799997C15.5414 0.0799997 15.9647 0.15 16.338 0.29C16.718 0.423333 17.0147 0.613333 17.228 0.86C17.4414 1.10667 17.548 1.4 17.548 1.74C17.548 2.29333 17.2814 2.70333 16.748 2.97C16.2147 3.23667 15.4114 3.35667 14.338 3.33V2.94Z" fill="black" fill-opacity="0.47"/>
</svg>
