<svg width="200" height="62" viewBox="0 0 200 62" fill="none" xmlns="http://www.w3.org/2000/svg">
<path opacity="0.8" d="M181.963 47.7516L179.627 53.5356H178.655L176.319 47.7516H177.183C177.277 47.7516 177.353 47.7743 177.411 47.8196C177.47 47.865 177.514 47.9236 177.543 47.9956L178.907 51.5236C178.953 51.6383 178.995 51.765 179.035 51.9036C179.078 52.0396 179.118 52.1823 179.155 52.3316C179.187 52.1823 179.222 52.0396 179.259 51.9036C179.297 51.765 179.338 51.6383 179.383 51.5236L180.739 47.9956C180.761 47.9343 180.802 47.8783 180.863 47.8276C180.927 47.777 181.005 47.7516 181.095 47.7516H181.963ZM186.058 52.7956V53.5356H182.858V52.7956H184.03V49.4236C184.03 49.2903 184.034 49.153 184.042 49.0116L183.21 49.7076C183.162 49.745 183.114 49.769 183.066 49.7796C183.021 49.7876 182.977 49.7876 182.934 49.7796C182.894 49.7716 182.858 49.7583 182.826 49.7396C182.794 49.7183 182.77 49.6956 182.754 49.6716L182.442 49.2436L184.206 47.7436H185.018V52.7956H186.058ZM186.903 52.9916C186.903 52.909 186.917 52.8303 186.947 52.7556C186.979 52.681 187.021 52.617 187.075 52.5636C187.128 52.5103 187.192 52.4676 187.267 52.4356C187.341 52.4036 187.421 52.3876 187.507 52.3876C187.592 52.3876 187.671 52.4036 187.743 52.4356C187.817 52.4676 187.881 52.5103 187.935 52.5636C187.991 52.617 188.035 52.681 188.067 52.7556C188.099 52.8303 188.115 52.909 188.115 52.9916C188.115 53.077 188.099 53.157 188.067 53.2316C188.035 53.3036 187.991 53.3663 187.935 53.4196C187.881 53.473 187.817 53.5143 187.743 53.5436C187.671 53.5756 187.592 53.5916 187.507 53.5916C187.421 53.5916 187.341 53.5756 187.267 53.5436C187.192 53.5143 187.128 53.473 187.075 53.4196C187.021 53.3663 186.979 53.3036 186.947 53.2316C186.917 53.157 186.903 53.077 186.903 52.9916ZM192.597 52.7956V53.5356H189.397V52.7956H190.569V49.4236C190.569 49.2903 190.573 49.153 190.581 49.0116L189.749 49.7076C189.701 49.745 189.653 49.769 189.605 49.7796C189.56 49.7876 189.516 49.7876 189.473 49.7796C189.433 49.7716 189.397 49.7583 189.365 49.7396C189.333 49.7183 189.309 49.6956 189.293 49.6716L188.981 49.2436L190.745 47.7436H191.557V52.7956H192.597ZM193.442 52.9916C193.442 52.909 193.456 52.8303 193.486 52.7556C193.518 52.681 193.56 52.617 193.614 52.5636C193.667 52.5103 193.731 52.4676 193.806 52.4356C193.88 52.4036 193.96 52.3876 194.046 52.3876C194.131 52.3876 194.21 52.4036 194.282 52.4356C194.356 52.4676 194.42 52.5103 194.474 52.5636C194.53 52.617 194.574 52.681 194.606 52.7556C194.638 52.8303 194.654 52.909 194.654 52.9916C194.654 53.077 194.638 53.157 194.606 53.2316C194.574 53.3036 194.53 53.3663 194.474 53.4196C194.42 53.473 194.356 53.5143 194.282 53.5436C194.21 53.5756 194.131 53.5916 194.046 53.5916C193.96 53.5916 193.88 53.5756 193.806 53.5436C193.731 53.5143 193.667 53.473 193.614 53.4196C193.56 53.3663 193.518 53.3036 193.486 53.2316C193.456 53.157 193.442 53.077 193.442 52.9916ZM198.92 52.6156C199.027 52.6156 199.111 52.6463 199.172 52.7076C199.236 52.7663 199.268 52.845 199.268 52.9436V53.5356H195.3V53.2076C195.3 53.141 195.313 53.0716 195.34 52.9996C195.369 52.925 195.415 52.8583 195.476 52.7996L197.232 51.0396C197.379 50.8903 197.509 50.7476 197.624 50.6116C197.741 50.4756 197.839 50.341 197.916 50.2076C197.993 50.0743 198.052 49.9396 198.092 49.8036C198.135 49.665 198.156 49.5196 198.156 49.3676C198.156 49.229 198.136 49.1076 198.096 49.0036C198.056 48.897 197.999 48.8076 197.924 48.7356C197.852 48.6636 197.764 48.6103 197.66 48.5756C197.559 48.5383 197.444 48.5196 197.316 48.5196C197.199 48.5196 197.089 48.537 196.988 48.5716C196.889 48.6036 196.801 48.6503 196.724 48.7116C196.647 48.7703 196.581 48.8396 196.528 48.9196C196.475 48.9996 196.435 49.0876 196.408 49.1836C196.363 49.3063 196.304 49.3876 196.232 49.4276C196.16 49.4676 196.056 49.477 195.92 49.4556L195.4 49.3636C195.44 49.0863 195.517 48.8436 195.632 48.6356C195.747 48.425 195.889 48.2503 196.06 48.1116C196.233 47.9703 196.431 47.865 196.652 47.7956C196.876 47.7236 197.116 47.6876 197.372 47.6876C197.639 47.6876 197.883 47.7276 198.104 47.8076C198.325 47.885 198.515 47.9956 198.672 48.1396C198.829 48.2836 198.952 48.457 199.04 48.6596C199.128 48.8623 199.172 49.0876 199.172 49.3356C199.172 49.549 199.14 49.7463 199.076 49.9276C199.015 50.109 198.931 50.2823 198.824 50.4476C198.72 50.613 198.597 50.773 198.456 50.9276C198.315 51.0823 198.167 51.2396 198.012 51.3996L196.708 52.7316C196.833 52.6943 196.957 52.6663 197.08 52.6476C197.205 52.6263 197.324 52.6156 197.436 52.6156H198.92Z" fill="#0D3C84"/>
<path fill-rule="evenodd" clip-rule="evenodd" d="M34.1623 7.85553C34.8156 7.85553 35.4966 8.03494 36.2053 8.39818C37.1506 8.90101 37.8483 9.70828 38.304 10.8153L39.2016 13.0512C39.474 13.7164 39.8913 14.3396 40.4553 14.925C41.0001 15.5083 41.6451 16.0014 42.3899 16.405C43.3346 16.9078 44.2601 17.1604 45.1666 17.1604C45.6587 17.1604 46.1396 17.0896 46.6121 16.9482L48.7912 16.3439C49.1164 16.2448 49.453 16.1928 49.7973 16.1928C50.4892 16.1928 51.2149 16.3958 51.9765 16.7971C53.1026 17.3827 53.9198 18.2179 54.4281 19.3061L55.5732 21.6925C56.1371 22.8213 56.2455 23.9586 55.9012 25.1061C55.5372 26.2743 54.8366 27.0297 53.8026 27.3722L51.5151 28.1584C50.0806 28.6419 49.0996 29.6782 48.5716 31.2717C47.9549 33.0447 48.01 34.8358 48.7354 36.6487L49.9613 39.6701C50.5061 41.0206 50.6254 42.4607 50.3171 43.9901C49.7723 45.3002 48.9187 46.327 47.7544 47.0727L45.086 48.2201C44.4856 48.3828 43.9049 48.463 43.3433 48.463C42.5261 48.463 41.709 48.2812 40.8918 47.918C39.5825 46.9929 38.6847 45.7933 38.1955 44.3232L37.1059 41.0605C36.5779 39.4483 36.5694 38.0181 37.0782 36.7695C37.659 35.3603 38.6124 34.4322 39.9384 33.991L42.4982 33.0846C44.0603 32.5395 45.1307 31.4627 45.7114 29.8504C46.2562 28.2786 46.1843 26.638 45.4946 24.9267L44.4329 22.3585C43.76 20.725 42.6983 19.528 41.2446 18.7611C40.2831 18.2396 39.3297 17.9774 38.3844 17.9774C37.8954 17.996 37.3951 18.0765 36.8862 18.2179L34.4626 18.8838C34.0093 19.0039 33.5648 19.0632 33.1285 19.0632C32.3641 19.0632 31.6024 18.8529 30.8408 18.4306C29.804 17.8855 29.0785 16.9881 28.6617 15.7396L27.8695 13.3836C27.4886 12.2154 27.5525 11.1888 28.0613 10.301C28.5701 9.4158 29.2958 8.87315 30.2405 8.67011C30.4046 8.62956 30.5575 8.59887 30.7046 8.57996L33.045 8.06582C33.2089 8.0066 33.3451 7.96672 33.4536 7.94497C33.6901 7.88387 33.9265 7.85553 34.1623 7.85553Z" fill="#00ACDD"/>
<path fill-rule="evenodd" clip-rule="evenodd" d="M22.205 10.9052C22.8947 10.9052 23.5948 11.0962 24.3035 11.4812C25.3015 12.0026 25.9906 12.8595 26.3715 14.0494L27.136 16.4356C27.6808 18.0455 28.6869 19.2661 30.16 20.0923C31.1025 20.5951 32.0667 20.8477 33.0452 20.8477C33.6264 20.8663 34.2263 20.786 34.8434 20.6047L37.2673 19.9103C37.6508 19.7901 38.0317 19.7285 38.4124 19.7285C39.1573 19.7503 39.9106 19.9599 40.6722 20.3635C41.8533 20.9867 42.6792 21.8839 43.1515 23.0521L44.1883 25.651C44.6967 26.8596 44.7135 28.0871 44.241 29.3361C43.752 30.6057 42.9261 31.4414 41.7618 31.845L39.2017 32.7207C37.4782 33.2852 36.2525 34.4442 35.5244 36.1954C35.1437 37.1018 34.9437 38.03 34.9269 38.9764C34.9073 39.9227 35.0714 40.9403 35.4161 42.0261L36.4778 45.3214C36.9502 46.7922 36.9502 48.3712 36.4778 50.0639C35.5883 51.6355 34.4987 52.8134 33.2091 53.5995L30.16 54.8982C29.5788 55.0583 28.9957 55.1411 28.4145 55.1411C27.4888 55.1411 26.5912 54.9381 25.7182 54.5368C24.2671 53.7106 23.3305 52.4315 22.9138 50.6984L22.0409 47.1033C21.5878 45.2695 21.7685 43.6783 22.5857 42.3283C23.3669 40.7583 24.448 39.7414 25.8267 39.2785L28.7145 38.2493C30.6045 37.5858 31.9305 36.3772 32.6922 34.6236C33.092 33.7172 33.3285 32.8011 33.401 31.8759C33.4538 30.9296 33.3453 30.0321 33.0729 29.185L32.1474 26.4373C31.6026 24.7852 30.5043 23.5053 28.8507 22.5989C27.8893 22.0749 26.8995 21.8133 25.8823 21.8133C25.2652 21.8133 24.6286 21.9052 23.9755 22.0846L21.2516 22.8399C20.8151 22.9627 20.3788 23.0219 19.9452 23.0219C19.128 23.0219 18.3108 22.7996 17.4936 22.3584C16.3125 21.8343 15.5592 20.8875 15.231 19.5163L14.5779 16.9481C14.2696 15.6404 14.4864 14.531 15.231 13.6245C15.9039 12.6378 16.7211 12.0335 17.6826 11.8116C17.8467 11.793 18.002 11.7713 18.1469 11.7524L20.7624 11.1481C20.9432 11.0872 21.1154 11.0376 21.2795 10.997C21.5878 10.9361 21.8966 10.9052 22.205 10.9052Z" fill="#004166"/>
<path fill-rule="evenodd" clip-rule="evenodd" d="M18.4996 0C19.2277 0 20.0257 0.151073 20.8984 0.453217C21.9133 1.19655 22.5496 1.99228 22.8052 2.83944L23.4862 4.92375C23.7945 5.87055 23.703 6.83814 23.2138 7.82482C22.4493 8.81175 21.5047 9.4257 20.3787 9.66863L17.8465 10.242C16.1398 10.6246 14.8223 11.4695 13.8968 12.7795C12.9521 14.1089 12.6797 15.61 13.0796 17.2815L13.705 19.8799C14.0886 21.5115 15.0502 22.76 16.5928 23.6265C17.6101 24.1716 18.7552 24.4428 20.0257 24.4428C20.5705 24.4428 21.124 24.3909 21.6879 24.2917L24.4396 23.5056C24.6372 23.4446 24.8118 23.3949 24.9567 23.3546C25.2818 23.2531 25.6185 23.2035 25.9628 23.2035C26.6547 23.2035 27.425 23.3949 28.2781 23.7776C29.3873 24.5233 30.1402 25.5003 30.5408 26.7089L31.4383 29.5183C31.9108 30.9698 31.8748 32.2896 31.33 33.4764C30.532 34.9261 29.4871 35.8634 28.1975 36.2857L25.3374 37.2839C24.7926 37.4659 24.267 37.5554 23.7586 37.5554C22.9218 37.5771 22.0965 37.3432 21.2793 36.8616C20.134 36.0544 19.2808 34.9473 18.7193 33.5381L18.0106 30.5758C17.5549 28.763 16.5401 27.4123 14.9585 26.5271C13.8329 25.9016 12.6902 25.5904 11.5259 25.5904C10.9092 25.5904 10.275 25.6823 9.61911 25.8617L6.59771 26.7089C6.05292 26.851 5.50813 26.9192 4.96334 26.9192C4.14616 26.9192 3.33726 26.7495 2.53685 26.4067C1.37536 25.5808 0.694387 24.5329 0.493921 23.2651L0.0602145 20.4842C-0.140252 19.1154 0.160025 17.916 0.958054 16.8892C1.84759 15.7212 2.97312 14.9845 4.33509 14.6824L7.19524 14.0497C9.04926 13.6249 10.4472 12.7493 11.3897 11.4199C12.318 10.1098 12.5987 8.72231 12.2345 7.25147L11.6897 5.01373C11.454 4.04801 11.6817 3.04012 12.3707 1.99228C13.1156 1.20858 14.0417 0.715477 15.1505 0.512436L17.5462 0.0894356C17.8552 0.0283394 18.1745 0 18.4996 0Z" fill="#96BC33"/>
<path d="M74.2662 18.6618V22.3537H72.6749V36.1296H74.2662V39.8212H66.7841V36.1296H68.3759V22.3537H66.7841V18.6618H74.2662ZM89.7377 39.8212H85.5493V31.4274C85.5493 29.0858 84.7943 27.9148 83.2852 27.9148C82.5573 27.9148 81.9597 28.2266 81.489 28.8498C81.0232 29.4685 80.7911 30.2517 80.7911 31.2008V39.8212H76.5859V24.7139H80.7911V27.1033H80.8423C81.8404 25.2663 83.2983 24.3459 85.2176 24.3459C88.2308 24.3459 89.7377 26.421 89.7377 30.5682V39.8212Z" fill="#004166"/>
<path d="M101.31 39.6423C100.691 40.0056 99.7546 40.1897 98.501 40.1897C95.5385 40.1897 94.0578 38.4857 94.0578 35.0721V28.1511H91.853V24.7139H94.0578V21.4567L98.2542 20.1256V24.7139H101.31V28.1511H98.2542V34.2599C98.2542 35.8348 98.8159 36.6209 99.9398 36.6209C100.382 36.6209 100.838 36.479 101.31 36.1955V39.6423Z" fill="#004166"/>
<path d="M115.898 33.5995H107.02C107.16 35.79 108.407 36.885 110.757 36.885C112.255 36.885 113.57 36.4934 114.706 35.7047V39.0658C113.446 39.817 111.808 40.1897 109.795 40.1897C107.599 40.1897 105.892 39.5148 104.679 38.1594C103.464 36.8071 102.857 34.9211 102.857 32.5039C102.857 29.9997 103.513 28.014 104.823 26.5463C106.135 25.0802 107.748 24.3461 109.667 24.3461C111.653 24.3461 113.187 25.0023 114.272 26.31C115.355 27.62 115.898 29.3954 115.898 31.6355V33.5995ZM112.008 30.7291C112.008 28.5711 111.217 27.4902 109.633 27.4902C108.963 27.4902 108.382 27.8018 107.888 28.425C107.394 29.0432 107.092 29.8106 106.986 30.7291H112.008Z" fill="#004166"/>
<path d="M118.403 39.8217H122.608V17.4533H118.403V39.8217Z" fill="#004166"/>
<path d="M126.171 39.8217H130.376V17.4533H126.171V39.8217Z" fill="#004166"/>
<path d="M136.066 22.325C135.355 22.325 134.775 22.0937 134.321 21.6266C133.866 21.1544 133.64 20.583 133.64 19.9078C133.64 19.2094 133.866 18.6407 134.321 18.1991C134.775 17.7529 135.355 17.5287 136.066 17.5287C136.781 17.5287 137.362 17.7529 137.811 18.1991C138.258 18.6407 138.484 19.2094 138.484 19.9078C138.484 20.6137 138.258 21.192 137.811 21.6452C137.362 22.0984 136.781 22.325 136.066 22.325ZM138.143 39.8212H133.938V24.7138H138.143V39.8212Z" fill="#004166"/>
<path d="M153.146 22.5427H146.413V27.7353H152.602V31.6071H146.413V39.8212H142.114V18.6618H153.146V22.5427Z" fill="#004166"/>
<path d="M155.857 39.8217H160.062V17.4533H155.857V39.8217Z" fill="#004166"/>
<path d="M170.111 40.1897C167.84 40.1897 166.055 39.4865 164.757 38.0747C163.463 36.6657 162.816 34.7488 162.816 32.3245C162.816 29.8269 163.489 27.8726 164.834 26.4611C166.183 25.0518 168.004 24.3461 170.299 24.3461C172.563 24.3461 174.335 25.0518 175.619 26.4611C176.906 27.8726 177.551 29.7374 177.551 32.0604C177.551 34.5717 176.887 36.5545 175.559 38.0083C174.235 39.4629 172.42 40.1897 170.111 40.1897ZM170.222 27.9149C169.228 27.9149 168.456 28.2975 167.906 29.0576C167.356 29.8129 167.081 30.8844 167.081 32.2676C167.081 35.1713 168.136 36.6209 170.247 36.6209C172.261 36.6209 173.269 35.1288 173.269 32.1449C173.269 29.3265 172.252 27.9149 170.222 27.9149Z" fill="#004166"/>
<path d="M200 24.7139L196.076 39.8212H191.658L189.649 30.9648C189.517 30.3791 189.445 29.7373 189.428 29.0389H189.343C189.286 29.8082 189.198 30.4311 189.079 30.9079L186.925 39.8212H182.567L178.719 24.7139H183.001L184.874 34.5716C184.963 35.0322 185.031 35.5911 185.078 36.2524H185.155C185.2 35.5609 185.278 34.9777 185.393 34.5058L187.734 24.7139H191.743L193.846 34.5716C193.897 34.8172 193.957 35.3882 194.025 36.2807H194.118C194.163 35.7096 194.233 35.1379 194.331 34.5716L196.101 24.7139H200Z" fill="#004166"/>
</svg>
