<svg width="50" height="50" viewBox="0 0 50 50" fill="none" xmlns="http://www.w3.org/2000/svg">
<path d="M22.8194 23.1806C20.8966 23.1806 19.0169 22.6104 17.4181 21.5421C15.8193 20.4738 14.5731 18.9554 13.8373 17.1789C13.1014 15.4024 12.9089 13.4476 13.284 11.5616C13.6592 9.6757 14.5851 7.94337 15.9448 6.58369C17.3045 5.22401 19.0368 4.29806 20.9227 3.92293C22.8087 3.54779 24.7635 3.74033 26.54 4.47618C28.3165 5.21203 29.8349 6.45815 30.9032 8.05696C31.9715 9.65577 32.5417 11.5355 32.5417 13.4583C32.5417 16.0368 31.5174 18.5097 29.6941 20.333C27.8708 22.1563 25.3979 23.1806 22.8194 23.1806ZM22.8194 6.62501C21.446 6.62501 20.1033 7.03229 18.9613 7.79536C17.8193 8.55842 16.9292 9.643 16.4036 10.9119C15.878 12.1809 15.7405 13.5772 16.0084 14.9242C16.2764 16.2713 16.9378 17.5087 17.909 18.4799C18.8802 19.4511 20.1176 20.1125 21.4646 20.3805C22.8117 20.6484 24.208 20.5109 25.477 19.9853C26.7459 19.4597 27.8305 18.5696 28.5935 17.4276C29.3566 16.2856 29.7639 14.9429 29.7639 13.5695C29.7639 12.6575 29.5843 11.7545 29.2353 10.9119C28.8863 10.0694 28.3748 9.30384 27.7299 8.65899C27.0851 8.01414 26.3195 7.50261 25.477 7.15362C24.6344 6.80463 23.7314 6.62501 22.8194 6.62501ZM30.5556 24.8611C23.0395 23.1698 15.1764 23.9844 8.16666 27.1806C7.20263 27.6411 6.38925 28.366 5.82125 29.2708C5.25324 30.1757 4.95399 31.2233 4.95833 32.2917V40.5556C4.95833 40.738 4.99425 40.9186 5.06405 41.0871C5.13385 41.2556 5.23615 41.4087 5.36513 41.5377C5.4941 41.6666 5.64721 41.7689 5.81571 41.8387C5.98422 41.9085 6.16483 41.9445 6.34722 41.9445C6.52961 41.9445 6.71022 41.9085 6.87872 41.8387C7.04723 41.7689 7.20034 41.6666 7.32931 41.5377C7.45828 41.4087 7.56059 41.2556 7.63038 41.0871C7.70018 40.9186 7.73611 40.738 7.73611 40.5556V32.2917C7.72401 31.751 7.87002 31.2185 8.15622 30.7596C8.44241 30.3007 8.85634 29.9354 9.34722 29.7083C13.5698 27.7586 18.1685 26.7583 22.8194 26.7778C25.4254 26.7745 28.0225 27.0822 30.5556 27.6945V24.8611ZM30.75 38.0695H39.2778V40.0139H30.75V38.0695Z" fill="#FF5711"/>
<path d="M46.0694 29.8194H38.8889V32.5972H44.6806V44.2222H25V32.5972H33.75V33.1806C33.75 33.5489 33.8963 33.9022 34.1568 34.1626C34.4173 34.4231 34.7705 34.5694 35.1389 34.5694C35.5072 34.5694 35.8605 34.4231 36.121 34.1626C36.3815 33.9022 36.5278 33.5489 36.5278 33.1806V27.7778C36.5278 27.4094 36.3815 27.0561 36.121 26.7957C35.8605 26.5352 35.5072 26.3889 35.1389 26.3889C34.7705 26.3889 34.4173 26.5352 34.1568 26.7957C33.8963 27.0561 33.75 27.4094 33.75 27.7778V29.8194H23.6111C23.2428 29.8194 22.8895 29.9658 22.629 30.2262C22.3686 30.4867 22.2222 30.84 22.2222 31.2083V45.6111C22.2222 45.9795 22.3686 46.3327 22.629 46.5932C22.8895 46.8537 23.2428 47 23.6111 47H46.0694C46.4378 47 46.7911 46.8537 47.0515 46.5932C47.312 46.3327 47.4583 45.9795 47.4583 45.6111V31.2083C47.4583 30.84 47.312 30.4867 47.0515 30.2262C46.7911 29.9658 46.4378 29.8194 46.0694 29.8194Z" fill="#FF5711"/>
</svg>
