<svg width="10" height="10" viewBox="0 0 10 10" fill="none" xmlns="http://www.w3.org/2000/svg">
<path d="M1.99292 2.41081C1.88716 2.41081 1.78573 2.45282 1.71095 2.5276C1.63617 2.60238 1.59416 2.70381 1.59416 2.80957V6.39844C1.59416 6.5042 1.63617 6.60562 1.71095 6.68041C1.78573 6.75519 1.88716 6.7972 1.99292 6.7972H7.5756C7.68136 6.7972 7.78279 6.75519 7.85757 6.68041C7.93235 6.60562 7.97437 6.5042 7.97437 6.39844V2.80957C7.97437 2.70381 7.93235 2.60238 7.85757 2.5276C7.78279 2.45282 7.68136 2.41081 7.5756 2.41081H1.99292ZM1.99292 1.61328H7.5756C7.89288 1.61328 8.19716 1.73932 8.42151 1.96367C8.64585 2.18801 8.77189 2.49229 8.77189 2.80957V6.39844C8.77189 6.71571 8.64585 7.01999 8.42151 7.24434C8.19716 7.46869 7.89288 7.59473 7.5756 7.59473H1.99292C1.67564 7.59473 1.37136 7.46869 1.14702 7.24434C0.922668 7.01999 0.796631 6.71571 0.796631 6.39844V2.80957C0.796631 2.49229 0.922668 2.18801 1.14702 1.96367C1.37136 1.73932 1.67564 1.61328 1.99292 1.61328ZM3.58797 7.99349H5.98055C6.08631 7.99349 6.18774 8.0355 6.26252 8.11028C6.3373 8.18507 6.37931 8.28649 6.37931 8.39225C6.37931 8.49801 6.3373 8.59944 6.26252 8.67422C6.18774 8.749 6.08631 8.79102 5.98055 8.79102H3.58797C3.48221 8.79102 3.38079 8.749 3.306 8.67422C3.23122 8.59944 3.18921 8.49801 3.18921 8.39225C3.18921 8.28649 3.23122 8.18507 3.306 8.11028C3.38079 8.0355 3.48221 7.99349 3.58797 7.99349Z" fill="#0D3C84"/>
</svg>
