<svg width="41" height="26" viewBox="0 0 41 26" fill="none" xmlns="http://www.w3.org/2000/svg">
<path d="M24.1473 23.9718C24.1522 24.095 24.1075 24.2151 24.0232 24.3056C23.9393 24.3961 23.8226 24.4493 23.6994 24.4539H16.7503C16.4928 24.4451 16.2913 24.2293 16.2995 23.9718V23.0488H0.798428V24.5905C0.788467 24.9164 0.907998 25.2328 1.13084 25.4705C1.35396 25.7084 1.6619 25.8481 1.98778 25.8595H39.0152C39.3405 25.8481 39.6482 25.7081 39.8704 25.4702C40.0927 25.2322 40.2117 24.916 40.2011 24.5905V23.0488H24.1478L24.1473 23.9718Z" fill="#0D3C84"/>
<path d="M36.471 2.86923C36.4708 2.35781 36.2673 1.86774 35.9053 1.50658C35.5432 1.14543 35.0526 0.942792 34.5412 0.943361H5.90756C5.39643 0.943076 4.90607 1.14571 4.54462 1.50687C4.1829 1.86802 3.97998 2.35813 3.97998 2.86922V21.9476H36.4706L36.471 2.86923ZM34.4732 19.6286H5.9758V3.75226H34.4732V19.6286Z" fill="#0D3C84"/>
</svg>
