<svg width="41" height="26" viewBox="0 0 25 16" fill="none" xmlns="http://www.w3.org/2000/svg">
<path d="M14.8142 14.788C14.8172 14.8671 14.7889 14.9442 14.7354 15.0023C14.6822 15.0604 14.6081 15.0946 14.53 15.0975H10.1211C9.9577 15.0919 9.82986 14.9534 9.8351 14.788V14.1954H0.00036556V15.1852C-0.00595426 15.3945 0.0698826 15.5976 0.211265 15.7502C0.352828 15.903 0.5482 15.9927 0.754958 16H24.2472C24.4536 15.9927 24.6488 15.9028 24.7898 15.75C24.9308 15.5973 25.0063 15.3943 24.9996 15.1852V14.1954H14.8145L14.8142 14.788Z" fill="#FF5711"/>
<path d="M22.6327 1.23651C22.6325 0.908152 22.5034 0.593499 22.2737 0.361619C22.0441 0.12974 21.7328 -0.000364104 21.4083 7.65367e-07H3.24157C2.91727 -0.000181997 2.60617 0.129918 2.37685 0.361802C2.14735 0.593681 2.01861 0.908358 2.01861 1.23651V13.4858H22.6324L22.6327 1.23651ZM21.3651 11.9969H3.28486V1.80346H21.3651V11.9969Z" fill="#FF5711"/>
</svg>
