<svg width="16" height="15" viewBox="0 0 16 15" fill="none" xmlns="http://www.w3.org/2000/svg">
<path fill-rule="evenodd" clip-rule="evenodd" d="M1.4375 1.875C1.4375 1.62636 1.53627 1.3879 1.71209 1.21209C1.8879 1.03627 2.12636 0.9375 2.375 0.9375H13.625C13.8736 0.9375 14.1121 1.03627 14.2879 1.21209C14.4637 1.3879 14.5625 1.62636 14.5625 1.875V13.125C14.5625 13.3736 14.4637 13.6121 14.2879 13.7879C14.1121 13.9637 13.8736 14.0625 13.625 14.0625H2.375C2.12636 14.0625 1.8879 13.9637 1.71209 13.7879C1.53627 13.6121 1.4375 13.3736 1.4375 13.125V1.875ZM15.5 1.875C15.5 1.37772 15.3025 0.900806 14.9508 0.549175C14.5992 0.197544 14.1223 0 13.625 0L2.375 0C1.87772 0 1.40081 0.197544 1.04918 0.549175C0.697544 0.900806 0.5 1.37772 0.5 1.875V13.125C0.5 13.6223 0.697544 14.0992 1.04918 14.4508C1.40081 14.8025 1.87772 15 2.375 15H13.625C14.1223 15 14.5992 14.8025 14.9508 14.4508C15.3025 14.0992 15.5 13.6223 15.5 13.125V1.875ZM11.2812 7.03125C11.4056 7.03125 11.5248 7.08064 11.6127 7.16854C11.7006 7.25645 11.75 7.37568 11.75 7.5C11.75 7.62432 11.7006 7.74355 11.6127 7.83146C11.5248 7.91936 11.4056 7.96875 11.2812 7.96875H5.85031L7.86312 9.98063C7.90671 10.0242 7.94128 10.0759 7.96487 10.1329C7.98845 10.1898 8.00059 10.2509 8.00059 10.3125C8.00059 10.3741 7.98845 10.4352 7.96487 10.4921C7.94128 10.5491 7.90671 10.6008 7.86312 10.6444C7.81954 10.688 7.7678 10.7225 7.71086 10.7461C7.65392 10.7697 7.59289 10.7818 7.53125 10.7818C7.46961 10.7818 7.40858 10.7697 7.35164 10.7461C7.2947 10.7225 7.24296 10.688 7.19938 10.6444L4.38688 7.83187C4.34322 7.78833 4.30859 7.7366 4.28496 7.67966C4.26133 7.62271 4.24916 7.56166 4.24916 7.5C4.24916 7.43834 4.26133 7.37729 4.28496 7.32034C4.30859 7.26339 4.34322 7.21167 4.38688 7.16813L7.19938 4.35563C7.24296 4.31204 7.2947 4.27747 7.35164 4.25388C7.40858 4.2303 7.46961 4.21816 7.53125 4.21816C7.59289 4.21816 7.65392 4.2303 7.71086 4.25388C7.7678 4.27747 7.81954 4.31204 7.86312 4.35563C7.90671 4.39921 7.94128 4.45095 7.96487 4.50789C7.98845 4.56483 8.00059 4.62586 8.00059 4.6875C8.00059 4.74914 7.98845 4.81017 7.96487 4.86711C7.94128 4.92405 7.90671 4.97579 7.86312 5.01937L5.85031 7.03125H11.2812Z" fill="#0D3C84"/>
</svg>
