<svg width="20" height="20" viewBox="0 0 20 20" fill="none" xmlns="http://www.w3.org/2000/svg">
<path d="M8.28381 18.5806C6.39129 20.4731 3.31199 20.4731 1.41939 18.5806C-0.473129 16.6881 -0.473129 13.6088 1.41939 11.7162L4.8516 8.28403C6.74412 6.39153 9.82342 6.39153 11.716 8.28403V8.28387C11.8559 8.41981 11.9353 8.60603 11.9366 8.80089C11.938 8.99575 11.8611 9.18315 11.7233 9.32096C11.5855 9.45876 11.3983 9.53562 11.2032 9.53409C11.0084 9.53274 10.8222 9.45334 10.6864 9.31368C9.34643 7.97374 7.22114 7.97374 5.88098 9.31368L2.44877 12.7459C1.10882 14.0858 1.10882 16.2111 2.44877 17.5513C3.78871 18.8914 5.914 18.8912 7.25417 17.5513L10.3432 14.4622H10.3431C10.479 14.3225 10.6652 14.2431 10.8601 14.2418C11.055 14.2404 11.2422 14.3171 11.38 14.4549C11.5178 14.5927 11.5945 14.78 11.5933 14.9748C11.5919 15.1698 11.5125 15.3559 11.3727 15.4919L8.28364 18.5809L8.28381 18.5806ZM15.1482 11.7162C13.2557 13.6087 10.1764 13.6087 8.28381 11.7162C8.14414 11.5805 8.06475 11.3942 8.06356 11.1994C8.06221 11.0045 8.1389 10.8173 8.2767 10.6795C8.41451 10.5417 8.60174 10.465 8.79659 10.4663C8.99145 10.4675 9.17767 10.5469 9.31345 10.6866C10.6534 12.0265 12.7787 12.0265 14.1189 10.6866L17.5511 7.2544C18.891 5.91446 18.891 3.78918 17.5511 2.44902C16.2111 1.10886 14.0858 1.10908 12.7457 2.44902L9.65661 5.53806H9.65678C9.52084 5.67773 9.33462 5.75729 9.13975 5.75865C8.94488 5.76 8.75749 5.68314 8.61968 5.54534C8.48188 5.40754 8.40502 5.2203 8.40637 5.02528C8.4079 4.83042 8.4873 4.6442 8.62713 4.50842L11.7162 1.41938C13.6087 -0.473127 16.688 -0.473127 18.5806 1.41938C20.4731 3.31189 20.4731 6.39118 18.5806 8.28377L15.1482 11.7162Z" fill="#18ACB6"/>
</svg>
