<svg width="17" height="23" viewBox="0 0 17 23" fill="none" xmlns="http://www.w3.org/2000/svg">
<path d="M8.40903 0.000134572C8.36745 0.000936675 8.32303 0.00125754 8.27762 0.00286175C8.23589 0.00446599 8.19162 0.00831601 8.1462 0.0108828C8.10533 0.0129683 8.06148 0.0131287 8.01706 0.0161769C7.97519 0.018904 7.93361 0.0232357 7.89032 0.0267647H7.88564C7.84278 0.0304543 7.79936 0.0351064 7.75423 0.0400798C7.71108 0.0444112 7.6695 0.0484215 7.62749 0.0533949H7.62508C7.58222 0.058689 7.54036 0.0657474 7.49608 0.0720037L7.49849 0.0692765C7.45606 0.0748914 7.41334 0.0813083 7.36949 0.0878853H7.36707C7.32464 0.0944628 7.28008 0.103927 7.23566 0.111788L7.24034 0.109061C7.19692 0.116441 7.15207 0.124782 7.10893 0.132964C7.06621 0.141146 7.02335 0.15029 6.97992 0.159434C6.93763 0.168097 6.8952 0.176599 6.85319 0.185903H6.85078C6.80636 0.19601 6.76307 0.20756 6.72178 0.217667C6.6792 0.227934 6.63875 0.238682 6.59746 0.249431H6.59504C6.55247 0.260661 6.5106 0.27205 6.46831 0.283922C6.4263 0.295793 6.38401 0.308306 6.34158 0.320979C6.29943 0.333652 6.25643 0.347449 6.21485 0.360764L6.21726 0.358037C6.17454 0.371512 6.13225 0.386592 6.09053 0.40055C6.04795 0.414988 6.00694 0.431031 5.96621 0.445631H5.96379C5.92207 0.46055 5.88077 0.475149 5.83947 0.490711C5.8003 0.50531 5.76 0.520229 5.71984 0.535792C5.71827 0.536594 5.71671 0.537557 5.71515 0.538519C5.67386 0.555043 5.6317 0.571726 5.59083 0.588893C5.55152 0.605096 5.51207 0.622743 5.47347 0.639268H5.46878C5.42805 0.657074 5.38931 0.676646 5.34915 0.694935C5.30941 0.712742 5.26925 0.729266 5.22951 0.748037C5.22866 0.748839 5.22795 0.749801 5.2271 0.750764C5.18736 0.769694 5.14706 0.789426 5.10746 0.809159C5.06942 0.827767 5.03096 0.847821 4.9925 0.867554C4.98938 0.868356 4.98626 0.869318 4.98314 0.870281C4.94369 0.890975 4.90466 0.91263 4.86577 0.933969C4.82759 0.954343 4.79155 0.975037 4.7555 0.994931H4.75082C4.71207 1.01675 4.67461 1.04129 4.63586 1.06391V1.06119C4.59726 1.08348 4.55965 1.10691 4.52091 1.13017H4.5185C4.48032 1.15311 4.44214 1.17749 4.40354 1.20172C4.36693 1.2245 4.32819 1.24936 4.29086 1.27327H4.28845C4.25169 1.29733 4.21422 1.32412 4.17576 1.35027C4.13844 1.37562 4.10069 1.4008 4.06308 1.42727C4.02717 1.45198 3.99241 1.47668 3.9575 1.50155C3.95593 1.50235 3.95437 1.50331 3.95281 1.50427C3.91506 1.53171 3.87816 1.55978 3.84254 1.58657C3.80749 1.61272 3.77215 1.63903 3.73696 1.66614C3.70105 1.69373 3.66515 1.72229 3.62896 1.751H3.62654C3.59135 1.77924 3.55587 1.80715 3.52096 1.83587C3.48562 1.86474 3.45241 1.8941 3.41764 1.92346H3.41523C3.38018 1.95314 3.34612 1.98378 3.31191 2.01361H3.3095C3.27501 2.04409 3.24223 2.07602 3.2086 2.1065V2.10377C3.17355 2.13537 3.14062 2.16858 3.1077 2.19922V2.19649C3.07307 2.22858 3.03958 2.2605 3.0068 2.29195V2.29467C2.97401 2.32628 2.93924 2.35948 2.90589 2.39285C2.87425 2.42413 2.84374 2.45606 2.81209 2.4883H2.80968C2.77647 2.52231 2.74496 2.55568 2.71346 2.58904C2.68209 2.62209 2.65045 2.65642 2.61965 2.68979C2.58829 2.72396 2.55621 2.75909 2.52585 2.79326C2.52031 2.80016 2.51478 2.80722 2.50938 2.81444C2.52641 2.79374 2.51804 2.80321 2.48824 2.83834C2.46028 2.87042 2.43261 2.90235 2.4038 2.93652C2.37442 2.97053 2.34462 3.00437 2.31695 3.03726C2.31609 3.03806 2.31538 3.03903 2.31453 3.03999C2.28459 3.07608 2.25521 3.11138 2.22541 3.14875C2.19532 3.18629 2.1668 3.22383 2.13856 3.26008C2.11074 3.2957 2.08222 3.33195 2.05412 3.36885C2.02503 3.40703 1.99522 3.44489 1.96727 3.48291C1.96641 3.48371 1.9657 3.48467 1.96485 3.48564C1.93718 3.52382 1.91007 3.5636 1.88268 3.60243C1.85657 3.63916 1.83103 3.67654 1.8052 3.71376C1.77738 3.75386 1.7507 3.79269 1.72544 3.83055C1.72459 3.83135 1.72388 3.83231 1.72303 3.83327C1.69763 3.87161 1.67165 3.91204 1.64554 3.95263C1.62099 3.99049 1.59701 4.02851 1.57274 4.06668C1.57118 4.06925 1.56962 4.07198 1.56806 4.07471C1.54436 4.11305 1.51838 4.15411 1.49298 4.19679C1.469 4.23657 1.44601 4.27604 1.42259 4.31614C1.39818 4.35721 1.37434 4.39667 1.3522 4.43549C1.35135 4.43726 1.35064 4.43902 1.34979 4.44079C1.32694 4.48121 1.30281 4.5226 1.2794 4.56544V4.56816C1.25839 4.60683 1.23555 4.64918 1.21128 4.69554C1.18786 4.73966 1.16714 4.77992 1.14798 4.81763C1.14713 4.81939 1.14642 4.82115 1.14557 4.82292C1.12471 4.86431 1.10484 4.90426 1.08454 4.945C1.08369 4.9458 1.08298 4.94677 1.08213 4.94773C1.06155 4.98944 1.03998 5.03323 1.01884 5.07767C0.996839 5.12372 0.977823 5.16703 0.960224 5.20505C0.959373 5.20585 0.958663 5.20682 0.957812 5.20778C0.936808 5.2535 0.917648 5.29617 0.899199 5.33772C0.878763 5.38392 0.858752 5.43013 0.840587 5.47296V5.47569C0.822563 5.51884 0.802694 5.5652 0.784245 5.61092C0.766931 5.6536 0.748198 5.69996 0.730316 5.74616C0.713286 5.7898 0.697959 5.83375 0.681069 5.87883C0.665175 5.92135 0.646584 5.96658 0.629411 6.01407C0.613091 6.05947 0.59677 6.10792 0.580165 6.15733C0.564412 6.20305 0.549085 6.247 0.535601 6.28727V6.29C0.519707 6.33829 0.504805 6.38433 0.491038 6.42796C0.490187 6.42973 0.489477 6.43149 0.488626 6.43326C0.47344 6.48203 0.460242 6.52871 0.446333 6.57652C0.432709 6.6216 0.418943 6.66764 0.406453 6.71175C0.392119 6.76213 0.380766 6.80817 0.368843 6.85228C0.35451 6.90426 0.341595 6.9503 0.331233 6.99025C0.330382 6.99378 0.329672 6.99731 0.328821 7.00084C0.318319 7.04367 0.307533 7.08779 0.296038 7.13607C0.281705 7.19495 0.271345 7.24324 0.263256 7.27933C0.262404 7.28206 0.261694 7.28463 0.260843 7.28735C0.252328 7.3265 0.241826 7.37382 0.230331 7.43061C0.219404 7.48179 0.211882 7.52687 0.204502 7.56328C0.20365 7.56681 0.202941 7.57034 0.202089 7.57387C0.194142 7.61622 0.185485 7.66387 0.17626 7.7144C0.166042 7.76878 0.15696 7.81563 0.150432 7.85236C0.14958 7.85589 0.148871 7.85942 0.148019 7.86295C0.140355 7.9106 0.133969 7.95985 0.126873 8.00621C0.11921 8.0545 0.11254 8.10375 0.105728 8.15476C0.104876 8.15556 0.104167 8.15653 0.103315 8.15749C0.0974965 8.20145 0.0932391 8.24845 0.0868529 8.29802C0.0794734 8.35449 0.0726614 8.40165 0.0681201 8.44128V8.4493C0.063295 8.4947 0.0586117 8.53561 0.0540703 8.57395V8.58454C0.0478262 8.64405 0.0435686 8.69443 0.0400206 8.73566C0.039169 8.73838 0.0384595 8.74095 0.037608 8.74368C0.03406 8.78924 0.0317892 8.83335 0.0282415 8.87892C0.0235581 8.93859 0.0212873 8.98527 0.0188749 9.01688C0.0180235 9.02394 0.017172 9.031 0.0164624 9.03806C0.0133402 9.09789 0.0134822 9.14441 0.0117791 9.17602C0.00879886 9.23409 0.00638608 9.28062 0.00468326 9.31126C0.0042575 9.32537 0.0042575 9.33949 0.00468326 9.35377C0.00468326 9.35682 0 9.40334 0 9.49174V9.76493C0 9.85332 0.00468326 9.89985 0.00468326 9.9029C0.0042575 9.91701 0.0042575 9.93113 0.00468326 9.94541C0.00638622 9.97701 0.00851515 10.0235 0.0117791 10.0834C0.0134821 10.1148 0.0133401 10.1589 0.0164624 10.2186C0.0188749 10.2643 0.0211458 10.3109 0.0235582 10.3566C0.0266804 10.4164 0.0313636 10.4605 0.0329247 10.4918C0.0327828 10.4989 0.0327828 10.5059 0.0329247 10.513C0.0364727 10.5586 0.0421494 10.6137 0.0493868 10.6774C0.0526509 10.709 0.0554892 10.7554 0.0634366 10.8207C0.0679779 10.8632 0.0729452 10.911 0.0798989 10.9639V10.9667C0.0858593 11.0119 0.0919617 11.0518 0.096361 11.0887C0.0970706 11.0932 0.0979221 11.0976 0.0987736 11.1021C0.105728 11.1544 0.112681 11.2026 0.119919 11.2506C0.126873 11.302 0.132834 11.3472 0.138652 11.3859C0.139362 11.3886 0.140213 11.3911 0.141065 11.3939C0.149864 11.4484 0.157102 11.4977 0.164481 11.5397C0.165191 11.5432 0.166042 11.5468 0.166894 11.5503C0.174273 11.5896 0.183924 11.6353 0.194994 11.6908C0.202941 11.7335 0.209043 11.7787 0.21841 11.8261C0.219971 11.8305 0.221532 11.8349 0.223093 11.8394C0.231892 11.88 0.239839 11.9262 0.251193 11.9773C0.261127 12.0231 0.272764 12.0701 0.283975 12.1179C0.284685 12.1206 0.285536 12.1232 0.286388 12.1259C0.295613 12.1637 0.304411 12.2075 0.3169 12.2586C0.329672 12.3107 0.342871 12.3579 0.354509 12.4018C0.355219 12.4045 0.356071 12.4071 0.356922 12.4098C0.367992 12.4503 0.380338 12.4947 0.394532 12.5451C0.407162 12.5905 0.418231 12.6352 0.432141 12.683C0.446617 12.7334 0.461944 12.7795 0.474434 12.821C0.475144 12.8237 0.475995 12.8263 0.476847 12.829C0.49118 12.8751 0.504236 12.9211 0.519139 12.967C0.533189 13.0105 0.548658 13.0541 0.563702 13.0997C0.564412 13.1014 0.565264 13.1032 0.566115 13.105C0.582861 13.1542 0.59904 13.2002 0.615361 13.2455C0.630404 13.288 0.646015 13.3308 0.662337 13.3754V13.3782C0.678941 13.4232 0.696822 13.4688 0.713995 13.5134V13.5161C0.731877 13.5623 0.750468 13.608 0.767925 13.6514V13.6541C0.784955 13.6961 0.802978 13.7388 0.821854 13.784C0.822564 13.7858 0.823415 13.7876 0.824267 13.7893C0.841723 13.8299 0.862018 13.8747 0.882879 13.922C0.901044 13.9642 0.919209 14.0041 0.936808 14.0441C0.937518 14.0476 0.938369 14.0511 0.939221 14.0547C0.958096 14.0957 0.980376 14.1408 1.00252 14.1873C1.02153 14.2279 1.04112 14.2706 1.06113 14.312C1.07944 14.3494 1.1003 14.3914 1.12442 14.4394V14.4421C1.14713 14.4868 1.17069 14.5308 1.19254 14.572C1.21369 14.6126 1.23597 14.6527 1.25825 14.6941C1.27968 14.7339 1.30139 14.7769 1.32637 14.8215C1.35121 14.8661 1.3742 14.9072 1.39676 14.9461C1.42117 14.9882 1.44573 15.0284 1.46957 15.0682C1.49511 15.1109 1.52023 15.1508 1.54464 15.1903C1.57075 15.2325 1.59715 15.2734 1.62213 15.3124H1.61971C1.64583 15.3533 1.67407 15.3932 1.69947 15.4317C1.72558 15.4717 1.75127 15.511 1.77454 15.5458C1.77611 15.5476 1.77767 15.5493 1.77923 15.5511C1.80846 15.5936 1.83429 15.6328 1.85898 15.6679C1.8851 15.7048 1.91121 15.7412 1.93874 15.7792C1.93945 15.7802 1.9403 15.781 1.94115 15.7819C1.96897 15.8201 1.99664 15.8577 2.02559 15.896C2.05256 15.9319 2.07924 15.9677 2.10776 16.0048C2.10847 16.0057 2.10932 16.0065 2.11018 16.0075C2.13842 16.0441 2.16779 16.0794 2.19703 16.1163V16.119C2.22569 16.1548 2.25649 16.1917 2.28615 16.2278C2.31609 16.264 2.34732 16.3009 2.37769 16.3365C2.40536 16.3699 2.43176 16.4018 2.45985 16.4347C2.47916 16.4575 2.49363 16.4729 2.49264 16.4718C2.52272 16.5062 2.55451 16.542 2.58417 16.5752C2.58644 16.578 2.58886 16.5805 2.59127 16.5832C2.60801 16.6012 2.62434 16.6189 2.63824 16.6336L7.84807 22.6017C7.88738 22.6467 8.11615 22.9803 8.45534 22.9973C8.47563 22.9993 8.49593 23.0001 8.51636 23C8.86846 23.0014 9.11099 22.6589 9.15469 22.6089L14.3616 16.6363L14.3781 16.6177C14.3887 16.6065 14.3987 16.594 14.4086 16.5832C14.4117 16.5807 14.4148 16.5779 14.418 16.5752C14.4499 16.5398 14.4794 16.5037 14.5095 16.4692C14.5126 16.4666 14.5157 16.4639 14.5189 16.4611C14.5091 16.473 14.5162 16.4645 14.5376 16.44C14.5384 16.4382 14.5391 16.4364 14.54 16.4347C14.5682 16.4016 14.5968 16.3699 14.6244 16.3365L14.6315 16.3285C14.6596 16.2954 14.686 16.2611 14.7137 16.2277H14.7161C14.7452 16.1924 14.7756 16.1563 14.8052 16.119C14.8349 16.0818 14.8637 16.0445 14.8921 16.0076V16.0049C14.9196 15.9693 14.9472 15.9322 14.9743 15.8961L14.9767 15.8934C15.0051 15.8559 15.034 15.8193 15.0611 15.7821V15.7794C15.0874 15.7429 15.1145 15.7054 15.1409 15.668L15.1433 15.6653C15.1698 15.6278 15.1965 15.5901 15.223 15.5512L15.2277 15.5459C15.2517 15.5102 15.2765 15.4722 15.3028 15.4319C15.3282 15.3934 15.354 15.3534 15.3803 15.3125C15.4058 15.2726 15.4304 15.2309 15.4554 15.1905H15.4578C15.4815 15.1521 15.505 15.1112 15.5306 15.0684C15.5544 15.0286 15.5794 14.9874 15.6034 14.9463C15.6266 14.9062 15.6499 14.8641 15.6738 14.8216C15.6975 14.7791 15.7222 14.7352 15.7442 14.6943C15.7657 14.6545 15.7867 14.6139 15.8099 14.5696C15.8334 14.525 15.8549 14.4833 15.8756 14.4422V14.4395C15.897 14.397 15.92 14.3562 15.9413 14.3121C15.9614 14.2704 15.9807 14.2285 15.9999 14.1875L16.0023 14.1795C16.0227 14.1368 16.0422 14.0933 16.0609 14.0521C16.0625 14.0495 16.064 14.0468 16.0656 14.0441C16.0833 14.0041 16.1014 13.9643 16.1195 13.922L16.1242 13.914C16.1432 13.871 16.161 13.8296 16.1781 13.7893C16.179 13.7867 16.1797 13.784 16.1806 13.7813C16.1979 13.7396 16.2162 13.6969 16.2345 13.6513C16.2519 13.6079 16.2681 13.5621 16.2861 13.5161C16.287 13.5153 16.2877 13.5143 16.2886 13.5134C16.3057 13.4686 16.3213 13.4231 16.3378 13.3781C16.3387 13.3773 16.3394 13.3764 16.3402 13.3754C16.3558 13.3327 16.3717 13.2894 16.3872 13.2455L16.3896 13.2374C16.4056 13.1927 16.4198 13.1492 16.4342 13.1075C16.4357 13.1049 16.4373 13.1022 16.4389 13.0995C16.4526 13.0581 16.4662 13.0132 16.4811 12.9668L16.4836 12.9615C16.4979 12.9176 16.5119 12.8731 16.5258 12.8288C16.5267 12.8271 16.5274 12.8253 16.5283 12.8235C16.5416 12.7798 16.5541 12.7319 16.5681 12.683C16.5812 12.6383 16.5952 12.594 16.608 12.5478V12.5425C16.6215 12.4948 16.6343 12.4518 16.6456 12.4098V12.4071C16.661 12.3513 16.6729 12.3047 16.6832 12.2638V12.2585C16.6939 12.2155 16.7054 12.1714 16.716 12.1259L16.7184 12.1178C16.7321 12.0617 16.7427 12.0115 16.7512 11.972C16.7603 11.9302 16.7711 11.8828 16.7817 11.8315C16.7826 11.827 16.7833 11.8227 16.7841 11.8182C16.7915 11.7787 16.8005 11.7333 16.81 11.6829C16.8175 11.6427 16.8246 11.5982 16.8334 11.5503L16.835 11.5453C16.8455 11.489 16.854 11.437 16.8608 11.3942V11.3914C16.8682 11.3454 16.8733 11.3015 16.8795 11.2588L16.8819 11.2482C16.8902 11.1964 16.8971 11.1471 16.9031 11.1024C16.9086 11.0613 16.9137 11.0153 16.9195 10.9671L16.9219 10.9538C16.9288 10.9006 16.934 10.8508 16.9384 10.808C16.9427 10.768 16.9482 10.7225 16.9525 10.6727L16.9549 10.6541C16.96 10.6039 16.9634 10.5579 16.9666 10.5215V10.5134C16.9713 10.4538 16.9736 10.4026 16.976 10.3569C16.9777 10.3253 16.9823 10.2789 16.9854 10.2189C16.9881 10.1673 16.9889 10.1247 16.9901 10.0837V10.0625C16.9922 10.0155 16.9933 9.9725 16.9947 9.94571C16.9959 9.93159 16.9967 9.91747 16.9972 9.9032C16.9972 9.88587 16.9996 9.83951 16.9996 9.76523L17 9.62903V9.49107C17 9.41695 16.9962 9.36337 16.9953 9.33193C16.9955 9.32487 16.9955 9.31781 16.9953 9.31075C16.9938 9.27995 16.9913 9.23359 16.9882 9.17552V9.17279C16.9867 9.14119 16.9867 9.09627 16.9835 9.03755C16.9811 8.99199 16.9789 8.93809 16.9742 8.87841C16.972 8.85114 16.9681 8.80173 16.9624 8.74318L16.96 8.722C16.9559 8.67419 16.9509 8.6304 16.9482 8.59992V8.58403C16.9438 8.54184 16.9374 8.49692 16.9317 8.4488V8.43821C16.9259 8.38399 16.918 8.33442 16.913 8.29495V8.29222C16.909 8.26239 16.9048 8.21361 16.8965 8.15426L16.8941 8.14624C16.8868 8.09234 16.8791 8.04581 16.873 8.00571V7.99769C16.8672 7.96175 16.8605 7.91812 16.8518 7.86502V7.86229C16.8428 7.80614 16.8338 7.75657 16.826 7.71374C16.8253 7.71197 16.8244 7.71021 16.8236 7.70844C16.8148 7.66144 16.8063 7.61748 16.7978 7.5732V7.57048C16.7871 7.51465 16.7762 7.46444 16.7673 7.42193V7.4192C16.7583 7.37797 16.7495 7.33401 16.7392 7.28653V7.2838C16.7279 7.23215 16.7164 7.18434 16.7064 7.14054C16.7057 7.13782 16.7048 7.13525 16.704 7.13252C16.6942 7.09226 16.6815 7.04541 16.6688 6.99456L16.6712 6.99728C16.6577 6.94274 16.6431 6.89525 16.6313 6.85146V6.84873C16.6202 6.80831 16.6079 6.7613 16.5937 6.71077V6.70804C16.5812 6.66441 16.5672 6.61997 16.5538 6.57537L16.5514 6.56735C16.5379 6.52115 16.5249 6.47559 16.5115 6.43211C16.5108 6.43035 16.51 6.42858 16.5091 6.42682C16.4953 6.38334 16.4804 6.33714 16.4645 6.28885C16.4503 6.24618 16.4353 6.20094 16.42 6.15618L16.4176 6.15089C16.4012 6.10244 16.3853 6.05704 16.3706 6.01565V6.01292C16.3541 5.96752 16.3378 5.92148 16.3213 5.87769L16.3189 5.87496C16.302 5.82988 16.2844 5.78592 16.2673 5.74229C16.2501 5.69817 16.2334 5.65341 16.2156 5.60962V5.60689C16.1979 5.56309 16.1781 5.51898 16.1593 5.47422V5.47149C16.1405 5.42722 16.12 5.38278 16.1007 5.33882V5.33609C16.0822 5.29455 16.063 5.25187 16.042 5.20615C16.0226 5.1638 16.002 5.12033 15.981 5.07621C15.9599 5.03193 15.9383 4.98798 15.9177 4.94626C15.8976 4.90551 15.8764 4.86252 15.8544 4.81889V4.81616C15.8333 4.77477 15.8109 4.73354 15.7887 4.69151C15.766 4.64835 15.7434 4.60584 15.7206 4.56413C15.6972 4.52114 15.6731 4.47991 15.6502 4.43948C15.6495 4.43772 15.6486 4.43595 15.6478 4.43419C15.6255 4.39553 15.6018 4.35606 15.5774 4.31483V4.31211C15.5543 4.27264 15.5306 4.23446 15.507 4.19532L15.5046 4.19259C15.4801 4.15104 15.4552 4.11061 15.4322 4.07324C15.4307 4.07051 15.4291 4.06794 15.4275 4.06522C15.405 4.02976 15.381 3.9911 15.3547 3.95116L15.3501 3.94586C15.3252 3.90736 15.3015 3.86822 15.2773 3.83181C15.2765 3.83084 15.2757 3.83004 15.2748 3.82908C15.2486 3.78978 15.2219 3.75128 15.1951 3.71229C15.1694 3.67507 15.1437 3.63769 15.1176 3.60096L15.1152 3.59566C15.0891 3.55845 15.0621 3.52107 15.0354 3.48433C15.0347 3.48337 15.0339 3.48257 15.033 3.4816C15.0046 3.44278 14.9762 3.40428 14.9486 3.36755H14.9462C14.9191 3.33193 14.8928 3.29552 14.864 3.25878L14.8616 3.25605C14.834 3.2206 14.8055 3.18563 14.7771 3.15002C14.7764 3.14905 14.7756 3.14825 14.7747 3.14729C14.7454 3.11071 14.7171 3.07381 14.6879 3.03852C14.6863 3.03756 14.6848 3.03676 14.6832 3.0358C14.6551 3.00227 14.626 2.96665 14.5963 2.93233L14.5917 2.92703C14.5687 2.89992 14.545 2.87473 14.5213 2.84746L14.5072 2.82885C14.494 2.81361 14.4773 2.79228 14.4791 2.79436C14.4784 2.7934 14.4776 2.7926 14.4767 2.79163C14.4451 2.75602 14.4136 2.72169 14.3829 2.68816H14.3805C14.3495 2.6548 14.3179 2.62031 14.2867 2.58742L14.2843 2.58469C14.253 2.55164 14.2215 2.5186 14.1905 2.48651H14.188C14.1563 2.45411 14.1256 2.42154 14.0918 2.38834C14.0596 2.35625 14.029 2.32497 13.9956 2.29289H13.9932C13.9601 2.26112 13.9275 2.22808 13.8947 2.19744H13.8923C13.8587 2.16615 13.8255 2.13263 13.7914 2.10199V2.10471C13.7578 2.07407 13.7251 2.04231 13.6905 2.01183H13.6881C13.654 1.98199 13.6198 1.95135 13.5848 1.92167C13.55 1.89215 13.5145 1.86296 13.4792 1.83408H13.4768C13.443 1.80617 13.4095 1.77793 13.3735 1.74922H13.371C13.3354 1.72098 13.3008 1.69147 13.2655 1.66435H13.263C13.2284 1.63772 13.1922 1.61061 13.1575 1.58479L13.155 1.58206C13.1201 1.55591 13.0838 1.52912 13.047 1.50249C13.0455 1.50153 13.0439 1.50072 13.0424 1.49976C13.0074 1.47506 12.9727 1.45019 12.9368 1.42549L12.9321 1.42019C12.8965 1.39533 12.8597 1.37271 12.8241 1.34864V1.34592C12.7869 1.32089 12.749 1.29619 12.7114 1.27164H12.709C12.6712 1.24725 12.6328 1.22143 12.594 1.19736V1.20009C12.5564 1.17667 12.5202 1.1518 12.4814 1.12854H12.4789C12.4412 1.10592 12.4042 1.08411 12.3663 1.06229L12.3639 1.05956C12.3261 1.03758 12.2866 1.01448 12.2489 0.993304H12.2465C12.2094 0.97277 12.1714 0.952396 12.1338 0.932342L12.1267 0.929615C12.0892 0.909081 12.0532 0.887906 12.0164 0.868653C12.0142 0.867691 12.0118 0.866889 12.0093 0.865926C11.9702 0.846033 11.9306 0.826462 11.892 0.807531L11.8896 0.804804C11.8511 0.785714 11.8119 0.768067 11.7722 0.749136C11.7715 0.748174 11.7706 0.747371 11.7698 0.746409C11.731 0.728121 11.691 0.710795 11.6524 0.693308L11.6477 0.690581C11.6083 0.672613 11.5691 0.654485 11.5304 0.637479H11.528C11.4879 0.620154 11.4476 0.60331 11.4083 0.587105L11.4059 0.584378C11.3659 0.567694 11.3242 0.552775 11.2839 0.536571C11.2823 0.535608 11.2807 0.534806 11.2792 0.533843C11.2394 0.518443 11.1994 0.503524 11.1595 0.488763L11.1549 0.486036C11.1151 0.470956 11.0752 0.457962 11.0352 0.443522C10.9941 0.428763 10.9526 0.41256 10.9109 0.398441H10.9085C10.8679 0.384966 10.8257 0.371811 10.7842 0.358657H10.7817C10.7413 0.345823 10.7003 0.331064 10.6597 0.318872H10.6573C10.6147 0.306038 10.5737 0.293204 10.533 0.281814H10.5306C10.488 0.269783 10.4457 0.258393 10.4038 0.247324H10.4014C10.3607 0.238982 10.3195 0.227912 10.2772 0.217645H10.2748C10.2339 0.207699 10.1934 0.198395 10.1505 0.188448C10.1489 0.187486 10.1474 0.186684 10.1458 0.185721C10.1055 0.176417 10.0641 0.168235 10.0208 0.159251C9.97821 0.150428 9.93507 0.141124 9.89178 0.132782C9.84963 0.124921 9.80635 0.116419 9.76264 0.108879L9.76505 0.111606C9.72261 0.104227 9.67777 0.0946014 9.63363 0.0877032H9.63122C9.58751 0.0811257 9.54437 0.0747088 9.50222 0.0690944L9.50463 0.0718215C9.4622 0.0658859 9.42005 0.058667 9.37563 0.0532127H9.37321C9.33121 0.0482398 9.28963 0.0443896 9.24648 0.0398976H9.24407C9.20206 0.0355661 9.15821 0.0304326 9.11507 0.0267431H9.11265C9.06951 0.0232137 9.02566 0.018722 8.98365 0.0161553H8.98124C8.93895 0.0132676 8.89708 0.0127864 8.85465 0.0108612H8.85224C8.81023 0.00861523 8.7678 0.00444427 8.72564 0.00284014H8.72323C8.67995 0.00139635 8.63638 0.000754661 8.59182 0.00011297H8.5894C8.56641 -0.000207875 8.54527 0.000273391 8.52128 0.00011297H8.51887H8.48609H8.48367H8.48126C8.45756 0.000273391 8.434 -0.000207875 8.41087 0.00011297H8.40846L8.40903 0.000134572ZM8.42535 1.43785C8.44437 1.43753 8.4631 1.43801 8.48169 1.43785H8.48411H8.48652H8.51703C8.53633 1.43801 8.55493 1.43753 8.57564 1.43785C8.61169 1.43833 8.64845 1.43929 8.68592 1.44058C8.72295 1.44202 8.75914 1.44395 8.79619 1.44587H8.7986C8.83507 1.44763 8.87268 1.44876 8.90887 1.45116H8.91128C8.94903 1.45357 8.98537 1.45614 9.02155 1.45919C9.05661 1.46223 9.09351 1.46608 9.12955 1.46977C9.16603 1.47346 9.20463 1.4786 9.24224 1.48309C9.27729 1.48726 9.31348 1.49127 9.35024 1.4964C9.3518 1.49737 9.35336 1.49817 9.35492 1.49913C9.39267 1.5041 9.42886 1.50699 9.46519 1.51245C9.5001 1.5179 9.53445 1.52464 9.57078 1.53105H9.57319C9.60938 1.53731 9.64613 1.54533 9.68346 1.55223C9.71894 1.55897 9.75541 1.56587 9.79146 1.57341C9.82751 1.58079 9.86483 1.58897 9.90173 1.59731C9.93693 1.60549 9.97269 1.61207 10.0097 1.62121C10.0104 1.62217 10.0113 1.62298 10.0121 1.62394C10.0478 1.6326 10.0831 1.64094 10.1201 1.65041C10.1558 1.65987 10.191 1.66982 10.2257 1.67961C10.2626 1.69003 10.299 1.70094 10.3337 1.71137C10.3695 1.72212 10.406 1.73174 10.4417 1.74313C10.4424 1.7441 10.4433 1.7449 10.4441 1.74586C10.4796 1.75709 10.5137 1.76832 10.5497 1.78035L10.5473 1.77762C10.5827 1.78949 10.6196 1.80201 10.6553 1.81468C10.6898 1.82703 10.7241 1.84147 10.7586 1.85447H10.7633C10.7987 1.86746 10.8338 1.88334 10.8689 1.89698C10.9021 1.91029 10.9366 1.92297 10.9698 1.93676H10.9722C11.0074 1.9512 11.0415 1.96708 11.0755 1.98185C11.1096 1.99676 11.1435 2.01184 11.1764 2.02693C11.178 2.02789 11.1796 2.02869 11.1811 2.02965C11.216 2.04537 11.2501 2.06126 11.2844 2.07746C11.3172 2.09302 11.3496 2.10858 11.3829 2.12527H11.3876C11.4221 2.14211 11.4552 2.16136 11.4885 2.17837C11.52 2.19505 11.5519 2.21206 11.5823 2.22874C11.5846 2.22971 11.587 2.23051 11.5894 2.23147C11.6222 2.2488 11.653 2.26644 11.6856 2.28457C11.719 2.30334 11.7513 2.32115 11.7841 2.34024C11.7848 2.3412 11.7857 2.342 11.7865 2.34297C11.8197 2.36222 11.8545 2.38163 11.8874 2.40136C11.9189 2.42029 11.9514 2.4397 11.9836 2.45976C12.0159 2.47965 12.0499 2.49986 12.0821 2.52072H12.0775C12.1095 2.54173 12.1416 2.56275 12.1737 2.58441V2.58168C12.2057 2.60334 12.2363 2.62595 12.2675 2.64793C12.2697 2.6497 12.2722 2.65146 12.2746 2.65323C12.3059 2.67473 12.3366 2.69702 12.3684 2.71948C12.3973 2.7405 12.4277 2.76071 12.4575 2.78317C12.4582 2.78413 12.4591 2.78494 12.4599 2.7859C12.4909 2.80884 12.5212 2.83162 12.5514 2.85488C12.5825 2.87878 12.6129 2.90269 12.643 2.92643C12.6724 2.94985 12.7013 2.97263 12.7321 2.99798C12.7328 2.99894 12.7337 2.99974 12.7345 3.00071C12.7645 3.02509 12.7941 3.04996 12.8236 3.07498C12.853 3.09985 12.8832 3.12616 12.9128 3.15199C12.941 3.17685 12.9688 3.20043 12.9972 3.22626C12.9981 3.22722 12.9988 3.22803 12.9996 3.22899C13.0286 3.25514 13.0579 3.28209 13.0865 3.30856C13.1154 3.33551 13.143 3.36117 13.1709 3.38813C13.1989 3.41508 13.2271 3.44219 13.2554 3.47042V3.47315C13.2825 3.49978 13.3118 3.52673 13.3398 3.55545C13.3669 3.58336 13.3933 3.61256 13.4195 3.64031C13.4203 3.64127 13.4211 3.64208 13.422 3.64304C13.4492 3.67159 13.475 3.69887 13.5017 3.7279C13.5284 3.75694 13.5518 3.78469 13.5768 3.81276C13.5975 3.83635 13.6035 3.8418 13.5886 3.82335C13.5931 3.82881 13.5979 3.8341 13.6026 3.83923C13.6284 3.86875 13.6563 3.90116 13.6824 3.93212C13.6831 3.93388 13.6839 3.93565 13.6848 3.93741C13.7091 3.96533 13.7349 3.9926 13.7599 4.02228C13.7857 4.05356 13.81 4.0842 13.8349 4.11516C13.8598 4.14628 13.8826 4.17564 13.9077 4.20804C13.9093 4.20981 13.9109 4.21157 13.9124 4.21334C13.9357 4.24286 13.9588 4.27205 13.9828 4.30349C14.0071 4.33558 14.0305 4.36798 14.0532 4.39894C14.0768 4.43151 14.1003 4.46407 14.1236 4.49712C14.1244 4.49809 14.1252 4.49889 14.126 4.49985C14.1493 4.53258 14.1713 4.56498 14.1941 4.59803C14.2164 4.63027 14.238 4.66348 14.2598 4.6962C14.2827 4.7307 14.3067 4.76406 14.328 4.79695C14.3287 4.79871 14.3295 4.80048 14.3304 4.80224C14.3509 4.83353 14.3725 4.86866 14.3961 4.90571C14.4167 4.93924 14.4365 4.97084 14.4547 5.00117C14.4554 5.00213 14.4563 5.00293 14.4571 5.00389C14.4782 5.03886 14.4974 5.07464 14.5181 5.10993C14.5188 5.11089 14.5197 5.1117 14.5205 5.11266C14.5407 5.14667 14.5623 5.18116 14.584 5.2187C14.6034 5.25319 14.6223 5.28912 14.6403 5.32217C14.6599 5.3581 14.6782 5.39324 14.6967 5.4282C14.7157 5.46446 14.7337 5.49927 14.753 5.53697C14.771 5.57258 14.79 5.60932 14.8093 5.6483C14.8282 5.68648 14.846 5.72338 14.8633 5.75963C14.8804 5.79589 14.897 5.83246 14.9149 5.87096C14.9311 5.90626 14.9487 5.94219 14.9666 5.9823H14.9642C14.9809 6.02032 14.9972 6.05802 15.0134 6.09636C15.0287 6.13293 15.0451 6.16983 15.0604 6.20769C15.076 6.24619 15.0922 6.28549 15.1074 6.32448C15.1226 6.3633 15.1377 6.40068 15.1519 6.43854V6.44126C15.1667 6.48025 15.1805 6.52003 15.1942 6.55805V6.55276C15.2091 6.59479 15.2223 6.63457 15.2341 6.66955C15.2348 6.67131 15.2357 6.67308 15.2365 6.67484C15.2497 6.71318 15.2628 6.75313 15.2764 6.79419C15.2886 6.83109 15.3007 6.87168 15.314 6.91355C15.3255 6.95125 15.3366 6.98943 15.3468 7.02488C15.3475 7.02761 15.3484 7.03017 15.3492 7.0329C15.3604 7.07028 15.3733 7.10814 15.3844 7.14696C15.3948 7.18386 15.4043 7.22685 15.4172 7.27434C15.4285 7.31636 15.4397 7.35358 15.4477 7.38567V7.38839C15.4571 7.42545 15.4688 7.46796 15.4805 7.51577C15.49 7.55636 15.4967 7.59341 15.5039 7.6271C15.5046 7.62807 15.5055 7.62887 15.5063 7.62983C15.5151 7.66994 15.5243 7.71549 15.5344 7.7625C15.5433 7.80517 15.5497 7.84352 15.5556 7.87383C15.5563 7.87479 15.5571 7.8756 15.558 7.87656C15.5666 7.92132 15.5736 7.96431 15.5814 8.0065C15.5896 8.0511 15.5974 8.08896 15.6025 8.12056V8.12329C15.6083 8.15826 15.6152 8.20286 15.6237 8.25596C15.6303 8.29959 15.636 8.33954 15.6401 8.37002V8.37804C15.6438 8.40387 15.6488 8.44622 15.6566 8.50542C15.6624 8.55178 15.6674 8.58916 15.6706 8.61947C15.6714 8.623 15.6722 8.62653 15.6731 8.63006C15.6776 8.6684 15.6823 8.71204 15.6871 8.75744C15.6912 8.80332 15.6943 8.84391 15.6965 8.8715C15.6972 8.87856 15.6979 8.88562 15.6989 8.89267C15.7007 8.91016 15.7036 8.94978 15.7083 9.00946C15.7108 9.04075 15.7129 9.07797 15.7154 9.12352C15.7171 9.15513 15.7169 9.20149 15.72 9.26149C15.7217 9.29277 15.7239 9.33704 15.7271 9.39672C15.7284 9.4394 15.7295 9.47806 15.7295 9.49217V9.76537C15.7295 9.7774 15.7278 9.82168 15.7271 9.86082C15.724 9.92066 15.7242 9.96718 15.7224 9.99879V10.0174C15.7213 10.063 15.7195 10.1027 15.7178 10.1342C15.7161 10.1658 15.7115 10.2123 15.7084 10.2722C15.706 10.3177 15.7039 10.3548 15.7013 10.3862C15.6972 10.4331 15.6951 10.4728 15.6919 10.503C15.6911 10.5093 15.6902 10.5154 15.6895 10.5216C15.6868 10.5542 15.6826 10.5932 15.6777 10.6384V10.6411C15.6732 10.6851 15.6702 10.7212 15.666 10.7525C15.6651 10.7569 15.6644 10.7613 15.6636 10.7658C15.6593 10.8025 15.6531 10.8428 15.6471 10.8879C15.6414 10.9302 15.6362 10.9679 15.6306 11.0019V11.0125C15.6242 11.0563 15.6181 11.0977 15.6119 11.1372C15.611 11.138 15.6103 11.1389 15.6095 11.1399C15.6024 11.1846 15.5963 11.2217 15.5907 11.2512V11.2539C15.5837 11.2929 15.5761 11.3369 15.5673 11.3839C15.56 11.4232 15.5509 11.4692 15.5415 11.5191C15.5343 11.553 15.5246 11.5895 15.5157 11.6304C15.5055 11.6773 15.4991 11.7139 15.4923 11.7418C15.4914 11.7445 15.4907 11.7471 15.4898 11.7498C15.4805 11.7899 15.4698 11.8319 15.4593 11.8745C15.4484 11.9178 15.4392 11.9569 15.4312 11.9858V11.9885C15.4196 12.0321 15.4088 12.0735 15.3985 12.1106C15.3976 12.1124 15.3969 12.1141 15.396 12.1159C15.3853 12.1554 15.3726 12.1947 15.3608 12.2352V12.2405C15.3503 12.277 15.3383 12.3158 15.3256 12.3573C15.3136 12.3957 15.3028 12.4332 15.2905 12.4714C15.2896 12.4731 15.2889 12.4749 15.288 12.4767C15.2761 12.5141 15.2622 12.5537 15.2482 12.596C15.2351 12.6339 15.223 12.6703 15.2106 12.7048C15.2097 12.7066 15.209 12.7083 15.2081 12.7101C15.1947 12.7486 15.1803 12.7874 15.1658 12.8269C15.1517 12.8652 15.1382 12.9056 15.1236 12.9437V12.9384C15.1088 12.9762 15.0952 13.0151 15.079 13.0552C15.0639 13.0924 15.0465 13.1314 15.0297 13.172C15.0138 13.2093 14.998 13.244 14.9828 13.278C14.9819 13.2815 14.9812 13.2851 14.9804 13.2886C14.9645 13.3256 14.9484 13.3635 14.9311 13.4026C14.9152 13.4374 14.8975 13.4708 14.8819 13.5034C14.881 13.5051 14.8803 13.5069 14.8795 13.5087C14.862 13.5462 14.8454 13.5839 14.8278 13.62C14.8105 13.6558 14.7923 13.692 14.7739 13.7288C14.7547 13.7666 14.7351 13.8016 14.7175 13.8348V13.8375C14.6996 13.8719 14.6793 13.9083 14.6589 13.9463C14.6389 13.9834 14.6196 14.0204 14.6003 14.0551C14.5811 14.0891 14.5623 14.1229 14.5417 14.1585C14.5211 14.1938 14.4997 14.229 14.4782 14.2646C14.4585 14.2975 14.4374 14.3316 14.415 14.368C14.3935 14.4025 14.3734 14.4348 14.3517 14.4688C14.3305 14.502 14.3088 14.5376 14.2859 14.5723C14.2851 14.5731 14.2844 14.574 14.2835 14.575C14.2635 14.6058 14.2408 14.6388 14.2178 14.6732C14.1958 14.7054 14.173 14.7359 14.1497 14.7686V14.7713C14.1266 14.8042 14.1033 14.8363 14.0793 14.8695C14.0558 14.9019 14.0325 14.9339 14.0089 14.965C14.0081 14.9658 14.0074 14.9667 14.0065 14.9677C13.9827 14.9996 13.958 15.0291 13.9337 15.0606V15.0633C13.9094 15.0949 13.8852 15.1257 13.8609 15.1562C13.8376 15.1856 13.8131 15.216 13.7881 15.2464C13.7627 15.277 13.7363 15.3065 13.7106 15.3365C13.7082 15.34 13.7059 15.3436 13.7035 15.3471C13.6781 15.3777 13.6517 15.4073 13.626 15.4373C13.6258 15.4373 13.6187 15.444 13.5955 15.4717C13.5718 15.499 13.5483 15.5256 13.5251 15.5513C13.5143 15.5629 13.5047 15.5751 13.4946 15.5858C13.4891 15.5919 13.4836 15.598 13.4782 15.6044L8.50267 21.2418L3.52572 15.6024C3.52104 15.5969 3.51635 15.5916 3.51167 15.5865C3.49975 15.5736 3.48911 15.5631 3.47889 15.552L3.46952 15.5414C3.44582 15.5148 3.42198 15.4881 3.39913 15.4618C3.39842 15.4609 3.39757 15.4601 3.39672 15.4591C3.37813 15.4379 3.37174 15.4304 3.38026 15.4405C3.3787 15.4387 3.37713 15.437 3.37557 15.4352C3.34974 15.405 3.32349 15.3757 3.29809 15.345C3.29653 15.3415 3.29497 15.338 3.2934 15.3345C3.268 15.3046 3.24089 15.277 3.21592 15.2469V15.2441C3.19193 15.2149 3.16753 15.1843 3.14311 15.154L3.1407 15.1513C3.11729 15.1217 3.09401 15.0917 3.07031 15.0611L3.0679 15.0584C3.04448 15.0277 3.01965 14.9955 2.9951 14.9629C2.9714 14.9316 2.94585 14.8997 2.92229 14.8675H2.9247C2.90129 14.8351 2.87872 14.8038 2.85431 14.7693C2.8536 14.7683 2.85275 14.7675 2.8519 14.7666C2.8282 14.733 2.80777 14.7042 2.78861 14.6764L2.78392 14.6684C2.76178 14.6352 2.73936 14.6018 2.72063 14.5729C2.71992 14.572 2.71907 14.5712 2.71821 14.5702C2.69537 14.5356 2.67365 14.4999 2.65251 14.4667C2.63008 14.4316 2.60695 14.3986 2.5868 14.366V14.3633C2.5648 14.328 2.54309 14.2954 2.5235 14.2625C2.50207 14.2266 2.48235 14.1907 2.46248 14.1565C2.44091 14.1191 2.41962 14.0856 2.40145 14.053V14.0503C2.38315 14.0176 2.36342 13.9823 2.34284 13.9442C2.32397 13.9093 2.30538 13.8746 2.2865 13.8382C2.28579 13.8364 2.28494 13.8347 2.28409 13.8329C2.26493 13.7967 2.24733 13.7606 2.23016 13.7269L2.22775 13.7242C2.21256 13.694 2.19567 13.6582 2.17609 13.6181V13.6154C2.1592 13.5795 2.14203 13.543 2.12471 13.5061C2.12315 13.5044 2.12159 13.5026 2.12003 13.5008C2.10541 13.4702 2.08952 13.4356 2.07305 13.4001L2.07064 13.3921C2.07007 13.391 2.0688 13.3906 2.06823 13.3894C2.05262 13.3541 2.038 13.3196 2.02366 13.2859C2.0221 13.2823 2.02054 13.2788 2.01898 13.2753C2.00479 13.243 1.98875 13.2079 1.97229 13.1693L1.96988 13.1612C1.95568 13.1271 1.9405 13.09 1.92531 13.0526V13.0499C1.91027 13.0127 1.89452 12.9767 1.88075 12.9413L1.87834 12.936C1.86429 12.8989 1.84981 12.8617 1.83619 12.8245C1.82214 12.7863 1.80837 12.7461 1.79389 12.7052V12.7024C1.7797 12.6631 1.76622 12.6243 1.75401 12.5885V12.5938C1.74081 12.5547 1.7279 12.5123 1.71413 12.4698C1.70179 12.4316 1.69086 12.3941 1.67894 12.3558L1.67653 12.3505C1.66404 12.3089 1.65325 12.2725 1.64374 12.239C1.64303 12.2372 1.64218 12.2354 1.64133 12.2337C1.62998 12.1944 1.62018 12.1538 1.60855 12.1116H1.60613C1.59577 12.0745 1.58627 12.0317 1.57335 11.9842V11.9922C1.56186 11.9489 1.55164 11.9087 1.54284 11.8729C1.53418 11.8379 1.52595 11.7951 1.5146 11.7482L1.51219 11.7402C1.50381 11.7041 1.49473 11.6674 1.48636 11.6289V11.6236C1.47898 11.5901 1.46975 11.5519 1.46067 11.5095L1.45826 11.4962C1.4513 11.4608 1.44478 11.4223 1.43725 11.3822C1.4364 11.3796 1.43569 11.3769 1.43484 11.3743C1.42874 11.3437 1.42207 11.3045 1.4137 11.2602L1.41143 11.2497C1.40447 11.2102 1.39766 11.1739 1.39269 11.1435V11.1356C1.38602 11.0918 1.3802 11.052 1.37623 11.0215C1.37552 11.017 1.37467 11.0126 1.37382 11.0082C1.36814 10.9705 1.36218 10.9338 1.3575 10.8995L1.35508 10.8861C1.34941 10.8391 1.34401 10.7939 1.33862 10.7535V10.7507C1.33451 10.7185 1.33153 10.681 1.32684 10.6367C1.32613 10.6322 1.32528 10.6279 1.32443 10.6234C1.32159 10.6004 1.31904 10.5608 1.31265 10.5013C1.31194 10.4986 1.31109 10.496 1.31024 10.4933C1.30768 10.4713 1.30598 10.4395 1.30314 10.4057L1.30073 10.3845C1.29803 10.338 1.29505 10.2969 1.29363 10.2704C1.29122 10.2247 1.28895 10.1782 1.28654 10.1325C1.28498 10.1018 1.28484 10.0553 1.28186 9.99724V9.99451C1.28029 9.96307 1.27788 9.91799 1.27476 9.85927C1.27377 9.81628 1.27235 9.76591 1.27235 9.76382L1.27291 9.62891V9.49094C1.27291 9.48886 1.27419 9.43849 1.27533 9.39549C1.27845 9.33582 1.28072 9.29154 1.28242 9.26025C1.28555 9.20042 1.2854 9.1539 1.28711 9.12229C1.29051 9.07577 1.29434 9.0347 1.29647 9.00823C1.29988 8.96444 1.30243 8.91936 1.30584 8.87556V8.87027C1.30939 8.82872 1.31237 8.79519 1.31521 8.76679L1.31762 8.75348C1.32273 8.7092 1.32755 8.66525 1.33167 8.6261V8.61808C1.33678 8.573 1.34189 8.53322 1.34572 8.50402V8.5013C1.35097 8.46007 1.35594 8.41531 1.36218 8.36862C1.36701 8.33189 1.37467 8.29403 1.38091 8.25457V8.24927C1.38758 8.20596 1.39298 8.16377 1.39965 8.12189V8.13248C1.40873 8.08099 1.41469 8.04008 1.42079 8.00783V8.00254C1.42732 7.96628 1.43612 7.92618 1.44421 7.88319L1.44662 7.8726C1.45542 7.82864 1.46138 7.79046 1.46777 7.76127C1.46862 7.75774 1.46933 7.75421 1.47018 7.75068C1.47642 7.72004 1.48593 7.68042 1.49601 7.63389L1.49842 7.62859C1.50949 7.57983 1.51772 7.54149 1.52425 7.51454V7.51181C1.53319 7.47443 1.54213 7.43417 1.55235 7.39246L1.55476 7.38444C1.56569 7.34241 1.57449 7.30631 1.58286 7.27567C1.58371 7.27294 1.58442 7.27038 1.58527 7.26765C1.59691 7.22401 1.6077 7.18519 1.61806 7.1483C1.62913 7.10916 1.6419 7.06921 1.65325 7.03151C1.6541 7.02878 1.65481 7.02621 1.65566 7.02349C1.66645 6.98611 1.67738 6.94825 1.68845 6.91216L1.69086 6.90686C1.70335 6.8674 1.71456 6.82777 1.72605 6.7928L1.72847 6.79024C1.74252 6.74805 1.75586 6.70971 1.76835 6.67345V6.66815C1.78027 6.6327 1.79432 6.59548 1.80823 6.55682V6.55409C1.82128 6.51784 1.83519 6.48062 1.85052 6.44003C1.85137 6.43923 1.85208 6.43827 1.85293 6.43731C1.86712 6.39945 1.88004 6.36207 1.89523 6.32325C1.89608 6.32245 1.89679 6.32148 1.89764 6.32052C1.91183 6.28395 1.92616 6.24609 1.9422 6.20646C1.95668 6.17069 1.97342 6.13267 1.98918 6.09513L1.99159 6.08984C2.00763 6.0523 2.02338 6.01508 2.03857 5.98107C2.05645 5.94097 2.07163 5.90503 2.08781 5.86974C2.10725 5.82771 2.12372 5.79129 2.13947 5.75841C2.15636 5.72296 2.17495 5.68718 2.1934 5.64964V5.64692C2.21199 5.60954 2.23158 5.57168 2.24974 5.53559L2.25215 5.53286C2.27174 5.49452 2.28962 5.46051 2.30608 5.42939C2.30693 5.42762 2.30764 5.42586 2.3085 5.42409C2.32467 5.39297 2.34213 5.35816 2.36243 5.32062L2.36484 5.31789C2.38258 5.28549 2.40202 5.251 2.42118 5.21715L2.42359 5.21186C2.44346 5.17736 2.46347 5.14271 2.4822 5.11111C2.48306 5.11031 2.48377 5.10935 2.48462 5.10838C2.50519 5.07309 2.52464 5.03716 2.54564 5.00235C2.54649 5.00154 2.5472 5.00058 2.54805 4.99962C2.56622 4.96914 2.58609 4.93754 2.60667 4.90417L2.61135 4.89615C2.63221 4.86342 2.65378 4.83021 2.67465 4.79797C2.6755 4.79717 2.67621 4.7962 2.67706 4.79524C2.69764 4.76316 2.71821 4.73059 2.74035 4.69706L2.74277 4.69434C2.76519 4.66097 2.78733 4.62937 2.80847 4.59889V4.59616C2.83118 4.56327 2.85559 4.53071 2.87886 4.49798C2.87972 4.49718 2.88043 4.49622 2.88128 4.49525C2.9037 4.46333 2.92627 4.43157 2.9494 4.3998L2.95181 4.39708C2.97466 4.36596 2.99694 4.33435 3.01993 4.30419C3.04406 4.27243 3.06761 4.24082 3.09273 4.20874C3.09358 4.20794 3.09429 4.20698 3.09515 4.20602C3.12026 4.17361 3.14368 4.14345 3.16795 4.11313C3.19137 4.08377 3.2162 4.05522 3.24075 4.02554L3.24316 4.02281C3.26857 3.99249 3.29383 3.96346 3.31824 3.93522C3.3198 3.93266 3.32136 3.92993 3.32292 3.9272C3.34762 3.89801 3.37373 3.86753 3.40041 3.83705C3.40282 3.83448 3.40509 3.83175 3.4075 3.82902C3.40225 3.83528 3.41829 3.81667 3.42155 3.81314L3.44029 3.79197C3.46058 3.76935 3.48116 3.74769 3.50131 3.72571C3.52813 3.69668 3.55396 3.66924 3.58107 3.64085C3.58192 3.64005 3.58263 3.63908 3.58348 3.63812C3.61101 3.60892 3.63883 3.58069 3.66565 3.55326C3.69304 3.52534 3.71972 3.49888 3.74782 3.47096C3.74867 3.47016 3.74938 3.4692 3.75023 3.46823C3.77677 3.44177 3.8043 3.41305 3.8324 3.38594C3.86121 3.35835 3.88903 3.3322 3.91684 3.30637C3.94664 3.27862 3.97531 3.25231 4.00369 3.2268H4.0061C4.03463 3.20097 4.06231 3.17482 4.09054 3.1498L4.09296 3.14707C4.12162 3.12204 4.15129 3.09686 4.17981 3.07279C4.20947 3.04777 4.23899 3.02306 4.26893 2.99852C4.26978 2.99772 4.27049 2.99675 4.27135 2.99579C4.30072 2.97157 4.33095 2.94782 4.36047 2.92424L4.36288 2.92151C4.39212 2.89841 4.42178 2.87563 4.452 2.85253C4.48209 2.82943 4.51246 2.80665 4.54354 2.78355C4.54439 2.78275 4.5451 2.78178 4.54595 2.78082C4.5759 2.75836 4.60641 2.73799 4.63507 2.71713L4.63976 2.71184C4.6697 2.69066 4.69936 2.67109 4.72888 2.65088C4.73129 2.64911 4.73356 2.64735 4.73598 2.64558C4.76706 2.62377 4.79771 2.60099 4.82978 2.57933C4.85973 2.55896 4.89137 2.53938 4.92359 2.51837C4.95552 2.49783 4.9866 2.47794 5.01981 2.45741H5.02222C5.05387 2.43751 5.08551 2.41618 5.11844 2.39644V2.39917C5.15122 2.37944 5.18358 2.36019 5.21693 2.34078C5.21778 2.33997 5.21849 2.33901 5.21934 2.33805C5.25127 2.31944 5.2832 2.30324 5.31556 2.28495L5.31797 2.28222C5.35146 2.26377 5.3824 2.24597 5.41419 2.22912C5.4166 2.22832 5.41887 2.22736 5.42128 2.22639C5.45265 2.20923 5.48401 2.19254 5.51509 2.17602L5.52219 2.17072C5.55327 2.155 5.58647 2.13864 5.6184 2.12292H5.62082C5.65431 2.10623 5.68809 2.08859 5.72172 2.07254C5.75549 2.05666 5.78799 2.04302 5.82262 2.02746C5.82418 2.02666 5.82574 2.0257 5.8273 2.02474C5.86136 2.00917 5.89443 1.99458 5.9282 1.97965L5.93062 1.97693C5.96468 1.96217 5.99789 1.94837 6.03152 1.93441H6.0362C6.06927 1.92062 6.10148 1.90794 6.13469 1.89463L6.13952 1.8919C6.17258 1.87907 6.20607 1.86479 6.24042 1.85212H6.2451C6.27944 1.83912 6.31379 1.82468 6.34842 1.81233C6.38446 1.7995 6.42165 1.78699 6.45642 1.77527L6.45401 1.778C6.48963 1.76613 6.52454 1.75458 6.55959 1.74351C6.56044 1.74271 6.56115 1.74175 6.562 1.74078C6.59805 1.72939 6.63424 1.71961 6.67 1.70902C6.70591 1.69827 6.74138 1.68752 6.778 1.67726C6.81334 1.66731 6.84839 1.65736 6.88359 1.64806C6.92006 1.63859 6.95597 1.63009 6.99159 1.62159C6.99315 1.62079 6.99471 1.61982 6.99627 1.61886C7.03431 1.6094 7.06922 1.60298 7.10427 1.59496C7.1406 1.58678 7.17622 1.57844 7.21227 1.57106H7.21468C7.25059 1.56352 7.28578 1.55694 7.32269 1.54988C7.35902 1.54298 7.39435 1.5348 7.43068 1.52871H7.43537C7.469 1.52277 7.50292 1.51571 7.53869 1.5101C7.57502 1.50464 7.61376 1.50175 7.65137 1.49678C7.65222 1.49598 7.65293 1.49502 7.65378 1.49405C7.68898 1.48908 7.72516 1.48523 7.76178 1.48074C7.79925 1.47625 7.83785 1.47111 7.87447 1.46742H7.87688C7.91065 1.46373 7.94656 1.46004 7.98246 1.45684C8.01893 1.45395 8.05739 1.45122 8.09515 1.44882H8.09756C8.13275 1.44641 8.16894 1.44545 8.20783 1.44352H8.21024C8.24487 1.4416 8.27992 1.43967 8.31824 1.43823C8.35287 1.4371 8.3902 1.4363 8.42851 1.4355L8.42535 1.43785ZM8.47928 5.06129C8.45019 5.06161 8.42351 5.0629 8.39711 5.06402C8.36291 5.0653 8.33126 5.06498 8.30331 5.06675C8.27308 5.06867 8.24172 5.07188 8.2095 5.07477C8.1753 5.07782 8.14379 5.08215 8.1157 5.08536C8.08518 5.08873 8.05609 5.09161 8.02416 5.09594H8.01706C7.98669 5.10044 7.95505 5.10621 7.92326 5.11183C7.89346 5.1168 7.86493 5.1229 7.83882 5.12771H7.83641C7.80462 5.1338 7.77141 5.13926 7.74019 5.14632C7.70868 5.15338 7.67803 5.16284 7.64865 5.17022C7.61899 5.1776 7.58805 5.18562 7.55712 5.19412H7.5547C7.52433 5.20263 7.49382 5.21113 7.46317 5.22059C7.43237 5.23006 7.40357 5.24081 7.37632 5.24979H7.3739C7.34297 5.26022 7.31359 5.27113 7.28478 5.28155C7.25313 5.29294 7.2222 5.30305 7.19566 5.31332C7.19481 5.31412 7.1941 5.31508 7.19325 5.31604C7.16543 5.32695 7.13705 5.33754 7.10639 5.35054C7.10483 5.35134 7.10327 5.3523 7.10171 5.35326C7.07248 5.36578 7.04296 5.37893 7.01259 5.39305C6.98761 5.40444 6.96065 5.41551 6.93042 5.4301H6.92801C6.89863 5.44438 6.87124 5.46091 6.84357 5.47519C6.81845 5.48802 6.79063 5.50182 6.7614 5.5177C6.75898 5.5185 6.75671 5.51946 6.7543 5.52043C6.72592 5.53615 6.69981 5.55203 6.67213 5.56823H6.66972C6.64361 5.58363 6.61593 5.60208 6.58528 5.62133C6.56172 5.63593 6.53575 5.65101 6.50779 5.66914C6.47643 5.68952 6.45046 5.70957 6.42804 5.72481C6.4005 5.74358 6.37297 5.76091 6.34587 5.78048C6.32387 5.79636 6.2962 5.81609 6.26611 5.83887C6.23858 5.85989 6.21147 5.88219 6.18635 5.90256C6.16152 5.92213 6.13725 5.94122 6.11355 5.96096C6.1127 5.96176 6.11199 5.96272 6.11114 5.96368C6.08559 5.98518 6.05891 6.00764 6.03365 6.02994C6.00938 6.05127 5.98795 6.07309 5.96553 6.09363H5.96312C5.94013 6.11496 5.91671 6.13678 5.89273 6.15988C5.89188 6.16068 5.89117 6.16165 5.89032 6.16261C5.86591 6.18635 5.84221 6.21154 5.81751 6.23689L5.81992 6.23159C5.79509 6.25662 5.77196 6.28213 5.74953 6.30587C5.74868 6.30667 5.74797 6.30763 5.74712 6.30859C5.72527 6.33218 5.70299 6.35624 5.68141 6.38014C5.67872 6.38287 5.66552 6.39651 5.63444 6.43581C5.6211 6.45121 5.60677 6.46645 5.59456 6.48089C5.57256 6.50672 5.55014 6.53415 5.52885 6.56046C5.50742 6.58709 5.48457 6.61452 5.46314 6.64276C5.44228 6.66987 5.42326 6.69666 5.40453 6.72233H5.40212C5.3831 6.74848 5.36366 6.77816 5.34351 6.80719C5.32364 6.83559 5.30533 6.86205 5.28716 6.88949C5.26857 6.91724 5.25112 6.94628 5.23323 6.97435C5.23238 6.97515 5.23167 6.97612 5.23082 6.97708C5.21181 7.0074 5.19378 7.03643 5.17689 7.06467L5.17221 7.06996C5.15759 7.09467 5.14227 7.12322 5.12296 7.15755C5.10522 7.18819 5.08961 7.21514 5.07599 7.23985C5.07443 7.24242 5.07286 7.24514 5.0713 7.24787C5.05683 7.27466 5.04221 7.30306 5.02433 7.33803C5.009 7.36803 4.99282 7.39899 4.97735 7.43091C4.96202 7.46219 4.94911 7.49363 4.93506 7.52379H4.93265C4.91604 7.55989 4.90299 7.5886 4.89277 7.61138C4.89192 7.61411 4.89121 7.61668 4.89035 7.61941C4.87815 7.64732 4.86268 7.68021 4.84579 7.72288C4.83273 7.75464 4.82209 7.78448 4.81301 7.80774C4.80265 7.83421 4.78789 7.87239 4.77072 7.9218C4.75738 7.95918 4.74602 7.98966 4.7402 8.00666C4.72857 8.04003 4.71579 8.07885 4.70259 8.12345C4.69692 8.14158 4.6894 8.16821 4.67677 8.21104C4.66385 8.25356 4.65392 8.28821 4.65094 8.29863C4.65009 8.30216 4.64938 8.30569 4.64852 8.30922C4.63618 8.35414 4.62667 8.39008 4.62042 8.41526C4.61957 8.41799 4.61886 8.42055 4.61801 8.42328C4.61205 8.44863 4.60439 8.48681 4.5946 8.53461L4.59587 8.5229C4.58807 8.55835 4.58324 8.5914 4.57714 8.62108C4.57104 8.65059 4.56195 8.68974 4.55372 8.74043C4.54805 8.77219 4.54365 8.80043 4.53967 8.82529C4.53031 8.88 4.52704 8.91176 4.52562 8.92074C4.52378 8.93133 4.52222 8.94192 4.52094 8.95251C4.51995 8.96085 4.51541 8.98892 4.50916 9.0401C4.50334 9.08261 4.49823 9.12368 4.49738 9.13025C4.49284 9.16827 4.49014 9.19426 4.48802 9.22041C4.48731 9.22619 4.48631 9.23565 4.4856 9.24159C4.48532 9.24431 4.48575 9.24961 4.4856 9.25218C4.48078 9.29758 4.47624 9.34747 4.47624 9.40875L4.48802 9.28137C4.47013 9.39367 4.47155 9.46858 4.47155 9.4989C4.47155 9.46393 4.46914 9.49409 4.46914 9.58906V9.67922C4.46914 9.77419 4.47155 9.80435 4.47155 9.76937C4.47155 9.86435 4.47624 9.89451 4.47624 9.85953C4.47624 9.88071 4.47695 9.90205 4.47865 9.92322C4.47766 9.91071 4.47751 9.94039 4.48333 10.0134C4.48575 10.0432 4.48787 10.0731 4.49043 10.1035C4.49454 10.1549 4.49909 10.1847 4.4998 10.1937C4.50036 10.2043 4.50121 10.2149 4.50221 10.2255C4.50576 10.2553 4.5103 10.2859 4.51399 10.3156C4.5147 10.3227 4.51541 10.3297 4.5164 10.3368C4.51867 10.3522 4.52222 10.3841 4.53045 10.435V10.4377C4.53187 10.4465 4.53712 10.4866 4.5516 10.557C4.5577 10.5911 4.56394 10.6273 4.56806 10.6472C4.57572 10.6857 4.58324 10.717 4.58679 10.7348C4.59289 10.7659 4.60041 10.8052 4.61262 10.8541C4.62241 10.8938 4.63135 10.923 4.63604 10.9417L4.63362 10.939C4.64285 10.9762 4.65392 11.0157 4.66641 11.0584C4.68046 11.1071 4.69011 11.139 4.69223 11.1459C4.6938 11.1487 4.69536 11.1512 4.69692 11.154C4.70259 11.1724 4.71182 11.2066 4.72502 11.2469C4.73978 11.2931 4.75056 11.3266 4.7578 11.3476C4.75936 11.3503 4.76092 11.3529 4.76248 11.3556C4.7727 11.3845 4.78406 11.4206 4.80009 11.4617C4.80932 11.4862 4.81982 11.5135 4.83288 11.5465C4.83444 11.5492 4.836 11.5518 4.83756 11.5545C4.84906 11.5826 4.86197 11.6181 4.87985 11.658C4.89319 11.6891 4.90611 11.7187 4.91973 11.7482C4.93336 11.7785 4.94826 11.8098 4.96202 11.8383C4.97565 11.8677 4.98913 11.8982 5.00432 11.9285C5.00588 11.9312 5.00744 11.9338 5.009 11.9365C5.02475 11.9671 5.04193 11.9965 5.05825 12.0267C5.07599 12.06 5.09202 12.0881 5.10522 12.1115C5.12438 12.1459 5.13985 12.1767 5.15447 12.2017C5.15603 12.2034 5.15759 12.2052 5.15915 12.207C5.17391 12.2318 5.19009 12.2588 5.21081 12.2918C5.22983 12.3228 5.24629 12.3517 5.26247 12.3767C5.26318 12.3777 5.26403 12.3785 5.26488 12.3794C5.28447 12.4094 5.30419 12.4391 5.32349 12.467C5.34336 12.4961 5.36422 12.5216 5.38211 12.5466C5.38282 12.5484 5.38367 12.5501 5.38452 12.5519C5.40354 12.578 5.42156 12.6032 5.44086 12.6289C5.46258 12.6582 5.48372 12.6852 5.50189 12.7085C5.50416 12.7112 5.50657 12.7137 5.50898 12.7165C5.53041 12.7431 5.55283 12.7702 5.57469 12.796C5.59172 12.8171 5.60889 12.839 5.62635 12.8597C5.63174 12.866 5.63713 12.8722 5.64281 12.8783C5.64508 12.8811 5.64749 12.8836 5.64991 12.8864C5.67276 12.9132 5.69674 12.9399 5.7203 12.9659C5.72186 12.9677 5.72342 12.9695 5.72498 12.9712C5.74896 12.9971 5.77281 13.0226 5.79537 13.0455C5.81637 13.0672 5.83894 13.0898 5.86108 13.1118C5.88407 13.1347 5.90975 13.1586 5.93615 13.1833C5.96269 13.208 5.98682 13.2326 6.00896 13.2523V13.2496C6.03209 13.2704 6.05622 13.2913 6.08176 13.3133C6.08247 13.3142 6.08332 13.315 6.08417 13.316C6.11057 13.3386 6.13611 13.359 6.16166 13.3797C6.18763 13.4007 6.21062 13.4195 6.23446 13.4381C6.23517 13.439 6.23602 13.4398 6.23687 13.4408C6.26242 13.4605 6.28853 13.4812 6.31663 13.5018H6.31904C6.34771 13.5226 6.37453 13.5407 6.3988 13.5574C6.42449 13.5755 6.44946 13.594 6.47387 13.6105H6.47629C6.50226 13.6278 6.52795 13.6458 6.55604 13.6636C6.5576 13.6646 6.55917 13.6654 6.56073 13.6663C6.58656 13.6824 6.61267 13.7004 6.64048 13.7167C6.66858 13.7334 6.69683 13.7486 6.72492 13.7645C6.72734 13.7655 6.72961 13.7663 6.73202 13.7673C6.7587 13.7819 6.7868 13.7969 6.81646 13.8123C6.84541 13.8276 6.8728 13.842 6.89863 13.8549C6.92474 13.8677 6.95298 13.8832 6.98307 13.8974C7.0079 13.9089 7.03771 13.9221 7.07219 13.9372H7.0746C7.10313 13.9493 7.13251 13.9619 7.16373 13.9742C7.19452 13.9867 7.22503 13.9991 7.25058 14.0087H7.25526C7.28379 14.0191 7.31501 14.0299 7.3468 14.0405H7.3397C7.36865 14.0506 7.39846 14.0592 7.43124 14.0697C7.46288 14.0798 7.49411 14.0905 7.52277 14.0989H7.52518C7.55541 14.1074 7.58763 14.1147 7.61899 14.1228H7.60962C7.64212 14.1316 7.67334 14.1394 7.70343 14.1467H7.70811C7.73976 14.154 7.77183 14.1617 7.80192 14.1678L7.79951 14.1651C7.8286 14.171 7.86167 14.1778 7.89573 14.1837C7.92766 14.1893 7.95675 14.1951 7.98726 14.1996H7.98967C8.01976 14.2039 8.05126 14.2091 8.08348 14.2129L8.07638 14.2102C8.1103 14.2147 8.1394 14.2203 8.16792 14.2235H8.17728C8.20723 14.2262 8.23731 14.2293 8.26882 14.2315C8.29791 14.2336 8.32871 14.2355 8.36035 14.2368C8.39456 14.2386 8.42578 14.2387 8.45416 14.2395H8.46126C8.47814 14.2397 8.48467 14.2395 8.48467 14.2395H8.52455C8.52597 14.2395 8.5325 14.2397 8.54797 14.2395H8.55038C8.58359 14.2389 8.61623 14.2384 8.6466 14.2368C8.67598 14.2355 8.70677 14.2338 8.73814 14.2315C8.76964 14.2293 8.80001 14.2262 8.82967 14.2235H8.83904C8.86785 14.2205 8.89495 14.2166 8.92348 14.2129C8.95583 14.2091 8.9872 14.2039 9.01728 14.1996H9.0197C9.05007 14.1951 9.08171 14.1893 9.1135 14.1837C9.14472 14.1781 9.17779 14.1717 9.20972 14.1651L9.20731 14.1678C9.23754 14.1617 9.26805 14.1537 9.29884 14.1467H9.30353C9.33659 14.1388 9.36626 14.1305 9.39506 14.1228C9.42444 14.1152 9.4524 14.1074 9.48191 14.0989H9.48433C9.51441 14.0902 9.54578 14.0801 9.57813 14.0697C9.60864 14.0599 9.63859 14.0504 9.66726 14.0405C9.69564 14.0308 9.72331 14.019 9.75169 14.0087H9.75879C9.78859 13.9975 9.81839 13.9837 9.84791 13.9716C9.87601 13.9604 9.90539 13.9487 9.93235 13.9372C9.93391 13.9363 9.93548 13.9354 9.93704 13.9344C9.96698 13.9213 9.99593 13.9104 10.0239 13.8974C10.0545 13.8831 10.0815 13.8682 10.1083 13.8549H10.1107C10.1374 13.8415 10.1667 13.8263 10.1976 13.8098C10.2233 13.7963 10.2505 13.782 10.2774 13.7673C10.2789 13.7665 10.2805 13.7655 10.282 13.7645C10.3104 13.7486 10.3388 13.7332 10.3665 13.7167C10.3943 13.7002 10.4204 13.6824 10.4462 13.6663H10.4486C10.4762 13.6492 10.5023 13.6296 10.5308 13.6107H10.5332C10.5579 13.5942 10.5823 13.577 10.606 13.5603L10.6154 13.555C10.6399 13.5382 10.6639 13.5194 10.6882 13.5019C10.6898 13.5011 10.6913 13.5001 10.6929 13.4992C10.718 13.4807 10.7444 13.4602 10.7726 13.4382C10.7982 13.4185 10.8226 13.4004 10.8477 13.3798C10.8725 13.3598 10.8968 13.3384 10.9228 13.3161C10.9243 13.3153 10.9259 13.3144 10.9275 13.3134C10.9515 13.2927 10.9736 13.2722 10.9956 13.2525L11.0003 13.2497C11.0241 13.2285 11.046 13.2069 11.0684 13.186L11.0731 13.1807C11.0975 13.1576 11.1218 13.1357 11.1459 13.1118C11.1701 13.0877 11.1937 13.0635 11.2163 13.0402C11.2376 13.0184 11.2597 12.9951 11.282 12.9712C11.2844 12.9687 11.2867 12.9659 11.2891 12.9632C11.3114 12.9385 11.3332 12.914 11.3548 12.8889C11.3451 12.9002 11.3668 12.8756 11.3806 12.8597C11.4025 12.8337 11.425 12.8066 11.4463 12.7802C11.4639 12.7591 11.4808 12.7378 11.498 12.7165C11.5004 12.7139 11.5027 12.7112 11.5051 12.7085C11.5241 12.6842 11.5438 12.6582 11.5637 12.6315L11.5708 12.6234C11.5895 12.5986 11.6063 12.5739 11.6224 12.5519C11.624 12.5501 11.6256 12.5484 11.6271 12.5466C11.6463 12.5198 11.6647 12.4943 11.6835 12.467L11.6859 12.4643C11.7038 12.4385 11.7223 12.4097 11.7422 12.3794V12.3767C11.761 12.348 11.7795 12.3199 11.7986 12.2891C11.816 12.2609 11.8332 12.233 11.8502 12.2042C11.8661 12.1773 11.8841 12.1457 11.9019 12.1141L11.9043 12.1114C11.9196 12.0841 11.9358 12.0554 11.9513 12.0265L11.9537 12.0212C11.969 11.9927 11.9833 11.9652 11.9982 11.9363C11.9998 11.9328 12.0014 11.9293 12.0029 11.9258C12.0181 11.8951 12.0337 11.865 12.0475 11.8356L12.0499 11.8303C12.063 11.8026 12.0759 11.7713 12.0898 11.7401V11.7454C12.1064 11.709 12.1172 11.6808 12.1274 11.6579C12.1282 11.6561 12.129 11.6543 12.1298 11.6526C12.142 11.6245 12.1575 11.5892 12.1744 11.5465C12.192 11.5021 12.2025 11.474 12.2071 11.4617C12.208 11.4589 12.2087 11.4564 12.2096 11.4536C12.2202 11.4259 12.2326 11.3922 12.2472 11.3502L12.2496 11.3474C12.2609 11.3147 12.2695 11.2841 12.2777 11.2598C12.2792 11.2563 12.2808 11.2528 12.2824 11.2493C12.2903 11.2249 12.3005 11.1946 12.3105 11.1617L12.3151 11.1458C12.3237 11.1188 12.3318 11.0895 12.341 11.0582C12.3418 11.0555 12.3425 11.0529 12.3434 11.0502C12.3516 11.0213 12.3606 10.9883 12.3692 10.9547L12.3739 10.9414C12.3821 10.9101 12.3887 10.8792 12.395 10.8538C12.3959 10.8511 12.3966 10.8485 12.3975 10.8458C12.4048 10.8142 12.4108 10.7868 12.4162 10.7609L12.4209 10.7345C12.4298 10.6932 12.4381 10.6551 12.4396 10.6469V10.6441C12.4456 10.6146 12.4549 10.5744 12.463 10.5248C12.4676 10.4969 12.4725 10.4706 12.4771 10.4425V10.4372C12.4828 10.4038 12.49 10.3644 12.4958 10.3151C12.5021 10.2641 12.5042 10.2335 12.5052 10.225C12.5087 10.1948 12.5127 10.1545 12.517 10.1029C12.5211 10.0514 12.5233 10.0214 12.5241 10.0127C12.525 10.0021 12.5259 9.99155 12.5265 9.98096C12.5276 9.95096 12.5282 9.93123 12.5289 9.92257C12.5299 9.91198 12.5307 9.90139 12.5313 9.8908C12.5316 9.8823 12.5337 9.84219 12.5337 9.76872C12.5337 9.78203 12.5361 9.75187 12.5361 9.67856V9.58841C12.5361 9.51509 12.5337 9.48493 12.5337 9.49825C12.5338 9.48766 12.5338 9.47707 12.5337 9.46648C12.5334 9.45991 12.5336 9.41579 12.5313 9.3736L12.5289 9.3444C12.5277 9.32226 12.5255 9.30318 12.5242 9.28601L12.5209 9.25152C12.5182 9.21157 12.5144 9.16762 12.5138 9.16136C12.5133 9.15077 12.5126 9.14019 12.5114 9.1296C12.5079 9.0996 12.5032 9.06928 12.4996 9.03944C12.4961 9.0096 12.4914 8.97078 12.4832 8.92009C12.4792 8.89201 12.4749 8.86667 12.4714 8.84581L12.469 8.82993C12.462 8.78485 12.4561 8.74988 12.4549 8.74234V8.73961C12.4467 8.68892 12.4375 8.64978 12.4315 8.62026V8.61753C12.4227 8.57566 12.4159 8.54775 12.4128 8.53267V8.52465C12.4057 8.49176 12.3969 8.45615 12.387 8.41588V8.41316C12.3772 8.37337 12.3682 8.34417 12.3635 8.32557L12.3589 8.30968C12.3482 8.27054 12.3393 8.23798 12.3308 8.20894C12.317 8.16226 12.3059 8.13274 12.3027 8.12135C12.3011 8.11606 12.2995 8.11076 12.298 8.10547C12.2897 8.07996 12.2818 8.0482 12.2699 8.01258L12.2675 8.00729C12.2558 7.97216 12.245 7.94296 12.237 7.9197C12.2362 7.91697 12.2354 7.91441 12.2345 7.91168C12.2216 7.87558 12.2079 7.83949 12.1947 7.80564C12.1806 7.76971 12.1676 7.74115 12.1595 7.72078C12.1588 7.71725 12.1579 7.71372 12.1571 7.71019C12.1471 7.68613 12.1328 7.65517 12.1148 7.61474V7.61201C12.1027 7.58458 12.0889 7.55442 12.0725 7.51913C12.0587 7.48961 12.0428 7.45977 12.0279 7.42897H12.0303C12.0148 7.39705 11.9987 7.36609 11.9833 7.33609L11.9825 7.33448C11.9665 7.30336 11.948 7.27465 11.9331 7.24705V7.24176C11.9164 7.21096 11.9005 7.18288 11.8839 7.15417L11.8814 7.15144C11.8644 7.1216 11.8471 7.09465 11.8322 7.06931C11.8315 7.06754 11.8306 7.06578 11.8298 7.06401C11.8129 7.03594 11.7949 7.00674 11.7759 6.97642C11.7751 6.97546 11.7743 6.97466 11.7734 6.97369C11.7557 6.9461 11.7377 6.91626 11.7194 6.88883L11.717 6.8861C11.6994 6.85979 11.6822 6.83397 11.663 6.80669L11.6606 6.80397C11.642 6.77718 11.6213 6.7483 11.602 6.72183C11.5817 6.69392 11.5611 6.66584 11.541 6.63953C11.5213 6.61387 11.5 6.58772 11.4777 6.55996C11.4568 6.5343 11.4354 6.50799 11.4142 6.48312L11.4118 6.48039C11.3924 6.45729 11.3745 6.4358 11.3555 6.41414L11.3508 6.40885C11.3528 6.41141 11.3402 6.39569 11.3484 6.40612C11.3409 6.39713 11.3331 6.38831 11.325 6.37965C11.3027 6.35462 11.2801 6.33008 11.2569 6.30537C11.2562 6.30441 11.2553 6.30361 11.2544 6.30265C11.2334 6.28035 11.2123 6.2574 11.1887 6.23366L11.1841 6.23094C11.1618 6.20832 11.1405 6.18634 11.1183 6.16484C11.1168 6.16292 11.1152 6.16115 11.1137 6.15939C11.0905 6.13709 11.0681 6.11591 11.0433 6.09313C11.0193 6.07099 10.9942 6.0503 10.9706 6.02944L10.9682 6.02672C10.9439 6.00522 10.9201 5.98404 10.8954 5.96319C10.8938 5.96222 10.8923 5.96142 10.8907 5.96046C10.8673 5.94105 10.8429 5.91923 10.8181 5.8995L10.8134 5.89677C10.7898 5.87816 10.7654 5.85731 10.7406 5.83854H10.7382C10.7112 5.818 10.6855 5.79811 10.6607 5.78014C10.6358 5.76217 10.6087 5.74341 10.5809 5.72447H10.5785C10.5515 5.70587 10.5253 5.68597 10.4987 5.66881H10.4963C10.4691 5.651 10.444 5.63383 10.4188 5.61827H10.4164C10.3905 5.60223 10.3632 5.5849 10.3344 5.5679C10.3059 5.55121 10.2792 5.53517 10.2522 5.52025C10.2498 5.51929 10.2475 5.51849 10.2451 5.51752C10.2176 5.5026 10.1901 5.48881 10.163 5.47501L10.1583 5.47228C10.1317 5.45816 10.1055 5.44533 10.0797 5.43266C10.0781 5.4317 10.0765 5.43089 10.075 5.42993C10.046 5.41597 10.0185 5.40458 9.99281 5.39287L9.9904 5.39015C9.96216 5.37715 9.93264 5.36544 9.90354 5.35309C9.90283 5.35213 9.90198 5.35132 9.90113 5.35036C9.87161 5.33785 9.84181 5.32485 9.81215 5.3133C9.78448 5.3024 9.75439 5.29261 9.72303 5.28138C9.69252 5.27031 9.66371 5.25972 9.63376 5.24962H9.63135C9.60212 5.23983 9.5726 5.22972 9.54223 5.22042H9.53981C9.5103 5.21127 9.48078 5.20229 9.45083 5.19395C9.4206 5.18561 9.38924 5.17743 9.3593 5.17005L9.35461 5.16732C9.32651 5.16026 9.297 5.15272 9.26776 5.14614H9.26535C9.23441 5.13925 9.20205 5.13347 9.17154 5.12753C9.14273 5.12208 9.11307 5.1163 9.08469 5.11165H9.0776C9.04808 5.10652 9.01898 5.09994 8.99074 5.09577H8.98365C8.95299 5.09144 8.92348 5.08839 8.89453 5.08518H8.88984C8.85933 5.08165 8.8291 5.07732 8.79831 5.07459C8.7668 5.07187 8.73444 5.0685 8.7045 5.06657C8.67541 5.06481 8.64305 5.06513 8.61069 5.06385C8.58501 5.06288 8.55748 5.0616 8.52853 5.06112H8.51916H8.51675C8.49645 5.0608 8.48836 5.06112 8.48865 5.06112H8.48623H8.48382H8.47914L8.47928 5.06129ZM8.43699 6.49901H8.4394C8.45402 6.49853 8.46835 6.49933 8.48169 6.49901H8.48411H8.48652H8.49362H8.50298H8.50767H8.52413C8.53832 6.49933 8.55237 6.49837 8.56869 6.49901C8.58899 6.49981 8.61084 6.50286 8.6344 6.5043C8.65682 6.50575 8.67925 6.5051 8.70011 6.50703C8.7204 6.50879 8.74055 6.51248 8.76113 6.51505H8.76581C8.78852 6.51762 8.80867 6.52018 8.82911 6.52307C8.84983 6.52612 8.86856 6.53029 8.88772 6.53366H8.89482C8.91682 6.53735 8.93682 6.54024 8.95811 6.54425C8.97869 6.54826 8.99899 6.55291 9.01914 6.55756C9.03972 6.56221 9.06114 6.56815 9.08243 6.57344H9.08712C9.1077 6.57842 9.12827 6.58387 9.14814 6.58933C9.16801 6.59494 9.18901 6.60168 9.20917 6.60794H9.21158C9.23074 6.61371 9.25032 6.61981 9.27019 6.62654C9.2912 6.6336 9.31333 6.64307 9.33349 6.65045H9.3359C9.35435 6.65702 9.37507 6.66585 9.39692 6.67435C9.41736 6.68237 9.43595 6.68991 9.45554 6.69825C9.47441 6.70643 9.49272 6.71333 9.51188 6.72216C9.51259 6.72312 9.51344 6.72392 9.51429 6.72488C9.53671 6.73515 9.55885 6.74494 9.57759 6.75408C9.59717 6.76371 9.61661 6.77157 9.63393 6.78055C9.63549 6.78151 9.63705 6.78231 9.63861 6.78328C9.65578 6.79194 9.67381 6.80092 9.69027 6.80975C9.71113 6.8213 9.73242 6.83317 9.7513 6.84424C9.76903 6.85466 9.78748 6.86622 9.80764 6.87873C9.80835 6.87969 9.8092 6.88049 9.81005 6.88146C9.83063 6.89413 9.84837 6.9044 9.86639 6.91595C9.88541 6.9283 9.90258 6.94081 9.92032 6.953H9.92273C9.93991 6.96471 9.95722 6.97883 9.97666 6.99279C9.99596 7.00674 10.0143 7.02006 10.0306 7.03257H10.033C10.0505 7.04573 10.0665 7.06049 10.0847 7.07509C10.0854 7.07605 10.0862 7.07685 10.0871 7.07781C10.1041 7.09129 10.1231 7.10541 10.141 7.12033C10.1562 7.13316 10.1709 7.14696 10.1856 7.16011H10.188C10.2057 7.17567 10.2232 7.19268 10.2396 7.20792C10.256 7.223 10.2741 7.2392 10.2913 7.25573C10.3075 7.27145 10.3231 7.28541 10.3383 7.30081C10.339 7.30257 10.3398 7.30434 10.3407 7.3061C10.3557 7.32118 10.3709 7.33626 10.3877 7.35391C10.4021 7.36931 10.4179 7.38551 10.4322 7.40172C10.4322 7.4014 10.4458 7.41728 10.4416 7.4123C10.4432 7.41503 10.4447 7.4176 10.4463 7.42033C10.4623 7.43861 10.4785 7.45594 10.4933 7.47343C10.494 7.47439 10.4948 7.47519 10.4957 7.47615C10.5106 7.49364 10.5259 7.51145 10.5402 7.52926H10.5378C10.5513 7.54594 10.5672 7.56262 10.5824 7.58236C10.5966 7.60097 10.6095 7.62038 10.6223 7.63802H10.6247C10.6383 7.65663 10.6512 7.67717 10.6645 7.69642V7.69915C10.677 7.71695 10.6914 7.73508 10.7044 7.75481C10.7051 7.75578 10.706 7.75658 10.7068 7.75754C10.7199 7.77695 10.7317 7.79604 10.7445 7.81594C10.755 7.83262 10.7659 7.84995 10.7772 7.86904C10.791 7.89246 10.8039 7.91347 10.8148 7.93273C10.8156 7.93449 10.8164 7.93626 10.8173 7.93802C10.8295 7.9592 10.8394 7.97941 10.85 7.99898C10.8618 8.0208 10.8732 8.03845 10.8828 8.05738V8.0601C10.894 8.08192 10.9034 8.10069 10.9133 8.12107C10.914 8.12203 10.9149 8.12283 10.9157 8.12379C10.9264 8.14577 10.9375 8.16887 10.9485 8.19277C10.9562 8.20946 10.9658 8.23176 10.9766 8.25646C10.9773 8.25743 10.9782 8.25823 10.979 8.25919C10.9836 8.2693 10.991 8.28999 11.0002 8.31229C11.0135 8.34582 11.0239 8.37149 11.0307 8.38929C11.0314 8.39026 11.0323 8.39106 11.0331 8.39202C11.0413 8.41336 11.0472 8.43341 11.0543 8.45298C11.0633 8.47945 11.0724 8.50336 11.0777 8.51924C11.0784 8.52197 11.0792 8.52453 11.0801 8.52726C11.0862 8.54539 11.094 8.56913 11.1035 8.59881C11.1126 8.62849 11.1222 8.65688 11.1246 8.66506C11.1329 8.69314 11.1384 8.7156 11.1434 8.73405C11.1508 8.76356 11.1587 8.78907 11.1621 8.80303V8.80575C11.1662 8.82228 11.1709 8.84201 11.1762 8.86672C11.1844 8.9057 11.1916 8.93586 11.1949 8.95158L11.1925 8.94885C11.1983 8.97773 11.203 8.9965 11.2043 9.00452C11.2119 9.05136 11.2163 9.07816 11.216 9.07607C11.2168 9.08136 11.2176 9.08666 11.2185 9.09195C11.2233 9.12147 11.2285 9.14297 11.2302 9.15564C11.2309 9.16366 11.2317 9.17152 11.2326 9.17954C11.2339 9.18804 11.2362 9.20826 11.2397 9.23794C11.242 9.25687 11.2446 9.27467 11.2468 9.29361C11.251 9.34494 11.2544 9.36499 11.2539 9.352C11.2545 9.36259 11.2552 9.37318 11.2563 9.38376C11.2588 9.4136 11.2583 9.43398 11.2588 9.44216C11.2593 9.45275 11.26 9.46333 11.2612 9.47392C11.2602 9.46157 11.2615 9.48066 11.2636 9.53232C11.2643 9.56007 11.266 9.59921 11.266 9.59071V9.68087C11.266 9.66755 11.2636 9.69771 11.2636 9.77103C11.2636 9.76541 11.2616 9.78867 11.2612 9.79493C11.2607 9.80054 11.2616 9.80295 11.2612 9.80824C11.2607 9.81819 11.2595 9.80953 11.2588 9.82685C11.2566 9.8607 11.2549 9.89487 11.2541 9.91701C11.2525 9.94043 11.2521 9.96979 11.2517 9.97541C11.251 9.98407 11.2481 10.0038 11.2446 10.0338C11.2385 10.0847 11.2362 10.1132 11.2352 10.1214V10.1241C11.2342 10.1328 11.2301 10.1491 11.2258 10.1745V10.1798C11.221 10.2091 11.2166 10.2382 11.2118 10.2674C11.2105 10.2757 11.206 10.294 11.2 10.323V10.3258C11.1899 10.3753 11.1861 10.3956 11.1882 10.3867C11.1865 10.3946 11.185 10.4026 11.1835 10.4106C11.178 10.4374 11.1733 10.4604 11.1695 10.4769C11.1637 10.5005 11.1577 10.5231 11.153 10.5406C11.1515 10.5449 11.1499 10.5494 11.1483 10.5539C11.1438 10.5722 11.1387 10.5934 11.1319 10.6176C11.1265 10.6355 11.1201 10.654 11.1132 10.676C11.1116 10.6813 11.11 10.6866 11.1085 10.6919C11.1036 10.7081 11.0963 10.7307 11.0873 10.7581C11.0785 10.7839 11.0703 10.8085 11.0639 10.8271V10.8298C11.0596 10.842 11.0507 10.8613 11.0405 10.8882C11.0257 10.9262 11.0161 10.9529 11.0124 10.9625H11.0148C11.0101 10.9744 11.0003 10.9923 10.989 11.0182C10.9761 11.0475 10.966 11.0706 10.9585 11.0871C10.9576 11.0889 10.9569 11.0907 10.956 11.0924C10.9468 11.113 10.9368 11.1351 10.9255 11.1587V11.1614C10.9152 11.1834 10.905 11.2051 10.895 11.2251C10.8855 11.2434 10.8743 11.2626 10.8645 11.2808C10.8637 11.2816 10.863 11.2825 10.8621 11.2835C10.8516 11.3032 10.8411 11.3236 10.8293 11.3445C10.8285 11.3453 10.8278 11.3462 10.8269 11.3472C10.817 11.365 10.8072 11.386 10.7941 11.4082C10.7821 11.4284 10.769 11.4491 10.7565 11.4691C10.7557 11.4699 10.755 11.4709 10.7541 11.4718C10.7429 11.4901 10.7315 11.5081 10.7189 11.5275C10.708 11.5444 10.6956 11.5625 10.6813 11.5832C10.6804 11.584 10.6797 11.5849 10.6789 11.5859C10.6665 11.6039 10.6539 11.6214 10.6413 11.639C10.6257 11.6603 10.612 11.6802 10.599 11.6974C10.5974 11.7 10.5959 11.7027 10.5943 11.7054C10.5839 11.7194 10.5713 11.7348 10.5591 11.7505C10.5446 11.7685 10.5317 11.7861 10.5168 11.8036C10.512 11.8079 10.5073 11.8124 10.5028 11.8169C10.4883 11.835 10.4754 11.8524 10.4605 11.87C10.4556 11.8761 10.451 11.8824 10.4464 11.8886H10.444C10.4291 11.906 10.4145 11.9223 10.3994 11.939C10.387 11.9523 10.3736 11.9645 10.3596 11.9788C10.3587 11.9806 10.358 11.9823 10.3571 11.9841C10.3403 12.0016 10.3238 12.0187 10.3079 12.0345H10.3055C10.2896 12.0502 10.275 12.0667 10.2585 12.0823C10.2429 12.0967 10.2264 12.1115 10.2115 12.1248C10.21 12.1256 10.2084 12.1265 10.2069 12.1275C10.1894 12.1432 10.1734 12.1562 10.1576 12.17C10.1417 12.1837 10.1241 12.1978 10.106 12.2125C10.1051 12.2133 10.1044 12.2143 10.1035 12.2153C10.0865 12.2292 10.0693 12.2443 10.0519 12.2578H10.0495C10.0354 12.2687 10.0201 12.282 10.0025 12.2948C9.98489 12.3075 9.96659 12.3197 9.94856 12.3319C9.94544 12.3345 9.94232 12.3372 9.9392 12.3399C9.92046 12.3532 9.90102 12.3649 9.88285 12.377C9.86611 12.388 9.84979 12.3999 9.8312 12.4115V12.4087C9.81119 12.4212 9.7933 12.435 9.77485 12.4458H9.77244C9.75442 12.4565 9.73639 12.4674 9.71851 12.4776C9.69978 12.488 9.68019 12.4989 9.6599 12.5093C9.65834 12.5101 9.65678 12.5111 9.65522 12.512C9.63833 12.521 9.61818 12.5303 9.5966 12.5412C9.57546 12.5517 9.55587 12.5621 9.53799 12.5704C9.51642 12.5805 9.49669 12.5882 9.47697 12.5969H9.48165C9.46079 12.6059 9.44064 12.6128 9.42063 12.6208C9.41906 12.6216 9.4175 12.6226 9.41594 12.6235C9.39721 12.6312 9.37862 12.6375 9.3596 12.6447C9.33888 12.6523 9.31958 12.6588 9.29858 12.6659C9.29701 12.6667 9.29545 12.6677 9.29389 12.6686C9.27175 12.6763 9.25103 12.6832 9.2306 12.6898C9.21201 12.6957 9.19115 12.7021 9.16957 12.7084L9.17199 12.7057C9.15155 12.7114 9.12955 12.7188 9.10869 12.7243H9.10401C9.08073 12.7305 9.05973 12.7357 9.04071 12.7402C9.02098 12.7447 9.00239 12.7493 8.9821 12.7535H8.97741C8.95726 12.7577 8.93754 12.7629 8.91639 12.7668C8.89638 12.7703 8.87467 12.7742 8.85309 12.7774C8.83152 12.7804 8.81194 12.783 8.79207 12.7854H8.78497C8.76241 12.7883 8.73942 12.791 8.71685 12.7934C8.69741 12.7952 8.67854 12.7976 8.66051 12.7987H8.6581C8.63766 12.8002 8.61496 12.8003 8.59239 12.8014C8.56969 12.8026 8.54655 12.8037 8.52668 12.8042H8.51959H8.48681H8.48212H8.47503C8.4536 12.8035 8.43331 12.8024 8.41642 12.8014H8.41173C8.39229 12.8006 8.37285 12.8003 8.35071 12.7987H8.34602C8.328 12.7976 8.30884 12.7952 8.28968 12.7934H8.28031C8.26016 12.7912 8.24015 12.7876 8.22397 12.7854H8.21688C8.19701 12.783 8.17516 12.7806 8.15358 12.7774H8.15117C8.1296 12.7742 8.11016 12.7703 8.09014 12.7668C8.07155 12.7636 8.0497 12.7583 8.02685 12.7535C8.00641 12.7493 7.98711 12.7445 7.96824 12.7402H7.96355C7.94326 12.7354 7.92296 12.7318 7.90494 12.7268C7.90253 12.7259 7.90026 12.7251 7.89785 12.7241C7.87883 12.7193 7.85868 12.7137 7.83923 12.7082L7.83455 12.7055C7.81369 12.6994 7.79169 12.6954 7.77353 12.6896C7.75493 12.6837 7.73691 12.6762 7.71491 12.6685C7.7125 12.6675 7.71023 12.6667 7.70782 12.6657C7.69022 12.6598 7.67149 12.6543 7.65148 12.6471L7.64679 12.6444C7.62607 12.6365 7.60748 12.6292 7.59286 12.6232C7.59045 12.6223 7.58818 12.6215 7.58577 12.6205C7.56774 12.6133 7.54944 12.6052 7.52943 12.5966H7.52687C7.51154 12.5879 7.49182 12.5793 7.46797 12.568C7.44938 12.5594 7.42923 12.5499 7.40695 12.5388C7.38552 12.5282 7.36565 12.5162 7.34834 12.5071C7.34678 12.5061 7.34522 12.5053 7.34365 12.5043C7.32733 12.496 7.31002 12.4877 7.292 12.4779L7.2849 12.4726C7.26787 12.463 7.25013 12.4535 7.23338 12.4434H7.23097C7.21352 12.4331 7.19592 12.4206 7.17704 12.4089L7.17463 12.4062C7.15802 12.3957 7.14114 12.3864 7.12297 12.3744H7.12056C7.10168 12.3616 7.08409 12.3495 7.06677 12.3373C7.06436 12.3356 7.06209 12.3338 7.05967 12.332C7.03981 12.3183 7.02349 12.3061 7.00802 12.2948L7.0056 12.2921C6.98985 12.2806 6.97367 12.2685 6.9565 12.255C6.93677 12.2398 6.91747 12.2267 6.90016 12.2127V12.21C6.88313 12.1963 6.86624 12.1832 6.85091 12.1702L6.8485 12.1675C6.8326 12.1538 6.81671 12.1408 6.79925 12.1251C6.7984 12.1243 6.79769 12.1233 6.79684 12.1225C6.77796 12.1055 6.76179 12.0905 6.74759 12.0773H6.74518C6.73099 12.064 6.71708 12.0486 6.70062 12.0322C6.68373 12.0154 6.66684 11.9976 6.6491 11.9793C6.64825 11.9783 6.64754 11.9775 6.64669 11.9766C6.63207 11.9616 6.61958 11.9477 6.60681 11.9342L6.59971 11.9289C6.59176 11.9201 6.58396 11.9113 6.5763 11.9024L6.56452 11.8864C6.55728 11.8779 6.55245 11.8726 6.5482 11.8678C6.53329 11.8501 6.51811 11.833 6.50349 11.8147C6.49966 11.8102 6.49569 11.8059 6.49171 11.8014C6.47908 11.7865 6.46631 11.7712 6.4541 11.7563L6.44701 11.7483C6.43423 11.7317 6.42359 11.7159 6.41436 11.7033C6.4128 11.7016 6.41124 11.6998 6.40968 11.6981C6.39592 11.6798 6.38101 11.6608 6.36739 11.6424L6.36498 11.6371C6.35178 11.6185 6.34028 11.602 6.32992 11.5866L6.32524 11.5813C6.31261 11.563 6.3014 11.5455 6.29004 11.5282L6.28763 11.5256C6.27387 11.5043 6.26265 11.4865 6.25244 11.4699C6.25173 11.4682 6.25088 11.4664 6.25002 11.4646C6.24108 11.4502 6.22817 11.4311 6.21483 11.409L6.21242 11.4037C6.19936 11.3812 6.18815 11.3604 6.17963 11.3453C6.16544 11.3198 6.15466 11.2992 6.14685 11.2843C6.14529 11.2826 6.14373 11.2808 6.14217 11.279C6.13195 11.2601 6.12145 11.2396 6.11166 11.2206L6.10697 11.2126C6.09902 11.1966 6.09164 11.1797 6.08356 11.1622C6.08199 11.1595 6.08043 11.1569 6.07887 11.1542C6.06837 11.1324 6.06 11.1111 6.05077 11.0905C6.04921 11.0878 6.04765 11.0852 6.04609 11.0825C6.03658 11.0618 6.02849 11.0434 6.02026 11.0241C6.0187 11.0196 6.01714 11.0153 6.01558 11.0108C6.01018 10.9988 6.00309 10.9814 5.99443 10.9604C5.98748 10.9429 5.97939 10.9203 5.9686 10.8914C5.96704 10.8879 5.96548 10.8844 5.96392 10.8808C5.95895 10.8682 5.95086 10.8502 5.94277 10.8277L5.94036 10.8197C5.93057 10.7913 5.92447 10.7679 5.92163 10.7588C5.91936 10.7543 5.91694 10.7499 5.91453 10.7454C5.91255 10.7394 5.90673 10.7177 5.89807 10.6898L5.89566 10.6818C5.88374 10.6421 5.87522 10.6153 5.87465 10.6131C5.87394 10.6104 5.87309 10.6078 5.87224 10.6051C5.86798 10.5906 5.86316 10.5751 5.85819 10.5547V10.552C5.84854 10.5136 5.84116 10.4836 5.83705 10.4671V10.4644C5.83534 10.4576 5.83066 10.4434 5.82527 10.4166V10.4113C5.81718 10.372 5.81178 10.3439 5.8088 10.329C5.80809 10.3272 5.80724 10.3255 5.80639 10.3237C5.80001 10.2926 5.79532 10.2722 5.79461 10.268C5.79334 10.2565 5.79177 10.2449 5.78993 10.2335C5.79234 10.2452 5.78879 10.2281 5.78056 10.1779C5.77914 10.169 5.77545 10.1427 5.76878 10.0983L5.77347 10.1195C5.76992 10.09 5.76538 10.0616 5.76169 10.0319C5.75942 10.0086 5.75743 9.97927 5.757 9.97349C5.75459 9.94397 5.75232 9.91349 5.74991 9.88333C5.75019 9.88686 5.7475 9.862 5.7475 9.85943C5.7475 9.76446 5.74281 9.7343 5.74281 9.76927C5.74281 9.6743 5.7404 9.64414 5.7404 9.67911L5.74083 9.58928C5.74083 9.62425 5.74324 9.59409 5.74324 9.49912C5.74622 9.47089 5.74792 9.44265 5.74792 9.41426C5.74679 9.42324 5.74792 9.42292 5.74792 9.40896C5.74963 9.40014 5.75119 9.39132 5.75261 9.38249C5.75502 9.35201 5.75629 9.33276 5.75729 9.3241C5.76339 9.27308 5.76623 9.25656 5.76438 9.26843C5.76623 9.25784 5.76779 9.24726 5.76907 9.23667C5.76978 9.23121 5.7729 9.20137 5.77616 9.17827L5.78085 9.14651C5.78383 9.12662 5.78738 9.09886 5.78794 9.09613V9.09084C5.79277 9.06132 5.79859 9.03565 5.80199 9.01656C5.80284 9.01207 5.80355 9.00774 5.8044 9.00325C5.80568 8.99523 5.80781 8.97646 5.81377 8.94758C5.81462 8.94678 5.81533 8.94582 5.81618 8.94485C5.82214 8.91582 5.82527 8.89079 5.83023 8.86785C5.83109 8.86512 5.83179 8.86256 5.83265 8.85983C5.83449 8.85117 5.84088 8.82871 5.8467 8.80416L5.84911 8.79357C5.85393 8.77416 5.85805 8.75924 5.86089 8.74849L5.8633 8.73518C5.87238 8.70358 5.87891 8.67662 5.87976 8.67422C5.88132 8.67069 5.88288 8.66716 5.88445 8.66363C5.88757 8.65304 5.8958 8.62593 5.90786 8.58663C5.90871 8.5839 5.90942 8.58133 5.91027 8.57861C5.91326 8.5685 5.91907 8.55278 5.92674 8.5308C5.92759 8.52903 5.9283 8.52727 5.92915 8.5255C5.94178 8.48877 5.94888 8.46422 5.95257 8.45396C5.95413 8.45043 5.95569 8.4469 5.95725 8.44337C5.95938 8.43711 5.96477 8.41898 5.97598 8.39027C5.98719 8.36171 5.99699 8.33861 6.00408 8.32128C6.00564 8.31775 6.0072 8.31423 6.00877 8.3107C6.01288 8.30043 6.02069 8.28134 6.02991 8.26032L6.03232 8.2523C6.04382 8.22647 6.05588 8.20385 6.06284 8.18861V8.18589C6.07277 8.16439 6.0837 8.1445 6.09335 8.12492V8.11963C6.10328 8.0991 6.11506 8.08033 6.12613 8.05867V8.05594C6.1345 8.03958 6.146 8.01904 6.15891 7.99498C6.17098 7.973 6.1829 7.95455 6.1917 7.93931C6.19326 7.93578 6.19482 7.93225 6.19638 7.92872C6.20504 7.91348 6.21554 7.89359 6.22916 7.87033L6.23157 7.8676C6.24293 7.84867 6.254 7.83119 6.26436 7.8145L6.26677 7.80921C6.27841 7.79092 6.29004 7.77391 6.30196 7.75611C6.30282 7.7553 6.30353 7.75434 6.30438 7.75338C6.31743 7.73365 6.32936 7.71552 6.34199 7.69771C6.34284 7.69691 6.34355 7.69595 6.3444 7.69498C6.35646 7.67766 6.37023 7.65857 6.38428 7.63932V7.63659C6.39847 7.61718 6.41351 7.59793 6.42657 7.58092H6.42898C6.44218 7.56359 6.45439 7.54579 6.46887 7.52782C6.48334 7.50985 6.49867 7.49221 6.51343 7.47472C6.53017 7.45483 6.54621 7.43509 6.5604 7.41905C6.56438 7.41472 6.56821 7.41023 6.57218 7.40573C6.56977 7.40846 6.57573 7.40156 6.5746 7.40301C6.58992 7.38584 6.6061 7.36932 6.62157 7.35263L6.62398 7.34991C6.63959 7.33354 6.65435 7.31927 6.66855 7.30483L6.67323 7.29953C6.68714 7.28525 6.70261 7.26921 6.71779 7.25445L6.72021 7.25172C6.73539 7.23713 6.75072 7.22189 6.76718 7.20664C6.78549 7.1898 6.80436 7.17376 6.82111 7.15884H6.82352C6.83914 7.14504 6.85446 7.12996 6.8705 7.11632L6.87291 7.11359C6.88867 7.10044 6.90428 7.08873 6.91989 7.07654C6.9223 7.07477 6.92457 7.07301 6.92698 7.07124C6.9443 7.05729 6.96033 7.04365 6.97623 7.03146C6.99042 7.02071 7.00986 7.0082 7.03257 6.99167C7.05017 6.97884 7.06848 6.96424 7.0865 6.95189C7.10978 6.93601 7.12794 6.92446 7.14284 6.91483C7.15902 6.9044 7.17775 6.89349 7.19918 6.88034C7.20075 6.87954 7.20231 6.87858 7.20387 6.87761C7.21934 6.86783 7.23693 6.85548 7.2578 6.84312C7.27525 6.83286 7.29214 6.82355 7.30946 6.81393L7.31655 6.8112C7.33273 6.80254 7.35075 6.79211 7.37048 6.782C7.37133 6.7812 7.37204 6.78024 7.37289 6.77927C7.39276 6.76901 7.41277 6.75922 7.43151 6.75008C7.44896 6.74157 7.4694 6.73404 7.49253 6.72361C7.49409 6.72281 7.49565 6.72184 7.49721 6.72088C7.51453 6.71286 7.53255 6.70516 7.55114 6.69698L7.55583 6.69425C7.57243 6.68719 7.59088 6.68045 7.60976 6.67308L7.61217 6.67035C7.63388 6.66201 7.65347 6.65527 7.67078 6.64917H7.67319C7.6942 6.64147 7.71506 6.63441 7.73422 6.628C7.75721 6.62046 7.77821 6.6126 7.79751 6.60682H7.79993C7.81951 6.60073 7.84066 6.59399 7.86095 6.58821C7.88139 6.5826 7.90281 6.57762 7.92425 6.57233C7.9471 6.56656 7.96952 6.56094 7.98995 6.55645C8.01011 6.55196 8.02926 6.54698 8.04857 6.54313C8.07241 6.53864 8.09426 6.53575 8.11427 6.53255H8.11896C8.13755 6.52934 8.1577 6.52501 8.17757 6.52196C8.19872 6.51907 8.22071 6.5165 8.24328 6.51394C8.26769 6.51121 8.29039 6.50768 8.30899 6.50592C8.32985 6.50415 8.35184 6.50463 8.37469 6.50319C8.39939 6.50174 8.41954 6.49854 8.43799 6.49789L8.43699 6.49901Z" fill="#2DA2E1"/>
</svg>
