<svg width="339" height="84" viewBox="0 0 339 84" fill="none" xmlns="http://www.w3.org/2000/svg">
<path fill-rule="evenodd" clip-rule="evenodd" d="M57.7252 11.9664C58.8291 11.9664 59.9798 12.2398 61.1772 12.7931C62.7746 13.5591 63.9536 14.7889 64.7236 16.4753L66.2402 19.8813C66.7005 20.8947 67.4057 21.844 68.3586 22.7358C69.2792 23.6244 70.3691 24.3755 71.6277 24.9904C73.2239 25.7564 74.7877 26.1411 76.3195 26.1411C77.151 26.1411 77.9636 26.0333 78.7619 25.8179L82.4441 24.8973C82.9935 24.7462 83.5624 24.6672 84.1442 24.6672C85.3133 24.6672 86.5394 24.9764 87.8264 25.5877C89.7291 26.4798 91.11 27.752 91.9688 29.4097L93.9038 33.0452C94.8566 34.7647 95.0398 36.4972 94.458 38.2452C93.8431 40.0248 92.6592 41.1755 90.912 41.6973L87.0467 42.895C84.6229 43.6315 82.9651 45.2101 82.0729 47.6377C81.0309 50.3386 81.124 53.0671 82.3498 55.8287L84.4213 60.4315C85.3418 62.4887 85.5434 64.6826 85.0224 67.0124C84.1018 69.008 82.6595 70.5723 80.6921 71.7082L76.1833 73.4562C75.1688 73.7039 74.1875 73.8262 73.2386 73.8262C71.8578 73.8262 70.477 73.5493 69.0962 72.9959C66.8839 71.5867 65.3668 69.7593 64.5402 67.5197L62.6991 62.5495C61.8069 60.0935 61.7925 57.9148 62.6523 56.0128C63.6336 53.8661 65.2446 52.4522 67.4852 51.7802L71.8107 50.3993C74.4501 49.569 76.2588 47.9286 77.2401 45.4726C78.1606 43.0781 78.0391 40.5789 76.8737 37.9719L75.0797 34.0596C73.9427 31.5713 72.1487 29.7478 69.6923 28.5795C68.0677 27.7851 66.4568 27.3856 64.8594 27.3856C64.0331 27.4141 63.1877 27.5367 62.3279 27.752L58.2326 28.7665C57.4667 28.9495 56.7155 29.0398 55.9783 29.0398C54.6866 29.0398 53.3997 28.7193 52.1128 28.076C50.3608 27.2457 49.135 25.8786 48.4306 23.9768L47.0921 20.3876C46.4485 18.608 46.5564 17.0442 47.4162 15.6918C48.2759 14.3433 49.5021 13.5167 51.0983 13.2073C51.3756 13.1456 51.6341 13.0988 51.8826 13.07L55.8373 12.2868C56.1142 12.1966 56.3444 12.1358 56.5277 12.1027C56.9273 12.0096 57.3268 11.9664 57.7252 11.9664Z" fill="#00ACDD"/>
<path fill-rule="evenodd" clip-rule="evenodd" d="M37.5203 16.613C38.6857 16.613 39.8688 16.9039 41.0663 17.4904C42.7527 18.2847 43.917 19.5901 44.5607 21.4027L45.8524 25.0378C46.7729 27.4902 48.473 29.3496 50.9622 30.6082C52.5547 31.3741 54.1841 31.7589 55.8374 31.7589C56.8194 31.7873 57.8331 31.665 58.8759 31.3888L62.9716 30.3309C63.6197 30.1479 64.2633 30.054 64.9066 30.054C66.1652 30.0872 67.4381 30.4065 68.7251 31.0214C70.7208 31.9707 72.1164 33.3375 72.9143 35.1171L74.6663 39.0761C75.5253 40.9172 75.5537 42.7872 74.7554 44.6897C73.9291 46.6239 72.5335 47.8969 70.5661 48.5118L66.2403 49.8458C63.3281 50.7056 61.2568 52.4712 60.0266 55.139C59.3833 56.5198 59.0453 57.9338 59.017 59.3753C58.9838 60.8169 59.2611 62.3671 59.8436 64.0213L61.6376 69.0411C62.4359 71.2817 62.4359 73.687 61.6376 76.2656C60.1345 78.6597 58.2934 80.454 56.1143 81.6515L50.9622 83.63C49.9801 83.8738 48.9948 84 48.0127 84C46.4485 84 44.9318 83.6908 43.4567 83.0795C41.0048 81.8209 39.4222 79.8723 38.7181 77.2321L37.243 71.7556C36.4775 68.962 36.7828 66.538 38.1636 64.4815C39.4837 62.0899 41.3104 60.5408 43.6401 59.8356L48.5198 58.2678C51.7133 57.257 53.9539 55.4159 55.2409 52.7445C55.9165 51.3637 56.3161 49.9682 56.4387 48.5589C56.5278 47.1173 56.3444 45.7501 55.8841 44.4596L54.3203 40.274C53.3998 37.7572 51.5439 35.8075 48.7499 34.4266C47.1253 33.6284 45.4529 33.2299 43.734 33.2299C42.6912 33.2299 41.6157 33.3699 40.5121 33.6432L35.9094 34.7939C35.1718 34.9808 34.4346 35.071 33.7019 35.071C32.3211 35.071 30.9402 34.7324 29.5594 34.0603C27.5637 33.262 26.2907 31.8197 25.7362 29.7308L24.6326 25.8185C24.1116 23.8264 24.478 22.1363 25.7362 20.7555C26.8733 19.2524 28.2541 18.3319 29.8787 17.9939C30.1559 17.9654 30.4185 17.9324 30.6633 17.9035L35.0827 16.983C35.3883 16.8902 35.6792 16.8147 35.9565 16.7529C36.4775 16.6601 36.9993 16.613 37.5203 16.613Z" fill="#004166"/>
<path fill-rule="evenodd" clip-rule="evenodd" d="M31.2594 0.000553131C32.4896 0.000553131 33.838 0.23069 35.3128 0.690964C37.0276 1.82333 38.1028 3.03551 38.5347 4.32603L39.6854 7.50118C40.2064 8.9435 40.0517 10.4175 39.2251 11.9205C37.9334 13.424 36.3371 14.3593 34.4346 14.7293L30.1558 15.6027C27.272 16.1856 25.0457 17.4726 23.4819 19.4683C21.8856 21.4935 21.4254 23.7802 22.101 26.3264L23.1578 30.2847C23.8059 32.7702 25.4309 34.6722 28.0375 35.9921C29.7563 36.8225 31.6913 37.2356 33.838 37.2356C34.7586 37.2356 35.6939 37.1565 36.6468 37.0055L41.2963 35.808C41.6303 35.715 41.9252 35.6394 42.1701 35.5779C42.7195 35.4233 43.2884 35.3478 43.8702 35.3478C45.0393 35.3478 46.3409 35.6394 47.7825 36.2223C49.6567 37.3582 50.9289 38.8466 51.6057 40.6877L53.1224 44.9675C53.9207 47.1786 53.86 49.1891 52.9394 50.9971C51.591 53.2054 49.8254 54.6332 47.6463 55.2766L42.8134 56.7973C41.8928 57.0745 41.0047 57.2108 40.1456 57.2108C38.7317 57.2439 37.3372 56.8876 35.9564 56.154C34.021 54.9242 32.5795 53.2377 31.6306 51.091L30.4331 46.5784C29.6632 43.8168 27.9484 41.7593 25.2758 40.4108C23.374 39.4579 21.443 38.9839 19.4756 38.9839C18.4336 38.9839 17.3621 39.1238 16.2537 39.3972L11.1484 40.6877C10.2278 40.9042 9.30727 41.0081 8.38673 41.0081C7.0059 41.0081 5.63907 40.7495 4.2866 40.2274C2.324 38.9692 1.17333 37.373 0.834595 35.4417L0.101746 31.2053C-0.236988 29.1201 0.2704 27.293 1.61886 25.7288C3.12193 23.9495 5.02378 22.8273 7.32515 22.367L12.158 21.4033C15.2908 20.7561 17.653 19.4223 19.2455 17.3971C20.8141 15.4014 21.2884 13.2877 20.6731 11.0471L19.7525 7.63825C19.3541 6.16713 19.7389 4.63174 20.9032 3.03551C22.1618 1.84165 23.7267 1.09048 25.6002 0.781181L29.6484 0.136795C30.1706 0.0437279 30.71 0.000553131 31.2594 0.000553131Z" fill="#96BC33"/>
<path d="M125.648 28.7668V34.3908H122.959V55.3765H125.648V61H113.005V55.3765H115.695V34.3908H113.005V28.7668H125.648ZM151.79 61H144.713V48.2134C144.713 44.6463 143.437 42.8624 140.887 42.8624C139.658 42.8624 138.648 43.3374 137.852 44.2867C137.065 45.2292 136.673 46.4223 136.673 47.8682V61H129.567V37.9863H136.673V41.6261H136.76C138.446 38.8278 140.909 37.4258 144.153 37.4258C149.244 37.4258 151.79 40.5868 151.79 46.9045V61Z" fill="#004166"/>
<path d="M171.344 60.7287C170.297 61.282 168.716 61.5625 166.598 61.5625C161.592 61.5625 159.09 58.9666 159.09 53.7667V43.2234H155.364V37.9874H159.09V33.0255L166.181 30.9978V37.9874H171.344V43.2234H166.181V52.5293C166.181 54.9285 167.13 56.1259 169.029 56.1259C169.776 56.1259 170.546 55.9098 171.344 55.4779V60.7287Z" fill="#004166"/>
<path d="M195.994 51.5232H180.993C181.229 54.8602 183.337 56.5283 187.307 56.5283C189.838 56.5283 192.061 55.9317 193.981 54.7303V59.8505C191.852 60.9947 189.084 61.5625 185.681 61.5625C181.971 61.5625 179.086 60.5344 177.037 58.4696C174.984 56.4096 173.959 53.5365 173.959 49.8543C173.959 46.0394 175.066 43.0146 177.281 40.7786C179.497 38.5452 182.223 37.4269 185.466 37.4269C188.821 37.4269 191.413 38.4266 193.247 40.4187C195.077 42.4144 195.994 45.1188 195.994 48.5314V51.5232ZM189.421 47.1506C189.421 43.8632 188.084 42.2166 185.408 42.2166C184.276 42.2166 183.294 42.6913 182.459 43.6406C181.625 44.5823 181.114 45.7514 180.935 47.1506H189.421Z" fill="#004166"/>
<path d="M200.228 61H207.333V26.925H200.228V61Z" fill="#004166"/>
<path d="M213.353 61H220.458V26.925H213.353V61Z" fill="#004166"/>
<path d="M230.073 34.3473C228.872 34.3473 227.89 33.9949 227.124 33.2833C226.355 32.5641 225.974 31.6935 225.974 30.6651C225.974 29.6011 226.355 28.7348 227.124 28.0621C227.89 27.3824 228.872 27.0408 230.073 27.0408C231.281 27.0408 232.263 27.3824 233.021 28.0621C233.776 28.7348 234.158 29.6011 234.158 30.6651C234.158 31.7403 233.776 32.6213 233.021 33.3117C232.263 34.0021 231.281 34.3473 230.073 34.3473ZM233.582 61H226.477V37.9863H233.582V61Z" fill="#004166"/>
<path d="M258.934 34.6789H247.556V42.589H258.014V48.4871H247.556V61H240.293V28.7668H258.934V34.6789Z" fill="#004166"/>
<path d="M263.515 61H270.62V26.925H263.515V61Z" fill="#004166"/>
<path d="M287.6 61.5625C283.763 61.5625 280.746 60.4913 278.552 58.3406C276.366 56.1942 275.273 53.274 275.273 49.581C275.273 45.7762 276.409 42.7992 278.682 40.6488C280.962 38.502 284.04 37.4269 287.916 37.4269C291.742 37.4269 294.738 38.502 296.906 40.6488C299.082 42.7992 300.171 45.6399 300.171 49.1786C300.171 53.0043 299.049 56.0249 296.805 58.2395C294.568 60.4554 291.501 61.5625 287.6 61.5625ZM287.786 42.8635C286.107 42.8635 284.802 43.4464 283.874 44.6043C282.943 45.7549 282.479 47.3872 282.479 49.4943C282.479 53.9176 284.263 56.1259 287.83 56.1259C291.232 56.1259 292.936 53.8529 292.936 49.3073C292.936 45.0139 291.217 42.8635 287.786 42.8635Z" fill="#004166"/>
<path d="M338.104 37.9863L331.473 61L324.009 61L320.614 47.5086C320.391 46.6164 320.268 45.6387 320.24 44.5748H320.096C320 45.7466 319.851 46.6956 319.651 47.4219L316.011 61H308.646L302.146 37.9863H309.38L312.545 53.0031C312.696 53.7047 312.811 54.5562 312.89 55.5634H313.019C313.095 54.5101 313.228 53.6216 313.422 52.9029L317.378 37.9863H324.152L327.705 53.0031C327.791 53.3771 327.892 54.247 328.007 55.6066H328.166C328.241 54.7367 328.36 53.8658 328.525 53.0031L331.517 37.9863H338.104Z" fill="#004166"/>
<path d="M118.633 79V78.084C118.173 78.804 117.496 79.1641 116.603 79.1641C116.024 79.1641 115.491 79.0046 115.003 78.6855C114.52 78.3665 114.144 77.9222 113.875 77.3525C113.611 76.7783 113.479 76.1198 113.479 75.377C113.479 74.6523 113.599 73.9961 113.841 73.4082C114.082 72.8158 114.445 72.3623 114.928 72.0479C115.411 71.7334 115.951 71.5762 116.548 71.5762C116.985 71.5762 117.375 71.6696 117.717 71.8564C118.059 72.0387 118.337 72.278 118.551 72.5742V68.9785H119.774V79H118.633ZM114.743 75.377C114.743 76.3066 114.939 77.0016 115.331 77.4619C115.723 77.9222 116.186 78.1523 116.719 78.1523C117.257 78.1523 117.712 77.9336 118.086 77.4961C118.464 77.054 118.653 76.3818 118.653 75.4795C118.653 74.486 118.462 73.7568 118.079 73.292C117.696 72.8271 117.225 72.5947 116.664 72.5947C116.117 72.5947 115.659 72.818 115.29 73.2646C114.925 73.7113 114.743 74.4154 114.743 75.377ZM126.686 76.6621L127.957 76.8193C127.757 77.5622 127.385 78.1387 126.843 78.5488C126.3 78.959 125.608 79.1641 124.765 79.1641C123.703 79.1641 122.86 78.8382 122.235 78.1865C121.616 77.5303 121.306 76.612 121.306 75.4316C121.306 74.2103 121.62 73.2624 122.249 72.5879C122.878 71.9134 123.694 71.5762 124.696 71.5762C125.667 71.5762 126.46 71.9066 127.075 72.5674C127.69 73.2282 127.998 74.1579 127.998 75.3564C127.998 75.4294 127.996 75.5387 127.991 75.6846H122.577C122.623 76.4821 122.848 77.0928 123.254 77.5166C123.66 77.9404 124.165 78.1523 124.771 78.1523C125.223 78.1523 125.608 78.0339 125.927 77.7969C126.246 77.5599 126.499 77.1816 126.686 76.6621ZM122.646 74.6729H126.699C126.645 74.0622 126.49 73.6042 126.234 73.2988C125.842 72.8249 125.334 72.5879 124.71 72.5879C124.145 72.5879 123.669 72.777 123.281 73.1553C122.898 73.5335 122.687 74.0394 122.646 74.6729ZM129.509 79V71.7402H130.609V72.7588C130.837 72.4033 131.14 72.1185 131.519 71.9043C131.897 71.6855 132.327 71.5762 132.811 71.5762C133.348 71.5762 133.788 71.6878 134.13 71.9111C134.476 72.1344 134.72 72.4466 134.861 72.8477C135.436 72 136.183 71.5762 137.104 71.5762C137.824 71.5762 138.377 71.7767 138.765 72.1777C139.152 72.5742 139.346 73.1872 139.346 74.0166V79H138.122V74.4268C138.122 73.9346 138.081 73.5814 137.999 73.3672C137.922 73.1484 137.778 72.973 137.568 72.8408C137.359 72.7087 137.113 72.6426 136.83 72.6426C136.32 72.6426 135.896 72.8135 135.559 73.1553C135.221 73.4925 135.053 74.0348 135.053 74.7822V79H133.822V74.2832C133.822 73.7363 133.722 73.3262 133.521 73.0527C133.321 72.7793 132.993 72.6426 132.537 72.6426C132.191 72.6426 131.869 72.7337 131.573 72.916C131.282 73.0983 131.07 73.3649 130.938 73.7158C130.805 74.0667 130.739 74.5726 130.739 75.2334V79H129.509ZM140.713 75.3701C140.713 74.0257 141.087 73.0299 141.834 72.3828C142.458 71.8451 143.219 71.5762 144.117 71.5762C145.115 71.5762 145.931 71.9043 146.564 72.5605C147.198 73.2122 147.515 74.1146 147.515 75.2676C147.515 76.2018 147.373 76.9378 147.091 77.4756C146.813 78.0088 146.405 78.4235 145.867 78.7197C145.334 79.016 144.751 79.1641 144.117 79.1641C143.101 79.1641 142.278 78.8382 141.649 78.1865C141.025 77.5348 140.713 76.596 140.713 75.3701ZM141.978 75.3701C141.978 76.2998 142.18 76.9971 142.586 77.4619C142.992 77.9222 143.502 78.1523 144.117 78.1523C144.728 78.1523 145.236 77.9199 145.642 77.4551C146.047 76.9902 146.25 76.2816 146.25 75.3291C146.25 74.4313 146.045 73.7523 145.635 73.292C145.229 72.8271 144.723 72.5947 144.117 72.5947C143.502 72.5947 142.992 72.8249 142.586 73.2852C142.18 73.7454 141.978 74.4404 141.978 75.3701ZM153.701 76.3408L154.911 76.498C154.779 77.332 154.439 77.986 153.893 78.46C153.35 78.9294 152.683 79.1641 151.89 79.1641C150.896 79.1641 150.096 78.8405 149.49 78.1934C148.889 77.5417 148.588 76.6097 148.588 75.3975C148.588 74.6136 148.718 73.9277 148.978 73.3398C149.237 72.752 149.632 72.3122 150.16 72.0205C150.693 71.7243 151.272 71.5762 151.896 71.5762C152.685 71.5762 153.33 71.7767 153.831 72.1777C154.332 72.5742 154.654 73.1393 154.795 73.873L153.599 74.0576C153.485 73.57 153.282 73.2031 152.99 72.957C152.703 72.7109 152.354 72.5879 151.944 72.5879C151.325 72.5879 150.821 72.8112 150.434 73.2578C150.046 73.6999 149.853 74.4017 149.853 75.3633C149.853 76.3385 150.039 77.0472 150.413 77.4893C150.787 77.9313 151.274 78.1523 151.876 78.1523C152.359 78.1523 152.762 78.0042 153.086 77.708C153.41 77.4118 153.615 76.9561 153.701 76.3408ZM155.95 79V71.7402H157.058V72.8408C157.34 72.3258 157.6 71.9863 157.837 71.8223C158.078 71.6582 158.343 71.5762 158.63 71.5762C159.045 71.5762 159.466 71.7083 159.895 71.9727L159.471 73.1143C159.17 72.9365 158.869 72.8477 158.568 72.8477C158.299 72.8477 158.058 72.9297 157.844 73.0938C157.63 73.2533 157.477 73.4766 157.386 73.7637C157.249 74.2012 157.181 74.6797 157.181 75.1992V79H155.95ZM165.363 78.1045C164.908 78.4919 164.468 78.7653 164.044 78.9248C163.625 79.0843 163.174 79.1641 162.69 79.1641C161.893 79.1641 161.28 78.9704 160.852 78.583C160.423 78.1911 160.209 77.6921 160.209 77.0859C160.209 76.7305 160.289 76.4069 160.448 76.1152C160.612 75.819 160.824 75.582 161.084 75.4043C161.348 75.2266 161.645 75.0921 161.973 75.001C162.214 74.9372 162.579 74.8757 163.066 74.8164C164.06 74.6979 164.791 74.5566 165.261 74.3926C165.265 74.224 165.268 74.1169 165.268 74.0713C165.268 73.57 165.151 73.2168 164.919 73.0117C164.604 72.7337 164.137 72.5947 163.518 72.5947C162.939 72.5947 162.51 72.6973 162.232 72.9023C161.959 73.1029 161.756 73.4606 161.624 73.9756L160.421 73.8115C160.53 73.2965 160.71 72.8818 160.961 72.5674C161.212 72.2484 161.574 72.0046 162.048 71.8359C162.522 71.6628 163.071 71.5762 163.695 71.5762C164.315 71.5762 164.819 71.6491 165.206 71.7949C165.593 71.9408 165.878 72.1253 166.061 72.3486C166.243 72.5674 166.37 72.8454 166.443 73.1826C166.484 73.3923 166.505 73.7705 166.505 74.3174V75.958C166.505 77.1019 166.53 77.8265 166.58 78.1318C166.635 78.4326 166.74 78.722 166.895 79H165.609C165.482 78.7448 165.4 78.4463 165.363 78.1045ZM165.261 75.3564C164.814 75.5387 164.144 75.6937 163.251 75.8213C162.745 75.8942 162.387 75.9762 162.178 76.0674C161.968 76.1585 161.806 76.293 161.692 76.4707C161.578 76.6439 161.521 76.8376 161.521 77.0518C161.521 77.3799 161.645 77.6533 161.891 77.8721C162.141 78.0908 162.506 78.2002 162.984 78.2002C163.458 78.2002 163.88 78.0977 164.249 77.8926C164.618 77.6829 164.889 77.3981 165.062 77.0381C165.195 76.7601 165.261 76.3499 165.261 75.8076V75.3564ZM171.105 77.8994L171.283 78.9863C170.937 79.0592 170.627 79.0957 170.354 79.0957C169.907 79.0957 169.561 79.0251 169.314 78.8838C169.068 78.7425 168.895 78.5579 168.795 78.3301C168.695 78.0977 168.645 77.6123 168.645 76.874V72.6973H167.742V71.7402H168.645V69.9424L169.868 69.2041V71.7402H171.105V72.6973H169.868V76.9424C169.868 77.2933 169.889 77.5189 169.93 77.6191C169.975 77.7194 170.046 77.7992 170.142 77.8584C170.242 77.9176 170.383 77.9473 170.565 77.9473C170.702 77.9473 170.882 77.9313 171.105 77.8994ZM172.322 70.3936V68.9785H173.553V70.3936H172.322ZM172.322 79V71.7402H173.553V79H172.322ZM174.783 79V78.002L179.404 72.6973C178.88 72.7246 178.418 72.7383 178.017 72.7383H175.057V71.7402H180.99V72.5537L177.06 77.1611L176.301 78.002C176.852 77.9609 177.369 77.9404 177.853 77.9404H181.209V79H174.783ZM182.439 70.3936V68.9785H183.67V70.3936H182.439ZM182.439 79V71.7402H183.67V79H182.439ZM185.55 79V71.7402H186.657V72.7725C187.19 71.9749 187.961 71.5762 188.968 71.5762C189.405 71.5762 189.806 71.6559 190.171 71.8154C190.54 71.9704 190.816 72.1755 190.998 72.4307C191.18 72.6859 191.308 72.9889 191.381 73.3398C191.426 73.5677 191.449 73.9665 191.449 74.5361V79H190.219V74.584C190.219 74.0827 190.171 73.709 190.075 73.4629C189.979 73.2122 189.809 73.014 189.562 72.8682C189.321 72.7178 189.036 72.6426 188.708 72.6426C188.184 72.6426 187.73 72.8089 187.348 73.1416C186.969 73.4743 186.78 74.1055 186.78 75.0352V79H185.55ZM193.117 79.6016L194.313 79.7793C194.364 80.1484 194.503 80.4173 194.73 80.5859C195.036 80.8138 195.453 80.9277 195.981 80.9277C196.551 80.9277 196.991 80.8138 197.301 80.5859C197.611 80.3581 197.82 80.0391 197.93 79.6289C197.993 79.3783 198.023 78.8519 198.019 78.0498C197.481 78.6833 196.811 79 196.009 79C195.011 79 194.238 78.64 193.691 77.9199C193.145 77.1999 192.871 76.3363 192.871 75.3291C192.871 74.6364 192.996 73.9984 193.247 73.415C193.498 72.8271 193.86 72.3737 194.334 72.0547C194.812 71.7357 195.373 71.5762 196.016 71.5762C196.872 71.5762 197.579 71.9225 198.135 72.6152V71.7402H199.27V78.0156C199.27 79.1458 199.153 79.9456 198.921 80.415C198.693 80.889 198.328 81.2627 197.827 81.5361C197.33 81.8096 196.717 81.9463 195.988 81.9463C195.122 81.9463 194.423 81.7503 193.89 81.3584C193.356 80.971 193.099 80.3854 193.117 79.6016ZM194.136 75.2402C194.136 76.1927 194.325 76.8877 194.703 77.3252C195.081 77.7627 195.555 77.9814 196.125 77.9814C196.69 77.9814 197.164 77.765 197.547 77.332C197.93 76.8945 198.121 76.2109 198.121 75.2812C198.121 74.3926 197.923 73.7227 197.526 73.2715C197.134 72.8203 196.66 72.5947 196.104 72.5947C195.558 72.5947 195.093 72.818 194.71 73.2646C194.327 73.7067 194.136 74.3652 194.136 75.2402ZM209.77 78.1045C209.314 78.4919 208.874 78.7653 208.45 78.9248C208.031 79.0843 207.58 79.1641 207.097 79.1641C206.299 79.1641 205.686 78.9704 205.258 78.583C204.829 78.1911 204.615 77.6921 204.615 77.0859C204.615 76.7305 204.695 76.4069 204.854 76.1152C205.019 75.819 205.23 75.582 205.49 75.4043C205.755 75.2266 206.051 75.0921 206.379 75.001C206.62 74.9372 206.985 74.8757 207.473 74.8164C208.466 74.6979 209.198 74.5566 209.667 74.3926C209.672 74.224 209.674 74.1169 209.674 74.0713C209.674 73.57 209.558 73.2168 209.325 73.0117C209.011 72.7337 208.544 72.5947 207.924 72.5947C207.345 72.5947 206.917 72.6973 206.639 72.9023C206.365 73.1029 206.162 73.4606 206.03 73.9756L204.827 73.8115C204.937 73.2965 205.117 72.8818 205.367 72.5674C205.618 72.2484 205.98 72.0046 206.454 71.8359C206.928 71.6628 207.477 71.5762 208.102 71.5762C208.721 71.5762 209.225 71.6491 209.612 71.7949C210 71.9408 210.285 72.1253 210.467 72.3486C210.649 72.5674 210.777 72.8454 210.85 73.1826C210.891 73.3923 210.911 73.7705 210.911 74.3174V75.958C210.911 77.1019 210.936 77.8265 210.986 78.1318C211.041 78.4326 211.146 78.722 211.301 79H210.016C209.888 78.7448 209.806 78.4463 209.77 78.1045ZM209.667 75.3564C209.22 75.5387 208.55 75.6937 207.657 75.8213C207.151 75.8942 206.794 75.9762 206.584 76.0674C206.374 76.1585 206.213 76.293 206.099 76.4707C205.985 76.6439 205.928 76.8376 205.928 77.0518C205.928 77.3799 206.051 77.6533 206.297 77.8721C206.548 78.0908 206.912 78.2002 207.391 78.2002C207.865 78.2002 208.286 78.0977 208.655 77.8926C209.024 77.6829 209.296 77.3981 209.469 77.0381C209.601 76.7601 209.667 76.3499 209.667 75.8076V75.3564ZM217.562 76.3408L218.772 76.498C218.64 77.332 218.301 77.986 217.754 78.46C217.212 78.9294 216.544 79.1641 215.751 79.1641C214.757 79.1641 213.958 78.8405 213.352 78.1934C212.75 77.5417 212.449 76.6097 212.449 75.3975C212.449 74.6136 212.579 73.9277 212.839 73.3398C213.099 72.752 213.493 72.3122 214.021 72.0205C214.555 71.7243 215.133 71.5762 215.758 71.5762C216.546 71.5762 217.191 71.7767 217.692 72.1777C218.194 72.5742 218.515 73.1393 218.656 73.873L217.46 74.0576C217.346 73.57 217.143 73.2031 216.852 72.957C216.564 72.7109 216.216 72.5879 215.806 72.5879C215.186 72.5879 214.682 72.8112 214.295 73.2578C213.908 73.6999 213.714 74.4017 213.714 75.3633C213.714 76.3385 213.901 77.0472 214.274 77.4893C214.648 77.9313 215.136 78.1523 215.737 78.1523C216.22 78.1523 216.624 78.0042 216.947 77.708C217.271 77.4118 217.476 76.9561 217.562 76.3408ZM224.562 76.3408L225.772 76.498C225.64 77.332 225.301 77.986 224.754 78.46C224.212 78.9294 223.544 79.1641 222.751 79.1641C221.757 79.1641 220.958 78.8405 220.352 78.1934C219.75 77.5417 219.449 76.6097 219.449 75.3975C219.449 74.6136 219.579 73.9277 219.839 73.3398C220.099 72.752 220.493 72.3122 221.021 72.0205C221.555 71.7243 222.133 71.5762 222.758 71.5762C223.546 71.5762 224.191 71.7767 224.692 72.1777C225.194 72.5742 225.515 73.1393 225.656 73.873L224.46 74.0576C224.346 73.57 224.143 73.2031 223.852 72.957C223.564 72.7109 223.216 72.5879 222.806 72.5879C222.186 72.5879 221.682 72.8112 221.295 73.2578C220.908 73.6999 220.714 74.4017 220.714 75.3633C220.714 76.3385 220.901 77.0472 221.274 77.4893C221.648 77.9313 222.136 78.1523 222.737 78.1523C223.22 78.1523 223.624 78.0042 223.947 77.708C224.271 77.4118 224.476 76.9561 224.562 76.3408ZM231.795 76.6621L233.066 76.8193C232.866 77.5622 232.494 78.1387 231.952 78.5488C231.41 78.959 230.717 79.1641 229.874 79.1641C228.812 79.1641 227.969 78.8382 227.345 78.1865C226.725 77.5303 226.415 76.612 226.415 75.4316C226.415 74.2103 226.729 73.2624 227.358 72.5879C227.987 71.9134 228.803 71.5762 229.806 71.5762C230.776 71.5762 231.569 71.9066 232.185 72.5674C232.8 73.2282 233.107 74.1579 233.107 75.3564C233.107 75.4294 233.105 75.5387 233.101 75.6846H227.687C227.732 76.4821 227.958 77.0928 228.363 77.5166C228.769 77.9404 229.275 78.1523 229.881 78.1523C230.332 78.1523 230.717 78.0339 231.036 77.7969C231.355 77.5599 231.608 77.1816 231.795 76.6621ZM227.755 74.6729H231.809C231.754 74.0622 231.599 73.6042 231.344 73.2988C230.952 72.8249 230.444 72.5879 229.819 72.5879C229.254 72.5879 228.778 72.777 228.391 73.1553C228.008 73.5335 227.796 74.0394 227.755 74.6729ZM234.126 76.833L235.343 76.6416C235.411 77.1292 235.6 77.5029 235.91 77.7627C236.225 78.0225 236.662 78.1523 237.223 78.1523C237.788 78.1523 238.207 78.0384 238.48 77.8105C238.754 77.5781 238.891 77.307 238.891 76.9971C238.891 76.7191 238.77 76.5003 238.528 76.3408C238.36 76.2314 237.94 76.0924 237.271 75.9238C236.368 75.696 235.742 75.5 235.391 75.3359C235.044 75.1673 234.78 74.9372 234.598 74.6455C234.42 74.3493 234.331 74.0234 234.331 73.668C234.331 73.3444 234.404 73.0459 234.55 72.7725C234.7 72.4945 234.903 72.2643 235.158 72.082C235.35 71.9408 235.609 71.8223 235.938 71.7266C236.27 71.6263 236.626 71.5762 237.004 71.5762C237.574 71.5762 238.073 71.6582 238.501 71.8223C238.934 71.9863 239.253 72.2096 239.458 72.4922C239.663 72.7702 239.804 73.1439 239.882 73.6133L238.679 73.7773C238.624 73.4036 238.465 73.112 238.2 72.9023C237.94 72.6927 237.571 72.5879 237.093 72.5879C236.528 72.5879 236.124 72.6813 235.883 72.8682C235.641 73.055 235.521 73.2738 235.521 73.5244C235.521 73.6839 235.571 73.8275 235.671 73.9551C235.771 74.0872 235.928 74.1966 236.143 74.2832C236.266 74.3288 236.628 74.4336 237.229 74.5977C238.1 74.8301 238.706 75.0215 239.048 75.1719C239.394 75.3177 239.665 75.5319 239.861 75.8145C240.057 76.097 240.155 76.4479 240.155 76.8672C240.155 77.2773 240.035 77.6647 239.793 78.0293C239.556 78.3893 239.212 78.6696 238.761 78.8701C238.31 79.0661 237.799 79.1641 237.229 79.1641C236.286 79.1641 235.566 78.9681 235.069 78.5762C234.577 78.1842 234.263 77.6032 234.126 76.833ZM241.126 76.833L242.343 76.6416C242.411 77.1292 242.6 77.5029 242.91 77.7627C243.225 78.0225 243.662 78.1523 244.223 78.1523C244.788 78.1523 245.207 78.0384 245.48 77.8105C245.754 77.5781 245.891 77.307 245.891 76.9971C245.891 76.7191 245.77 76.5003 245.528 76.3408C245.36 76.2314 244.94 76.0924 244.271 75.9238C243.368 75.696 242.742 75.5 242.391 75.3359C242.044 75.1673 241.78 74.9372 241.598 74.6455C241.42 74.3493 241.331 74.0234 241.331 73.668C241.331 73.3444 241.404 73.0459 241.55 72.7725C241.7 72.4945 241.903 72.2643 242.158 72.082C242.35 71.9408 242.609 71.8223 242.938 71.7266C243.27 71.6263 243.626 71.5762 244.004 71.5762C244.574 71.5762 245.073 71.6582 245.501 71.8223C245.934 71.9863 246.253 72.2096 246.458 72.4922C246.663 72.7702 246.804 73.1439 246.882 73.6133L245.679 73.7773C245.624 73.4036 245.465 73.112 245.2 72.9023C244.94 72.6927 244.571 72.5879 244.093 72.5879C243.528 72.5879 243.124 72.6813 242.883 72.8682C242.641 73.055 242.521 73.2738 242.521 73.5244C242.521 73.6839 242.571 73.8275 242.671 73.9551C242.771 74.0872 242.928 74.1966 243.143 74.2832C243.266 74.3288 243.628 74.4336 244.229 74.5977C245.1 74.8301 245.706 75.0215 246.048 75.1719C246.394 75.3177 246.665 75.5319 246.861 75.8145C247.057 76.097 247.155 76.4479 247.155 76.8672C247.155 77.2773 247.035 77.6647 246.793 78.0293C246.556 78.3893 246.212 78.6696 245.761 78.8701C245.31 79.0661 244.799 79.1641 244.229 79.1641C243.286 79.1641 242.566 78.9681 242.069 78.5762C241.577 78.1842 241.263 77.6032 241.126 76.833ZM255.201 77.8994L255.379 78.9863C255.033 79.0592 254.723 79.0957 254.449 79.0957C254.003 79.0957 253.656 79.0251 253.41 78.8838C253.164 78.7425 252.991 78.5579 252.891 78.3301C252.79 78.0977 252.74 77.6123 252.74 76.874V72.6973H251.838V71.7402H252.74V69.9424L253.964 69.2041V71.7402H255.201V72.6973H253.964V76.9424C253.964 77.2933 253.984 77.5189 254.025 77.6191C254.071 77.7194 254.142 77.7992 254.237 77.8584C254.338 77.9176 254.479 77.9473 254.661 77.9473C254.798 77.9473 254.978 77.9313 255.201 77.8994ZM255.953 75.3701C255.953 74.0257 256.327 73.0299 257.074 72.3828C257.699 71.8451 258.46 71.5762 259.357 71.5762C260.355 71.5762 261.171 71.9043 261.805 72.5605C262.438 73.2122 262.755 74.1146 262.755 75.2676C262.755 76.2018 262.614 76.9378 262.331 77.4756C262.053 78.0088 261.645 78.4235 261.107 78.7197C260.574 79.016 259.991 79.1641 259.357 79.1641C258.341 79.1641 257.519 78.8382 256.89 78.1865C256.265 77.5348 255.953 76.596 255.953 75.3701ZM257.218 75.3701C257.218 76.2998 257.421 76.9971 257.826 77.4619C258.232 77.9222 258.742 78.1523 259.357 78.1523C259.968 78.1523 260.476 77.9199 260.882 77.4551C261.287 76.9902 261.49 76.2816 261.49 75.3291C261.49 74.4313 261.285 73.7523 260.875 73.292C260.469 72.8271 259.964 72.5947 259.357 72.5947C258.742 72.5947 258.232 72.8249 257.826 73.2852C257.421 73.7454 257.218 74.4404 257.218 75.3701ZM270.787 77.8994L270.965 78.9863C270.618 79.0592 270.309 79.0957 270.035 79.0957C269.589 79.0957 269.242 79.0251 268.996 78.8838C268.75 78.7425 268.577 78.5579 268.477 78.3301C268.376 78.0977 268.326 77.6123 268.326 76.874V72.6973H267.424V71.7402H268.326V69.9424L269.55 69.2041V71.7402H270.787V72.6973H269.55V76.9424C269.55 77.2933 269.57 77.5189 269.611 77.6191C269.657 77.7194 269.728 77.7992 269.823 77.8584C269.924 77.9176 270.065 77.9473 270.247 77.9473C270.384 77.9473 270.564 77.9313 270.787 77.8994ZM276.967 76.6621L278.238 76.8193C278.038 77.5622 277.666 78.1387 277.124 78.5488C276.582 78.959 275.889 79.1641 275.046 79.1641C273.984 79.1641 273.141 78.8382 272.517 78.1865C271.897 77.5303 271.587 76.612 271.587 75.4316C271.587 74.2103 271.901 73.2624 272.53 72.5879C273.159 71.9134 273.975 71.5762 274.978 71.5762C275.948 71.5762 276.741 71.9066 277.356 72.5674C277.972 73.2282 278.279 74.1579 278.279 75.3564C278.279 75.4294 278.277 75.5387 278.272 75.6846H272.858C272.904 76.4821 273.13 77.0928 273.535 77.5166C273.941 77.9404 274.447 78.1523 275.053 78.1523C275.504 78.1523 275.889 78.0339 276.208 77.7969C276.527 77.5599 276.78 77.1816 276.967 76.6621ZM272.927 74.6729H276.98C276.926 74.0622 276.771 73.6042 276.516 73.2988C276.124 72.8249 275.616 72.5879 274.991 72.5879C274.426 72.5879 273.95 72.777 273.562 73.1553C273.18 73.5335 272.968 74.0394 272.927 74.6729ZM284.527 76.3408L285.737 76.498C285.605 77.332 285.266 77.986 284.719 78.46C284.176 78.9294 283.509 79.1641 282.716 79.1641C281.722 79.1641 280.923 78.8405 280.316 78.1934C279.715 77.5417 279.414 76.6097 279.414 75.3975C279.414 74.6136 279.544 73.9277 279.804 73.3398C280.063 72.752 280.458 72.3122 280.986 72.0205C281.52 71.7243 282.098 71.5762 282.723 71.5762C283.511 71.5762 284.156 71.7767 284.657 72.1777C285.159 72.5742 285.48 73.1393 285.621 73.873L284.425 74.0576C284.311 73.57 284.108 73.2031 283.816 72.957C283.529 72.7109 283.181 72.5879 282.771 72.5879C282.151 72.5879 281.647 72.8112 281.26 73.2578C280.872 73.6999 280.679 74.4017 280.679 75.3633C280.679 76.3385 280.866 77.0472 281.239 77.4893C281.613 77.9313 282.101 78.1523 282.702 78.1523C283.185 78.1523 283.589 78.0042 283.912 77.708C284.236 77.4118 284.441 76.9561 284.527 76.3408ZM286.79 79V68.9785H288.021V72.5742C288.595 71.9089 289.319 71.5762 290.194 71.5762C290.732 71.5762 291.199 71.6833 291.596 71.8975C291.992 72.1071 292.275 72.3988 292.443 72.7725C292.617 73.1462 292.703 73.6885 292.703 74.3994V79H291.473V74.3994C291.473 73.7842 291.338 73.3376 291.069 73.0596C290.805 72.777 290.429 72.6357 289.941 72.6357C289.577 72.6357 289.233 72.7314 288.909 72.9229C288.59 73.1097 288.362 73.3649 288.226 73.6885C288.089 74.012 288.021 74.4587 288.021 75.0283V79H286.79ZM294.583 79V71.7402H295.69V72.7725C296.224 71.9749 296.994 71.5762 298.001 71.5762C298.438 71.5762 298.84 71.6559 299.204 71.8154C299.573 71.9704 299.849 72.1755 300.031 72.4307C300.214 72.6859 300.341 72.9889 300.414 73.3398C300.46 73.5677 300.482 73.9665 300.482 74.5361V79H299.252V74.584C299.252 74.0827 299.204 73.709 299.108 73.4629C299.013 73.2122 298.842 73.014 298.596 72.8682C298.354 72.7178 298.069 72.6426 297.741 72.6426C297.217 72.6426 296.764 72.8089 296.381 73.1416C296.003 73.4743 295.813 74.1055 295.813 75.0352V79H294.583ZM301.918 75.3701C301.918 74.0257 302.292 73.0299 303.039 72.3828C303.663 71.8451 304.424 71.5762 305.322 71.5762C306.32 71.5762 307.136 71.9043 307.77 72.5605C308.403 73.2122 308.72 74.1146 308.72 75.2676C308.72 76.2018 308.578 76.9378 308.296 77.4756C308.018 78.0088 307.61 78.4235 307.072 78.7197C306.539 79.016 305.956 79.1641 305.322 79.1641C304.306 79.1641 303.483 78.8382 302.854 78.1865C302.23 77.5348 301.918 76.596 301.918 75.3701ZM303.183 75.3701C303.183 76.2998 303.385 76.9971 303.791 77.4619C304.197 77.9222 304.707 78.1523 305.322 78.1523C305.933 78.1523 306.441 77.9199 306.847 77.4551C307.252 76.9902 307.455 76.2816 307.455 75.3291C307.455 74.4313 307.25 73.7523 306.84 73.292C306.434 72.8271 305.928 72.5947 305.322 72.5947C304.707 72.5947 304.197 72.8249 303.791 73.2852C303.385 73.7454 303.183 74.4404 303.183 75.3701ZM310.142 79V68.9785H311.372V79H310.142ZM312.828 75.3701C312.828 74.0257 313.202 73.0299 313.949 72.3828C314.574 71.8451 315.335 71.5762 316.232 71.5762C317.23 71.5762 318.046 71.9043 318.68 72.5605C319.313 73.2122 319.63 74.1146 319.63 75.2676C319.63 76.2018 319.489 76.9378 319.206 77.4756C318.928 78.0088 318.52 78.4235 317.982 78.7197C317.449 79.016 316.866 79.1641 316.232 79.1641C315.216 79.1641 314.394 78.8382 313.765 78.1865C313.14 77.5348 312.828 76.596 312.828 75.3701ZM314.093 75.3701C314.093 76.2998 314.296 76.9971 314.701 77.4619C315.107 77.9222 315.617 78.1523 316.232 78.1523C316.843 78.1523 317.351 77.9199 317.757 77.4551C318.162 76.9902 318.365 76.2816 318.365 75.3291C318.365 74.4313 318.16 73.7523 317.75 73.292C317.344 72.8271 316.839 72.5947 316.232 72.5947C315.617 72.5947 315.107 72.8249 314.701 73.2852C314.296 73.7454 314.093 74.4404 314.093 75.3701ZM320.854 79.6016L322.05 79.7793C322.1 80.1484 322.239 80.4173 322.467 80.5859C322.772 80.8138 323.189 80.9277 323.718 80.9277C324.287 80.9277 324.727 80.8138 325.037 80.5859C325.347 80.3581 325.557 80.0391 325.666 79.6289C325.73 79.3783 325.759 78.8519 325.755 78.0498C325.217 78.6833 324.547 79 323.745 79C322.747 79 321.975 78.64 321.428 77.9199C320.881 77.1999 320.607 76.3363 320.607 75.3291C320.607 74.6364 320.733 73.9984 320.983 73.415C321.234 72.8271 321.596 72.3737 322.07 72.0547C322.549 71.7357 323.109 71.5762 323.752 71.5762C324.609 71.5762 325.315 71.9225 325.871 72.6152V71.7402H327.006V78.0156C327.006 79.1458 326.89 79.9456 326.657 80.415C326.429 80.889 326.065 81.2627 325.563 81.5361C325.067 81.8096 324.454 81.9463 323.725 81.9463C322.859 81.9463 322.159 81.7503 321.626 81.3584C321.093 80.971 320.835 80.3854 320.854 79.6016ZM321.872 75.2402C321.872 76.1927 322.061 76.8877 322.439 77.3252C322.818 77.7627 323.292 77.9814 323.861 77.9814C324.426 77.9814 324.9 77.765 325.283 77.332C325.666 76.8945 325.857 76.2109 325.857 75.2812C325.857 74.3926 325.659 73.7227 325.263 73.2715C324.871 72.8203 324.397 72.5947 323.841 72.5947C323.294 72.5947 322.829 72.818 322.446 73.2646C322.063 73.7067 321.872 74.3652 321.872 75.2402ZM328.817 81.7959L328.681 80.6406C328.95 80.7135 329.184 80.75 329.385 80.75C329.658 80.75 329.877 80.7044 330.041 80.6133C330.205 80.5221 330.34 80.3945 330.444 80.2305C330.522 80.1074 330.647 79.8021 330.82 79.3145C330.843 79.2461 330.88 79.1458 330.93 79.0137L328.175 71.7402H329.501L331.012 75.9443C331.208 76.4775 331.383 77.0381 331.538 77.626C331.679 77.0609 331.848 76.5094 332.044 75.9717L333.596 71.7402H334.826L332.064 79.123C331.768 79.9206 331.538 80.4697 331.374 80.7705C331.155 81.1761 330.905 81.4723 330.622 81.6592C330.34 81.8506 330.002 81.9463 329.61 81.9463C329.373 81.9463 329.109 81.8962 328.817 81.7959Z" fill="#363636"/>
</svg>
