<svg width="40" height="36" viewBox="0 0 40 36" fill="none" xmlns="http://www.w3.org/2000/svg">
<path fill-rule="evenodd" clip-rule="evenodd" d="M24.1275 5.00212C24.5889 5.00212 25.0699 5.11636 25.5704 5.34764C26.238 5.6678 26.7308 6.18181 27.0526 6.88669L27.6866 8.31032C27.8789 8.73387 28.1737 9.13068 28.572 9.5034C28.9567 9.87481 29.4123 10.1888 29.9384 10.4458C30.6055 10.7659 31.2592 10.9267 31.8994 10.9267C32.2469 10.9267 32.5866 10.8817 32.9203 10.7916L34.4593 10.4069C34.689 10.3437 34.9267 10.3107 35.1699 10.3107C35.6586 10.3107 36.1711 10.4399 36.709 10.6954C37.5043 11.0683 38.0814 11.6001 38.4404 12.2929L39.2492 13.8124C39.6474 14.5312 39.724 15.2553 39.4808 15.9859C39.2238 16.7298 38.729 17.2107 37.9987 17.4288L36.3831 17.9294C35.37 18.2372 34.6771 18.8971 34.3042 19.9117C33.8686 21.0406 33.9076 22.1811 34.4199 23.3353L35.2857 25.2592C35.6705 26.119 35.7548 27.036 35.537 28.0098C35.1522 28.8439 34.5494 29.4978 33.727 29.9725L31.8425 30.7032C31.4185 30.8067 31.0083 30.8578 30.6117 30.8578C30.0345 30.8578 29.4574 30.7421 28.8803 30.5108C27.9556 29.9217 27.3215 29.1579 26.976 28.2218L26.2065 26.1444C25.8335 25.1179 25.8275 24.2073 26.1869 23.4123C26.5971 22.515 27.2704 21.9241 28.2069 21.6432L30.0148 21.066C31.118 20.719 31.874 20.0333 32.2842 19.0068C32.6689 18.0059 32.6182 16.9614 32.131 15.8717L31.3812 14.2365C30.906 13.1964 30.1561 12.4342 29.1294 11.9459C28.4504 11.6139 27.7771 11.4469 27.1094 11.4469C26.7641 11.4588 26.4107 11.5101 26.0513 11.6001L24.3396 12.0241C24.0195 12.1006 23.7055 12.1383 23.3974 12.1383C22.8575 12.1383 22.3196 12.0044 21.7817 11.7355C21.0494 11.3884 20.537 10.817 20.2426 10.0221L19.6832 8.52194C19.4141 7.77811 19.4592 7.12448 19.8186 6.55922C20.178 5.99558 20.6905 5.65006 21.3577 5.52078C21.4736 5.49496 21.5816 5.47542 21.6855 5.46338L23.3384 5.13602C23.4542 5.09831 23.5504 5.07292 23.627 5.05906C23.794 5.02016 23.961 5.00212 24.1275 5.00212Z" fill="#00ACDD"/>
<path fill-rule="evenodd" clip-rule="evenodd" d="M15.6825 6.94359C16.1696 6.94359 16.6641 7.06517 17.1646 7.31031C17.8695 7.64232 18.3561 8.18791 18.6252 8.94555L19.1651 10.4649C19.5498 11.49 20.2604 12.2671 21.3008 12.7932C21.9665 13.1133 22.6475 13.2741 23.3385 13.2741C23.749 13.286 24.1727 13.2349 24.6086 13.1195L26.3204 12.6773C26.5913 12.6008 26.8603 12.5616 27.1292 12.5616C27.6553 12.5754 28.1873 12.7089 28.7252 12.9659C29.5594 13.3627 30.1427 13.9339 30.4762 14.6778L31.2085 16.3326C31.5675 17.1021 31.5794 17.8837 31.2457 18.6789C30.9004 19.4873 30.3171 20.0194 29.4947 20.2764L27.6867 20.834C26.4694 21.1934 25.6037 21.9313 25.0895 23.0464C24.8206 23.6235 24.6794 24.2145 24.6675 24.8171C24.6537 25.4196 24.7695 26.0675 25.013 26.7589L25.7628 28.8571C26.0965 29.7936 26.0965 30.7989 25.7628 31.8767C25.1346 32.8774 24.3651 33.6274 23.4543 34.1279L21.3008 34.9548C20.8904 35.0567 20.4785 35.1095 20.068 35.1095C19.4142 35.1095 18.7803 34.9802 18.1638 34.7247C17.1389 34.1987 16.4774 33.3842 16.1832 32.2807L15.5666 29.9917C15.2466 28.824 15.3742 27.8109 15.9514 26.9513C16.5031 25.9517 17.2666 25.3042 18.2404 25.0094L20.28 24.3542C21.6148 23.9316 22.5513 23.1621 23.0892 22.0456C23.3716 21.4684 23.5386 20.8851 23.5899 20.2961C23.6271 19.6935 23.5505 19.1221 23.3581 18.5827L22.7044 16.8332C22.3197 15.7813 21.544 14.9663 20.3762 14.3892C19.6971 14.0556 18.9981 13.889 18.2797 13.889C17.8438 13.889 17.3942 13.9475 16.933 14.0617L15.0092 14.5427C14.7009 14.6208 14.3928 14.6585 14.0865 14.6585C13.5093 14.6585 12.9322 14.517 12.3551 14.2361C11.5209 13.9024 10.9888 13.2995 10.7571 12.4265L10.2958 10.7912C10.078 9.95856 10.2312 9.25217 10.7571 8.67502C11.2323 8.04678 11.8095 7.66202 12.4885 7.52073C12.6044 7.50884 12.7141 7.49503 12.8165 7.48299L14.6636 7.09822C14.7914 7.05944 14.913 7.02789 15.0289 7.00203C15.2466 6.96325 15.4647 6.94359 15.6825 6.94359Z" fill="#004166"/>
<path fill-rule="evenodd" clip-rule="evenodd" d="M13.0656 1.95486e-05C13.5798 1.95486e-05 14.1434 0.0962105 14.7598 0.288592C15.4765 0.76189 15.9259 1.26855 16.1064 1.80795L16.5874 3.13507C16.8052 3.73792 16.7405 4.35401 16.395 4.98225C15.8551 5.61065 15.1879 6.00157 14.3927 6.15624L12.6043 6.5213C11.3989 6.76494 10.4684 7.30288 9.81478 8.137C9.1476 8.98349 8.95522 9.93924 9.23763 11.0035L9.67934 12.658C9.95022 13.6968 10.6294 14.4918 11.7189 15.0435C12.4373 15.3906 13.2461 15.5633 14.1434 15.5633C14.5281 15.5633 14.9191 15.5302 15.3174 15.4671L17.2607 14.9666C17.4003 14.9277 17.5236 14.8961 17.6259 14.8704C17.8556 14.8058 18.0934 14.7742 18.3365 14.7742C18.8252 14.7742 19.3692 14.8961 19.9718 15.1397C20.7552 15.6145 21.2869 16.2366 21.5698 17.0061L22.2037 18.795C22.5374 19.7192 22.512 20.5595 22.1272 21.3152C21.5636 22.2382 20.8256 22.835 19.9148 23.1039L17.8948 23.7395C17.5101 23.8554 17.1388 23.9123 16.7798 23.9123C16.1888 23.9262 15.6059 23.7772 15.0288 23.4706C14.2199 22.9566 13.6173 22.2517 13.2207 21.3544L12.7202 19.4683C12.3984 18.314 11.6817 17.454 10.5646 16.8904C9.76968 16.4921 8.9626 16.294 8.14029 16.294C7.70473 16.294 7.25687 16.3525 6.79361 16.4667L4.65971 17.0061C4.27495 17.0966 3.89018 17.1401 3.50542 17.1401C2.92828 17.1401 2.35698 17.032 1.79168 16.8137C0.971366 16.2878 0.490419 15.6207 0.348838 14.8134L0.0425272 13.0427C-0.0990543 12.1712 0.11302 11.4075 0.676637 10.7537C1.30488 10.01 2.0998 9.54097 3.06171 9.34859L5.08172 8.94578C6.39115 8.67525 7.37845 8.11777 8.0441 7.27129C8.69973 6.43716 8.89796 5.5537 8.64079 4.61719L8.25602 3.19237C8.0895 2.57748 8.25033 1.93573 8.73698 1.26855C9.26303 0.769547 9.91713 0.455579 10.7002 0.326299L12.3922 0.0569638C12.6105 0.0180642 12.8359 1.95486e-05 13.0656 1.95486e-05Z" fill="#96BC33"/>
</svg>
