<svg width="11" height="5" viewBox="0 0 11 5" fill="none" xmlns="http://www.w3.org/2000/svg">
<path d="M10.3377 1.96671L8.78459 0.390534C8.69163 0.296191 8.57156 0.252071 8.45177 0.25252C8.33189 0.252968 8.21215 0.297978 8.12528 0.387438C7.94613 0.571928 7.94719 0.872751 8.12767 1.05591L8.88233 1.8218L2.09337 1.85831L2.84255 1.08679C3.0217 0.902302 3.02063 0.601478 2.84016 0.418322C2.7472 0.323978 2.62713 0.279858 2.50733 0.280307C2.38746 0.280754 2.26778 0.325774 2.1755 0.420804L0.633746 2.00854C0.454598 2.19303 0.455663 2.49385 0.636135 2.67701L2.1892 4.25318C2.36966 4.43633 2.66392 4.43524 2.84308 4.25074C3.02223 4.06624 3.02116 3.76542 2.84069 3.58227L2.08602 2.81637L8.87502 2.79101L8.12584 3.56252C7.94669 3.74701 7.94776 4.04784 8.12823 4.23099C8.3087 4.41415 8.60295 4.41305 8.78211 4.22855L10.3346 2.6297C10.5192 2.45074 10.5181 2.14992 10.3377 1.96677L10.3377 1.96671Z" fill="#00000078"/>
</svg>
