<svg width="20" height="21" viewBox="0 0 20 21" fill="none" xmlns="http://www.w3.org/2000/svg">
<path d="M2.79983 20.083C4.20945 20.083 5.3639 19.0382 5.55908 17.683H10.3999V12.8423C11.7551 12.6471 12.7999 11.4918 12.7999 10.083C12.7999 8.67428 11.7551 7.51899 10.3999 7.32381V3.28307H14.4406C14.6358 4.63826 15.7911 5.68305 17.1999 5.68305C18.7472 5.68305 20 4.43025 20 2.88296C20 1.3358 18.7472 0.0830078 17.2 0.0830078C15.7904 0.0830078 14.636 1.1278 14.4408 2.48299H9.59999V7.32374C8.2448 7.51891 7.2 8.67418 7.2 10.083C7.2 11.4917 8.2448 12.647 9.59999 12.8422V16.8829H5.55922C5.36405 15.5278 4.20877 14.483 2.79997 14.483C1.2528 14.483 0 15.7358 0 17.2831C0 18.8302 1.2528 20.083 2.79997 20.083H2.79983Z" fill="#0D3C84"/>
</svg>
