<svg width="23" height="17" viewBox="0 0 23 17" fill="none" xmlns="http://www.w3.org/2000/svg">
<path d="M19.7991 7.00315C20.0971 6.70709 20.5811 6.70789 20.8785 7.00347C21.1768 7.29952 21.1752 7.7812 20.8789 8.07551L12.1167 16.778C11.8186 17.074 11.3347 17.0734 11.0371 16.7778C10.7391 16.4816 10.7405 15.9999 11.037 15.7056L19.7991 7.00315ZM17.9014 12.7486L20.8789 15.7059C21.1765 16.0014 21.1768 16.4818 20.8785 16.7781C20.5811 17.0736 20.0971 17.0743 19.7992 16.7782L16.8216 13.821L17.9014 12.7486ZM15.0941 9.96045L14.0143 11.0328L11.0368 8.0756C10.7392 7.78002 10.7389 7.29962 11.037 7.00356C11.3346 6.70798 11.8184 6.70718 12.1165 7.00324L15.0941 9.96045ZM6.02755 16.5283L3.1949 11.8581C2.84643 11.2835 2.01747 10.8182 1.34299 10.8182C0.139561 10.8182 0 10.3864 0 9.85945C0 9.33267 0.686836 8.99838 1.36193 8.99838H2.37733C3.05324 8.99838 3.88174 9.46349 4.22973 10.0373L5.34121 11.8701C5.68887 12.4432 6.10743 12.3835 6.27509 11.7351L9.00666 1.17418C9.17431 0.526129 9.85696 0 10.5313 0H21.7791C22.4527 0 23 0.543016 23 1.21289V1.61316C23 2.28288 22.4528 2.82606 21.7778 2.82606C20.6581 2.82606 21.2577 1.7532 19.945 1.81981H11.9541C11.2779 1.81981 10.5954 2.34549 10.4278 2.99383L6.96188 16.3942C6.79423 17.0421 6.37579 17.1028 6.02751 16.5284L6.02755 16.5283Z" fill="#F1A81A"/>
</svg>
