<svg width="30" height="30" viewBox="0 0 30 30" fill="none" xmlns="http://www.w3.org/2000/svg">
<path d="M6.25 8.75C6.91304 8.75 7.54893 8.48661 8.01777 8.01777C8.48661 7.54893 8.75 6.91304 8.75 6.25C8.75 5.58696 8.48661 4.95107 8.01777 4.48223C7.54893 4.01339 6.91304 3.75 6.25 3.75C5.58696 3.75 4.95107 4.01339 4.48223 4.48223C4.01339 4.95107 3.75 5.58696 3.75 6.25C3.75 6.91304 4.01339 7.54893 4.48223 8.01777C4.95107 8.48661 5.58696 8.75 6.25 8.75ZM15 8.75C15.663 8.75 16.2989 8.48661 16.7678 8.01777C17.2366 7.54893 17.5 6.91304 17.5 6.25C17.5 5.58696 17.2366 4.95107 16.7678 4.48223C16.2989 4.01339 15.663 3.75 15 3.75C14.337 3.75 13.7011 4.01339 13.2322 4.48223C12.7634 4.95107 12.5 5.58696 12.5 6.25C12.5 6.91304 12.7634 7.54893 13.2322 8.01777C13.7011 8.48661 14.337 8.75 15 8.75ZM23.75 8.75C24.413 8.75 25.0489 8.48661 25.5178 8.01777C25.9866 7.54893 26.25 6.91304 26.25 6.25C26.25 5.58696 25.9866 4.95107 25.5178 4.48223C25.0489 4.01339 24.413 3.75 23.75 3.75C23.087 3.75 22.4511 4.01339 21.9822 4.48223C21.5134 4.95107 21.25 5.58696 21.25 6.25C21.25 6.91304 21.5134 7.54893 21.9822 8.01777C22.4511 8.48661 23.087 8.75 23.75 8.75ZM6.25 17.5C6.91304 17.5 7.54893 17.2366 8.01777 16.7678C8.48661 16.2989 8.75 15.663 8.75 15C8.75 14.337 8.48661 13.7011 8.01777 13.2322C7.54893 12.7634 6.91304 12.5 6.25 12.5C5.58696 12.5 4.95107 12.7634 4.48223 13.2322C4.01339 13.7011 3.75 14.337 3.75 15C3.75 15.663 4.01339 16.2989 4.48223 16.7678C4.95107 17.2366 5.58696 17.5 6.25 17.5ZM15 17.5C15.663 17.5 16.2989 17.2366 16.7678 16.7678C17.2366 16.2989 17.5 15.663 17.5 15C17.5 14.337 17.2366 13.7011 16.7678 13.2322C16.2989 12.7634 15.663 12.5 15 12.5C14.337 12.5 13.7011 12.7634 13.2322 13.2322C12.7634 13.7011 12.5 14.337 12.5 15C12.5 15.663 12.7634 16.2989 13.2322 16.7678C13.7011 17.2366 14.337 17.5 15 17.5ZM23.75 17.5C24.413 17.5 25.0489 17.2366 25.5178 16.7678C25.9866 16.2989 26.25 15.663 26.25 15C26.25 14.337 25.9866 13.7011 25.5178 13.2322C25.0489 12.7634 24.413 12.5 23.75 12.5C23.087 12.5 22.4511 12.7634 21.9822 13.2322C21.5134 13.7011 21.25 14.337 21.25 15C21.25 15.663 21.5134 16.2989 21.9822 16.7678C22.4511 17.2366 23.087 17.5 23.75 17.5ZM6.25 26.25C6.91304 26.25 7.54893 25.9866 8.01777 25.5178C8.48661 25.0489 8.75 24.413 8.75 23.75C8.75 23.087 8.48661 22.4511 8.01777 21.9822C7.54893 21.5134 6.91304 21.25 6.25 21.25C5.58696 21.25 4.95107 21.5134 4.48223 21.9822C4.01339 22.4511 3.75 23.087 3.75 23.75C3.75 24.413 4.01339 25.0489 4.48223 25.5178C4.95107 25.9866 5.58696 26.25 6.25 26.25ZM15 26.25C15.663 26.25 16.2989 25.9866 16.7678 25.5178C17.2366 25.0489 17.5 24.413 17.5 23.75C17.5 23.087 17.2366 22.4511 16.7678 21.9822C16.2989 21.5134 15.663 21.25 15 21.25C14.337 21.25 13.7011 21.5134 13.2322 21.9822C12.7634 22.4511 12.5 23.087 12.5 23.75C12.5 24.413 12.7634 25.0489 13.2322 25.5178C13.7011 25.9866 14.337 26.25 15 26.25ZM23.75 26.25C24.413 26.25 25.0489 25.9866 25.5178 25.5178C25.9866 25.0489 26.25 24.413 26.25 23.75C26.25 23.087 25.9866 22.4511 25.5178 21.9822C25.0489 21.5134 24.413 21.25 23.75 21.25C23.087 21.25 22.4511 21.5134 21.9822 21.9822C21.5134 22.4511 21.25 23.087 21.25 23.75C21.25 24.413 21.5134 25.0489 21.9822 25.5178C22.4511 25.9866 23.087 26.25 23.75 26.25Z" fill="white"/>
</svg>
