<svg width="41" height="41" viewBox="0 0 41 41" fill="none" xmlns="http://www.w3.org/2000/svg">
<path d="M13.6672 28.9742H27.3337C27.6343 28.9742 27.8803 28.7283 27.8803 28.4276V4.37414C27.8803 4.0735 27.6343 3.82755 27.3337 3.82755H24.2669L24.0754 4.50569C23.8622 5.27102 23.157 5.80685 22.3643 5.80685H18.6306C17.8378 5.80685 17.1327 5.27098 16.9194 4.50569L13.6672 28.9742ZM13.6672 28.9742C13.3663 28.9745 13.1204 28.7283 13.1204 28.4276L13.6672 28.9742ZM18.1964 4.07732H22.7994L22.7796 4.14753L22.7793 4.1485C22.7276 4.33465 22.5588 4.46275 22.3643 4.46275H18.6306C18.4386 4.46275 18.268 4.33175 18.2156 4.14876L18.1964 4.07732ZM24.3162 4.57306C24.3162 4.57297 24.3162 4.57289 24.3163 4.5728L24.4561 4.07755H27.3337C27.4962 4.07755 27.6303 4.21157 27.6303 4.37414V28.4276C27.6303 28.5902 27.4962 28.7242 27.3337 28.7242H13.6672H13.667C13.5045 28.7244 13.3704 28.5903 13.3704 28.4276V28.3971L13.3703 28.3967V4.37437C13.3703 4.21181 13.5043 4.07779 13.6669 4.07779H16.5429L16.6783 4.57177L16.6786 4.57279C16.9219 5.44599 17.7254 6.05685 18.6306 6.05685H22.3643C23.2694 6.05685 24.0728 5.44615 24.3162 4.57306ZM27.3334 30.3173C28.3734 30.3173 29.2234 29.4672 29.2234 28.4273V4.37437C29.2234 3.33442 28.3734 2.48438 27.3334 2.48438H13.6664C12.6264 2.48438 11.7764 3.33442 11.7764 4.37437V28.4279C11.7764 29.4678 12.6264 30.3179 13.6664 30.3179L27.3334 30.3173Z" fill="#0D3C84" stroke="#0D3C84" stroke-width="0.5"/>
<path d="M17.0407 28.7106V28.671C16.7205 28.5662 16.494 28.265 16.4941 27.9138L17.0407 28.7106ZM17.0407 28.7106H17.2907M17.0407 28.7106H17.2907M17.2907 28.7106H23.7143C24.153 28.7106 24.5108 28.3527 24.5108 27.914C24.5108 27.4753 24.153 27.1174 23.7143 27.1174C23.7143 27.1174 23.7143 27.1174 23.7143 27.1174L17.2907 27.1172H17.2907M17.2907 28.7106V27.1172M17.2907 27.1172C16.8521 27.1172 16.4942 27.475 16.4941 27.9136L17.2907 27.1172Z" fill="#0D3C84" stroke="#0D3C84" stroke-width="0.5"/>
</svg>
