<svg width="30" height="30" viewBox="0 0 30 30" fill="none" xmlns="http://www.w3.org/2000/svg">
<path d="M17.5 2.5H7.5C6.83696 2.5 6.20107 2.76339 5.73223 3.23223C5.26339 3.70107 5 4.33696 5 5V25C5 25.663 5.26339 26.2989 5.73223 26.7678C6.20107 27.2366 6.83696 27.5 7.5 27.5H22.5C23.163 27.5 23.7989 27.2366 24.2678 26.7678C24.7366 26.2989 25 25.663 25 25V10L17.5 2.5ZM22.5 25H7.5V5H16.25V11.25H22.5V25ZM12.5 16.25H8.75V13.75H12.5V16.25ZM17.5 16.25H13.75V13.75H17.5V16.25ZM12.5 20H8.75V17.5H12.5V20ZM17.5 20H13.75V17.5H17.5V20ZM12.5 23.75H8.75V21.25H12.5V23.75ZM17.5 23.75H13.75V21.25H17.5V23.75Z" fill="#0D3C84" fill-opacity="0.5"/>
</svg>
