<svg width="9" height="10" viewBox="0 0 9 10" fill="none" xmlns="http://www.w3.org/2000/svg">
<path d="M2.00002 5.00168C1.46961 5.00168 0.960874 5.21235 0.585806 5.58741C0.210737 5.96248 0 6.47121 0 7.00163C0 7.53205 0.210737 8.04078 0.585806 8.41585C0.960874 8.79092 1.46961 9.00166 2.00002 9.00166C2.53044 9.00166 3.03917 8.79092 3.41424 8.41585C3.78931 8.04078 3.99998 7.53205 3.99998 7.00163C3.99937 6.4714 3.78843 5.96308 3.4135 5.58815C3.03857 5.21322 2.53025 5.00228 2.00002 5.00168ZM2.00002 8.60168C1.57567 8.60168 1.16866 8.43306 0.868663 8.13299C0.568594 7.83299 0.399977 7.42599 0.399977 7.00163C0.399977 6.57728 0.568592 6.17034 0.868663 5.87027C1.16866 5.5702 1.57567 5.40165 2.00002 5.40165C2.42438 5.40165 2.83131 5.5702 3.13138 5.87027C3.43145 6.17034 3.6 6.57728 3.6 7.00163C3.5996 7.42585 3.43085 7.8326 3.13092 8.13253C2.83092 8.43253 2.42424 8.60122 2.00002 8.60168ZM7.40002 0.601618H5.79998C5.53486 0.601886 5.28067 0.707288 5.09318 0.894795C4.90569 1.0823 4.80027 1.3365 4.8 1.6016V3.20164C4.80027 3.46676 4.90567 3.72095 5.09318 3.90844C5.28068 4.09593 5.53488 4.20135 5.79998 4.20162H7.40002C7.66514 4.20135 7.91933 4.09595 8.10682 3.90844C8.29431 3.72094 8.39972 3.46674 8.4 3.20164V1.6016C8.39973 1.33648 8.29433 1.08229 8.10682 0.894795C7.91932 0.707304 7.66512 0.601892 7.40002 0.601618ZM8.00002 3.20168C7.99982 3.36072 7.93654 3.51326 7.82403 3.62569C7.7116 3.73819 7.55906 3.80147 7.40002 3.80168H5.79998C5.64094 3.80148 5.48839 3.73819 5.37597 3.62569C5.26347 3.51325 5.20018 3.36071 5.19998 3.20168V1.60163C5.20018 1.44259 5.26346 1.29004 5.37597 1.17762C5.4884 1.06512 5.64094 1.00184 5.79998 1.00163H7.40002C7.55906 1.00183 7.71161 1.06511 7.82403 1.17762C7.93653 1.29005 7.99982 1.4426 8.00002 1.60163V3.20168ZM7.10551 5.51408H7.10544C7.04263 5.38825 6.93508 5.29041 6.8039 5.23965C6.67272 5.1889 6.52726 5.1889 6.39609 5.23965C6.2649 5.29041 6.15736 5.38825 6.09454 5.51408L4.86019 7.98351H4.86012C4.77247 8.15869 4.78178 8.3668 4.88477 8.53348C4.98776 8.70016 5.1697 8.80155 5.36564 8.80148H7.83438H7.83432C8.03026 8.80155 8.2122 8.70016 8.31519 8.53348C8.41818 8.36681 8.42749 8.15869 8.33983 7.98351L7.10551 5.51408ZM7.97505 8.32345H7.97498C7.94505 8.37233 7.89167 8.402 7.83435 8.4016H5.36561C5.30829 8.40173 5.25499 8.37213 5.22492 8.32338C5.19479 8.27463 5.19217 8.2137 5.21796 8.16253L6.45231 5.69311C6.48023 5.63706 6.53742 5.6017 6.59997 5.6017C6.66251 5.6017 6.7197 5.63706 6.74762 5.69311L7.98198 8.16253C8.00803 8.2137 8.00535 8.27477 7.97495 8.32345H7.97505ZM0.28476 0.869561C0.181233 1.03603 0.171926 1.24442 0.260184 1.41954L1.49454 3.88897C1.55742 4.01479 1.66496 4.1127 1.79615 4.16346C1.92733 4.21415 2.07272 4.21415 2.20389 4.16346C2.33507 4.1127 2.44262 4.0148 2.5055 3.88897L3.73986 1.41954C3.82758 1.24436 3.81827 1.03624 3.71528 0.869561C3.61229 0.702886 3.43035 0.601498 3.23441 0.601566H0.765665C0.569585 0.60083 0.387391 0.702414 0.284791 0.869561H0.28476ZM0.625011 1.0797C0.655011 1.03081 0.708315 1.00115 0.765636 1.00155H3.23438C3.2917 1.00142 3.34494 1.03108 3.37507 1.07983C3.4052 1.12858 3.40782 1.18945 3.38203 1.24061L2.14768 3.71021C2.11976 3.7662 2.06257 3.80162 2.00002 3.80162C1.93741 3.80162 1.88022 3.7662 1.85237 3.71021L0.617944 1.24061C0.591963 1.18945 0.59464 1.12838 0.624976 1.0797H0.625011Z" fill="#00000078"/>
</svg>
