<svg width="40" height="49" viewBox="0 0 40 49" fill="none" xmlns="http://www.w3.org/2000/svg">
<path d="M19.7287 26.6292C16.2307 26.6292 13.3848 23.7602 13.3848 20.2336C13.3848 16.7069 16.2307 13.8379 19.7287 13.8379C23.2266 13.8379 26.0725 16.7069 26.0725 20.2336C26.0725 23.7602 23.2266 26.6292 19.7287 26.6292ZM19.7287 15.3253C17.0441 15.3253 14.8601 17.5271 14.8601 20.2336C14.8601 22.94 17.0441 25.1419 19.7287 25.1419C22.4132 25.1419 24.5972 22.94 24.5972 20.2336C24.5972 17.5271 22.4131 15.3253 19.7287 15.3253Z" fill="#A9BBC9"/>
<path d="M19.7531 23.1345C18.1871 23.1345 16.9131 21.8501 16.9131 20.2713C16.9131 18.6925 18.1871 17.4082 19.7531 17.4082C21.3191 17.4082 22.5931 18.6926 22.5931 20.2713C22.5931 21.85 21.319 23.1345 19.7531 23.1345ZM19.7531 18.8956C19.0006 18.8956 18.3884 19.5127 18.3884 20.2713C18.3884 21.0299 19.0006 21.6471 19.7531 21.6471C20.5056 21.6471 21.1178 21.0299 21.1178 20.2713C21.1177 19.5127 20.5055 18.8956 19.7531 18.8956Z" fill="#A9BBC9"/>
<path fill-rule="evenodd" clip-rule="evenodd" d="M27.2198 27.3208C28.299 26.6985 29.3574 25.9446 30.3836 25.0638C32.8946 22.9081 34.3225 20.7739 34.382 20.6842C34.5476 20.4343 34.5479 20.1087 34.3828 19.8587C34.323 19.7681 32.8899 17.6164 30.3765 15.4428C27.0158 12.5363 23.3171 11 19.6801 11C17.3573 11 15.0141 11.6334 12.7553 12.8563L13.8551 13.9561C15.5714 13.0843 17.5313 12.4872 19.6801 12.4872C23.8094 12.4872 27.2371 14.6939 29.3855 16.5453C31.1243 18.0436 32.334 19.5604 32.8598 20.2694C32.3346 20.9735 31.13 22.4747 29.3963 23.9575C28.5116 24.7142 27.409 25.5307 26.1282 26.2292L27.2198 27.3208ZM12.9423 14.4575C9.65949 16.398 7.41015 19.2189 6.64403 20.2666C7.16688 20.9693 8.36927 22.4733 10.0931 23.9588C12.2221 25.7934 15.6135 27.9803 19.6801 27.9803C21.7101 27.9803 23.5684 27.4551 25.1882 26.7034L26.301 27.8162C24.1335 28.9049 21.8966 29.4678 19.6801 29.4678C16.093 29.4678 12.4353 27.9443 9.1025 25.0618C6.61083 22.9069 5.1839 20.7738 5.12444 20.6841C4.96002 20.4361 4.9584 20.1132 5.12039 19.8636C5.1791 19.773 6.58833 17.6203 9.07167 15.4457C9.97784 14.6522 10.9098 13.9608 11.8596 13.3748L12.9423 14.4575Z" fill="#A9BBC9"/>
<path d="M9 11L29 31" stroke="#A9BBC9"/>
</svg>
