<svg width="19" height="29" viewBox="0 0 19 29" fill="none" xmlns="http://www.w3.org/2000/svg">
<path d="M7.19644 2.07732H11.7994L11.7796 2.14753L11.7793 2.1485C11.7276 2.33465 11.5588 2.46275 11.3643 2.46275H7.63057C7.43861 2.46275 7.26803 2.33175 7.21561 2.14876L7.19644 2.07732ZM13.3162 2.57306L13.4561 2.07755H16.3337C16.4962 2.07755 16.6303 2.21157 16.6303 2.37414V26.4276C16.6303 26.5902 16.4962 26.7242 16.3337 26.7242H2.66721C2.50467 26.7244 2.37039 26.5903 2.37039 26.4276V26.3971L2.37031 2.37437C2.37031 2.21181 2.50433 2.07779 2.66689 2.07779H5.54293L5.6783 2.57177L5.67859 2.57279C5.92189 3.44599 6.72537 4.05685 7.63058 4.05685H11.3643C12.2694 4.05685 13.0728 3.44615 13.3162 2.57306ZM16.3334 28.3173C17.3734 28.3173 18.2234 27.4672 18.2234 26.4273V2.37437C18.2234 1.33442 17.3734 0.484375 16.3334 0.484375H2.66637C1.62641 0.484375 0.776367 1.33442 0.776367 2.37437V26.4279C0.776367 27.4678 1.62641 28.3179 2.66637 28.3179L16.3334 28.3173Z" fill="#0D3C84"/>
<path d="M16.3337 26.9742C16.6343 26.9742 16.8803 26.7283 16.8803 26.4276V2.37414C16.8803 2.0735 16.6343 1.82755 16.3337 1.82755H13.2669L13.0754 2.50569C12.8622 3.27102 12.157 3.80685 11.3643 3.80685H7.63058C6.83781 3.80685 6.13265 3.27098 5.91942 2.50569M7.19644 2.07732H11.7994L11.7796 2.14753L11.7793 2.1485C11.7276 2.33465 11.5588 2.46275 11.3643 2.46275H7.63057C7.43861 2.46275 7.26803 2.33175 7.21561 2.14876L7.19644 2.07732ZM13.3162 2.57306L13.4561 2.07755H16.3337C16.4962 2.07755 16.6303 2.21157 16.6303 2.37414V26.4276C16.6303 26.5902 16.4962 26.7242 16.3337 26.7242H2.66721C2.50467 26.7244 2.37039 26.5903 2.37039 26.4276V26.3971L2.37031 2.37437C2.37031 2.21181 2.50433 2.07779 2.66689 2.07779H5.54293L5.6783 2.57177L5.67859 2.57279C5.92189 3.44599 6.72537 4.05685 7.63058 4.05685H11.3643C12.2694 4.05685 13.0728 3.44615 13.3162 2.57306ZM16.3334 28.3173C17.3734 28.3173 18.2234 27.4672 18.2234 26.4273V2.37437C18.2234 1.33442 17.3734 0.484375 16.3334 0.484375H2.66637C1.62641 0.484375 0.776367 1.33442 0.776367 2.37437V26.4279C0.776367 27.4678 1.62641 28.3179 2.66637 28.3179L16.3334 28.3173Z" stroke="#0D3C84" stroke-width="0.5"/>
<path d="M5.79659 26.5934H12.2202C12.6589 26.5934 13.0167 26.2355 13.0167 25.7968C13.0167 25.3581 12.6589 25.0002 12.2202 25.0002L5.7966 25L5.79659 26.5934ZM5.7966 25C5.35796 25 5.0001 25.358 5 25.7966C5.5 27 5.7966 25 5.7966 25Z" fill="#0D3C84"/>
<path d="M5.54659 26.5538C5.22638 26.449 4.99982 26.1478 5 25.7966M5 25.7966C5.0001 25.358 5.35796 25 5.7966 25M5 25.7966C5.5 27 5.7966 25 5.7966 25M5.7966 25L12.2202 25.0002C12.6589 25.0002 13.0167 25.3581 13.0167 25.7968C13.0167 26.2355 12.6589 26.5934 12.2202 26.5934H5.79659L5.7966 25Z" stroke="#0D3C84" stroke-width="0.5"/>
</svg>
