<svg width="19" height="29" viewBox="0 0 12 18" fill="none" xmlns="http://www.w3.org/2000/svg">
<mask id="path-1-outside-1_4891_15939" maskUnits="userSpaceOnUse" x="-0.481445" y="0" width="12" height="18" fill="black">
<rect fill="white" x="-0.481445" width="12" height="18"/>
<path fill-rule="evenodd" clip-rule="evenodd" d="M10.5813 16.2559C10.5813 16.7914 10.143 17.2297 9.60753 17.2297L1.49235 17.23C0.956831 17.23 0.518555 16.7917 0.518555 16.2562V1.97379C0.518555 1.43828 0.956831 1 1.49235 1H9.60753C10.143 1 10.5813 1.43828 10.5813 1.97379V16.2559ZM7.04644 1.87937L7.11138 1.64896H3.98868L4.0505 1.87937C4.09912 2.05136 4.25821 2.17471 4.43998 2.17471H6.65696C6.83872 2.17471 6.99781 2.05462 7.04644 1.87937ZM1.16811 1.97379V16.2559L1.16816 16.2561C1.16816 16.4346 1.3142 16.5808 1.49285 16.5806H9.60768C9.78619 16.5806 9.93223 16.4346 9.93223 16.2561V1.97365C9.93223 1.79514 9.78619 1.6491 9.60768 1.6491H7.78672L7.67301 2.05177C7.54638 2.5062 7.12769 2.82437 6.65696 2.82437H4.43998C3.96926 2.82437 3.55055 2.50618 3.42393 2.05177L3.31362 1.64924H1.49266C1.31415 1.64924 1.16811 1.79528 1.16811 1.97379ZM7.45973 16.268H3.64559C3.46382 16.268 3.3209 16.1219 3.32104 15.9434C3.32104 15.7648 3.46708 15.6188 3.64559 15.6188L7.45973 15.6189C7.63824 15.6189 7.78429 15.765 7.78429 15.9435C7.78429 16.122 7.63824 16.268 7.45973 16.268Z"/>
</mask>
<path fill-rule="evenodd" clip-rule="evenodd" d="M10.5813 16.2559C10.5813 16.7914 10.143 17.2297 9.60753 17.2297L1.49235 17.23C0.956831 17.23 0.518555 16.7917 0.518555 16.2562V1.97379C0.518555 1.43828 0.956831 1 1.49235 1H9.60753C10.143 1 10.5813 1.43828 10.5813 1.97379V16.2559ZM7.04644 1.87937L7.11138 1.64896H3.98868L4.0505 1.87937C4.09912 2.05136 4.25821 2.17471 4.43998 2.17471H6.65696C6.83872 2.17471 6.99781 2.05462 7.04644 1.87937ZM1.16811 1.97379V16.2559L1.16816 16.2561C1.16816 16.4346 1.3142 16.5808 1.49285 16.5806H9.60768C9.78619 16.5806 9.93223 16.4346 9.93223 16.2561V1.97365C9.93223 1.79514 9.78619 1.6491 9.60768 1.6491H7.78672L7.67301 2.05177C7.54638 2.5062 7.12769 2.82437 6.65696 2.82437H4.43998C3.96926 2.82437 3.55055 2.50618 3.42393 2.05177L3.31362 1.64924H1.49266C1.31415 1.64924 1.16811 1.79528 1.16811 1.97379ZM7.45973 16.268H3.64559C3.46382 16.268 3.3209 16.1219 3.32104 15.9434C3.32104 15.7648 3.46708 15.6188 3.64559 15.6188L7.45973 15.6189C7.63824 15.6189 7.78429 15.765 7.78429 15.9435C7.78429 16.122 7.63824 16.268 7.45973 16.268Z" fill="#FF5711"/>
<path d="M9.60753 17.2297L9.60753 16.7297L9.60751 16.7297L9.60753 17.2297ZM1.49235 17.23L1.49235 17.73L1.49237 17.73L1.49235 17.23ZM7.11138 1.64896L7.59263 1.7846L7.77178 1.14896H7.11138V1.64896ZM7.04644 1.87937L6.56519 1.74373L6.56465 1.74567L7.04644 1.87937ZM3.98868 1.64896V1.14896H3.33687L3.50576 1.77852L3.98868 1.64896ZM4.0505 1.87937L3.56753 2.00894L3.56936 2.0154L4.0505 1.87937ZM1.16811 16.2559H0.66811V16.3169L0.68278 16.3761L1.16811 16.2559ZM1.16816 16.2561H1.66816V16.1951L1.65349 16.1358L1.16816 16.2561ZM1.49285 16.5806L1.49285 16.0806L1.49247 16.0806L1.49285 16.5806ZM7.78672 1.6491V1.1491H7.40836L7.30554 1.51322L7.78672 1.6491ZM7.67301 2.05177L7.19183 1.91588L7.19136 1.91755L7.67301 2.05177ZM3.42393 2.05177L2.94171 2.18392L2.94228 2.18597L3.42393 2.05177ZM3.31362 1.64924L3.79584 1.51709L3.69503 1.14924H3.31362V1.64924ZM3.64559 16.268L3.64559 16.768H3.64559V16.268ZM3.32104 15.9434L3.82104 15.9437V15.9434H3.32104ZM3.64559 15.6188L3.64561 15.1188H3.64559V15.6188ZM7.45973 15.6189L7.45972 16.1189H7.45973V15.6189ZM9.60753 17.7297C10.4192 17.7297 11.0813 17.0675 11.0813 16.2559H10.0813C10.0813 16.5152 9.8669 16.7297 9.60753 16.7297V17.7297ZM1.49237 17.73L9.60755 17.7297L9.60751 16.7297L1.49233 16.73L1.49237 17.73ZM0.0185547 16.2562C0.0185547 17.0679 0.680688 17.73 1.49235 17.73V16.73C1.23297 16.73 1.01855 16.5156 1.01855 16.2562H0.0185547ZM0.0185547 1.97379V16.2562H1.01855V1.97379H0.0185547ZM1.49235 0.5C0.680689 0.5 0.0185547 1.16213 0.0185547 1.97379H1.01855C1.01855 1.71442 1.23297 1.5 1.49235 1.5V0.5ZM9.60753 0.5H1.49235V1.5H9.60753V0.5ZM11.0813 1.97379C11.0813 1.16213 10.4192 0.5 9.60753 0.5V1.5C9.8669 1.5 10.0813 1.71442 10.0813 1.97379H11.0813ZM11.0813 16.2559V1.97379H10.0813V16.2559H11.0813ZM6.63013 1.51333L6.56519 1.74373L7.52769 2.01501L7.59263 1.7846L6.63013 1.51333ZM3.98868 2.14896H7.11138V1.14896H3.98868V2.14896ZM4.53342 1.74981L4.47161 1.51941L3.50576 1.77852L3.56757 2.00893L4.53342 1.74981ZM4.43998 1.67471C4.48555 1.67471 4.52037 1.70349 4.53164 1.74334L3.56936 2.0154C3.67788 2.39923 4.03087 2.67471 4.43998 2.67471V1.67471ZM6.65696 1.67471H4.43998V2.67471H6.65696V1.67471ZM6.56465 1.74567C6.57651 1.70293 6.61565 1.67471 6.65696 1.67471V2.67471C7.06179 2.67471 7.41911 2.40631 7.52823 2.01307L6.56465 1.74567ZM1.66811 16.2559V1.97379H0.66811V16.2559H1.66811ZM1.65349 16.1358L1.65344 16.1356L0.68278 16.3761L0.682832 16.3763L1.65349 16.1358ZM1.49247 16.0806C1.59047 16.0805 1.66816 16.1586 1.66816 16.2561H0.668162C0.668162 16.7105 1.03794 17.081 1.49323 17.0806L1.49247 16.0806ZM9.60768 16.0806H1.49285V17.0806H9.60768V16.0806ZM9.43223 16.2561C9.43223 16.1584 9.51005 16.0806 9.60768 16.0806V17.0806C10.0623 17.0806 10.4322 16.7107 10.4322 16.2561H9.43223ZM9.43223 1.97365V16.2561H10.4322V1.97365H9.43223ZM9.60768 2.1491C9.51005 2.1491 9.43223 2.07129 9.43223 1.97365H10.4322C10.4322 1.519 10.0623 1.1491 9.60768 1.1491V2.1491ZM7.78672 2.1491H9.60768V1.1491H7.78672V2.1491ZM8.15419 2.18765L8.2679 1.78498L7.30554 1.51322L7.19183 1.91589L8.15419 2.18765ZM6.65696 3.32437C7.35257 3.32437 7.9679 2.85622 8.15466 2.18598L7.19136 1.91755C7.12487 2.15618 6.90281 2.32437 6.65696 2.32437V3.32437ZM4.43998 3.32437H6.65696V2.32437H4.43998V3.32437ZM2.94228 2.18597C3.12903 2.8562 3.74438 3.32437 4.43998 3.32437V2.32437C4.19414 2.32437 3.97207 2.15616 3.90559 1.91756L2.94228 2.18597ZM2.8314 1.7814L2.94171 2.18392L3.90615 1.91961L3.79584 1.51709L2.8314 1.7814ZM1.49266 2.14924H3.31362V1.14924H1.49266V2.14924ZM1.66811 1.97379C1.66811 2.07143 1.59029 2.14924 1.49266 2.14924V1.14924C1.03801 1.14924 0.66811 1.51914 0.66811 1.97379H1.66811ZM3.64559 16.768H7.45973V15.768H3.64559V16.768ZM2.82104 15.943C2.8207 16.3947 3.18449 16.768 3.64559 16.768L3.64559 15.768C3.74316 15.768 3.82111 15.849 3.82104 15.9437L2.82104 15.943ZM3.64559 15.1188C3.19094 15.1188 2.82104 15.4887 2.82104 15.9434H3.82104C3.82104 16.041 3.74322 16.1188 3.64559 16.1188V15.1188ZM7.45975 15.1189L3.64561 15.1188L3.64557 16.1188L7.45972 16.1189L7.45975 15.1189ZM8.28429 15.9435C8.28429 15.4888 7.91439 15.1189 7.45973 15.1189V16.1189C7.3621 16.1189 7.28429 16.0411 7.28429 15.9435H8.28429ZM7.45973 16.768C7.91439 16.768 8.28429 16.3981 8.28429 15.9435H7.28429C7.28429 15.8459 7.3621 15.768 7.45973 15.768V16.768Z" fill="#FF5711" mask="url(#path-1-outside-1_4891_15939)"/>
</svg>
