<svg width="16" height="18" viewBox="0 0 16 18" fill="none" xmlns="http://www.w3.org/2000/svg">
<path d="M0.25 2.80642C0.249753 2.44142 0.345408 2.08275 0.527386 1.76634C0.709363 1.44994 0.971277 1.18689 1.2869 1.00356C1.60252 0.820216 1.96077 0.723018 2.32577 0.721693C2.69078 0.720369 3.04972 0.814965 3.36667 0.996008L14.8083 7.53559C15.127 7.71788 15.3918 7.98113 15.576 8.29868C15.7602 8.61624 15.8572 8.97682 15.8572 9.34392C15.8572 9.71103 15.7602 10.0716 15.576 10.3892C15.3918 10.7067 15.127 10.97 14.8083 11.1523L3.36667 17.6918C3.04972 17.8729 2.69078 17.9675 2.32577 17.9662C1.96077 17.9648 1.60252 17.8676 1.2869 17.6843C0.971277 17.501 0.709363 17.2379 0.527386 16.9215C0.345408 16.6051 0.249753 16.2464 0.25 15.8814V2.80642ZM13.775 9.34392L2.33333 2.80642V15.8814L13.775 9.34392Z" fill="#0D3C84"/>
</svg>
