<svg width="10" height="10" viewBox="0 0 10 10" fill="none" xmlns="http://www.w3.org/2000/svg">
<path d="M3.54171 2.49967H2.79171C3.41671 1.95801 4.16671 1.66634 5.00004 1.66634C5.12504 1.66634 5.25004 1.66634 5.37504 1.70801C5.58337 1.74967 5.79171 1.58301 5.83337 1.33301C5.87504 1.12467 5.70837 0.916341 5.45837 0.874674C5.29171 0.833008 5.16671 0.833008 5.00004 0.833008C4.00004 0.833008 3.04171 1.20801 2.29171 1.83301V1.24967C2.29171 0.999674 2.12504 0.833008 1.87504 0.833008C1.62504 0.833008 1.45837 0.999674 1.45837 1.24967V2.91634C1.45837 3.16634 1.62504 3.33301 1.87504 3.33301H3.54171C3.79171 3.33301 3.95837 3.16634 3.95837 2.91634C3.95837 2.66634 3.79171 2.49967 3.54171 2.49967ZM2.91671 6.04134C2.66671 6.04134 2.50004 6.20801 2.50004 6.45801V7.20801C1.95837 6.58301 1.66671 5.83301 1.66671 4.99967C1.66671 4.87467 1.66671 4.74968 1.70837 4.62468C1.75004 4.41634 1.58337 4.20801 1.33337 4.16634C1.12504 4.12467 0.916707 4.29134 0.875041 4.54134C0.833374 4.70801 0.833374 4.83301 0.833374 4.99967C0.833374 5.99968 1.20837 6.95801 1.83337 7.70801H1.25004C1.00004 7.70801 0.833374 7.87468 0.833374 8.12468C0.833374 8.37468 1.00004 8.54134 1.25004 8.54134H2.91671C3.04171 8.54134 3.16671 8.45801 3.25004 8.37468C3.25004 8.33301 3.29171 8.29134 3.29171 8.24968V6.45801C3.33337 6.20801 3.16671 6.04134 2.91671 6.04134ZM8.75004 2.29134C9.00004 2.29134 9.16671 2.12467 9.16671 1.87467C9.16671 1.62467 9.00004 1.45801 8.75004 1.45801H7.00004C6.95837 1.45801 6.91671 1.49967 6.87504 1.49967C6.83337 1.54134 6.79171 1.54134 6.79171 1.58301C6.79171 1.62467 6.75004 1.66634 6.75004 1.66634V3.45801C6.75004 3.70801 6.91671 3.87468 7.16671 3.87468C7.41671 3.87468 7.58337 3.70801 7.58337 3.45801V2.79134C8.12504 3.37467 8.41671 4.16634 8.41671 4.99967C8.41671 5.12467 8.41671 5.24967 8.37504 5.37467C8.33337 5.58301 8.50004 5.79134 8.75004 5.83301H8.79171C9.00004 5.83301 9.16671 5.66634 9.20837 5.45801C9.20837 5.29134 9.25004 5.16634 9.25004 4.99967C9.25004 3.99967 8.87504 3.04134 8.25004 2.29134H8.75004ZM8.45837 6.87468L8.33337 6.74968C8.29171 6.70801 8.25004 6.70801 8.20837 6.70801H6.45837C6.20837 6.70801 6.04171 6.87468 6.04171 7.12468C6.04171 7.37468 6.20837 7.54134 6.45837 7.54134H7.20837C6.62504 8.08301 5.83337 8.37468 5.00004 8.37468C4.87504 8.37468 4.75004 8.37468 4.62504 8.33301C4.41671 8.29134 4.20837 8.45801 4.16671 8.70801C4.12504 8.95801 4.29171 9.12468 4.54171 9.16634C4.70837 9.16634 4.83337 9.20801 5.00004 9.20801C6.00004 9.20801 6.95837 8.83301 7.70837 8.20801V8.74968C7.70837 8.99968 7.87504 9.16634 8.12504 9.16634C8.37504 9.16634 8.54171 8.99968 8.54171 8.74968V7.08301C8.54171 6.99968 8.50004 6.91634 8.45837 6.87468Z" fill="#8A8A8A"/>
</svg>
