<svg width="47" height="40" viewBox="0 0 47 40" fill="none" xmlns="http://www.w3.org/2000/svg">
<rect x="0.261108" y="0.40625" width="46.3129" height="39.5604" rx="8" fill="#0C83BF"/>
<path d="M20.1647 21.8161C20.1647 22.3854 20.0947 22.8987 19.9547 23.3561C19.8147 23.8134 19.6047 24.2031 19.3247 24.5251C19.0494 24.8471 18.7041 25.0944 18.2887 25.2671C17.8734 25.4397 17.3904 25.5261 16.8397 25.5261C16.5877 25.5261 16.3404 25.5097 16.0977 25.4771C15.8551 25.4491 15.6007 25.4024 15.3347 25.3371L15.4327 24.2171C15.4421 24.1144 15.4794 24.0327 15.5447 23.9721C15.6147 23.9067 15.7151 23.8741 15.8457 23.8741C15.9251 23.8741 16.0277 23.8904 16.1537 23.9231C16.2844 23.9557 16.4477 23.9721 16.6437 23.9721C16.9097 23.9721 17.1454 23.9347 17.3507 23.8601C17.5561 23.7807 17.7264 23.6571 17.8617 23.4891C18.0017 23.3211 18.1067 23.1041 18.1767 22.8381C18.2467 22.5674 18.2817 22.2407 18.2817 21.8581V15.2921H20.1647V21.8161ZM25.1481 21.8511V25.4141H23.2651V15.2921H26.5621C27.2387 15.2921 27.8244 15.3714 28.3191 15.5301C28.8137 15.6887 29.2221 15.9104 29.5441 16.1951C29.8661 16.4797 30.1041 16.8204 30.2581 17.2171C30.4121 17.6137 30.4891 18.0477 30.4891 18.5191C30.4891 19.0091 30.4074 19.4594 30.2441 19.8701C30.0807 20.2761 29.8357 20.6261 29.5091 20.9201C29.1824 21.2141 28.7741 21.4427 28.2841 21.6061C27.7941 21.7694 27.2201 21.8511 26.5621 21.8511H25.1481ZM25.1481 20.3811H26.5621C26.9074 20.3811 27.2084 20.3391 27.4651 20.2551C27.7217 20.1664 27.9341 20.0427 28.1021 19.8841C28.2701 19.7207 28.3961 19.5247 28.4801 19.2961C28.5641 19.0627 28.6061 18.8037 28.6061 18.5191C28.6061 18.2484 28.5641 18.0034 28.4801 17.7841C28.3961 17.5647 28.2701 17.3781 28.1021 17.2241C27.9341 17.0701 27.7217 16.9534 27.4651 16.8741C27.2084 16.7901 26.9074 16.7481 26.5621 16.7481H25.1481V20.3811Z" fill="white"/>
</svg>
