<svg width="8" height="9" viewBox="0 0 8 9" fill="none" xmlns="http://www.w3.org/2000/svg">
<path d="M4.715 6.03519C4.69438 5.75513 4.68859 5.47419 4.69767 5.19352L4.69733 5.20585C4.94817 4.94583 5.10461 4.60924 5.14167 4.24985L5.14233 4.24285C5.25533 4.23352 5.43367 4.12352 5.48567 3.68752C5.50136 3.61243 5.49544 3.53443 5.4686 3.46257C5.44175 3.39071 5.39508 3.32793 5.334 3.28152L5.333 3.28085C5.517 2.72752 5.899 1.01552 4.626 0.838854C4.495 0.608854 4.15967 0.492188 3.72367 0.492188C1.97933 0.524188 1.769 1.80919 2.15033 3.28085C2.08876 3.32769 2.0418 3.39109 2.01494 3.46364C1.98808 3.53619 1.98244 3.61488 1.99867 3.69052L1.99833 3.68785C2.05167 4.12319 2.22867 4.23385 2.34167 4.24319C2.3813 4.60657 2.54272 4.94586 2.79967 5.20585C2.80812 5.49144 2.80166 5.77727 2.78033 6.06219L2.782 6.03519C2.436 6.96319 0.106667 6.70252 0 8.49219H7.486C7.37867 6.70252 5.06 6.96319 4.71467 6.03519H4.715Z" fill="#8A8A8A"/>
</svg>
