<svg width="18" height="18" viewBox="0 0 18 18" fill="none" xmlns="http://www.w3.org/2000/svg">
<path d="M0 0V5.72727H4.90909V0H0ZM3.50677 4.09123H1.40277V1.63656H3.50677V4.09123Z" fill="#723614"/>
<path d="M0 13.0909V18H4.90909V13.0909H0ZM3.50677 16.5977H1.40277V14.4939H3.50677V16.5977Z" fill="#723614"/>
<path d="M12.2727 0V5.72727H17.1818V0H12.2727ZM15.7792 4.09123H13.6752V1.63656H15.7792V4.09123Z" fill="#723614"/>
<path d="M15.7792 6.54554V11.4547H12.2727V13.0909H17.1818V6.54546L15.7792 6.54554Z" fill="#723614"/>
<path d="M12.2727 13.9091V18H13.6751V15.5453H15.7791V18H17.1818V13.9091H12.2727Z" fill="#723614"/>
<path d="M6.54541 0V1.63651H9.27259V5.72727H10.6363V0.000175399L6.54541 0Z" fill="#723614"/>
<path d="M9.4908 6.54546V9.60022H6.54541V14.182H9.4908V18H10.9637V12.6544H8.01826V11.1274H10.9637V8.07292H12.4365V9.6003H13.909V6.54554L9.4908 6.54546Z" fill="#723614"/>
<path d="M6.54541 15.5455H8.18177V18H6.54541V15.5455Z" fill="#723614"/>
<path d="M3.27271 9.81818H4.90907V11.4545H3.27271V9.81818Z" fill="#723614"/>
<path d="M6.69413 3.27272V6.99179H0V11.4545H1.48769V8.47948H8.18182V3.2728L6.69413 3.27272Z" fill="#723614"/>
</svg>
