<svg width="19" height="17" viewBox="0 0 19 17" fill="none" xmlns="http://www.w3.org/2000/svg">
<path d="M9.48283 0.111115C4.83259 0.111115 1.05566 3.88631 1.05566 8.53654C1.05566 13.1868 4.83294 16.9637 9.48283 16.9637C14.1327 16.9637 17.9083 13.1864 17.9083 8.53654C17.9083 3.88631 14.1331 0.111115 9.48283 0.111115ZM9.48283 0.718059C13.805 0.718059 17.3013 4.21441 17.3013 8.53654C17.3013 12.8587 13.805 16.3568 9.48283 16.3568C5.16069 16.3568 1.66261 12.8587 1.66261 8.53654C1.66261 4.21441 5.16069 0.718059 9.48283 0.718059ZM9.48215 3.08771C8.03714 3.08784 6.65119 3.66188 5.62927 4.6838C4.60749 5.70558 4.03332 7.09153 4.03332 8.53668C4.03318 9.98197 4.60721 11.3681 5.62913 12.3899C6.65091 13.4118 8.037 13.9861 9.48201 13.9861C10.9273 13.9862 12.3135 13.4121 13.3356 12.3902C14.3577 11.3681 14.9318 9.98201 14.9317 8.53658C14.9315 7.09143 14.3574 5.70548 13.3355 4.6837C12.3134 3.66191 10.9275 3.08774 9.48226 3.08788L9.48215 3.08771Z" fill="#886CC4"/>
</svg>
