<svg width="20" height="20" viewBox="0 0 20 20" fill="none" xmlns="http://www.w3.org/2000/svg">
<path d="M19.4373 7.38284C19.3574 7.14424 19.1507 6.97023 18.9021 6.93216L12.9925 6.02947L10.3439 0.386218C10.2332 0.150462 9.99636 0 9.73601 0C9.47566 0 9.23887 0.150478 9.1281 0.386218L6.47948 6.02947L0.569952 6.93216C0.321304 6.97023 0.114632 7.14409 0.0347487 7.38284C-0.0451346 7.62129 0.0151147 7.88478 0.190771 8.06477L4.48652 12.4676L3.47094 18.6925C3.42957 18.9462 3.53688 19.2013 3.74701 19.3494C3.95699 19.4976 4.23352 19.5123 4.45863 19.3882L9.73584 16.471L15.0131 19.3882C15.1145 19.4443 15.2263 19.472 15.338 19.472C15.4739 19.472 15.6093 19.4308 15.7247 19.3494C15.9348 19.2013 16.042 18.9462 16.0007 18.6925L14.9852 12.4676L19.2809 8.06477C19.4566 7.88476 19.5168 7.62142 19.4369 7.38284H19.4373ZM13.7875 11.7726C13.6387 11.925 13.5711 12.1392 13.6054 12.3495L14.4528 17.5442L10.0608 15.1163C9.95959 15.0604 9.84778 15.0326 9.73582 15.0326C9.62386 15.0326 9.51206 15.0604 9.41089 15.1163L5.01884 17.5442L5.86624 12.3495C5.90057 12.1392 5.83297 11.925 5.68414 11.7726L2.06445 8.06254L7.03625 7.30311C7.25762 7.26939 7.44752 7.12746 7.54268 6.92467L9.73583 2.25176L11.929 6.92467C12.024 7.12746 12.214 7.26939 12.4354 7.30311L17.4072 8.06254L13.7875 11.7726Z" fill="#F1A81A"/>
</svg>
