<svg width="11" height="11" viewBox="0 0 11 11" fill="none" xmlns="http://www.w3.org/2000/svg">
<path d="M10.5 4.87347C10.3472 3.77361 9.83692 2.75451 9.0479 1.97316C8.25888 1.19181 7.23485 0.691548 6.13354 0.549444C5.03224 0.40734 3.91476 0.631275 2.95325 1.18675C1.99174 1.74223 1.23953 2.59843 0.8125 3.62347M0.5 1.12347V3.62347H3M0.5 6.12347C0.65285 7.22334 1.16308 8.24244 1.9521 9.02379C2.74112 9.80514 3.76515 10.3054 4.86646 10.4475C5.96776 10.5896 7.08524 10.3657 8.04675 9.81019C9.00826 9.25472 9.76047 8.39851 10.1875 7.37347M10.5 9.87347V7.37347H8" stroke="#0D3C84" stroke-linecap="round" stroke-linejoin="round"/>
</svg>
