<svg width="133" height="26" viewBox="0 0 133 26" fill="none" xmlns="http://www.w3.org/2000/svg">
<path d="M43.035 22.0354C43.3483 22.0286 43.649 21.917 43.8838 21.7203C44.1186 21.5237 44.2725 21.2547 44.3182 20.9609H41.702C41.749 21.2627 41.9101 21.538 42.1553 21.7357C42.4005 21.9333 42.7131 22.0398 43.035 22.0354Z" fill="white"/>
<path d="M50.2518 18.9976C49.7722 18.5924 49.3523 18.128 49.0034 17.6168C48.6225 16.9111 48.3943 16.1404 48.332 15.35V13.0219C48.3299 12.7391 48.3033 12.457 48.2524 12.1784C47.8609 12.1042 47.4847 11.9705 47.1382 11.7825C47.2703 12.1854 47.3374 12.6048 47.3372 13.0266V15.3547C47.3982 16.3189 47.6781 17.2593 48.1579 18.1116C48.5013 18.6271 48.9087 19.1018 49.3715 19.5254H36.6336C37.0963 19.1018 37.5038 18.6271 37.8472 18.1116C38.327 17.2593 38.6069 16.3189 38.6679 15.3547V13.0219C38.6652 12.4765 38.7762 11.936 38.9944 11.4313C39.2125 10.9266 39.5336 10.4676 39.9393 10.0806C40.3449 9.69362 40.8271 9.38627 41.3583 9.17612C41.8895 8.96598 42.4592 8.85717 43.0349 8.85594C43.8773 8.85658 44.7008 9.09263 45.4024 9.53456C45.325 9.26546 45.2816 8.98862 45.2731 8.70984V8.41295C44.7537 8.17089 44.1958 8.01166 43.6218 7.94168V7.34789C43.6218 7.18103 43.5518 7.02101 43.4273 6.90302C43.3028 6.78503 43.1339 6.71875 42.9578 6.71875C42.7817 6.71875 42.6128 6.78503 42.4882 6.90302C42.3637 7.02101 42.2938 7.18103 42.2938 7.34789V7.96525C41.0084 8.13705 39.832 8.74366 38.9818 9.67308C38.1316 10.6025 37.665 11.792 37.6681 13.0219V15.35C37.6058 16.1404 37.3775 16.9111 36.9967 17.6168C36.6539 18.1268 36.2407 18.5912 35.7681 18.9976C35.7151 19.0417 35.6726 19.0961 35.6434 19.157C35.6142 19.218 35.5991 19.2841 35.599 19.351V19.9919C35.599 20.1169 35.6514 20.2368 35.7447 20.3252C35.838 20.4135 35.9645 20.4632 36.0964 20.4632H49.9236C50.0555 20.4632 50.182 20.4135 50.2753 20.3252C50.3685 20.2368 50.421 20.1169 50.421 19.9919V19.351C50.4209 19.2841 50.4057 19.218 50.3766 19.157C50.3474 19.0961 50.3049 19.0417 50.2518 18.9976V18.9976Z" stroke="white"/>
<path d="M48.0119 13.4103C50.7545 13.4103 52.9778 11.3037 52.9778 8.70515C52.9778 6.10657 50.7545 4 48.0119 4C45.2693 4 43.046 6.10657 43.046 8.70515C43.046 11.3037 45.2693 13.4103 48.0119 13.4103Z" fill="#F50E0E"/>
<path d="M44.6124 9.70952V8.87145L47.0812 4.97088H47.78V6.16406H47.3539L45.6919 8.79759V8.84304H49.138V9.70952H44.6124ZM47.388 10.7891V9.45384L47.3993 9.07884V4.97088H48.3937V10.7891H47.388Z" fill="white"/>
<path d="M8.28624 18.8986C11.943 18.8986 14.9074 16.0899 14.9074 12.6251C14.9074 9.16032 11.943 6.35156 8.28624 6.35156C4.62945 6.35156 1.66504 9.16032 1.66504 12.6251C1.66504 16.0899 4.62945 18.8986 8.28624 18.8986Z" stroke="white" stroke-width="2" stroke-linecap="round" stroke-linejoin="round"/>
<path d="M16.5635 20.4659L12.9632 17.0547" stroke="white" stroke-width="2" stroke-linecap="round" stroke-linejoin="round"/>
<path d="M73.6751 22.0354C78.2461 22.0354 81.9516 18.5245 81.9516 14.1935C81.9516 9.86251 78.2461 6.35156 73.6751 6.35156C69.1041 6.35156 65.3986 9.86251 65.3986 14.1935C65.3986 18.5245 69.1041 22.0354 73.6751 22.0354Z" stroke="white" stroke-width="2" stroke-linecap="round" stroke-linejoin="round"/>
<path d="M71.2673 11.8375C71.4619 11.3134 71.8459 10.8715 72.3514 10.59C72.857 10.3085 73.4513 10.2056 74.0293 10.2995C74.6072 10.3934 75.1314 10.6781 75.509 11.1031C75.8866 11.5282 76.0933 12.0661 76.0924 12.6217C76.0924 14.1901 73.6095 14.9743 73.6095 14.9743" stroke="white" stroke-width="2" stroke-linecap="round" stroke-linejoin="round"/>
<path d="M73.6751 18.1172H73.6849" stroke="white" stroke-width="2" stroke-linecap="round" stroke-linejoin="round"/>
<path d="M113.177 7.52462C113.719 7.52462 114.238 7.29821 114.621 6.89519C115.004 6.49217 115.219 5.94555 115.219 5.37559C115.219 4.80563 115.004 4.25902 114.621 3.856C114.238 3.45298 113.719 3.22656 113.177 3.22656C112.636 3.22656 112.117 3.45298 111.734 3.856C111.351 4.25902 111.136 4.80563 111.136 5.37559C111.136 5.94555 111.351 6.49217 111.734 6.89519C112.117 7.29821 112.636 7.52462 113.177 7.52462ZM120.323 7.52462C120.865 7.52462 121.384 7.29821 121.767 6.89519C122.15 6.49217 122.365 5.94555 122.365 5.37559C122.365 4.80563 122.15 4.25902 121.767 3.856C121.384 3.45298 120.865 3.22656 120.323 3.22656C119.782 3.22656 119.262 3.45298 118.88 3.856C118.497 4.25902 118.282 4.80563 118.282 5.37559C118.282 5.94555 118.497 6.49217 118.88 6.89519C119.262 7.29821 119.782 7.52462 120.323 7.52462ZM127.469 7.52462C128.011 7.52462 128.53 7.29821 128.913 6.89519C129.296 6.49217 129.511 5.94555 129.511 5.37559C129.511 4.80563 129.296 4.25902 128.913 3.856C128.53 3.45298 128.011 3.22656 127.469 3.22656C126.928 3.22656 126.408 3.45298 126.025 3.856C125.643 4.25902 125.427 4.80563 125.427 5.37559C125.427 5.94555 125.643 6.49217 126.025 6.89519C126.408 7.29821 126.928 7.52462 127.469 7.52462ZM113.177 15.0462C113.719 15.0462 114.238 14.8198 114.621 14.4168C115.004 14.0138 115.219 13.4672 115.219 12.8972C115.219 12.3272 115.004 11.7806 114.621 11.3776C114.238 10.9746 113.719 10.7482 113.177 10.7482C112.636 10.7482 112.117 10.9746 111.734 11.3776C111.351 11.7806 111.136 12.3272 111.136 12.8972C111.136 13.4672 111.351 14.0138 111.734 14.4168C112.117 14.8198 112.636 15.0462 113.177 15.0462ZM120.323 15.0462C120.865 15.0462 121.384 14.8198 121.767 14.4168C122.15 14.0138 122.365 13.4672 122.365 12.8972C122.365 12.3272 122.15 11.7806 121.767 11.3776C121.384 10.9746 120.865 10.7482 120.323 10.7482C119.782 10.7482 119.262 10.9746 118.88 11.3776C118.497 11.7806 118.282 12.3272 118.282 12.8972C118.282 13.4672 118.497 14.0138 118.88 14.4168C119.262 14.8198 119.782 15.0462 120.323 15.0462ZM127.469 15.0462C128.011 15.0462 128.53 14.8198 128.913 14.4168C129.296 14.0138 129.511 13.4672 129.511 12.8972C129.511 12.3272 129.296 11.7806 128.913 11.3776C128.53 10.9746 128.011 10.7482 127.469 10.7482C126.928 10.7482 126.408 10.9746 126.025 11.3776C125.643 11.7806 125.427 12.3272 125.427 12.8972C125.427 13.4672 125.643 14.0138 126.025 14.4168C126.408 14.8198 126.928 15.0462 127.469 15.0462ZM113.177 22.5678C113.719 22.5678 114.238 22.3414 114.621 21.9384C115.004 21.5354 115.219 20.9888 115.219 20.4188C115.219 19.8488 115.004 19.3022 114.621 18.8992C114.238 18.4962 113.719 18.2698 113.177 18.2698C112.636 18.2698 112.117 18.4962 111.734 18.8992C111.351 19.3022 111.136 19.8488 111.136 20.4188C111.136 20.9888 111.351 21.5354 111.734 21.9384C112.117 22.3414 112.636 22.5678 113.177 22.5678ZM120.323 22.5678C120.865 22.5678 121.384 22.3414 121.767 21.9384C122.15 21.5354 122.365 20.9888 122.365 20.4188C122.365 19.8488 122.15 19.3022 121.767 18.8992C121.384 18.4962 120.865 18.2698 120.323 18.2698C119.782 18.2698 119.262 18.4962 118.88 18.8992C118.497 19.3022 118.282 19.8488 118.282 20.4188C118.282 20.9888 118.497 21.5354 118.88 21.9384C119.262 22.3414 119.782 22.5678 120.323 22.5678ZM127.469 22.5678C128.011 22.5678 128.53 22.3414 128.913 21.9384C129.296 21.5354 129.511 20.9888 129.511 20.4188C129.511 19.8488 129.296 19.3022 128.913 18.8992C128.53 18.4962 128.011 18.2698 127.469 18.2698C126.928 18.2698 126.408 18.4962 126.025 18.8992C125.643 19.3022 125.427 19.8488 125.427 20.4188C125.427 20.9888 125.643 21.5354 126.025 21.9384C126.408 22.3414 126.928 22.5678 127.469 22.5678Z" fill="white"/>
</svg>
