<svg width="24" height="15" viewBox="0 0 24 15" fill="none" xmlns="http://www.w3.org/2000/svg">
<path d="M13.0001 7.50013V9.37508H4.99989C2.23855 9.37508 0 7.27638 0 4.6877C0 2.09883 2.23862 0 4.99989 0H19.0001C21.7614 0 24 2.0987 24 4.6877C24 7.27645 21.7614 9.37508 19.0001 9.37508V7.50013C20.6569 7.50013 22.0001 6.2409 22.0001 4.68764C22.0001 3.13424 20.6569 1.87514 19.0001 1.87514H4.99989C3.34306 1.87514 1.99989 3.13424 1.99989 4.68764C1.99989 6.2409 3.34306 7.50013 4.99989 7.50013H13.0001ZM15.0001 12.1875H12.0001V10.3126H15.0001V7.50006H17V10.3126H20V12.1875H17V15H15.0001V12.1875Z" fill="#723614"/>
</svg>
