<svg width="10" height="9" viewBox="0 0 10 9" fill="none" xmlns="http://www.w3.org/2000/svg">
<path fill-rule="evenodd" clip-rule="evenodd" d="M0 1.50462C0 1.31173 0.0889797 1.12675 0.247365 0.990357C0.40575 0.853967 0.620566 0.777344 0.844556 0.777344H3.58936C3.81335 0.777344 4.02817 0.853967 4.18655 0.990357C4.34494 1.12675 4.43392 1.31173 4.43392 1.50462V3.86825C4.43392 4.06114 4.34494 4.24612 4.18655 4.38251C4.02817 4.5189 3.81335 4.59553 3.58936 4.59553H2.53367V6.07298C2.53367 6.36098 2.80561 6.59553 3.1409 6.59553H4.8562V5.68643C4.8562 5.49355 4.94518 5.30857 5.10356 5.17218C5.26195 5.03579 5.47676 4.95916 5.70075 4.95916H8.44556C8.66955 4.95916 8.88436 5.03579 9.04275 5.17218C9.20113 5.30857 9.29011 5.49355 9.29011 5.68643V8.05007C9.29011 8.24296 9.20113 8.42794 9.04275 8.56433C8.88436 8.70072 8.66955 8.77734 8.44556 8.77734H5.70075C5.47676 8.77734 5.26195 8.70072 5.10356 8.56433C4.94518 8.42794 4.8562 8.24296 4.8562 8.05007V7.14098H3.14048C2.81151 7.14088 2.49606 7.02828 2.26348 6.82794C2.0309 6.62759 1.90025 6.3559 1.90025 6.07262V4.59553H0.844556C0.620566 4.59553 0.40575 4.5189 0.247365 4.38251C0.0889797 4.24612 0 4.06114 0 3.86825V1.50462ZM0.844556 1.3228C0.788558 1.3228 0.734854 1.34195 0.695258 1.37605C0.655662 1.41015 0.633417 1.4564 0.633417 1.50462V3.86825C0.633417 3.91647 0.655662 3.96272 0.695258 3.99682C0.734854 4.03092 0.788558 4.05007 0.844556 4.05007H3.58936C3.64536 4.05007 3.69906 4.03092 3.73866 3.99682C3.77826 3.96272 3.8005 3.91647 3.8005 3.86825V1.50462C3.8005 1.4564 3.77826 1.41015 3.73866 1.37605C3.69906 1.34195 3.64536 1.3228 3.58936 1.3228H0.844556ZM5.70075 5.50462C5.64475 5.50462 5.59105 5.52377 5.55145 5.55787C5.51186 5.59197 5.48961 5.63821 5.48961 5.68643V8.05007C5.48961 8.09829 5.51186 8.14454 5.55145 8.17864C5.59105 8.21273 5.64475 8.23189 5.70075 8.23189H8.44556C8.50156 8.23189 8.55526 8.21273 8.59486 8.17864C8.63445 8.14454 8.6567 8.09829 8.6567 8.05007V5.68643C8.6567 5.63821 8.63445 5.59197 8.59486 5.55787C8.55526 5.52377 8.50156 5.50462 8.44556 5.50462H5.70075Z" fill="#0D3C84"/>
</svg>
