<svg width="23" height="21" viewBox="0 0 23 21" fill="none" xmlns="http://www.w3.org/2000/svg">
<path d="M22.8214 7.43356L20.3471 4.93543C20.2329 4.81992 20.0779 4.75508 19.9161 4.75508C19.7546 4.75508 19.5996 4.81992 19.4851 4.93522L16.5191 7.93028V0.615304C16.5191 0.452192 16.4549 0.295651 16.3405 0.180345C16.2263 0.0648353 16.0712 0 15.9095 0H0.609387C0.447845 0 0.29281 0.0648353 0.178406 0.180345C0.0642105 0.295651 0 0.452197 0 0.615304V20.3847C0 20.5478 0.0642105 20.7043 0.178406 20.8197C0.292804 20.9352 0.447845 21 0.609387 21H15.9095C16.0712 21 16.2263 20.9352 16.3405 20.8197C16.4549 20.7043 16.5191 20.5478 16.5191 20.3847V14.667L22.8216 8.3032C22.9358 8.18789 23 8.03134 23 7.86803C23 7.70492 22.9358 7.54837 22.8216 7.43286L22.8214 7.43356ZM15.3001 19.7693H1.21879V1.23103H15.3001V9.16106L11.719 12.777C11.6505 12.8459 11.5995 12.9305 11.5698 13.0236L10.3958 16.7075V16.7073C10.3257 16.927 10.3832 17.1679 10.5449 17.331C10.7065 17.4943 10.945 17.5524 11.1626 17.4816L14.8108 16.2961C14.9029 16.2662 14.9866 16.2147 15.0551 16.1455L15.3001 15.8981L15.3001 19.7693ZM14.2973 15.17L11.92 15.9427L12.685 13.5422L19.916 6.24032L21.5284 7.86835L14.2973 15.17Z" fill="#886CC4"/>
</svg>
