<svg width="17" height="15" viewBox="0 0 17 15" fill="none" xmlns="http://www.w3.org/2000/svg">
<path d="M0.638408 8.39738C-0.0226985 8.39738 -0.0226985 7.38189 0.638408 7.38189C1.18602 7.38189 1.63002 6.92721 1.63002 6.36641V2.55835C1.63002 1.57688 2.40694 0.78125 3.36534 0.78125H3.61324C3.8871 0.78125 4.10904 1.00854 4.10904 1.28899C4.10904 1.56944 3.88709 1.79673 3.61324 1.79673H3.36534C2.95456 1.79673 2.62163 2.13768 2.62163 2.55835V6.36641C2.62163 6.97303 2.3619 7.51746 1.95026 7.88963C2.3619 8.26181 2.62163 8.80623 2.62163 9.41286V13.2209C2.62163 13.6416 2.95456 13.9825 3.36534 13.9825H3.61324C3.8871 13.9825 4.10904 14.2098 4.10904 14.4903C4.10904 14.7707 3.88709 14.998 3.61324 14.998H3.36534C2.40694 14.998 1.63002 14.2024 1.63002 13.2209V9.41286C1.63002 8.85206 1.18602 8.39738 0.638408 8.39738ZM16.5042 8.39738C15.9566 8.39738 15.5126 8.85206 15.5126 9.41286V13.2209C15.5126 14.2024 14.7356 14.998 13.7772 14.998H13.5293C13.2555 14.998 13.0335 14.7707 13.0335 14.4903C13.0335 14.2098 13.2555 13.9825 13.5293 13.9825H13.7772C14.188 13.9825 14.5209 13.6416 14.5209 13.2209V9.41286C14.5209 8.80623 14.7807 8.26181 15.1923 7.88963C14.7807 7.51746 14.5209 6.97303 14.5209 6.36641V2.55835C14.5209 2.13768 14.188 1.79673 13.7772 1.79673H13.5293C13.2555 1.79673 13.0335 1.56944 13.0335 1.28899C13.0335 1.00854 13.2555 0.78125 13.5293 0.78125H13.7772C14.7356 0.78125 15.5126 1.57688 15.5126 2.55835V6.36641C15.5126 6.92721 15.9566 7.38189 16.5042 7.38189C17.1653 7.38189 17.1653 8.39738 16.5042 8.39738ZM4.60485 4.33544C4.33099 4.33544 4.10904 4.10815 4.10904 3.8277C4.10904 3.54725 4.33099 3.31996 4.60485 3.31996H8.07548C8.34934 3.31996 8.57129 3.54725 8.57129 3.8277C8.57129 4.10815 8.34934 4.33544 8.07548 4.33544H4.60485ZM4.60485 12.4593C4.33099 12.4593 4.10904 12.232 4.10904 11.9516C4.10904 11.6711 4.33099 11.4438 4.60485 11.4438H8.07548C8.34934 11.4438 8.57129 11.6711 8.57129 11.9516C8.57129 12.232 8.34934 12.4593 8.07548 12.4593H4.60485ZM8.07548 7.12802C7.80163 7.12802 7.57968 6.90073 7.57968 6.62028C7.57968 6.33983 7.80163 6.11254 8.07548 6.11254H12.5377C12.8116 6.11254 13.0335 6.33983 13.0335 6.62028C13.0335 6.90073 12.8116 7.12802 12.5377 7.12802H8.07548ZM8.07548 9.66673C7.80163 9.66673 7.57968 9.43944 7.57968 9.15899C7.57968 8.87854 7.80163 8.65125 8.07548 8.65125H12.5377C12.8116 8.65125 13.0335 8.87854 13.0335 9.15899C13.0335 9.43944 12.8116 9.66673 12.5377 9.66673H8.07548Z" fill="black" fill-opacity="0.47"/>
</svg>
