<svg width="20" height="15" viewBox="0 0 20 15" fill="none" xmlns="http://www.w3.org/2000/svg">
<path d="M0.700548 3.125C0.886317 3.125 1.06458 3.05915 1.19593 2.94196C1.32729 2.82478 1.4011 2.66574 1.4011 2.5V1.25H6.30493V13.75H4.90383C4.65348 13.75 4.42222 13.8691 4.29712 14.0625C4.17202 14.2559 4.17202 14.4941 4.29712 14.6875C4.42222 14.8809 4.65349 15 4.90383 15H9.10712C9.35747 15 9.58874 14.8809 9.71383 14.6875C9.83893 14.4941 9.83893 14.2559 9.71383 14.0625C9.58874 13.8691 9.35746 13.75 9.10712 13.75H7.70602V1.25H12.6099V2.5C12.6099 2.72335 12.7434 2.92968 12.9601 3.04129C13.1769 3.15289 13.4439 3.15289 13.6607 3.04129C13.8774 2.92968 14.011 2.72335 14.011 2.5V0.625C14.011 0.459264 13.9371 0.300221 13.8058 0.183036C13.6744 0.06585 13.4962 0 13.3104 0H0.700548C0.514778 0 0.336511 0.06585 0.20516 0.183036C0.0738097 0.300221 0 0.459264 0 0.625V2.5C0 2.66574 0.0738097 2.82478 0.20516 2.94196C0.336511 3.05915 0.514778 3.125 0.700548 3.125Z" fill="#18ACB6"/>
<path d="M10.5085 5.92022V7.0663C10.5085 7.28951 10.6421 7.49583 10.8588 7.60744C11.0756 7.71919 11.3426 7.71919 11.5594 7.60744C11.7761 7.49583 11.9096 7.2895 11.9096 7.0663V6.54537H14.3616V13.6979H13.778C13.5278 13.6979 13.2965 13.817 13.1713 14.0104C13.0462 14.2037 13.0462 14.442 13.1713 14.6354C13.2965 14.8287 13.5278 14.9479 13.778 14.9479H16.3462C16.5964 14.9479 16.8277 14.8287 16.9529 14.6354C17.078 14.442 17.078 14.2037 16.9529 14.0104C16.8277 13.817 16.5964 13.6979 16.3462 13.6979H15.7626V6.54501H18.2146V7.06608C18.2146 7.2893 18.3481 7.49562 18.5648 7.60723C18.7816 7.71897 19.0487 7.71897 19.2654 7.60723C19.4821 7.49562 19.6157 7.28929 19.6157 7.06608V5.92001C19.6157 5.75427 19.5418 5.59537 19.4105 5.47819C19.2791 5.36086 19.1009 5.29501 18.9151 5.29501H11.2091C11.0233 5.29501 10.8451 5.36086 10.7137 5.47819C10.5824 5.59537 10.5085 5.75428 10.5085 5.92001V5.92022Z" fill="#18ACB6"/>
</svg>
