<svg width="17" height="17" viewBox="0 0 17 17" fill="none" xmlns="http://www.w3.org/2000/svg">
<path d="M5.09091 8.5L7.13636 10.5455L11.9091 5.77273M13.9545 10.5455C13.2727 11.2273 14.8068 13.1023 13.9545 13.9545C13.1023 14.8068 11.2273 13.2727 10.5455 13.9545C9.86364 14.6364 9.52273 16 8.5 16C7.47727 16 7.13636 14.6364 6.45455 13.9545C5.77273 13.2727 3.89773 14.8068 3.04545 13.9545C2.19318 13.1023 3.72727 11.2273 3.04545 10.5455C2.36364 9.86364 1 9.52273 1 8.5C1 7.47727 2.36364 7.13636 3.04545 6.45455C3.72727 5.77273 2.19318 3.89773 3.04545 3.04545C3.89773 2.19318 5.77273 3.72727 6.45455 3.04545C7.13636 2.36364 7.47727 1 8.5 1C9.52273 1 9.86364 2.36364 10.5455 3.04545C11.2273 3.72727 13.1023 2.19318 13.9545 3.04545C14.8068 3.89773 13.2727 5.77273 13.9545 6.45455C14.6364 7.13636 16 7.47727 16 8.5C16 9.52273 14.6364 9.86364 13.9545 10.5455Z" stroke="#0BDE07" stroke-width="1.5"/>
</svg>
