<svg width="24" height="24" viewBox="0 0 24 24" fill="none" xmlns="http://www.w3.org/2000/svg">
<path d="M17 15.41V17H5V8H5.62L6.62 6H9.19L10.38 8H17V10.59L18 9.59V7H11L10 5H6L5 7H4V18H18V16.41L17 15.41Z"/>
<path d="M19.2007 12.6724L19.6718 12.2111L19.439 11.6981L18.7815 11.7491C18.6604 11.6185 18.5392 11.4879 18.3667 11.3805L18.3903 10.7511L17.8682 10.5551L17.4717 11.0444C17.2712 11.0117 17.094 11.0303 16.9169 11.0489L16.4555 10.5777L15.9425 10.8106L15.9935 11.4681C15.8629 11.5892 15.7323 11.7104 15.625 11.8828L14.9956 11.8592L14.7995 12.3814L15.3122 12.8292C15.2794 13.0297 15.298 13.2068 15.3166 13.384L14.8222 13.7941L15.0551 14.3071L15.7125 14.2561C15.8337 14.3867 15.9548 14.5173 16.1273 14.6246L16.1037 15.254L16.6258 15.4501L17.0736 14.9374C17.2741 14.9701 17.4513 14.9516 17.6285 14.933L18.0385 15.4274L18.5515 15.1945L18.5005 14.5371C18.6311 14.4159 18.7617 14.2948 18.869 14.1223L19.4985 14.1459L19.6945 13.6238L19.1818 13.176C19.2379 13.0268 19.2193 12.8496 19.2007 12.6724ZM17.7128 14.0285C17.1485 14.2847 16.4772 14.0326 16.2211 13.4683C15.9649 12.9041 16.217 12.2328 16.7812 11.9766C17.3455 11.7204 18.0168 11.9725 18.273 12.5368C18.5291 13.1011 18.2771 13.7723 17.7128 14.0285Z"/>
</svg>
