<svg width="11" height="12" viewBox="0 0 11 12" fill="none" xmlns="http://www.w3.org/2000/svg">
<path d="M3.95219 3.50066C4.21541 3.48681 4.44003 3.68896 4.45389 3.95219L4.77207 9.99764C4.78592 10.2609 4.58377 10.4855 4.32054 10.4993C4.05731 10.5132 3.8327 10.311 3.81884 10.0478L3.50066 4.00236C3.48681 3.73913 3.68896 3.51451 3.95219 3.50066Z"/>
<path d="M6.86328 4.12012C6.87943 3.85703 6.67923 3.63066 6.41614 3.61451C6.15304 3.59836 5.92667 3.79855 5.91052 4.06165L5.54575 10.0049C5.5296 10.268 5.72979 10.4944 5.99289 10.5106C6.25598 10.5267 6.48235 10.3265 6.4985 10.0634L6.86328 4.12012Z"/>
<path fill-rule="evenodd" clip-rule="evenodd" d="M2.60457 0.235245C2.80999 0.0811795 3.0719 0 3.34091 0H7.15909C7.4281 0 7.69001 0.0811795 7.89543 0.235245C8.101 0.389419 8.27273 0.638844 8.27273 0.954545V2.22727H10.0227C10.2863 2.22727 10.5 2.44096 10.5 2.70455C10.5 2.96814 10.2863 3.18182 10.0227 3.18182H9.49536L8.65088 10.7821C8.58821 11.3461 8.11151 11.7727 7.54405 11.7727H2.63774C2.07029 11.7727 1.59358 11.3461 1.53092 10.7821L0.686456 3.18182H0.477273C0.213682 3.18182 0 2.96814 0 2.70455C0 2.44096 0.213682 2.22727 0.477273 2.22727H2.22727V0.954545C2.22727 0.638844 2.399 0.389419 2.60457 0.235245ZM7.31818 0.995653V2.22727H3.18182V0.995653C3.20864 0.977388 3.26312 0.954545 3.34091 0.954545H7.15909C7.23688 0.954545 7.29136 0.977388 7.31818 0.995653ZM8.53494 3.18182H1.64688L2.47963 10.6767C2.48858 10.7572 2.55668 10.8182 2.63774 10.8182H7.54405C7.62512 10.8182 7.69322 10.7572 7.70217 10.6767L8.53494 3.18182Z"/>
</svg>
