<svg width="25" height="24" viewBox="0 0 25 24" fill="none" xmlns="http://www.w3.org/2000/svg">
<path d="M17.6797 15.41V17H5.67969V8H6.29969L7.29969 6H9.86969L11.0597 8H17.6797V10.59L18.6797 9.59V7H11.6797L10.6797 5H6.67969L5.67969 7H4.67969V18H18.6797V16.41L17.6797 15.41Z"/>
<path d="M19.3846 11.4926L19.7464 11.1548L18.2473 11.1035L18.196 12.6027L18.8162 12.0235C19.2091 12.2371 19.4436 12.6953 19.4282 13.1451C19.4043 13.8447 18.8358 14.3756 18.1362 14.3517L18.1106 15.1012C19.21 15.1388 20.1402 14.2701 20.1778 13.1707C20.2 12.5211 19.8707 11.9095 19.3846 11.4926Z"/>
<path d="M15.9747 14.6792L15.613 15.0171L17.1121 15.0683L17.1634 13.5692L16.5432 14.1484C16.1503 13.9348 15.9158 13.4765 15.9312 13.0268C15.9551 12.3272 16.5236 11.7963 17.2231 11.8202L17.2488 11.0707C16.1494 11.0331 15.2192 11.9018 15.1816 13.0012C15.1594 13.6508 15.4887 14.2624 15.9747 14.6792Z"/>
</svg>
