<svg width="15" height="10" viewBox="0 0 15 10" fill="none" xmlns="http://www.w3.org/2000/svg">
<path d="M0.203125 1C0.203125 0.734784 0.325335 0.48043 0.54287 0.292893C0.760404 0.105357 1.05544 0 1.36308 0H12.9627C13.2703 0 13.5654 0.105357 13.7829 0.292893C14.0004 0.48043 14.1226 0.734784 14.1226 1C14.1226 1.26522 14.0004 1.51957 13.7829 1.70711C13.5654 1.89464 13.2703 2 12.9627 2H1.36308C1.05544 2 0.760404 1.89464 0.54287 1.70711C0.325335 1.51957 0.203125 1.26522 0.203125 1Z" fill="#A1B5C3"/>
<path d="M2.52344 5C2.52344 4.73478 2.64565 4.48043 2.86318 4.29289C3.08072 4.10536 3.37576 4 3.6834 4H10.6432C10.9508 4 11.2458 4.10536 11.4634 4.29289C11.6809 4.48043 11.8031 4.73478 11.8031 5C11.8031 5.26522 11.6809 5.51957 11.4634 5.70711C11.2458 5.89464 10.9508 6 10.6432 6H3.6834C3.37576 6 3.08072 5.89464 2.86318 5.70711C2.64565 5.51957 2.52344 5.26522 2.52344 5Z" fill="#A1B5C3"/>
<path d="M6.00371 8C5.69607 8 5.40103 8.10536 5.18349 8.29289C4.96596 8.48043 4.84375 8.73478 4.84375 9C4.84375 9.26522 4.96596 9.51957 5.18349 9.70711C5.40103 9.89464 5.69607 10 6.00371 10H8.32363C8.63127 10 8.92631 9.89464 9.14384 9.70711C9.36138 9.51957 9.48359 9.26522 9.48359 9C9.48359 8.73478 9.36138 8.48043 9.14384 8.29289C8.92631 8.10536 8.63127 8 8.32363 8H6.00371Z" fill="#A1B5C3"/>
</svg>
