<svg width="17" height="14" viewBox="0 0 17 14" fill="none" xmlns="http://www.w3.org/2000/svg">
<path fill-rule="evenodd" clip-rule="evenodd" d="M0 0.999403C0 0.447401 0.447643 0 0.999943 0H15.9999C16.5522 0 16.9999 0.447401 16.9999 0.999403V12.9929C16.9999 13.5449 16.5522 13.9925 15.9999 13.9925H0.999943C0.447643 13.9925 0 13.5449 0 12.9929V0.999403ZM15.9999 0.999403H0.999857V9.99454L3.85286 7.85601C4.25113 7.55751 4.8081 7.59717 5.16 7.94888L6.53696 9.32492L10.875 5.85622C11.2402 5.56425 11.7592 5.56425 12.1245 5.85622L15.9997 8.95483L15.9999 0.999403ZM0.999857 12.9929V11.2439L4.45286 8.65547L5.82981 10.0317C6.19008 10.3918 6.7638 10.4235 7.16156 10.1055L11.5 6.63677L16 10.2348V12.993L0.999857 12.9929ZM3.99986 3.99778C3.99986 3.44578 4.4475 2.99838 4.9998 2.99838C5.5521 2.99838 5.99991 3.44578 5.99991 3.99778C5.99991 4.54979 5.5521 4.99736 4.9998 4.99736C4.4475 4.99736 3.99986 4.54979 3.99986 3.99778ZM4.9998 1.99898C3.89524 1.99898 2.99991 2.89382 2.99991 3.99778C2.99991 5.10174 3.89524 5.99676 4.9998 5.99676C6.10436 5.99676 6.99986 5.10174 6.99986 3.99778C6.99986 2.89382 6.10436 1.99898 4.9998 1.99898Z" fill="#C4C4C4"/>
</svg>
