<svg width="30" height="20" viewBox="0 0 30 20" fill="none" xmlns="http://www.w3.org/2000/svg">
<path fill-rule="evenodd" clip-rule="evenodd" d="M4.91866 19.6131C2.15116 19.3023 0 16.9542 0 14.1037C0 11.0416 2.4823 8.55929 5.54438 8.55929L5.57267 8.55936C5.51969 8.22056 5.49219 7.87331 5.49219 7.51963C5.49219 3.83264 8.48108 0.84375 12.1681 0.84375C15.1015 0.84375 17.593 2.73568 18.4889 5.36589C18.9606 5.23541 19.4574 5.16569 19.9706 5.16569C23.0327 5.16569 25.515 7.64799 25.515 10.7101C25.515 10.7719 25.514 10.8334 25.512 10.8948C27.5777 11.2626 29.1461 13.0677 29.1461 15.2391C29.1461 17.6763 27.1704 19.652 24.7333 19.652C24.6339 19.652 24.5354 19.6487 24.4377 19.6423H5.79964C5.71503 19.6461 5.62993 19.648 5.54438 19.648C5.45883 19.648 5.37373 19.6461 5.28912 19.6423H4.91866V19.6131Z" fill="#FF5711"/>
<path d="M14.3325 9.59886C14.45 9.4844 14.6378 9.48563 14.7538 9.60161L19.1759 14.0208C19.365 14.2098 19.2312 14.533 18.9639 14.533H16.827V19.5164C16.827 19.6821 16.6927 19.8164 16.527 19.8164H12.7764C12.6107 19.8164 12.4764 19.6821 12.4764 19.5164V14.533H10.0027C9.73348 14.533 9.60053 14.2059 9.79342 14.0181L14.3325 9.59886Z" fill="white"/>
</svg>
