<svg width="20" height="20" viewBox="0 0 20 20" fill="none" xmlns="http://www.w3.org/2000/svg">
<path fill-rule="evenodd" clip-rule="evenodd" d="M12.9432 7.68266C13.0014 7.74072 13.0476 7.8097 13.0791 7.88564C13.1106 7.96158 13.1269 8.04299 13.1269 8.1252C13.1269 8.20742 13.1106 8.28883 13.0791 8.36477C13.0476 8.44071 13.0014 8.50969 12.9432 8.56775L9.19285 12.3181C9.13479 12.3763 9.06581 12.4225 8.98988 12.454C8.91394 12.4855 8.83253 12.5018 8.75031 12.5018C8.66809 12.5018 8.58668 12.4855 8.51074 12.454C8.4348 12.4225 8.36583 12.3763 8.30776 12.3181L6.43258 10.4429C6.37446 10.3848 6.32836 10.3158 6.29691 10.2399C6.26546 10.164 6.24927 10.0826 6.24927 10.0004C6.24927 9.9182 6.26546 9.83682 6.29691 9.76089C6.32836 9.68496 6.37446 9.61596 6.43258 9.55785C6.49069 9.49973 6.55968 9.45363 6.63562 9.42218C6.71155 9.39073 6.79293 9.37454 6.87512 9.37454C6.95731 9.37454 7.03869 9.39073 7.11462 9.42218C7.19056 9.45363 7.25955 9.49973 7.31766 9.55785L8.75031 10.9917L12.0581 7.68266C12.1162 7.62445 12.1852 7.57827 12.2611 7.54675C12.3371 7.51524 12.4185 7.49902 12.5007 7.49902C12.5829 7.49902 12.6643 7.51524 12.7403 7.54675C12.8162 7.57827 12.8852 7.62445 12.9432 7.68266Z"/>
<path d="M12.8415 3.14056L11.6902 1.96044L12.584 1.08785L13.3616 1.88418L14.4742 1.87043C14.9558 1.86473 15.4337 1.95539 15.8798 2.13707C16.3258 2.31875 16.7311 2.58779 17.0716 2.92836C17.4122 3.26894 17.6812 3.67417 17.8629 4.12024C18.0446 4.5663 18.1353 5.04419 18.1296 5.5258L18.1171 6.63841L18.9121 7.41599C19.2565 7.75249 19.5301 8.15442 19.7169 8.59817C19.9038 9.04192 20 9.51853 20 10C20 10.4815 19.9038 10.9581 19.7169 11.4018C19.5301 11.8456 19.2565 12.2475 18.9121 12.584L18.1158 13.3616L18.1296 14.4742C18.1353 14.9558 18.0446 15.4337 17.8629 15.8798C17.6812 16.3258 17.4122 16.7311 17.0716 17.0716C16.7311 17.4122 16.3258 17.6812 15.8798 17.8629C15.4337 18.0446 14.9558 18.1353 14.4742 18.1296L13.3616 18.1171L12.584 18.9121C12.2475 19.2565 11.8456 19.5301 11.4018 19.7169C10.9581 19.9038 10.4815 20 10 20C9.51853 20 9.04192 19.9038 8.59817 19.7169C8.15442 19.5301 7.75249 19.2565 7.41599 18.9121L6.63841 18.1158L5.5258 18.1296C5.04419 18.1353 4.5663 18.0446 4.12024 17.8629C3.67417 17.6812 3.26894 17.4122 2.92836 17.0716C2.58779 16.7311 2.31875 16.3258 2.13707 15.8798C1.95539 15.4337 1.86473 14.9558 1.87043 14.4742L1.88293 13.3616L1.08785 12.584C0.743494 12.2475 0.469867 11.8456 0.283051 11.4018C0.0962355 10.9581 0 10.4815 0 10C0 9.51853 0.0962355 9.04192 0.283051 8.59817C0.469867 8.15442 0.743494 7.75249 1.08785 7.41599L1.88418 6.63841L1.87043 5.5258C1.86473 5.04419 1.95539 4.5663 2.13707 4.12024C2.31875 3.67417 2.58779 3.26894 2.92836 2.92836C3.26894 2.58779 3.67417 2.31875 4.12024 2.13707C4.5663 1.95539 5.04419 1.86473 5.5258 1.87043L6.63841 1.88293L7.41599 1.08785C7.75249 0.743494 8.15442 0.469867 8.59817 0.283051C9.04192 0.0962355 9.51853 0 10 0C10.4815 0 10.9581 0.0962355 11.4018 0.283051C11.8456 0.469867 12.2475 0.743494 12.584 1.08785L11.6902 1.96044C11.4701 1.73515 11.2072 1.55613 10.917 1.43391C10.6267 1.31168 10.3149 1.24872 10 1.24872C9.68506 1.24872 9.3733 1.31168 9.08305 1.43391C8.79279 1.55613 8.5299 1.73515 8.30983 1.96044L7.15971 3.14056L5.50955 3.12056C5.19474 3.11704 4.8824 3.17647 4.59088 3.29536C4.29937 3.41425 4.03455 3.5902 3.81199 3.81288C3.58943 4.03555 3.41362 4.30046 3.29488 4.59204C3.17614 4.88362 3.11687 5.19599 3.12056 5.5108L3.14056 7.15846L1.96044 8.30983C1.73515 8.5299 1.55613 8.79279 1.43391 9.08305C1.31168 9.3733 1.24872 9.68506 1.24872 10C1.24872 10.3149 1.31168 10.6267 1.43391 10.917C1.55613 11.2072 1.73515 11.4701 1.96044 11.6902L3.14056 12.8403L3.12056 14.4905C3.11704 14.8053 3.17647 15.1176 3.29536 15.4091C3.41425 15.7006 3.5902 15.9655 3.81288 16.188C4.03555 16.4106 4.30046 16.5864 4.59204 16.7051C4.88362 16.8239 5.19599 16.8831 5.5108 16.8794L7.15846 16.8594L8.30983 18.0396C8.5299 18.2648 8.79279 18.4439 9.08305 18.5661C9.3733 18.6883 9.68506 18.7513 10 18.7513C10.3149 18.7513 10.6267 18.6883 10.917 18.5661C11.2072 18.4439 11.4701 18.2648 11.6902 18.0396L12.8403 16.8594L14.4905 16.8794C14.8053 16.883 15.1176 16.8235 15.4091 16.7046C15.7006 16.5857 15.9655 16.4098 16.188 16.1871C16.4106 15.9644 16.5864 15.6995 16.7051 15.408C16.8239 15.1164 16.8831 14.804 16.8794 14.4892L16.8594 12.8415L18.0396 11.6902C18.2648 11.4701 18.4439 11.2072 18.5661 10.917C18.6883 10.6267 18.7513 10.3149 18.7513 10C18.7513 9.68506 18.6883 9.3733 18.5661 9.08305C18.4439 8.79279 18.2648 8.5299 18.0396 8.30983L16.8594 7.15971L16.8794 5.50955C16.883 5.19474 16.8235 4.8824 16.7046 4.59088C16.5857 4.29937 16.4098 4.03455 16.1871 3.81199C15.9644 3.58943 15.6995 3.41362 15.408 3.29488C15.1164 3.17614 14.804 3.11687 14.4892 3.12056L12.8415 3.14056V3.14056Z"/>
</svg>
