<svg width="19" height="13" viewBox="0 0 19 13" fill="none" xmlns="http://www.w3.org/2000/svg">
<path d="M1 7.75C0.585786 7.75 0.25 8.08579 0.25 8.5C0.25 8.91421 0.585786 9.25 1 9.25V7.75ZM17.5 9.25C17.9142 9.25 18.25 8.91421 18.25 8.5C18.25 8.08579 17.9142 7.75 17.5 7.75V9.25ZM1 11.5C0.585786 11.5 0.25 11.8358 0.25 12.25C0.25 12.6642 0.585786 13 1 13V11.5ZM17.5 13C17.9142 13 18.25 12.6642 18.25 12.25C18.25 11.8358 17.9142 11.5 17.5 11.5V13ZM2.875 1.75H15.625V0.25H2.875V1.75ZM2.875 5.5H15.625V4H2.875V5.5ZM15.625 5.5C17.0747 5.5 18.25 4.32475 18.25 2.875H16.75C16.75 3.49632 16.2463 4 15.625 4V5.5ZM2.875 4C2.25368 4 1.75 3.49632 1.75 2.875H0.25C0.25 4.32475 1.42525 5.5 2.875 5.5V4ZM15.625 1.75C16.2463 1.75 16.75 2.25368 16.75 2.875H18.25C18.25 1.42525 17.0747 0.25 15.625 0.25V1.75ZM2.875 0.25C1.42525 0.25 0.25 1.42525 0.25 2.875H1.75C1.75 2.25368 2.25368 1.75 2.875 1.75V0.25ZM1 9.25H17.5V7.75H1V9.25ZM1 13H17.5V11.5H1V13Z" fill="#F1A81A"/>
</svg>
