<svg width="18" height="13" viewBox="0 0 18 13" fill="none" xmlns="http://www.w3.org/2000/svg">
<path fill-rule="evenodd" clip-rule="evenodd" d="M3.09467 0C1.66167 0 0.5 1.16167 0.5 2.59467V5.42521C0.5 6.8582 1.66167 8.01988 3.09467 8.01988H9.87477L10.3518 12.0749C10.4492 12.9029 11.5254 13.1611 11.9878 12.4674L13.0155 10.9259C13.2664 10.5494 13.6688 10.3008 14.1177 10.2447L16.3839 9.96138C17.1939 9.86013 17.458 8.81705 16.7937 8.34258L15.7911 7.62644C16.524 7.1679 17.0115 6.35348 17.0115 5.42521V2.59467C17.0115 1.16167 15.8498 0 14.4168 0H3.09467ZM14.3606 6.6046H14.4168C15.0682 6.6046 15.5962 6.07657 15.5962 5.42521V2.59467C15.5962 1.94331 15.0682 1.41527 14.4168 1.41527H3.09467C2.44331 1.41527 1.91527 1.94331 1.91527 2.59467V5.42521C1.91527 6.07657 2.44331 6.6046 3.09467 6.6046H9.70826L9.56786 5.41116C9.45783 4.47587 10.5098 3.85407 11.2761 4.40144L14.3606 6.6046ZM11.5926 10.5088L11.0606 5.98673L14.8898 8.72186L13.9422 8.84031C13.0851 8.94744 12.317 9.42214 11.8379 10.1408L11.5926 10.5088Z" fill="#00ACDD"/>
</svg>
