<svg width="24" height="24" viewBox="0 0 24 24" fill="none" xmlns="http://www.w3.org/2000/svg">
<path d="M17.25 14.4615C17.25 14.8758 17.5858 15.2115 18 15.2115C18.4142 15.2115 18.75 14.8758 18.75 14.4615H17.25ZM8.25 3.25C7.83579 3.25 7.5 3.58579 7.5 4C7.5 4.41421 7.83579 4.75 8.25 4.75V3.25ZM12.25 11.8462C12.25 11.4319 11.9142 11.0962 11.5 11.0962C11.0858 11.0962 10.75 11.4319 10.75 11.8462H12.25ZM10.75 17.0769C10.75 17.4911 11.0858 17.8269 11.5 17.8269C11.9142 17.8269 12.25 17.4911 12.25 17.0769H10.75ZM14.1 15.2115C14.5142 15.2115 14.85 14.8758 14.85 14.4615C14.85 14.0473 14.5142 13.7115 14.1 13.7115V15.2115ZM8.9 13.7115C8.48579 13.7115 8.15 14.0473 8.15 14.4615C8.15 14.8758 8.48579 15.2115 8.9 15.2115V13.7115ZM17.025 20.25H5.975V21.75H17.025V20.25ZM5.75 20.0192V4.98077H4.25V20.0192H5.75ZM5.975 4.75H10.2V3.25H5.975V4.75ZM17.25 11.8462V20.0192H18.75V11.8462H17.25ZM10.2 4.75C14.0894 4.75 17.25 7.92288 17.25 11.8462H18.75C18.75 7.10281 14.9262 3.25 10.2 3.25V4.75ZM5.975 20.25C5.8549 20.25 5.75 20.1509 5.75 20.0192H4.25C4.25 20.9709 5.01814 21.75 5.975 21.75V20.25ZM17.025 21.75C17.9819 21.75 18.75 20.9709 18.75 20.0192H17.25C17.25 20.1509 17.1451 20.25 17.025 20.25V21.75ZM5.75 4.98077C5.75 4.84914 5.8549 4.75 5.975 4.75V3.25C5.01814 3.25 4.25 4.02907 4.25 4.98077H5.75ZM18.75 14.4615V12.1731H17.25V14.4615H18.75ZM15.075 8.48077H13.775V9.98077H15.075V8.48077ZM13.55 8.25V6.94231H12.05V8.25H13.55ZM9.875 3.25H8.25V4.75H9.875V3.25ZM13.55 6.94231C13.55 4.90728 11.9088 3.25 9.875 3.25V4.75C11.0721 4.75 12.05 5.72735 12.05 6.94231H13.55ZM18.75 12.1731C18.75 10.138 17.1088 8.48077 15.075 8.48077V9.98077C16.2721 9.98077 17.25 10.9581 17.25 12.1731H18.75ZM13.775 8.48077C13.6549 8.48077 13.55 8.38163 13.55 8.25H12.05C12.05 9.2017 12.8181 9.98077 13.775 9.98077V8.48077ZM10.75 11.8462V17.0769H12.25V11.8462H10.75ZM14.1 13.7115H8.9V15.2115H14.1V13.7115Z" />
</svg>
