<svg width="24" height="24" viewBox="0 0 24 24" fill="none" xmlns="http://www.w3.org/2000/svg">
<path d="M7.25 19.7638C7.29922 16.9064 9.63088 14.6053 12.5 14.6053C15.3692 14.6053 17.7009 16.9065 17.75 19.764M5.9375 21.375H19.0625C21.2371 21.375 23 19.6121 23 17.4375V6.9375C23 4.76288 21.2371 3 19.0625 3H5.9375C3.76288 3 2 4.76288 2 6.9375V17.4375C2 19.6121 3.76288 21.375 5.9375 21.375ZM15.1254 9.5629C15.1254 11.0129 13.95 12.1883 12.5 12.1883C11.05 12.1883 9.8746 11.0129 9.8746 9.5629C9.8746 8.11293 11.05 6.9375 12.5 6.9375C13.95 6.9375 15.1254 8.11293 15.1254 9.5629Z" stroke="#0F172A" stroke-width="1.5" stroke-linecap="square" stroke-linejoin="round"/>
</svg>
