<svg width="11" height="11" viewBox="0 0 11 11" fill="none" xmlns="http://www.w3.org/2000/svg">
<path d="M2.32206 2.35352C2.5982 2.35352 2.82206 2.12966 2.82206 1.85352C2.82206 1.57737 2.5982 1.35352 2.32206 1.35352V2.35352ZM7.53023 1.35352C7.25409 1.35352 7.03023 1.57737 7.03023 1.85352C7.03023 2.12966 7.25409 2.35352 7.53023 2.35352V1.35352ZM5 9.35352C5.27614 9.35352 5.5 9.12966 5.5 8.85352C5.5 8.57737 5.27614 8.35352 5 8.35352V9.35352ZM8.5 5.72441C8.5 6.00056 8.72386 6.22441 9 6.22441C9.27614 6.22441 9.5 6.00056 9.5 5.72441H8.5ZM4.5 1.35352C4.22386 1.35352 4 1.57737 4 1.85352C4 2.12966 4.22386 2.35352 4.5 2.35352V1.35352ZM5.5 2.35352C5.77614 2.35352 6 2.12966 6 1.85352C6 1.57737 5.77614 1.35352 5.5 1.35352V2.35352ZM4 1.35352C4 1.07737 3.77614 0.853516 3.5 0.853516C3.22386 0.853516 3 1.07737 3 1.35352H4ZM3 2.35352V2.85352H4V2.35352H3ZM3 2.35352C2.72386 2.35352 2.5 2.57737 2.5 2.85352C2.5 3.12966 2.72386 3.35352 3 3.35352V2.35352ZM4 3.35352C4.27614 3.35352 4.5 3.12966 4.5 2.85352C4.5 2.57737 4.27614 2.35352 4 2.35352V3.35352ZM7 1.35352C7 1.07737 6.77614 0.853516 6.5 0.853516C6.22386 0.853516 6 1.07737 6 1.35352H7ZM6 2.35352V2.85352H7V2.35352H6ZM6 2.35352C5.72386 2.35352 5.5 2.57737 5.5 2.85352C5.5 3.12966 5.72386 3.35352 6 3.35352V2.35352ZM7 3.35352C7.27614 3.35352 7.5 3.12966 7.5 2.85352C7.5 2.57737 7.27614 2.35352 7 2.35352V3.35352ZM1 3.48608C0.723858 3.48608 0.5 3.70994 0.5 3.98608C0.5 4.26223 0.723858 4.48608 1 4.48608V3.48608ZM8.5 4.48608C8.77614 4.48608 9 4.26223 9 3.98608C9 3.70994 8.77614 3.48608 8.5 3.48608V4.48608ZM8 6.60352C8 6.32737 7.77614 6.10352 7.5 6.10352C7.22386 6.10352 7 6.32737 7 6.60352H8ZM7.70474 8.27159L8 7.86808L7.70474 8.27159ZM8.20474 9.25702C8.42759 9.42009 8.74044 9.37163 8.90351 9.14878C9.06658 8.92593 9.01812 8.61308 8.79526 8.45001L8.20474 9.25702ZM1.5 7.85352V2.85352H0.5V7.85352H1.5ZM2.06667 8.35352C1.72282 8.35352 1.5 8.09975 1.5 7.85352H0.5C0.5 8.71185 1.23231 9.35352 2.06667 9.35352V8.35352ZM7.93333 2.35352C8.27718 2.35352 8.5 2.60728 8.5 2.85352H9.5C9.5 1.99518 8.76769 1.35352 7.93333 1.35352V2.35352ZM2.06667 1.35352C1.23231 1.35352 0.5 1.99518 0.5 2.85352H1.5C1.5 2.60728 1.72282 2.35352 2.06667 2.35352V1.35352ZM2.06667 2.35352H2.32206V1.35352H2.06667V2.35352ZM7.53023 2.35352H7.93333V1.35352H7.53023V2.35352ZM5 8.35352H2.06667V9.35352H5V8.35352ZM8.5 2.85352V5.72441H9.5V2.85352H8.5ZM4.5 2.35352H5.5V1.35352H4.5V2.35352ZM3 1.35352V2.35352H4V1.35352H3ZM3 3.35352H4V2.35352H3V3.35352ZM6 1.35352V2.35352H7V1.35352H6ZM6 3.35352H7V2.35352H6V3.35352ZM1 4.48608H8.5V3.48608H1V4.48608ZM9.5 7.85352C9.5 8.95808 8.60457 9.85352 7.5 9.85352V10.8535C9.15685 10.8535 10.5 9.51037 10.5 7.85352H9.5ZM7.5 9.85352C6.39543 9.85352 5.5 8.95808 5.5 7.85352H4.5C4.5 9.51037 5.84314 10.8535 7.5 10.8535V9.85352ZM5.5 7.85352C5.5 6.74895 6.39543 5.85352 7.5 5.85352V4.85352C5.84315 4.85352 4.5 6.19666 4.5 7.85352H5.5ZM7.5 5.85352C8.60457 5.85352 9.5 6.74895 9.5 7.85352H10.5C10.5 6.19666 9.15685 4.85352 7.5 4.85352V5.85352ZM7 6.60352V7.86808H8V6.60352H7ZM7.40947 8.6751L8.20474 9.25702L8.79526 8.45001L8 7.86808L7.40947 8.6751ZM7 7.86808C7 8.18699 7.15211 8.48678 7.40947 8.6751L8 7.86808L8 7.86808H7Z" fill="#8A8A8A"/>
</svg>
