<svg width="24" height="24" viewBox="0 0 24 24" fill="none" xmlns="http://www.w3.org/2000/svg">
<path d="M20.3697 5.17258C20.603 4.83034 20.5147 4.36374 20.1725 4.1304C19.8303 3.89706 19.3637 3.98534 19.1303 4.32757L12.6502 13.8318C12.3854 14.2202 11.8326 14.272 11.5002 13.9396L8.78033 11.2197C8.48744 10.9268 8.01256 10.9268 7.71967 11.2197C7.42678 11.5126 7.42678 11.9875 7.71967 12.2804L10.4395 15.0003C11.4368 15.9975 13.0951 15.842 13.8895 14.6768L20.3697 5.17258Z" fill="#723614"/>
<path d="M5.75 5.50007C4.23122 5.50007 3 6.73129 3 8.25007V18.2501C3 19.7689 4.23122 21.0001 5.75 21.0001H16.75C18.2688 21.0001 19.5 19.7689 19.5 18.2501V12.2501C19.5 11.8359 19.1642 11.5001 18.75 11.5001C18.3358 11.5001 18 11.8359 18 12.2501V18.2501C18 18.9404 17.4404 19.5001 16.75 19.5001H5.75C5.05964 19.5001 4.5 18.9404 4.5 18.2501V8.25007C4.5 7.55972 5.05964 7.00007 5.75 7.00007H13.25C13.6642 7.00007 14 6.66429 14 6.25007C14 5.83586 13.6642 5.50007 13.25 5.50007H5.75Z" fill="#723614"/>
</svg>
