<svg width="24" height="37" viewBox="0 0 24 37" fill="none" xmlns="http://www.w3.org/2000/svg">
<path d="M17 15.41V17H5V8H5.62L6.62 6H9.19L10.38 8H17V10.59L18 9.59V7H11L10 5H6L5 7H4V18H18V16.41L17 15.41Z" fill="#1C2E45" fill-opacity="0.6"/>
<path d="M18.7049 11.4926L19.0667 11.1548L17.5676 11.1035L17.5163 12.6027L18.1365 12.0235C18.5294 12.2371 18.7639 12.6953 18.7485 13.1451C18.7246 13.8447 18.1561 14.3756 17.4565 14.3517L17.4309 15.1012C18.5303 15.1388 19.4605 14.2701 19.4981 13.1707C19.5203 12.5211 19.191 11.9095 18.7049 11.4926Z" fill="#1C2E45" fill-opacity="0.6"/>
<path d="M15.2951 14.6792L14.9333 15.0171L16.4324 15.0683L16.4837 13.5692L15.8635 14.1484C15.4706 13.9348 15.2361 13.4765 15.2515 13.0268C15.2754 12.3272 15.8439 11.7963 16.5435 11.8202L16.5691 11.0707C15.4697 11.0331 14.5395 11.9018 14.5019 13.0012C14.4797 13.6508 14.809 14.2624 15.2951 14.6792Z" fill="#1C2E45" fill-opacity="0.6"/>
<path d="M5.49164 27.614C5.54564 27.614 5.59214 27.635 5.63114 27.677L6.00914 28.091C5.74514 28.403 5.42264 28.6445 5.04164 28.8155C4.66364 28.9865 4.20764 29.072 3.67364 29.072C3.20564 29.072 2.78114 28.991 2.40014 28.829C2.02214 28.667 1.69814 28.4405 1.42814 28.1495C1.16114 27.8585 0.954141 27.5105 0.807141 27.1055C0.660141 26.7005 0.586641 26.255 0.586641 25.769C0.586641 25.283 0.663141 24.8375 0.816141 24.4325C0.972141 24.0275 1.18964 23.6795 1.46864 23.3885C1.74764 23.0975 2.08064 22.871 2.46764 22.709C2.85764 22.547 3.28814 22.466 3.75914 22.466C4.21814 22.466 4.62614 22.541 4.98314 22.691C5.34014 22.841 5.65064 23.0405 5.91464 23.2895L5.59964 23.735C5.57864 23.768 5.55164 23.795 5.51864 23.816C5.48864 23.837 5.44814 23.8475 5.39714 23.8475C5.34014 23.8475 5.27264 23.819 5.19464 23.762C5.11964 23.705 5.01914 23.642 4.89314 23.573C4.77014 23.501 4.61714 23.4365 4.43414 23.3795C4.25114 23.3225 4.02314 23.294 3.75014 23.294C3.42914 23.294 3.13514 23.351 2.86814 23.465C2.60114 23.576 2.37014 23.738 2.17514 23.951C1.98314 24.161 1.83314 24.4205 1.72514 24.7295C1.62014 25.0355 1.56764 25.382 1.56764 25.769C1.56764 26.162 1.62314 26.5115 1.73414 26.8175C1.84514 27.1235 1.99814 27.383 2.19314 27.596C2.38814 27.809 2.61764 27.971 2.88164 28.082C3.14564 28.193 3.43064 28.2485 3.73664 28.2485C3.92264 28.2485 4.08914 28.238 4.23614 28.217C4.38614 28.193 4.52264 28.1585 4.64564 28.1135C4.77164 28.0685 4.89014 28.0115 5.00114 27.9425C5.11214 27.8705 5.22164 27.785 5.32964 27.686C5.35364 27.665 5.37914 27.6485 5.40614 27.6365C5.43314 27.6215 5.46164 27.614 5.49164 27.614ZM9.65289 24.356C9.98889 24.356 10.2919 24.4115 10.5619 24.5225C10.8349 24.6305 11.0659 24.788 11.2549 24.995C11.4469 25.199 11.5939 25.4465 11.6959 25.7375C11.7979 26.0255 11.8489 26.3495 11.8489 26.7095C11.8489 27.0695 11.7979 27.395 11.6959 27.686C11.5939 27.977 11.4469 28.2245 11.2549 28.4285C11.0659 28.6325 10.8349 28.79 10.5619 28.901C10.2919 29.009 9.98889 29.063 9.65289 29.063C9.31389 29.063 9.00789 29.009 8.73489 28.901C8.46489 28.79 8.23389 28.6325 8.04189 28.4285C7.84989 28.2245 7.70139 27.977 7.59639 27.686C7.49439 27.395 7.44339 27.0695 7.44339 26.7095C7.44339 26.3495 7.49439 26.0255 7.59639 25.7375C7.70139 25.4465 7.84989 25.199 8.04189 24.995C8.23389 24.788 8.46489 24.6305 8.73489 24.5225C9.00789 24.4115 9.31389 24.356 9.65289 24.356ZM9.65289 28.379C10.0849 28.379 10.4074 28.2335 10.6204 27.9425C10.8334 27.6515 10.9399 27.242 10.9399 26.714C10.9399 26.186 10.8334 25.7765 10.6204 25.4855C10.4074 25.1915 10.0849 25.0445 9.65289 25.0445C9.21489 25.0445 8.88789 25.1915 8.67189 25.4855C8.45889 25.7765 8.35239 26.186 8.35239 26.714C8.35239 27.242 8.45889 27.6515 8.67189 27.9425C8.88789 28.2335 9.21489 28.379 9.65289 28.379ZM14.7059 27.875C14.8499 28.064 15.0044 28.196 15.1694 28.271C15.3374 28.346 15.5249 28.3835 15.7319 28.3835C16.1339 28.3835 16.4444 28.2395 16.6634 27.9515C16.8854 27.6605 16.9964 27.2375 16.9964 26.6825C16.9964 26.3915 16.9709 26.144 16.9199 25.94C16.8719 25.733 16.7999 25.565 16.7039 25.436C16.6109 25.304 16.4954 25.208 16.3574 25.148C16.2194 25.085 16.0634 25.0535 15.8894 25.0535C15.6344 25.0535 15.4124 25.1105 15.2234 25.2245C15.0374 25.3385 14.8649 25.5005 14.7059 25.7105V27.875ZM14.6609 25.112C14.7569 24.998 14.8589 24.8945 14.9669 24.8015C15.0779 24.7055 15.1964 24.6245 15.3224 24.5585C15.4484 24.4895 15.5819 24.437 15.7229 24.401C15.8669 24.362 16.0199 24.3425 16.1819 24.3425C16.4429 24.3425 16.6784 24.3935 16.8884 24.4955C17.1014 24.5975 17.2829 24.7475 17.4329 24.9455C17.5829 25.1435 17.6984 25.388 17.7794 25.679C17.8634 25.97 17.9054 26.3045 17.9054 26.6825C17.9054 27.0215 17.8589 27.3365 17.7659 27.6275C17.6759 27.9155 17.5454 28.166 17.3744 28.379C17.2064 28.592 16.9994 28.76 16.7534 28.883C16.5104 29.003 16.2359 29.063 15.9299 29.063C15.6569 29.063 15.4229 29.018 15.2279 28.928C15.0329 28.838 14.8589 28.712 14.7059 28.55V30.5345H13.8284V24.428H14.3549C14.4779 24.428 14.5544 24.4865 14.5844 24.6035L14.6609 25.112ZM23.7639 24.428L21.2259 30.3275C21.1989 30.3935 21.1629 30.4445 21.1179 30.4805C21.0729 30.5165 21.0069 30.5345 20.9199 30.5345H20.2674L21.1044 28.712L19.2279 24.428H19.9929C20.0679 24.428 20.1264 24.446 20.1684 24.482C20.2104 24.518 20.2404 24.5585 20.2584 24.6035L21.4194 27.3485C21.4434 27.4175 21.4659 27.488 21.4869 27.56C21.5109 27.629 21.5304 27.698 21.5454 27.767C21.5664 27.695 21.5889 27.6245 21.6129 27.5555C21.6369 27.4835 21.6624 27.413 21.6894 27.344L22.8099 24.6035C22.8309 24.5525 22.8639 24.5105 22.9089 24.4775C22.9539 24.4445 23.0049 24.428 23.0619 24.428H23.7639Z" fill="#3C3C3C"/>
</svg>
