<svg width="63" height="63" viewBox="0 0 63 63" fill="none" xmlns="http://www.w3.org/2000/svg">
<path d="M47.25 30.5913C47.25 18.0455 37.7305 7.875 25.9875 7.875H14.4703C13.0024 7.875 11.8125 9.14631 11.8125 10.7145V54.2542C11.8125 55.8224 13.0024 57.0938 14.4703 57.0938H47.6414M20.6719 7.875H25.1016C29.5052 7.875 33.075 11.6889 33.075 16.3936V20.1797C33.075 21.7479 34.2649 23.0192 35.7328 23.0192H39.2766C43.6802 23.0192 47.25 26.8332 47.25 31.5379V36.4219" stroke-width="2" stroke-linecap="round" stroke-linejoin="round"/>
<path d="M47.25 43.9687V50.5312M50.5312 47.25H43.9687M57.0938 47.25C57.0938 52.6866 52.6866 57.0938 47.25 57.0938C41.8134 57.0938 37.4062 52.6866 37.4062 47.25C37.4062 41.8134 41.8134 37.4062 47.25 37.4062C52.6866 37.4062 57.0938 41.8134 57.0938 47.25Z" stroke-width="2" stroke-linecap="round" stroke-linejoin="round"/>
<path d="M20.7191 37.1775L16.4327 30.2956C16.2252 29.9625 16.4647 29.5312 16.8571 29.5312H18.7253C18.9181 29.5312 19.0558 29.5603 19.1385 29.6184C19.228 29.6692 19.3072 29.7564 19.3761 29.8798L22.7749 35.6635C22.8094 35.5691 22.8472 35.4783 22.8886 35.3912C22.9299 35.2968 22.9781 35.2024 23.0332 35.108L26.1428 29.9343C26.2943 29.6656 26.4906 29.5312 26.7316 29.5312H28.4836C28.8787 29.5312 29.1177 29.9679 28.9048 30.3007L24.5828 37.0577L29.0753 44.5235C29.2758 44.8567 29.0358 45.2812 28.6468 45.2812H26.7523C26.5663 45.2812 26.4148 45.2304 26.2977 45.1288C26.1875 45.0271 26.0945 44.9109 26.0188 44.7802L22.558 38.746C22.5304 38.8331 22.4994 38.9166 22.465 38.9965C22.4306 39.0691 22.3961 39.1381 22.3617 39.2035L19.0455 44.7802C18.9698 44.9037 18.8768 45.0198 18.7666 45.1288C18.6564 45.2304 18.5186 45.2812 18.3534 45.2812H16.6431C16.2523 45.2812 16.0126 44.853 16.2169 44.5199L20.7191 37.1775Z"/>
<path d="M33.4688 31.5H31.5" stroke-width="2" stroke-linecap="round"/>
<path d="M39.375 31.5H37.4062" stroke-width="2" stroke-linecap="round"/>
<path d="M33.4688 37.4062H31.5" stroke-width="2" stroke-linecap="round"/>
<path d="M38.3906 37.4062H37.4062" stroke-width="2" stroke-linecap="round"/>
<path d="M33.4688 43.3125H31.5" stroke-width="2" stroke-linecap="round"/>
</svg>
