<svg width="63" height="63" viewBox="0 0 63 63" fill="none" xmlns="http://www.w3.org/2000/svg">
<path d="M26.25 31.5H20.6875C20.1352 31.5 19.6875 31.9477 19.6875 32.5V38.0625M26.25 31.5H39.6875C40.2398 31.5 40.6875 31.9477 40.6875 32.5V38.0625M26.25 31.5V49.875M26.25 49.875H39.6875C40.2398 49.875 40.6875 49.4273 40.6875 48.875V43.9687M26.25 49.875H20.6875C20.1352 49.875 19.6875 49.4273 19.6875 48.875V43.9687M19.6875 38.0625H40.6875M19.6875 38.0625V43.9687M40.6875 38.0625V43.9687M19.6875 43.9687H40.6875" stroke-width="2"/>
<path d="M47.25 38.1635V31.5379C47.25 26.8332 43.6802 23.0192 39.2766 23.0192H35.7328C34.2649 23.0192 33.075 21.7479 33.075 20.1797V16.3936C33.075 11.6889 29.5052 7.875 25.1016 7.875H20.6719M25.9875 7.875H14.4703C13.0024 7.875 11.8125 9.14631 11.8125 10.7145V54.2542C11.8125 55.8224 13.0024 57.0938 14.4703 57.0938H44.5922C46.0601 57.0938 47.25 55.8224 47.25 54.2542V30.5913C47.25 18.0455 37.7305 7.875 25.9875 7.875Z" stroke-width="2" stroke-linecap="round" stroke-linejoin="round"/>
</svg>
