<svg width="62" height="62" viewBox="0 0 62 62" fill="none" xmlns="http://www.w3.org/2000/svg">
<path fill-rule="evenodd" clip-rule="evenodd" d="M13 10.7945C13 9.74008 13.7846 9 14.6156 9H20.7188H25.0781C28.7983 9 31.925 12.2423 31.925 16.3834V20.1094C31.925 22.1417 33.4825 23.9038 35.5406 23.9038H39.0281C42.7483 23.9038 45.875 27.1462 45.875 31.2873V35.8305C40.2633 36.1541 35.8125 40.8073 35.8125 46.5C35.8125 50.2377 37.7312 53.5273 40.6374 55.4375H14.6156C13.7846 55.4375 13 54.6974 13 53.643V10.7945ZM48.0272 57.0792C47.8437 57.2982 47.5682 57.4375 47.2602 57.4375H14.6156C12.5575 57.4375 11 55.6753 11 53.643V10.7945C11 8.76217 12.5575 7 14.6156 7H20.7188H25.0781H25.95C38.1201 7 47.875 17.5201 47.875 30.3558C47.875 30.4325 47.8664 30.5072 47.85 30.579C47.8666 30.813 47.875 31.0492 47.875 31.2873V35.9001C53.1281 36.5748 57.1875 41.0634 57.1875 46.5C57.1875 51.884 53.2063 56.3382 48.0272 57.0792ZM33.925 16.3834C33.925 13.8416 32.9635 11.5105 31.3897 9.80752C37.9849 11.8121 43.218 17.3708 45.1108 24.4724C43.5344 22.8856 41.4019 21.9038 39.0281 21.9038H35.5406C34.7096 21.9038 33.925 21.1638 33.925 20.1094V16.3834ZM37.8125 46.5C37.8125 41.702 41.702 37.8125 46.5 37.8125C51.298 37.8125 55.1875 41.702 55.1875 46.5C55.1875 51.298 51.298 55.1875 46.5 55.1875C41.702 55.1875 37.8125 51.298 37.8125 46.5ZM47.5 43.2708C47.5 42.7185 47.0523 42.2708 46.5 42.2708C45.9477 42.2708 45.5 42.7185 45.5 43.2708V45.5H43.2708C42.7185 45.5 42.2708 45.9477 42.2708 46.5C42.2708 47.0523 42.7185 47.5 43.2708 47.5H45.5V49.7292C45.5 50.2815 45.9477 50.7292 46.5 50.7292C47.0523 50.7292 47.5 50.2815 47.5 49.7292V47.5H49.7292C50.2815 47.5 50.7292 47.0523 50.7292 46.5C50.7292 45.9477 50.2815 45.5 49.7292 45.5H47.5V43.2708ZM16.8125 29.3125C16.8125 28.7602 17.2602 28.3125 17.8125 28.3125H27.5C28.0523 28.3125 28.5 28.7602 28.5 29.3125C28.5 29.8648 28.0523 30.3125 27.5 30.3125H17.8125C17.2602 30.3125 16.8125 29.8648 16.8125 29.3125ZM31 28.0625C30.4477 28.0625 30 28.5102 30 29.0625C30 29.6148 30.4477 30.0625 31 30.0625H32.9375C33.4898 30.0625 33.9375 29.6148 33.9375 29.0625C33.9375 28.5102 33.4898 28.0625 32.9375 28.0625H31ZM16.4375 36.8125C16.4375 36.2602 16.8852 35.8125 17.4375 35.8125H27.125C27.6773 35.8125 28.125 36.2602 28.125 36.8125C28.125 37.3648 27.6773 37.8125 27.125 37.8125H17.4375C16.8852 37.8125 16.4375 37.3648 16.4375 36.8125ZM31 35.8125C30.4477 35.8125 30 36.2602 30 36.8125C30 37.3648 30.4477 37.8125 31 37.8125H32.9375C33.4898 37.8125 33.9375 37.3648 33.9375 36.8125C33.9375 36.2602 33.4898 35.8125 32.9375 35.8125H31ZM16.4375 44.5625C16.4375 44.0102 16.8852 43.5625 17.4375 43.5625H27.125C27.6773 43.5625 28.125 44.0102 28.125 44.5625C28.125 45.1148 27.6773 45.5625 27.125 45.5625H17.4375C16.8852 45.5625 16.4375 45.1148 16.4375 44.5625ZM31 43.5625C30.4477 43.5625 30 44.0102 30 44.5625C30 45.1148 30.4477 45.5625 31 45.5625H32.9375C33.4898 45.5625 33.9375 45.1148 33.9375 44.5625C33.9375 44.0102 33.4898 43.5625 32.9375 43.5625H31Z"/>
</svg>
