<svg width="24" height="24" viewBox="0 0 24 24" fill="none" xmlns="http://www.w3.org/2000/svg">
<path fill-rule="evenodd" clip-rule="evenodd" d="M2.0014 6.17696H2V16.4227H2.0061C2.05786 17.0905 2.43361 17.6987 2.9159 18.2017C3.44728 18.7559 4.18428 19.2653 5.05145 19.6976C6.78878 20.5636 9.15399 21.1726 11.75 21.1726C14.3219 21.1726 16.6747 20.6859 18.4098 19.9411C19.2751 19.5697 20.0191 19.1203 20.5593 18.607C21.0423 18.1482 21.4225 17.5776 21.4895 16.9226H21.5V6.19549C21.4795 5.50578 21.0411 4.92147 20.5383 4.47891C20.0018 4.00672 19.2639 3.58011 18.4026 3.221C16.6746 2.5005 14.3255 2 11.75 2C9.17455 2 6.82542 2.5005 5.09741 3.221C4.23613 3.58011 3.49822 4.00672 2.96174 4.47891C2.46343 4.9175 2.02911 5.49531 2.0014 6.17696ZM3.5 6.24602C3.5 6.17804 3.55699 5.95326 3.95279 5.60489C4.32716 5.27538 4.90727 4.92545 5.67467 4.60548C7.20402 3.96781 9.35489 3.5 11.75 3.5C14.1451 3.5 16.296 3.96781 17.8253 4.60548C18.5927 4.92545 19.1728 5.27538 19.5472 5.60489C19.943 5.95326 20 6.17804 20 6.24602C20 6.30191 19.956 6.5036 19.5691 6.81866C19.2007 7.1187 18.6248 7.43193 17.855 7.71515C16.3223 8.27903 14.162 8.67249 11.75 8.67249C9.338 8.67249 7.17769 8.27903 5.645 7.71515C4.87517 7.43193 4.29928 7.1187 3.93087 6.81866C3.54399 6.5036 3.5 6.30191 3.5 6.24602ZM20 9.92259V8.34868C19.5368 8.63876 18.9844 8.89793 18.3729 9.1229C16.6482 9.75741 14.3086 10.1725 11.75 10.1725C9.19144 10.1725 6.85175 9.75741 5.12708 9.1229C4.51557 8.89793 3.96322 8.63875 3.5 8.34868V9.92259C3.5 11.0812 4.27152 12.2516 5.77713 13.1717C7.26986 14.0839 9.37972 14.6726 11.75 14.6726C14.1203 14.6726 16.2301 14.0839 17.7229 13.1717C19.2285 12.2516 20 11.0812 20 9.92259ZM3.5 13.281C3.93094 13.7183 4.43717 14.1108 4.99495 14.4516C6.75958 15.53 9.14971 16.1726 11.75 16.1726C14.3503 16.1726 16.7404 15.53 18.505 14.4516C19.0628 14.1108 19.5691 13.7183 20 13.281V16.7168C20 16.8847 19.9041 17.1605 19.5261 17.5196C19.1555 17.8717 18.5815 18.2351 17.8181 18.5627C16.2959 19.2161 14.1487 19.6726 11.75 19.6726C9.37544 19.6726 7.24065 19.1128 5.72063 18.3551C4.95911 17.9755 4.3781 17.5594 3.99863 17.1636C3.60762 16.7558 3.5 16.4457 3.5 16.2656V13.281Z" />
</svg>
