<svg width="24" height="24" viewBox="0 0 24 24" fill="none" xmlns="http://www.w3.org/2000/svg">
<path d="M8.5 2.75C8.5 2.33579 8.16421 2 7.75 2C7.33579 2 7 2.33579 7 2.75V5H6.75C6.33579 5 6 5.33579 6 5.75C6 6.16421 6.33579 6.5 6.75 6.5H8.75C9.16421 6.5 9.5 6.16421 9.5 5.75C9.5 5.33579 9.16421 5 8.75 5H8.5V2.75Z" fill="#F1A81A"/>
<path d="M16.5 13.25C16.5 12.8358 16.1642 12.5 15.75 12.5C15.3358 12.5 15 12.8358 15 13.25V15.7791C15 16.3372 15.2662 16.8618 15.7166 17.1914L17.3071 18.3553C17.6414 18.5999 18.1107 18.5272 18.3553 18.1929C18.5999 17.8586 18.5272 17.3893 18.1929 17.1447L16.6024 15.9809C16.538 15.9338 16.5 15.8589 16.5 15.7791V13.25Z" fill="#F1A81A"/>
<path fill-rule="evenodd" clip-rule="evenodd" d="M2 5.75C2 4.18636 3.33724 3 4.88333 3H5.39412C5.80834 3 6.14412 3.33579 6.14412 3.75C6.14412 4.16421 5.80834 4.5 5.39412 4.5H4.88333C4.07301 4.5 3.5 5.10451 3.5 5.75V7.26514H17.75C17.8377 7.26514 17.9218 7.28018 18 7.30781V5.75C18 5.1045 17.427 4.5 16.6167 4.5H15.8105C15.3962 4.5 15.0605 4.16421 15.0605 3.75C15.0605 3.33579 15.3962 3 15.8105 3H16.6167C18.1628 3 19.5 4.18636 19.5 5.75V11.391C20.7246 12.4454 21.5 14.0072 21.5 15.75C21.5 18.9256 18.9256 21.5 15.75 21.5C13.5705 21.5 11.6742 20.2874 10.699 18.5H4.88333C3.33724 18.5 2 17.3136 2 15.75V5.75ZM18 8.72246V10.4569C17.3089 10.1628 16.5485 10 15.75 10C12.5744 10 10 12.5744 10 15.75C10 16.1793 10.047 16.5976 10.1363 17H4.88333C4.07301 17 3.5 16.3955 3.5 15.75V8.76514H17.75C17.8377 8.76514 17.9218 8.7501 18 8.72246ZM15.75 11.5C13.4028 11.5 11.5 13.4028 11.5 15.75C11.5 18.0972 13.4028 20 15.75 20C18.0972 20 20 18.0972 20 15.75C20 13.4028 18.0972 11.5 15.75 11.5Z" fill="#F1A81A"/>
<path d="M9 3.75C9 3.33579 9.33579 3 9.75 3H11.75C12.1642 3 12.5 3.33579 12.5 3.75C12.5 4.16421 12.1642 4.5 11.75 4.5H9.75C9.33579 4.5 9 4.16421 9 3.75Z" fill="#F1A81A"/>
<path d="M14.5 2.75C14.5 2.33579 14.1642 2 13.75 2C13.3358 2 13 2.33579 13 2.75V5H12.75C12.3358 5 12 5.33579 12 5.75C12 6.16421 12.3358 6.5 12.75 6.5H14.75C15.1642 6.5 15.5 6.16421 15.5 5.75C15.5 5.33579 15.1642 5 14.75 5H14.5V2.75Z" fill="#F1A81A"/>
</svg>
