<svg width="15" height="16" viewBox="0 0 15 16" fill="none" xmlns="http://www.w3.org/2000/svg">
<path d="M7.5 1.0957C8.01884 1.09567 8.51802 1.29417 8.89514 1.6505C9.27227 2.00682 9.49875 2.49395 9.52812 3.01195L9.53125 3.12695H12.8125C12.9313 3.12699 13.0456 3.17211 13.1324 3.25319C13.2192 3.33427 13.2719 3.44526 13.28 3.56375C13.2881 3.68224 13.2509 3.79939 13.176 3.89152C13.101 3.98364 12.9939 4.04389 12.8762 4.06008L12.8125 4.06445H12.315L11.515 12.202C11.4749 12.6076 11.2919 12.9859 10.9987 13.2691C10.7055 13.5524 10.3212 13.7222 9.91438 13.7482L9.80437 13.752H5.19562C4.78779 13.7519 4.39324 13.6069 4.0825 13.3428C3.77176 13.0786 3.56507 12.7126 3.49937 12.3101L3.485 12.2013L2.68438 4.06445H2.1875C2.07423 4.06445 1.96479 4.02343 1.87942 3.94897C1.79405 3.87452 1.73853 3.77167 1.72312 3.65945L1.71875 3.5957C1.71875 3.48243 1.75978 3.37299 1.83423 3.28762C1.90868 3.20225 2.01153 3.14673 2.12375 3.13133L2.1875 3.12695H5.46875C5.46875 2.58823 5.68276 2.07158 6.06369 1.69064C6.44462 1.30971 6.96128 1.0957 7.5 1.0957ZM11.3731 4.06445H3.62625L4.41812 12.1095C4.43566 12.289 4.51476 12.4569 4.64201 12.5847C4.76927 12.7125 4.93682 12.7924 5.11625 12.8107L5.19562 12.8145H9.80437C10.1794 12.8145 10.4975 12.5488 10.57 12.1882L10.5825 12.1095L11.3725 4.06445H11.3731ZM8.59375 5.7832C8.70702 5.78321 8.81646 5.82423 8.90183 5.89868C8.9872 5.97313 9.04272 6.07598 9.05813 6.1882L9.0625 6.25195V10.627C9.06246 10.7457 9.01735 10.86 8.93627 10.9468C8.85519 11.0336 8.74419 11.0864 8.6257 11.0945C8.50721 11.1026 8.39007 11.0654 8.29794 10.9904C8.20581 10.9155 8.14556 10.8084 8.12937 10.6907L8.125 10.627V6.25195C8.125 6.12763 8.17439 6.0084 8.26229 5.9205C8.3502 5.83259 8.46943 5.7832 8.59375 5.7832ZM6.40625 5.7832C6.51952 5.78321 6.62896 5.82423 6.71433 5.89868C6.7997 5.97313 6.85522 6.07598 6.87063 6.1882L6.875 6.25195V10.627C6.87496 10.7457 6.82985 10.86 6.74877 10.9468C6.66769 11.0336 6.55669 11.0864 6.4382 11.0945C6.31971 11.1026 6.20257 11.0654 6.11044 10.9904C6.01831 10.9155 5.95806 10.8084 5.94187 10.6907L5.9375 10.627V6.25195C5.9375 6.12763 5.98689 6.0084 6.07479 5.9205C6.1627 5.83259 6.28193 5.7832 6.40625 5.7832ZM7.5 2.0332C7.22551 2.03321 6.96105 2.13644 6.75913 2.32238C6.55721 2.50832 6.43259 2.76339 6.41 3.03695L6.40625 3.12695H8.59375C8.59375 2.83687 8.47852 2.55867 8.2734 2.35356C8.06828 2.14844 7.79008 2.0332 7.5 2.0332Z" fill="#A9BBC9"/>
</svg>
