<svg width="24" height="24" viewBox="0 0 24 24" fill="none" xmlns="http://www.w3.org/2000/svg">
<path d="M10.2106 8.50104C10.6242 8.47927 10.9772 8.79694 10.999 9.21058L11.499 18.7106C11.5207 19.1242 11.2031 19.4772 10.7894 19.499C10.3758 19.5207 10.0228 19.2031 10.001 18.7894L9.50104 9.28942C9.47927 8.87578 9.79694 8.52281 10.2106 8.50104Z" />
<path d="M14.7851 9.47448C14.8105 9.06104 14.4959 8.70532 14.0825 8.67994C13.6691 8.65457 13.3133 8.96915 13.288 9.38259L12.7147 18.722C12.6894 19.1355 13.004 19.4912 13.4174 19.5166C13.8308 19.542 14.1866 19.2274 14.2119 18.8139L14.7851 9.47448Z" />
<path fill-rule="evenodd" clip-rule="evenodd" d="M8.09289 3.36967C8.4157 3.12757 8.82727 3 9.25 3H15.25C15.6727 3 16.0843 3.12757 16.4071 3.36967C16.7301 3.61194 17 4.0039 17 4.5V6.5H19.75C20.1642 6.5 20.5 6.83579 20.5 7.25C20.5 7.66421 20.1642 8 19.75 8H18.9213L17.5942 19.9433C17.4958 20.8295 16.7467 21.5 15.8549 21.5H8.14503C7.25332 21.5 6.5042 20.8295 6.40573 19.9433L5.07872 8H4.75C4.33579 8 4 7.66421 4 7.25C4 6.83579 4.33579 6.5 4.75 6.5H7.5V4.5C7.5 4.0039 7.76986 3.61194 8.09289 3.36967ZM15.5 4.5646V6.5H9V4.5646C9.04215 4.53589 9.12777 4.5 9.25 4.5H15.25C15.3722 4.5 15.4579 4.53589 15.5 4.5646ZM17.4121 8H6.58795L7.89656 19.7776C7.91062 19.9042 8.01764 20 8.14503 20H15.8549C15.9823 20 16.0893 19.9042 16.1034 19.7776L17.4121 8Z" />
</svg>
