<svg width="32" height="37" viewBox="0 0 32 37" fill="none" xmlns="http://www.w3.org/2000/svg">
<path d="M21 15.41V17H9V8H9.62L10.62 6H13.19L14.38 8H21V10.59L22 9.59V7H15L14 5H10L9 7H8V18H22V16.41L21 15.41Z" fill="#1C2E45" fill-opacity="0.6"/>
<path d="M24 11L23 10L21 12L19 10L18 11L20 13L18 15L19 16L21 14L23 16L24 15L22 13L24 11Z" fill="#1C2E45" fill-opacity="0.6"/>
<path d="M6.72064 25.769C6.72064 26.252 6.64264 26.6915 6.48664 27.0875C6.33364 27.4835 6.11614 27.824 5.83414 28.109C5.55214 28.391 5.21464 28.61 4.82164 28.766C4.42864 28.922 3.99214 29 3.51214 29H1.08214V22.538H3.51214C3.99214 22.538 4.42864 22.616 4.82164 22.772C5.21464 22.928 5.55214 23.1485 5.83414 23.4335C6.11614 23.7155 6.33364 24.056 6.48664 24.455C6.64264 24.851 6.72064 25.289 6.72064 25.769ZM5.73964 25.769C5.73964 25.385 5.68714 25.0415 5.58214 24.7385C5.47714 24.4325 5.32714 24.1745 5.13214 23.9645C4.94014 23.7515 4.70614 23.5895 4.43014 23.4785C4.15714 23.3675 3.85114 23.312 3.51214 23.312H2.04514V28.226H3.51214C3.85114 28.226 4.15714 28.1705 4.43014 28.0595C4.70614 27.9485 4.94014 27.788 5.13214 27.578C5.32714 27.365 5.47714 27.107 5.58214 26.804C5.68714 26.501 5.73964 26.156 5.73964 25.769ZM11.7158 26.2055C11.7158 26.0315 11.6903 25.871 11.6393 25.724C11.5913 25.577 11.5193 25.4495 11.4233 25.3415C11.3273 25.2335 11.2103 25.1495 11.0723 25.0895C10.9343 25.0295 10.7753 24.9995 10.5953 24.9995C10.2263 24.9995 9.9353 25.106 9.7223 25.319C9.5123 25.532 9.3788 25.8275 9.3218 26.2055H11.7158ZM12.4403 28.3475C12.3323 28.4735 12.2078 28.583 12.0668 28.676C11.9258 28.766 11.7758 28.8395 11.6168 28.8965C11.4578 28.9535 11.2928 28.9955 11.1218 29.0225C10.9538 29.0495 10.7873 29.063 10.6223 29.063C10.3073 29.063 10.0148 29.0105 9.7448 28.9055C9.4778 28.7975 9.2453 28.6415 9.0473 28.4375C8.8523 28.2305 8.6993 27.9755 8.5883 27.6725C8.4803 27.3665 8.4263 27.0155 8.4263 26.6195C8.4263 26.3015 8.4758 26.006 8.5748 25.733C8.6738 25.457 8.8148 25.217 8.9978 25.013C9.1838 24.809 9.4103 24.6485 9.6773 24.5315C9.9443 24.4145 10.2443 24.356 10.5773 24.356C10.8563 24.356 11.1128 24.4025 11.3468 24.4955C11.5838 24.5855 11.7878 24.7175 11.9588 24.8915C12.1298 25.0655 12.2633 25.28 12.3593 25.535C12.4583 25.79 12.5078 26.081 12.5078 26.408C12.5078 26.543 12.4928 26.6345 12.4628 26.6825C12.4328 26.7275 12.3773 26.75 12.2963 26.75H9.2993C9.3083 27.023 9.3473 27.2615 9.4163 27.4655C9.4853 27.6665 9.5798 27.8345 9.6998 27.9695C9.8228 28.1045 9.9683 28.205 10.1363 28.271C10.3043 28.337 10.4918 28.37 10.6988 28.37C10.8938 28.37 11.0618 28.3475 11.2028 28.3025C11.3468 28.2575 11.4698 28.2095 11.5718 28.1585C11.6768 28.1045 11.7638 28.055 11.8328 28.01C11.9048 27.965 11.9678 27.9425 12.0218 27.9425C12.0938 27.9425 12.1493 27.9695 12.1883 28.0235L12.4403 28.3475ZM15.351 22.358V29H14.469V22.358H15.351ZM20.6328 26.2055C20.6328 26.0315 20.6073 25.871 20.5563 25.724C20.5083 25.577 20.4363 25.4495 20.3403 25.3415C20.2443 25.2335 20.1273 25.1495 19.9893 25.0895C19.8513 25.0295 19.6923 24.9995 19.5123 24.9995C19.1433 24.9995 18.8523 25.106 18.6393 25.319C18.4293 25.532 18.2958 25.8275 18.2388 26.2055H20.6328ZM21.3573 28.3475C21.2493 28.4735 21.1248 28.583 20.9838 28.676C20.8428 28.766 20.6928 28.8395 20.5338 28.8965C20.3748 28.9535 20.2098 28.9955 20.0388 29.0225C19.8708 29.0495 19.7043 29.063 19.5393 29.063C19.2243 29.063 18.9318 29.0105 18.6618 28.9055C18.3948 28.7975 18.1623 28.6415 17.9643 28.4375C17.7693 28.2305 17.6163 27.9755 17.5053 27.6725C17.3973 27.3665 17.3433 27.0155 17.3433 26.6195C17.3433 26.3015 17.3928 26.006 17.4918 25.733C17.5908 25.457 17.7318 25.217 17.9148 25.013C18.1008 24.809 18.3273 24.6485 18.5943 24.5315C18.8613 24.4145 19.1613 24.356 19.4943 24.356C19.7733 24.356 20.0298 24.4025 20.2638 24.4955C20.5008 24.5855 20.7048 24.7175 20.8758 24.8915C21.0468 25.0655 21.1803 25.28 21.2763 25.535C21.3753 25.79 21.4248 26.081 21.4248 26.408C21.4248 26.543 21.4098 26.6345 21.3798 26.6825C21.3498 26.7275 21.2943 26.75 21.2133 26.75H18.2163C18.2253 27.023 18.2643 27.2615 18.3333 27.4655C18.4023 27.6665 18.4968 27.8345 18.6168 27.9695C18.7398 28.1045 18.8853 28.205 19.0533 28.271C19.2213 28.337 19.4088 28.37 19.6158 28.37C19.8108 28.37 19.9788 28.3475 20.1198 28.3025C20.2638 28.2575 20.3868 28.2095 20.4888 28.1585C20.5938 28.1045 20.6808 28.055 20.7498 28.01C20.8218 27.965 20.8848 27.9425 20.9388 27.9425C21.0108 27.9425 21.0663 27.9695 21.1053 28.0235L21.3573 28.3475ZM24.7638 29.072C24.3948 29.072 24.1098 28.9685 23.9088 28.7615C23.7108 28.5545 23.6118 28.259 23.6118 27.875V25.139H23.0808C23.0298 25.139 22.9863 25.124 22.9503 25.094C22.9173 25.061 22.9008 25.013 22.9008 24.95V24.5945L23.6433 24.491L23.8413 23.1275C23.8533 23.0765 23.8758 23.0375 23.9088 23.0105C23.9448 22.9805 23.9898 22.9655 24.0438 22.9655H24.4893V24.5H25.7853V25.139H24.4893V27.8165C24.4893 27.9965 24.5328 28.1315 24.6198 28.2215C24.7098 28.3085 24.8238 28.352 24.9618 28.352C25.0428 28.352 25.1118 28.3415 25.1688 28.3205C25.2288 28.2995 25.2798 28.277 25.3218 28.253C25.3638 28.226 25.3998 28.202 25.4298 28.181C25.4598 28.16 25.4868 28.1495 25.5108 28.1495C25.5408 28.1495 25.5633 28.157 25.5783 28.172C25.5963 28.184 25.6143 28.205 25.6323 28.235L25.8933 28.658C25.7493 28.79 25.5783 28.892 25.3803 28.964C25.1823 29.036 24.9768 29.072 24.7638 29.072ZM30.5957 26.2055C30.5957 26.0315 30.5702 25.871 30.5192 25.724C30.4712 25.577 30.3992 25.4495 30.3032 25.3415C30.2072 25.2335 30.0902 25.1495 29.9522 25.0895C29.8142 25.0295 29.6552 24.9995 29.4752 24.9995C29.1062 24.9995 28.8152 25.106 28.6022 25.319C28.3922 25.532 28.2587 25.8275 28.2017 26.2055H30.5957ZM31.3202 28.3475C31.2122 28.4735 31.0877 28.583 30.9467 28.676C30.8057 28.766 30.6557 28.8395 30.4967 28.8965C30.3377 28.9535 30.1727 28.9955 30.0017 29.0225C29.8337 29.0495 29.6672 29.063 29.5022 29.063C29.1872 29.063 28.8947 29.0105 28.6247 28.9055C28.3577 28.7975 28.1252 28.6415 27.9272 28.4375C27.7322 28.2305 27.5792 27.9755 27.4682 27.6725C27.3602 27.3665 27.3062 27.0155 27.3062 26.6195C27.3062 26.3015 27.3557 26.006 27.4547 25.733C27.5537 25.457 27.6947 25.217 27.8777 25.013C28.0637 24.809 28.2902 24.6485 28.5572 24.5315C28.8242 24.4145 29.1242 24.356 29.4572 24.356C29.7362 24.356 29.9927 24.4025 30.2267 24.4955C30.4637 24.5855 30.6677 24.7175 30.8387 24.8915C31.0097 25.0655 31.1432 25.28 31.2392 25.535C31.3382 25.79 31.3877 26.081 31.3877 26.408C31.3877 26.543 31.3727 26.6345 31.3427 26.6825C31.3127 26.7275 31.2572 26.75 31.1762 26.75H28.1792C28.1882 27.023 28.2272 27.2615 28.2962 27.4655C28.3652 27.6665 28.4597 27.8345 28.5797 27.9695C28.7027 28.1045 28.8482 28.205 29.0162 28.271C29.1842 28.337 29.3717 28.37 29.5787 28.37C29.7737 28.37 29.9417 28.3475 30.0827 28.3025C30.2267 28.2575 30.3497 28.2095 30.4517 28.1585C30.5567 28.1045 30.6437 28.055 30.7127 28.01C30.7847 27.965 30.8477 27.9425 30.9017 27.9425C30.9737 27.9425 31.0292 27.9695 31.0682 28.0235L31.3202 28.3475Z" fill="#3C3C3C"/>
</svg>
