
<svg width="24" height="24" viewBox="0 0 24 24" fill="none" xmlns="http://www.w3.org/2000/svg">
<path d="M13.8637 17.8637C14.1566 17.5708 14.1566 17.0959 13.8637 16.803C13.5708 16.5101 13.0959 16.5101 12.803 16.803L13.8637 17.8637ZM12 18.6667L11.4697 19.197C11.6103 19.3377 11.8011 19.4167 12 19.4167C12.1989 19.4167 12.3897 19.3376 12.5303 19.197L12 18.6667ZM11.197 16.803C10.9041 16.5101 10.4292 16.5101 10.1363 16.803C9.84344 17.0959 9.84344 17.5708 10.1363 17.8637L11.197 16.803ZM12.75 15.3333C12.75 14.9191 12.4142 14.5833 12 14.5833C11.5858 14.5833 11.25 14.9191 11.25 15.3333H12.75ZM7 5.25C6.58579 5.25 6.25 5.58579 6.25 6C6.25 6.41421 6.58579 6.75 7 6.75V5.25ZM11 6.75C11.4142 6.75 11.75 6.41421 11.75 6C11.75 5.58579 11.4142 5.25 11 5.25V6.75ZM7 8.25C6.58579 8.25 6.25 8.58579 6.25 9C6.25 9.41421 6.58579 9.75 7 9.75V8.25ZM13 9.75C13.4142 9.75 13.75 9.41421 13.75 9C13.75 8.58579 13.4142 8.25 13 8.25V9.75ZM15.212 3L15.7858 2.51701L15.561 2.25H15.212V3ZM18.9361 7.42415L19.5099 6.94116L19.5099 6.94115L18.9361 7.42415ZM14.5889 7.37552L15.3314 7.48125L14.5889 7.37552ZM15.1283 7.94403L15.0618 7.19699H15.0617L15.1283 7.94403ZM16.75 17C16.75 14.3766 14.6234 12.25 12 12.25V13.75C13.7949 13.75 15.25 15.2051 15.25 17H16.75ZM12 12.25C9.37665 12.25 7.25 14.3766 7.25 17H8.75C8.75 15.2051 10.2051 13.75 12 13.75V12.25ZM7.25 17C7.25 19.6234 9.37665 21.75 12 21.75V20.25C10.2051 20.25 8.75 18.7949 8.75 17H7.25ZM12 21.75C14.6234 21.75 16.75 19.6234 16.75 17H15.25C15.25 18.7949 13.7949 20.25 12 20.25V21.75ZM12.803 16.803L11.4697 18.1363L12.5303 19.197L13.8637 17.8637L12.803 16.803ZM12.5303 18.1363L11.197 16.803L10.1363 17.8637L11.4697 19.197L12.5303 18.1363ZM12.75 18.6667L12.75 15.3333H11.25L11.25 18.6667H12.75ZM7 6.75H11V5.25H7V6.75ZM7 9.75H13V8.25H7V9.75ZM5.75 19.5V3.5H4.25V19.5H5.75ZM5.5 3.75H15.212V2.25H5.5V3.75ZM14.6382 3.48299L18.3624 7.90714L19.5099 6.94115L15.7858 2.51701L14.6382 3.48299ZM14.4695 2.89427L13.8464 7.26978L15.3314 7.48125L15.9545 3.10573L14.4695 2.89427ZM18.25 7.59915V19.5H19.75V7.59915H18.25ZM15.1948 8.69107L19.0665 8.34619L18.9335 6.85211L15.0618 7.19699L15.1948 8.69107ZM18.3624 7.90714C18.2898 7.82092 18.25 7.71185 18.25 7.59915H19.75C19.75 7.35838 19.665 7.12535 19.5099 6.94116L18.3624 7.90714ZM4.25 19.5C4.25 20.1904 4.80964 20.75 5.5 20.75V19.25C5.63807 19.25 5.75 19.3619 5.75 19.5H4.25ZM18.25 19.5C18.25 19.3619 18.3619 19.25 18.5 19.25V20.75C19.1904 20.75 19.75 20.1904 19.75 19.5H18.25ZM13.8464 7.26978C13.7328 8.06739 14.3924 8.76256 15.1948 8.69107L15.0617 7.19699C15.2222 7.18269 15.3542 7.32173 15.3314 7.48125L13.8464 7.26978ZM5.75 3.5C5.75 3.63807 5.63807 3.75 5.5 3.75V2.25C4.80964 2.25 4.25 2.80965 4.25 3.5H5.75ZM9.5 19.25H5.5V20.75H9.5V19.25ZM18.5 19.25H14.5889V20.75H18.5V19.25Z" fill="#0D3C84"/>
</svg>
