<svg width="24" height="24" viewBox="0 0 24 24" fill="none" xmlns="http://www.w3.org/2000/svg">
<path d="M18.25 14.0769C18.25 14.4911 18.5858 14.8269 19 14.8269C19.4142 14.8269 19.75 14.4911 19.75 14.0769H18.25ZM8.5 2.25C8.08579 2.25 7.75 2.58579 7.75 3C7.75 3.41421 8.08579 3.75 8.5 3.75V2.25ZM9.72739 13.5437C9.43289 13.2524 8.95802 13.255 8.66675 13.5495C8.37548 13.844 8.3781 14.3189 8.67261 14.6102L9.72739 13.5437ZM12 16.8462L11.4726 17.3794C11.7648 17.6684 12.2352 17.6684 12.5274 17.3794L12 16.8462ZM15.3274 14.6102C15.6219 14.3189 15.6245 13.844 15.3333 13.5495C15.042 13.255 14.5671 13.2524 14.2726 13.5437L15.3274 14.6102ZM12.75 11.3077C12.75 10.8935 12.4142 10.5577 12 10.5577C11.5858 10.5577 11.25 10.8935 11.25 11.3077H12.75ZM17.95 20.25H6.05V21.75H17.95V20.25ZM5.75 19.9615V4.03846H4.25V19.9615H5.75ZM6.05 3.75H10.6V2.25H6.05V3.75ZM18.25 11.3077V19.9615H19.75V11.3077H18.25ZM10.6 3.75C14.8328 3.75 18.25 7.14149 18.25 11.3077H19.75C19.75 6.29748 15.6456 2.25 10.6 2.25V3.75ZM6.05 20.25C5.87648 20.25 5.75 20.1131 5.75 19.9615H4.25C4.25 20.9571 5.06372 21.75 6.05 21.75V20.25ZM17.95 21.75C18.9363 21.75 19.75 20.9571 19.75 19.9615H18.25C18.25 20.1131 18.1235 20.25 17.95 20.25V21.75ZM5.75 4.03846C5.75 3.88694 5.87648 3.75 6.05 3.75V2.25C5.06372 2.25 4.25 3.04293 4.25 4.03846H5.75ZM19.75 14.0769V11.6538H18.25V14.0769H19.75ZM15.85 7.78846H14.45V9.28846H15.85V7.78846ZM14.15 7.5V6.11538H12.65V7.5H14.15ZM10.25 2.25H8.5V3.75H10.25V2.25ZM14.15 6.11538C14.15 3.9728 12.3961 2.25 10.25 2.25V3.75C11.5833 3.75 12.65 4.81681 12.65 6.11538H14.15ZM19.75 11.6538C19.75 9.51126 17.9961 7.78846 15.85 7.78846V9.28846C17.1833 9.28846 18.25 10.3553 18.25 11.6538H19.75ZM14.45 7.78846C14.2765 7.78846 14.15 7.65152 14.15 7.5H12.65C12.65 8.49553 13.4637 9.28846 14.45 9.28846V7.78846ZM8.67261 14.6102L11.4726 17.3794L12.5274 16.3129L9.72739 13.5437L8.67261 14.6102ZM12.5274 17.3794L15.3274 14.6102L14.2726 13.5437L11.4726 16.3129L12.5274 17.3794ZM12.75 16.8462L12.75 11.3077H11.25L11.25 16.8462H12.75Z" />
</svg>
