<svg width="52" height="28" viewBox="0 0 52 28" fill="none" xmlns="http://www.w3.org/2000/svg">
<path d="M1.00084 19.0001L7.009 19.0705L7.00814 27.0068L1.00084 19.0001Z" fill="#EE5A2E"/>
<path d="M46.1022 10.4982L50.8616 18.2381C51.0664 18.5712 50.8267 19 50.4357 19L1.83008 19C1.55394 19 1.33008 18.7761 1.33008 18.5L1.33008 1.5C1.33008 1.22386 1.55394 0.999999 1.83008 0.999999L50.4602 1C50.8459 1 51.0864 1.41836 50.8922 1.75169L46.0961 9.98462C46.0034 10.1439 46.0057 10.3412 46.1022 10.4982Z" fill="#FF6C40" stroke="#FF6C40"/>
<path d="M14.1598 10.385C14.1598 10.915 14.0714 11.4017 13.8948 11.845C13.7181 12.2883 13.4698 12.67 13.1498 12.99C12.8298 13.31 12.4448 13.5583 11.9948 13.735C11.5448 13.9117 11.0464 14 10.4998 14H7.73977L7.73977 6.77H10.4998C11.0464 6.77 11.5448 6.86 11.9948 7.04C12.4448 7.21667 12.8298 7.465 13.1498 7.785C13.4698 8.10167 13.7181 8.48167 13.8948 8.925C14.0714 9.36833 14.1598 9.855 14.1598 10.385ZM12.7848 10.385C12.7848 9.98833 12.7314 9.63333 12.6248 9.32C12.5181 9.00333 12.3664 8.73667 12.1698 8.52C11.9731 8.3 11.7331 8.13167 11.4498 8.015C11.1698 7.89833 10.8531 7.84 10.4998 7.84H9.09477V12.93H10.4998C10.8531 12.93 11.1698 12.8717 11.4498 12.755C11.7331 12.6383 11.9731 12.4717 12.1698 12.255C12.3664 12.035 12.5181 11.7683 12.6248 11.455C12.7314 11.1383 12.7848 10.7817 12.7848 10.385ZM15.3905 14V8.87H16.1155C16.2421 8.87 16.3305 8.89333 16.3805 8.94C16.4305 8.98667 16.4638 9.06667 16.4805 9.18L16.5555 9.8C16.7388 9.48333 16.9538 9.23333 17.2005 9.05C17.4471 8.86667 17.7238 8.775 18.0305 8.775C18.2838 8.775 18.4938 8.83333 18.6605 8.95L18.5005 9.875C18.4905 9.935 18.4688 9.97833 18.4355 10.005C18.4021 10.0283 18.3571 10.04 18.3005 10.04C18.2505 10.04 18.1821 10.0283 18.0955 10.005C18.0088 9.98167 17.8938 9.97 17.7505 9.97C17.4938 9.97 17.2738 10.0417 17.0905 10.185C16.9071 10.325 16.7521 10.5317 16.6255 10.805V14H15.3905ZM23.596 14H23.041C22.9243 14 22.8327 13.9833 22.766 13.95C22.6993 13.9133 22.6493 13.8417 22.616 13.735L22.506 13.37C22.376 13.4867 22.2477 13.59 22.121 13.68C21.9977 13.7667 21.8693 13.84 21.736 13.9C21.6027 13.96 21.461 14.005 21.311 14.035C21.161 14.065 20.9943 14.08 20.811 14.08C20.5943 14.08 20.3943 14.0517 20.211 13.995C20.0277 13.935 19.8693 13.8467 19.736 13.73C19.606 13.6133 19.5043 13.4683 19.431 13.295C19.3577 13.1217 19.321 12.92 19.321 12.69C19.321 12.4967 19.371 12.3067 19.471 12.12C19.5743 11.93 19.7443 11.76 19.981 11.61C20.2177 11.4567 20.5327 11.33 20.926 11.23C21.3193 11.13 21.8077 11.0733 22.391 11.06V10.76C22.391 10.4167 22.3177 10.1633 22.171 10C22.0277 9.83333 21.8177 9.75 21.541 9.75C21.341 9.75 21.1743 9.77333 21.041 9.82C20.9077 9.86667 20.791 9.92 20.691 9.98C20.5943 10.0367 20.5043 10.0883 20.421 10.135C20.3377 10.1817 20.246 10.205 20.146 10.205C20.0627 10.205 19.991 10.1833 19.931 10.14C19.871 10.0967 19.8227 10.0433 19.786 9.98L19.561 9.585C20.151 9.045 20.8627 8.775 21.696 8.775C21.996 8.775 22.2627 8.825 22.496 8.925C22.7327 9.02167 22.9327 9.15833 23.096 9.335C23.2593 9.50833 23.3827 9.71667 23.466 9.96C23.5527 10.2033 23.596 10.47 23.596 10.76V14ZM21.196 13.23C21.3227 13.23 21.4393 13.2183 21.546 13.195C21.6527 13.1717 21.7527 13.1367 21.846 13.09C21.9427 13.0433 22.0343 12.9867 22.121 12.92C22.211 12.85 22.301 12.7683 22.391 12.675V11.81C22.031 11.8267 21.7293 11.8583 21.486 11.905C21.246 11.9483 21.0527 12.005 20.906 12.075C20.7593 12.145 20.6543 12.2267 20.591 12.32C20.531 12.4133 20.501 12.515 20.501 12.625C20.501 12.8417 20.5643 12.9967 20.691 13.09C20.821 13.1833 20.9893 13.23 21.196 13.23ZM25.2804 14V9.8L24.8354 9.73C24.7387 9.71333 24.6604 9.68 24.6004 9.63C24.5437 9.58 24.5154 9.51 24.5154 9.42V8.915H25.2804V8.535C25.2804 8.24167 25.3237 7.97833 25.4104 7.745C25.5004 7.51167 25.6271 7.31333 25.7904 7.15C25.9571 6.98667 26.1587 6.86167 26.3954 6.775C26.6321 6.68833 26.8987 6.645 27.1954 6.645C27.4321 6.645 27.6521 6.67667 27.8554 6.74L27.8304 7.36C27.8237 7.45667 27.7787 7.51667 27.6954 7.54C27.6121 7.56333 27.5154 7.575 27.4054 7.575C27.2587 7.575 27.1271 7.59167 27.0104 7.625C26.8971 7.655 26.8004 7.71 26.7204 7.79C26.6404 7.86667 26.5787 7.97 26.5354 8.1C26.4954 8.22667 26.4754 8.385 26.4754 8.575V8.915H27.8104V9.795H26.5154V14H25.2804ZM30.5013 14.08C30.0579 14.08 29.7163 13.955 29.4762 13.705C29.2363 13.4517 29.1163 13.1033 29.1163 12.66V9.795H28.5963C28.5296 9.795 28.4713 9.77333 28.4213 9.73C28.3746 9.68667 28.3513 9.62167 28.3513 9.535V9.045L29.1763 8.91L29.4363 7.51C29.4496 7.44333 29.4796 7.39167 29.5263 7.355C29.5763 7.31833 29.6379 7.3 29.7113 7.3H30.3513V8.915H31.7013V9.795H30.3513V12.575C30.3513 12.735 30.3913 12.86 30.4713 12.95C30.5513 13.04 30.6579 13.085 30.7913 13.085C30.8679 13.085 30.9313 13.0767 30.9812 13.06C31.0346 13.04 31.0796 13.02 31.1163 13C31.1563 12.98 31.1913 12.9617 31.2213 12.945C31.2513 12.925 31.2813 12.915 31.3113 12.915C31.3479 12.915 31.3779 12.925 31.4013 12.945C31.4246 12.9617 31.4496 12.9883 31.4763 13.025L31.8463 13.625C31.6663 13.775 31.4596 13.8883 31.2263 13.965C30.9929 14.0417 30.7513 14.08 30.5013 14.08Z" fill="white"/>
</svg>
