<svg width="24" height="24" viewBox="0 0 24 24" fill="none" xmlns="http://www.w3.org/2000/svg">
<path d="M17.0875 16.5H18.0438C18.2974 16.5 18.5406 16.3815 18.7199 16.1705C18.8993 15.9595 19 15.6734 19 15.375V4.125C19 3.82663 18.8993 3.54048 18.7199 3.32951C18.5406 3.11853 18.2974 3 18.0438 3H8.48125C8.22764 3 7.98441 3.11853 7.80508 3.32951C7.62575 3.54048 7.525 3.82663 7.525 4.125V5.25M14.2188 21H4.65625C4.40264 21 4.15941 20.8815 3.98008 20.6705C3.80075 20.4595 3.7 20.1734 3.7 19.875V8.625C3.7 8.32663 3.80075 8.04048 3.98008 7.8295C4.15941 7.61853 4.40264 7.5 4.65625 7.5H14.2188C14.4724 7.5 14.7156 7.61853 14.8949 7.8295C15.0743 8.04048 15.175 8.32663 15.175 8.625V19.875C15.175 20.1734 15.0743 20.4595 14.8949 20.6705C14.7156 20.8815 14.4724 21 14.2188 21Z" stroke-width="1.5" stroke-linecap="round" stroke-linejoin="round"/>
</svg>
