<svg width="24" height="24" viewBox="0 0 24 24" fill="none" xmlns="http://www.w3.org/2000/svg">
<path fill-rule="evenodd" clip-rule="evenodd" d="M10.6732 9.4901C10.1681 9.98572 9.78012 10.5879 9.53763 11.2527L8.47687 14.1608C8.31912 14.5933 8.42697 15.078 8.75321 15.4028C9.06317 15.7114 9.51828 15.8235 9.9361 15.6941L12.6516 14.8533C13.139 14.7024 13.5965 14.4748 14.0079 14.1809L14.0362 14.2096L14.2745 13.9757C14.4617 13.8209 14.6374 13.6513 14.7999 13.4682L14.8547 13.4065L20.4613 7.90481C21.5895 6.79773 21.6067 4.98568 20.4996 3.85748C19.3925 2.72928 17.5805 2.71216 16.4523 3.81923L10.6732 9.4901ZM13.2737 12.8563C12.958 13.1082 12.5968 13.3 12.208 13.4204L10.1062 14.0712L10.9468 11.7668C11.1127 11.3119 11.3782 10.8998 11.7238 10.5607L14.8509 7.49217L16.804 9.39211L13.2737 12.8563ZM17.8749 8.34124L15.9218 6.4413L17.5028 4.88987C18.0398 4.36302 18.9021 4.37117 19.4289 4.90807C19.9558 5.44498 19.9476 6.30732 19.4107 6.83417L17.8749 8.34124Z" />
<path d="M5.58333 3.12516C3.60431 3.12516 2 4.72948 2 6.7085V18.0418C2 20.0209 3.60431 21.6252 5.58333 21.6252H16.9167C18.8957 21.6252 20.5 20.0209 20.5 18.0418V14.2641C20.5 13.8498 20.1642 13.5141 19.75 13.5141C19.3358 13.5141 19 13.8498 19 14.2641V18.0418C19 19.1924 18.0673 20.1252 16.9167 20.1252H5.58333C4.43274 20.1252 3.5 19.1924 3.5 18.0418V6.7085C3.5 5.5579 4.43274 4.62516 5.58333 4.62516H9.36111C9.77532 4.62516 10.1111 4.28938 10.1111 3.87516C10.1111 3.46095 9.77532 3.12516 9.36111 3.12516H5.58333Z" />
</svg>
