<svg width="8" height="6" viewBox="0 0 8 6" fill="none" xmlns="http://www.w3.org/2000/svg">
<path d="M3.75073 0C3.59117 0.000804629 3.4338 0.0371171 3.29002 0.106304C3.14624 0.17549 3.01967 0.275815 2.91948 0.4L0.28823 3.5875C0.134476 3.77939 0.0377211 4.01062 0.00899058 4.25483C-0.01974 4.49904 0.0207095 4.74641 0.12573 4.96875C0.210905 5.16198 0.349901 5.32662 0.526117 5.44299C0.702333 5.55936 0.908321 5.62254 1.11948 5.625H6.38198C6.59314 5.62254 6.79913 5.55936 6.97534 5.44299C7.15156 5.32662 7.29055 5.16198 7.37573 4.96875C7.48075 4.74641 7.5212 4.49904 7.49247 4.25483C7.46374 4.01062 7.36698 3.77939 7.21323 3.5875L4.58198 0.4C4.48179 0.275815 4.35522 0.17549 4.21144 0.106304C4.06766 0.0371171 3.91029 0.000804629 3.75073 0Z" fill="#A9BBC9"/>
</svg>
