<svg width="24" height="24" viewBox="0 0 24 24" fill="none" xmlns="http://www.w3.org/2000/svg">
<path d="M17.1525 8.54284L11.9981 14.2699C11.7318 14.5654 11.5502 14.9419 11.4761 15.352L11 18L13.3832 17.47C13.7522 17.388 14.0907 17.187 14.3571 16.891L19.5114 11.1639C19.6663 10.9918 19.7892 10.7875 19.873 10.5626C19.9569 10.3377 20 10.0967 20 9.85336C20 9.60997 19.9569 9.36897 19.873 9.14411C19.7892 8.91925 19.6663 8.71494 19.5114 8.54284C19.3566 8.37074 19.1727 8.23422 18.9703 8.14108C18.7679 8.04794 18.551 8 18.332 8C18.1129 8 17.896 8.04794 17.6937 8.14108C17.4913 8.23422 17.3074 8.37074 17.1525 8.54284Z" fill="white"/>
<path d="M17.1525 8.54284L17.71 9.04456H17.71L17.1525 8.54284ZM11.9981 14.2699L12.5552 14.772L12.5556 14.7717L11.9981 14.2699ZM11.4761 15.352L10.738 15.2187L10.7379 15.2192L11.4761 15.352ZM11 18L10.2618 17.8673C10.2174 18.1143 10.2995 18.3672 10.4806 18.5411C10.6617 18.7149 10.9178 18.7866 11.1628 18.7321L11 18ZM13.3832 17.47L13.2205 16.7379L13.2204 16.7379L13.3832 17.47ZM14.3571 16.891L13.7996 16.3893L14.3571 16.891ZM19.5114 11.1639L20.0689 11.6656V11.6656L19.5114 11.1639ZM19.873 10.5626L20.5758 10.8246L19.873 10.5626ZM19.873 9.14411L19.1703 9.40609L19.873 9.14411ZM18.9703 8.14108L19.2839 7.45977L18.9703 8.14108ZM18.332 8V8.75V8ZM17.6937 8.14108L17.3801 7.45977L17.6937 8.14108ZM4 5.75H14V4.25H4V5.75ZM14 19.25H4V20.75H14V19.25ZM3.75 19V6H2.25V19H3.75ZM14.25 6V10.7119H15.75V6H14.25ZM14.25 16.1766V19H15.75V16.1766H14.25ZM4 19.25C3.86193 19.25 3.75 19.1381 3.75 19H2.25C2.25 19.9665 3.0335 20.75 4 20.75V19.25ZM14 20.75C14.9665 20.75 15.75 19.9665 15.75 19H14.25C14.25 19.1381 14.1381 19.25 14 19.25V20.75ZM14 5.75C14.1381 5.75 14.25 5.86193 14.25 6H15.75C15.75 5.0335 14.9665 4.25 14 4.25V5.75ZM4 4.25C3.0335 4.25 2.25 5.0335 2.25 6H3.75C3.75 5.86193 3.86193 5.75 4 5.75V4.25ZM16.595 8.04111L11.4406 13.7682L12.5556 14.7717L17.71 9.04456L16.595 8.04111ZM11.441 13.7678C11.0767 14.1721 10.8357 14.6781 10.738 15.2187L12.2142 15.4852C12.2646 15.2058 12.3869 14.9588 12.5552 14.772L11.441 13.7678ZM10.7379 15.2192L10.2618 17.8673L11.7382 18.1327L12.2143 15.4847L10.7379 15.2192ZM11.1628 18.7321L13.5461 18.2021L13.2204 16.7379L10.8372 17.2679L11.1628 18.7321ZM13.5459 18.2021C14.0754 18.0845 14.5494 17.7984 14.9145 17.3927L13.7996 16.3893C13.6319 16.5756 13.4291 16.6915 13.2205 16.7379L13.5459 18.2021ZM14.9145 17.3927L20.0689 11.6656L18.954 10.6622L13.7996 16.3893L14.9145 17.3927ZM20.0689 11.6656C20.2892 11.4209 20.4603 11.1345 20.5758 10.8246L19.1703 10.3006C19.1182 10.4404 19.0435 10.5627 18.954 10.6622L20.0689 11.6656ZM20.5758 10.8246C20.6913 10.5147 20.75 10.1849 20.75 9.85336H19.25C19.25 10.0086 19.2224 10.1608 19.1703 10.3006L20.5758 10.8246ZM20.75 9.85336C20.75 9.52183 20.6913 9.19201 20.5758 8.88213L19.1703 9.40609C19.2224 9.54593 19.25 9.69812 19.25 9.85336H20.75ZM20.5758 8.88213C20.4603 8.57221 20.2892 8.28584 20.0689 8.04111L18.954 9.04456C19.0435 9.14403 19.1182 9.26629 19.1703 9.40609L20.5758 8.88213ZM20.0689 8.04111C19.8485 7.79623 19.5826 7.59724 19.2839 7.45977L18.6567 8.82239C18.7628 8.87119 18.8646 8.94524 18.954 9.04456L20.0689 8.04111ZM19.2839 7.45977C18.9849 7.32217 18.6612 7.25 18.332 7.25V8.75C18.4409 8.75 18.551 8.77371 18.6567 8.82239L19.2839 7.45977ZM18.332 7.25C18.0028 7.25 17.6791 7.32217 17.3801 7.45977L18.0072 8.82239C18.113 8.77371 18.2231 8.75 18.332 8.75V7.25ZM17.3801 7.45977C17.0814 7.59724 16.8154 7.79623 16.595 8.04111L17.71 9.04456C17.7994 8.94524 17.9012 8.87119 18.0072 8.82239L17.3801 7.45977Z" fill="black"/>
</svg>
