<svg width="24" height="24" viewBox="0 0 24 24" fill="none" xmlns="http://www.w3.org/2000/svg">
<path d="M10.7085 9.01332C11.2198 7.54886 12.6134 6.5 14.25 6.5C16.3211 6.5 18 8.17893 18 10.25C18 10.66 17.9345 11.0532 17.8139 11.4206C17.6387 11.9545 17.9028 12.5226 18.3963 12.7494C19.3443 13.1848 20 14.1416 20 15.25C20 16.7688 18.7688 18 17.25 18C16.8358 18 16.5 18.3358 16.5 18.75C16.5 19.1642 16.8358 19.5 17.25 19.5C19.5972 19.5 21.5 17.5972 21.5 15.25C21.5 13.6607 20.6276 12.2765 19.3382 11.5477C19.4439 11.132 19.5 10.6971 19.5 10.25C19.5 7.3505 17.1495 5 14.25 5C12.3294 5 10.6509 6.03104 9.73574 7.56849C9.16004 7.20852 8.47917 7 7.75 7C5.67893 7 4 8.67893 4 10.75C4 11.037 4.03239 11.3173 4.0939 11.5869C2.84196 12.3253 2 13.6887 2 15.25C2 17.5972 3.90279 19.5 6.25 19.5H9.75C10.1642 19.5 10.5 19.1642 10.5 18.75C10.5 18.3358 10.1642 18 9.75 18H6.25C4.73122 18 3.5 16.7688 3.5 15.25C3.5 14.1638 4.12968 13.2232 5.04729 12.7761C5.54494 12.5336 5.77673 11.9602 5.60974 11.4467C5.5387 11.2283 5.5 10.9944 5.5 10.75C5.5 9.50736 6.50736 8.5 7.75 8.5C8.42207 8.5 9.02461 8.79372 9.438 9.26228L10.286 10.2234L10.7085 9.01332Z" fill="#2DA2E1"/>
<path d="M12.4097 9.03887C12.9812 8.69268 13.818 8.56043 14.6996 8.79453C15.5811 9.02862 16.2421 9.5586 16.5665 10.1427L17.5719 9.5843C17.0776 8.69447 16.1404 7.98727 14.9947 7.68305C13.8491 7.37883 12.6845 7.52788 11.8139 8.05526L12.4097 9.03887Z" fill="#2DA2E1"/>
</svg>
