<svg width="24" height="24" viewBox="0 0 24 24" fill="none" xmlns="http://www.w3.org/2000/svg">
<path fill-rule="evenodd" clip-rule="evenodd" d="M4.75 4C3.23122 4 2 5.23122 2 6.75V14.75C2 16.2688 3.23122 17.5 4.75 17.5H18.75C20.2688 17.5 21.5 16.2688 21.5 14.75V6.75C21.5 5.23122 20.2688 4 18.75 4H4.75ZM3.5 6.75C3.5 6.05964 4.05964 5.5 4.75 5.5H18.75C19.4404 5.5 20 6.05964 20 6.75V14.75C20 15.4404 19.4404 16 18.75 16H4.75C4.05964 16 3.5 15.4404 3.5 14.75V6.75Z" />
<path d="M8.75 19C8.33579 19 8 19.3358 8 19.75C8 20.1642 8.33579 20.5 8.75 20.5H14.75C15.1642 20.5 15.5 20.1642 15.5 19.75C15.5 19.3358 15.1642 19 14.75 19H8.75Z" />
</svg>
