<svg width="24" height="24" viewBox="0 0 24 24" fill="none" xmlns="http://www.w3.org/2000/svg">
<path d="M15.4401 13.3884C16.2862 12.5311 16.8283 11.4204 16.9836 10.2259C17.139 9.03155 16.8991 7.81918 16.3006 6.77401C15.702 5.72878 14.7777 4.9084 13.6689 4.43796C12.5601 3.96752 11.3277 3.87315 10.1602 4.16902C8.99265 4.465 7.95405 5.13497 7.20328 6.07677C6.4524 7.01844 6.03049 8.18021 6.00205 9.38426C5.98174 10.1241 6.11221 10.8602 6.38531 11.5482C6.65831 12.236 7.06838 12.8612 7.59058 13.3856C8.45473 14.2858 8.93084 15.4893 8.91658 16.7371V16.8281C8.86667 16.8757 8.83765 16.9411 8.83603 17.0101V18.7443C8.83905 18.985 8.92714 19.2169 9.08465 19.3991C9.24205 19.5814 9.45876 19.7021 9.69659 19.7401C9.72665 19.9892 9.84748 20.2184 10.0361 20.3838C10.2246 20.5493 10.4676 20.6395 10.7184 20.6371H12.3148C12.5657 20.6395 12.8086 20.5493 12.9971 20.3838C13.1857 20.2184 13.3065 19.9892 13.3366 19.7401C13.5794 19.7051 13.8016 19.5839 13.9625 19.3987C14.1233 19.2136 14.2121 18.9766 14.2128 18.7313V16.9971C14.2111 16.9281 14.1822 16.8627 14.1322 16.8151V16.7371C14.1131 15.4927 14.5827 14.2905 15.4401 13.3884ZM12.3201 20.133L10.7185 20.1328C10.6048 20.1331 10.4943 20.0962 10.4037 20.0276C10.313 19.9591 10.2473 19.8627 10.2167 19.7533H12.8167C12.786 19.8627 12.7203 19.9591 12.6297 20.0276C12.539 20.0962 12.4285 20.1331 12.3149 20.1328L12.3201 20.133ZM13.7033 18.7315C13.7033 18.8694 13.6484 19.0016 13.5509 19.0992C13.4534 19.1967 13.3212 19.2515 13.1832 19.2515H9.85255C9.71466 19.2515 9.58234 19.1967 9.48484 19.0992C9.38734 19.0016 9.33255 18.8694 9.33255 18.7315V18.5027H13.6979L13.7033 18.7315ZM13.7033 17.9983H9.33534V17.2573H13.6983L13.7033 17.9983ZM13.6175 16.7373H9.41585C9.42665 15.3618 8.90049 14.0364 7.94939 13.0426C7.47432 12.5656 7.10126 11.9969 6.8532 11.3712C6.60504 10.7453 6.48712 10.0755 6.50638 9.40259C6.53992 8.14437 7.04415 6.94466 7.9192 6.04012C8.79438 5.13559 9.97692 4.59224 11.2332 4.51715C12.2447 4.45853 13.25 4.70797 14.1166 5.23261C14.9832 5.75724 15.6703 6.53249 16.0871 7.45571C16.504 8.37905 16.631 9.40699 16.4515 10.4041C16.2719 11.401 15.7941 12.3201 15.0812 13.0399C14.1289 14.0336 13.6034 15.3608 13.6175 16.7373Z" fill="#0D3C84"/>
<path d="M15.0941 9.00591C15.0956 8.87626 15.0014 8.76541 14.8731 8.74591L14.5196 8.70168C14.4471 8.40547 14.3297 8.12237 14.1711 7.8619L14.3921 7.58112C14.4637 7.48257 14.4572 7.34747 14.3765 7.2561L13.724 6.59832C13.6271 6.51661 13.4853 6.51661 13.3885 6.59832L13.1103 6.81677C12.8488 6.65868 12.5648 6.54121 12.268 6.46831L12.2238 6.11477C12.2043 5.98651 12.0934 5.89226 11.9638 5.89377H11.059C10.9293 5.89226 10.8184 5.98651 10.799 6.11477L10.7548 6.46831C10.458 6.5412 10.1739 6.65866 9.9123 6.81677L9.64452 6.59832C9.54331 6.52171 9.40147 6.52937 9.30908 6.61654L8.65652 7.25608C8.57481 7.353 8.57481 7.49461 8.65652 7.59153L8.87497 7.8723C8.71688 8.133 8.59942 8.41611 8.52651 8.71209L8.17297 8.75631C8.04471 8.7757 7.95046 8.88666 7.95197 9.01631V9.93154C7.95046 10.0612 8.04471 10.172 8.17297 10.1915L8.52651 10.2358C8.5994 10.5326 8.71687 10.8166 8.87497 11.0781L8.65652 11.3381C8.5762 11.4346 8.5762 11.5745 8.65652 11.6709L9.30908 12.3183C9.40077 12.4063 9.54261 12.4151 9.64452 12.3391L9.92275 12.1181C10.1843 12.2762 10.4683 12.3937 10.7651 12.4666L10.8093 12.8201C10.8277 12.9494 10.9388 13.045 11.0693 13.0438H11.9845C12.115 13.045 12.2263 12.9494 12.2445 12.8201L12.2888 12.4666C12.5856 12.3937 12.8696 12.2762 13.1311 12.1181L13.4093 12.3391C13.5069 12.4039 13.6358 12.3953 13.724 12.3183L14.3766 11.6709C14.463 11.5796 14.4719 11.4394 14.3973 11.3381L14.1763 11.0573C14.3344 10.7958 14.4519 10.5117 14.5248 10.2149L14.8783 10.1706C15.0066 10.1511 15.1008 10.0404 15.0993 9.91076L15.0941 9.00591ZM14.5896 9.69745L14.2802 9.73645C14.1731 9.75247 14.0872 9.83337 14.0645 9.93934C13.9979 10.2945 13.858 10.6318 13.6538 10.9299C13.5919 11.019 13.5919 11.1372 13.6538 11.2263L13.8462 11.4733L13.5237 11.7984L13.2793 11.6059C13.1896 11.5429 13.07 11.5429 12.9803 11.6059C12.6825 11.8083 12.3462 11.9474 11.9923 12.0141C11.8855 12.0371 11.8045 12.1244 11.7895 12.2326L11.7505 12.542L11.2825 12.5419L11.2565 12.2299C11.2416 12.1218 11.1605 12.0346 11.0538 12.0116C10.6995 11.9446 10.363 11.8047 10.0658 11.6008C9.97604 11.5377 9.85649 11.5377 9.76678 11.6008L9.52233 11.7932L9.17655 11.4733L9.36899 11.2263C9.43074 11.1372 9.43074 11.019 9.36899 10.9299C9.16471 10.6318 9.02472 10.2945 8.9581 9.93934C8.93547 9.83337 8.84946 9.75258 8.74233 9.73656L8.43288 9.69756V9.22956L8.75279 9.19834C8.86073 9.18197 8.94686 9.09991 8.96856 8.99289C9.03554 8.63864 9.1754 8.30227 9.37933 8.00489C9.44236 7.91529 9.44236 7.79561 9.37933 7.70591L9.17656 7.45635L9.50933 7.11835L9.75377 7.3108C9.8435 7.37383 9.96305 7.37383 10.0528 7.3108C10.35 7.10675 10.6865 6.96689 11.0408 6.89991C11.1467 6.87728 11.2275 6.79127 11.2435 6.68414L11.2825 6.39036H11.7505L11.7895 6.69981C11.8009 6.80914 11.8839 6.89747 11.9923 6.91558C12.3466 6.98255 12.683 7.12242 12.9803 7.32635C13.07 7.38938 13.1896 7.38938 13.2793 7.32635L13.5237 7.1339L13.8565 7.45636L13.6641 7.70081C13.601 7.79042 13.601 7.91009 13.6641 7.9998C13.8681 8.29706 14.008 8.63354 14.075 8.9878C14.0965 9.0947 14.1828 9.17676 14.2907 9.19313L14.6002 9.22958L14.5896 9.69745Z" fill="#0D3C84"/>
<path d="M11.5165 7.44375C10.9796 7.44375 10.4647 7.6572 10.0852 8.03711C9.70579 8.41702 9.49304 8.93226 9.49375 9.46919C9.49445 10.0061 9.7086 10.5207 10.089 10.8997C10.4693 11.2786 10.9848 11.4907 11.5218 11.4893C12.0587 11.4879 12.573 11.2732 12.9515 10.8922C13.3299 10.5114 13.5414 9.9957 13.5393 9.45876C13.5372 8.92367 13.3233 8.4111 12.9441 8.03352C12.565 7.65582 12.0516 7.44375 11.5165 7.44375ZM11.5165 10.9824C11.1141 10.9824 10.7282 10.8227 10.4435 10.5383C10.1587 10.254 9.99854 9.86826 9.99809 9.46583C9.99774 9.06341 10.157 8.67725 10.441 8.39229C10.725 8.10721 11.1106 7.94657 11.513 7.94565C11.9155 7.94472 12.3018 8.10363 12.5872 8.3873C12.8725 8.67109 13.0336 9.05646 13.035 9.45885C13.0357 9.86219 12.876 10.2494 12.5912 10.5351C12.3065 10.8208 11.9199 10.9817 11.5165 10.9824Z" fill="#0D3C84"/>
</svg>
