<svg width="24" height="24" viewBox="0 0 24 24" fill="none" xmlns="http://www.w3.org/2000/svg">
<path d="M12 17.25V16.5C11.5858 16.5 11.25 16.8358 11.25 17.25H12ZM12.0075 17.25H12.7575C12.7575 16.8358 12.4217 16.5 12.0075 16.5V17.25ZM12.0075 17.2575V18.0075C12.4217 18.0075 12.7575 17.6717 12.7575 17.2575H12.0075ZM12 17.2575H11.25C11.25 17.6717 11.5858 18.0075 12 18.0075V17.2575ZM9.38503 6.95441C9.0733 7.22717 9.04171 7.701 9.31447 8.01272C9.58724 8.32445 10.0611 8.35604 10.3728 8.08328L9.38503 6.95441ZM14.1215 7.51884L13.6277 8.08328L14.1215 7.51884ZM14.1215 11.2312L14.6154 11.7956H14.6154L14.1215 11.2312ZM13.4513 11.6733L13.778 12.3484L13.4513 11.6733ZM11.2502 14.25C11.2502 14.6642 11.586 15 12.0002 15C12.4144 15 12.7502 14.6642 12.7502 14.25H11.2502ZM20.25 12C20.25 16.5563 16.5563 20.25 12 20.25V21.75C17.3848 21.75 21.75 17.3848 21.75 12H20.25ZM12 20.25C7.44365 20.25 3.75 16.5563 3.75 12H2.25C2.25 17.3848 6.61522 21.75 12 21.75V20.25ZM3.75 12C3.75 7.44365 7.44365 3.75 12 3.75V2.25C6.61522 2.25 2.25 6.61522 2.25 12H3.75ZM12 3.75C16.5563 3.75 20.25 7.44365 20.25 12H21.75C21.75 6.61522 17.3848 2.25 12 2.25V3.75ZM12 18H12.0075V16.5H12V18ZM11.2575 17.25V17.2575H12.7575V17.25H11.2575ZM12.0075 16.5075H12V18.0075H12.0075V16.5075ZM12.75 17.2575V17.25H11.25V17.2575H12.75ZM10.3728 8.08328C11.2616 7.30557 12.7389 7.30557 13.6277 8.08328L14.6154 6.95441C13.1611 5.68186 10.8394 5.68186 9.38503 6.95441L10.3728 8.08328ZM13.6277 8.08328C14.4577 8.8096 14.4577 9.9404 13.6277 10.6667L14.6154 11.7956C16.1285 10.4717 16.1285 8.27835 14.6154 6.95441L13.6277 8.08328ZM13.6277 10.6667C13.4765 10.799 13.3073 10.9098 13.1246 10.9982L13.778 12.3484C14.0761 12.2041 14.3588 12.0202 14.6154 11.7956L13.6277 10.6667ZM11.2502 13.5V14.25H12.7502V13.5H11.2502ZM13.1246 10.9982C12.3095 11.3926 11.2502 12.221 11.2502 13.5H12.7502C12.7502 13.1222 13.1018 12.6756 13.778 12.3484L13.1246 10.9982Z" />
</svg>
