<svg width="20" height="22" viewBox="0 0 32 32" fill="none" xmlns="http://www.w3.org/2000/svg">
<path fill-rule="evenodd" clip-rule="evenodd" d="M7.10216 6C5.94117 6 5 6.95079 5 8.12365V19.6365C5 20.8093 5.94117 21.7601 7.10216 21.7601H13.7475V24.0652C13.7475 24.087 13.7482 24.1086 13.7497 24.13H10.5006C10.003 24.13 9.59964 24.5375 9.59964 25.0401C9.59964 25.5428 10.003 25.9503 10.5006 25.9503H21.9995C22.4971 25.9503 22.9005 25.5428 22.9005 25.0401C22.9005 24.5375 22.4971 24.13 21.9995 24.13H18.7526V21.7601H25.3978C26.5588 21.7601 27.5 20.8093 27.5 19.6365V8.12365C27.5 6.95079 26.5588 6 25.3978 6H7.10216ZM18.7526 19.9398V19.919H16.9507V19.9398H14.8407C14.7788 19.9262 14.7144 19.919 14.6484 19.919C14.5824 19.919 14.518 19.9262 14.456 19.9398H7.10216C6.9363 19.9398 6.80185 19.804 6.80185 19.6365V8.12365C6.80185 7.95609 6.9363 7.82027 7.10216 7.82027H25.3978C25.5637 7.82027 25.6982 7.95609 25.6982 8.12365V19.6365C25.6982 19.804 25.5637 19.9398 25.3978 19.9398H18.7526ZM16.9507 21.7601V24.13H15.5471C15.5485 24.1086 15.5493 24.087 15.5493 24.0652V21.7601H16.9507Z"/>
<path d="M21.0333 9.68617C21.2094 9.56744 21.425 9.50311 21.6467 9.50311C22.2045 9.50311 22.6566 9.90167 22.6566 10.3933C22.6566 10.5888 22.5836 10.7788 22.4489 10.9341L20.2735 13.4419C19.6584 14.1509 18.8764 14.7283 17.9863 15.1371C17.7632 14.3985 17.1034 13.8168 16.2654 13.6201C16.7292 12.8354 17.3842 12.1461 18.1885 11.6039L21.0333 9.68617Z"/>
<path d="M15.6385 14.262C14.7441 14.262 14.019 14.9012 14.019 15.6896C14.019 15.8211 13.8981 15.9276 13.7491 15.9276C13.7056 15.9276 13.6657 15.9188 13.6303 15.9035C13.4818 15.8391 13.3037 15.8609 13.1807 15.9585C13.0577 16.0562 13.0145 16.21 13.0716 16.347C13.375 17.0738 14.1675 17.5932 15.0987 17.5932C16.2904 17.5932 17.2567 16.742 17.258 15.6917L17.258 15.6896C17.258 15.4612 17.1968 15.2443 17.0878 15.052C16.931 14.7754 16.6756 14.5503 16.3618 14.412C16.1437 14.3159 15.8976 14.262 15.6385 14.262Z"/>
</svg>
