<svg width="24" height="24" viewBox="0 0 24 24" fill="none" xmlns="http://www.w3.org/2000/svg">
<path fill-rule="evenodd" clip-rule="evenodd" d="M15.25 7C14.0074 7 13 8.00736 13 9.25C13 10.4926 14.0074 11.5 15.25 11.5C16.4926 11.5 17.5 10.4926 17.5 9.25C17.5 8.00736 16.4926 7 15.25 7ZM14.5 9.25C14.5 8.83579 14.8358 8.5 15.25 8.5C15.6642 8.5 16 8.83579 16 9.25C16 9.66421 15.6642 10 15.25 10C14.8358 10 14.5 9.66421 14.5 9.25Z" fill="#886CC4"/>
<path fill-rule="evenodd" clip-rule="evenodd" d="M4.75 5C3.7835 5 3 5.7835 3 6.75V17.75C3 18.7165 3.7835 19.5 4.75 19.5H19.75C20.7165 19.5 21.5 18.7165 21.5 17.75V6.75C21.5 5.7835 20.7165 5 19.75 5H4.75ZM4.5 6.75C4.5 6.61193 4.61193 6.5 4.75 6.5H19.75C19.8881 6.5 20 6.61193 20 6.75V14.7973L17.3443 12.6664C16.7051 12.1536 15.7957 12.1529 15.1559 12.6648L13.9062 13.6646C13.8149 13.7376 13.6851 13.7376 13.5938 13.6646L9.80324 10.6321C9.19667 10.1469 8.34283 10.1195 7.70646 10.565L4.5 12.8095V6.75ZM16.4055 13.8364L20 16.7204V17.75C20 17.8881 19.8881 18 19.75 18H4.75C4.61193 18 4.5 17.8881 4.5 17.75V14.6405L8.56665 11.7938C8.65756 11.7302 8.77954 11.7341 8.86619 11.8034L12.6568 14.8359C13.2959 15.3472 14.2041 15.3472 14.8432 14.8359L16.0929 13.8361C16.1843 13.763 16.3142 13.7631 16.4055 13.8364Z" fill="#886CC4"/>
</svg>
