<svg width="24" height="24" viewBox="0 0 24 24" fill="none" xmlns="http://www.w3.org/2000/svg">
<!-- <rect width="24" height="24" fill="white"/> -->
<path d="M12.3762 5.11564L18.7325 4.81706C18.8512 4.811 18.9667 4.82842 19.0723 4.86831C19.1778 4.9082 19.2714 4.96978 19.3476 5.04948C19.4238 5.12919 19.4811 5.22545 19.5163 5.33271C19.5514 5.43998 19.5636 5.55612 19.5522 5.67444L18.9684 12.0109C18.9571 12.1289 18.9225 12.2467 18.8667 12.3575C18.8109 12.4684 18.7349 12.5702 18.6431 12.6571L11.0091 19.9556C10.4569 20.4836 9.74486 20.799 9.02964 20.8326C8.31442 20.8662 7.65458 20.6152 7.19529 20.1348L3.73177 16.5121C3.27248 16.0317 3.05135 15.3612 3.11704 14.6482C3.18272 13.9352 3.52984 13.2381 4.08202 12.7102L11.7161 5.41163C11.807 5.32385 11.9121 5.25252 12.0253 5.20173C12.1386 5.15093 12.2579 5.12168 12.3762 5.11564Z" stroke="#723614" stroke-width="1.5"/>
<circle cx="14.5" cy="9.5" r="1.5" stroke="#723614" stroke-width="1.5"/>
</svg>
