<svg width="6" height="8" viewBox="0 0 6 8" fill="none" xmlns="http://www.w3.org/2000/svg">
<path d="M0.415085 4C0.415835 3.85111 0.44972 3.70425 0.514282 3.57009C0.578843 3.43592 0.672462 3.31781 0.788345 3.22432L3.76277 0.768962C3.94183 0.625487 4.1576 0.535199 4.38549 0.50839C4.61337 0.48158 4.84421 0.519325 5.05168 0.617325C5.232 0.696806 5.38563 0.82651 5.49422 0.990947C5.60281 1.15538 5.66177 1.3476 5.66406 1.54464L5.66406 6.45535C5.66177 6.6524 5.60281 6.84462 5.49422 7.00905C5.38563 7.17349 5.232 7.30319 5.05168 7.38267C4.84421 7.48067 4.61337 7.51842 4.38549 7.49161C4.1576 7.4648 3.94183 7.37451 3.76277 7.23104L0.788345 4.77568C0.672462 4.68219 0.578843 4.56408 0.514282 4.42991C0.44972 4.29575 0.415835 4.14889 0.415085 4Z" fill="#A9BBC9"/>
</svg>
