<svg width="24" height="24" viewBox="0 0 24 24" fill="none" xmlns="http://www.w3.org/2000/svg">
<path fill-rule="evenodd" clip-rule="evenodd" d="M11.6347 7.38666C9.83977 7.38666 8.3847 8.84174 8.3847 10.6367C8.3847 12.4316 9.83977 13.8867 11.6347 13.8867C13.4296 13.8867 14.8847 12.4316 14.8847 10.6367C14.8847 8.84174 13.4296 7.38666 11.6347 7.38666ZM9.8847 10.6367C9.8847 9.67016 10.6682 8.88666 11.6347 8.88666C12.6012 8.88666 13.3847 9.67016 13.3847 10.6367C13.3847 11.6032 12.6012 12.3867 11.6347 12.3867C10.6682 12.3867 9.8847 11.6032 9.8847 10.6367Z" fill="#2DA2E1"/>
<path fill-rule="evenodd" clip-rule="evenodd" d="M16.8355 6.50857C14.1711 3.15015 9.06678 3.16792 6.41959 6.53749C4.52115 8.954 4.52663 12.3607 6.43719 14.7689L10.9081 20.4043C11.2896 20.8852 12.0201 20.8835 12.3993 20.4008L16.8551 14.7291C18.7519 12.3147 18.7438 8.91397 16.8355 6.50857ZM7.59913 7.46415C9.64875 4.8552 13.5995 4.8432 15.6604 7.44084C17.1372 9.3023 17.1435 11.934 15.6755 13.8025L11.6502 18.9263L7.61229 13.8366C6.13389 11.9731 6.129 9.33545 7.59913 7.46415Z" fill="#2DA2E1"/>
</svg>
