<svg width="24" height="24" viewBox="0 0 24 24" fill="none" xmlns="http://www.w3.org/2000/svg">
<path d="M18.5 8C19.8807 8 21 6.88071 21 5.5C21 4.11929 19.8807 3 18.5 3C17.3806 3 16.433 3.73572 16.1145 4.75H13.5C12.2574 4.75 11.25 5.75736 11.25 7V9.01234C9.98667 9.13777 9 10.2037 9 11.5C9 12.7963 9.98667 13.8622 11.25 13.9877V17C11.25 17.4142 10.9142 17.75 10.5 17.75H7.88555C7.56698 16.7357 6.61941 16 5.5 16C4.11929 16 3 17.1193 3 18.5C3 19.8807 4.11929 21 5.5 21C6.61941 21 7.56698 20.2643 7.88555 19.25H10.5C11.7426 19.25 12.75 18.2426 12.75 17V13.6655C13.4973 13.2333 14 12.4254 14 11.5C14 10.5746 13.4973 9.76672 12.75 9.33446V7C12.75 6.58579 13.0858 6.25 13.5 6.25H16.1145C16.433 7.26428 17.3806 8 18.5 8Z" />
</svg>
