<svg width="24" height="24" viewBox="0 0 24 24" fill="none" xmlns="http://www.w3.org/2000/svg">
<path d="M10.4315 6.98446C10.5564 6.40985 11.065 6 11.653 6H20.5049C21.1664 6 21.7134 6.51538 21.7527 7.17572L21.8438 8.70543C21.8684 9.11891 21.5532 9.47406 21.1397 9.49867C20.7262 9.52329 20.3711 9.20805 20.3464 8.79457L20.2694 7.5H11.8545L9.54691 18.1148C9.37313 18.9142 8.28102 19.0307 7.9425 18.286L5.76707 13.5H3.75C3.33579 13.5 3 13.1642 3 12.75C3 12.3358 3.33579 12 3.75 12H5.92804C6.41822 12 6.86316 12.2865 7.066 12.7327L8.49733 15.8817L10.4315 6.98446Z" fill="#F1A81A"/>
<path d="M12.2196 10.2197C12.5125 9.92678 12.9874 9.92678 13.2803 10.2197L15.8106 12.75L14.7499 13.8107L12.2196 11.2803C11.9267 10.9874 11.9267 10.5126 12.2196 10.2197Z" fill="#F1A81A"/>
<path d="M17.9921 14.9315L20.5225 17.4619C20.8153 17.7548 20.8153 18.2296 20.5225 18.5225C20.2296 18.8154 19.7547 18.8154 19.4618 18.5225L16.9315 15.9922L17.9921 14.9315Z" fill="#F1A81A"/>
<path d="M20.5225 11.5381C20.8153 11.2452 20.8153 10.7704 20.5225 10.4775C20.2296 10.1846 19.7547 10.1846 19.4618 10.4775L12.2196 17.7197C11.9267 18.0126 11.9267 18.4874 12.2196 18.7803C12.5125 19.0732 12.9874 19.0732 13.2803 18.7803L20.5225 11.5381Z" fill="#F1A81A"/>
</svg>
