<svg width="24" height="24" viewBox="0 0 24 24" fill="none" xmlns="http://www.w3.org/2000/svg">
<path d="M16.75 11.75C17.3023 11.75 17.75 11.3023 17.75 10.75C17.75 10.1977 17.3023 9.75 16.75 9.75C16.1977 9.75 15.75 10.1977 15.75 10.75C15.75 11.3023 16.1977 11.75 16.75 11.75Z" />
<path fill-rule="evenodd" clip-rule="evenodd" d="M2 4.75C2 3.23122 3.23122 2 4.75 2H14.75C16.2688 2 17.5 3.23122 17.5 4.75V7H18.75C20.2688 7 21.5 8.23122 21.5 9.75V18.75C21.5 20.2688 20.2688 21.5 18.75 21.5H14.75C13.2312 21.5 12 20.2688 12 18.75V18H6.25C5.83579 18 5.5 17.6642 5.5 17.25C5.5 16.8358 5.83579 16.5 6.25 16.5H8.5V14.5H4.75C3.23122 14.5 2 13.2688 2 11.75V4.75ZM12 14.5V16.5H10V14.5H12ZM12 13V9.75C12 8.23122 13.2312 7 14.75 7H16V4.75C16 4.05964 15.4404 3.5 14.75 3.5H4.75C4.05964 3.5 3.5 4.05964 3.5 4.75V11.75C3.5 12.4404 4.05964 13 4.75 13H12ZM13.5 18.75C13.5 19.4404 14.0596 20 14.75 20H18.75C19.4404 20 20 19.4404 20 18.75V9.75C20 9.05964 19.4404 8.5 18.75 8.5H14.75C14.0596 8.5 13.5 9.05964 13.5 9.75V18.75Z" />
</svg>
