<svg width="16" height="20" viewBox="0 0 16 20" fill="none" xmlns="http://www.w3.org/2000/svg">
<path d="M15 12.0769V9.65385C15 7.93327 13.5897 6.53846 11.85 6.53846H10.45C9.8701 6.53846 9.4 6.07353 9.4 5.5V4.11538C9.4 2.39481 7.9897 1 6.25 1H4.5M5.2 12.0769L8 14.8462M8 14.8462L10.8 12.0769M8 14.8462L8 9.30769M6.6 1H2.05C1.4701 1 1 1.46493 1 2.03846V17.9615C1 18.5351 1.4701 19 2.05 19H13.95C14.5299 19 15 18.5351 15 17.9615V9.30769C15 4.71948 11.2392 1 6.6 1Z"  stroke-width="1.5" stroke-linecap="round" stroke-linejoin="round"/>
</svg>
