<svg width="24" height="24" viewBox="0 0 24 24" fill="none" xmlns="http://www.w3.org/2000/svg">
<path fill-rule="evenodd" clip-rule="evenodd" d="M11.9466 2C8.13563 2 5.04623 5.0894 5.04623 8.90037V11.9304C5.04623 13.2866 4.44913 14.5741 3.41382 15.4503C2.58726 16.1498 3.08191 17.5 4.16472 17.5H19.8614C20.9607 17.5 21.4437 16.1137 20.5824 15.4306C19.4861 14.5611 18.847 13.2385 18.847 11.8393V8.90037C18.847 5.0894 15.7576 2 11.9466 2ZM6.54623 8.90037C6.54623 5.91783 8.96406 3.5 11.9466 3.5C14.9291 3.5 17.347 5.91783 17.347 8.90037V11.8393C17.347 13.3956 17.9427 14.8806 18.9921 16H4.99411C5.98718 14.8876 6.54623 13.4412 6.54623 11.9304V8.90037Z" />
<path d="M9.91769 20.8713C9.35508 20.3087 9.03901 19.5456 9.03901 18.75H15.039C15.039 19.5457 14.7229 20.3087 14.1603 20.8713C13.5977 21.4339 12.8347 21.75 12.039 21.75C11.2434 21.75 10.4803 21.4339 9.91769 20.8713Z" />
</svg>
