<svg width="24" height="24" viewBox="0 0 24 24" fill="none" xmlns="http://www.w3.org/2000/svg">
<path fill-rule="evenodd" clip-rule="evenodd" d="M2 5.75C2 4.23122 3.23122 3 4.75 3H18.75C20.2688 3 21.5 4.23122 21.5 5.75V15.75C21.5 17.2688 20.2688 18.5 18.75 18.5H4.75C3.23122 18.5 2 17.2688 2 15.75V5.75ZM4.75 4.5C4.05964 4.5 3.5 5.05964 3.5 5.75V8.75H20V5.75C20 5.05964 19.4404 4.5 18.75 4.5H4.75ZM3.5 15.75V11.75H20V15.75C20 16.4404 19.4404 17 18.75 17H4.75C4.05964 17 3.5 16.4404 3.5 15.75Z" />
<path d="M6.75 20C6.33579 20 6 20.3358 6 20.75C6 21.1642 6.33579 21.5 6.75 21.5H7.75C8.16421 21.5 8.5 21.1642 8.5 20.75C8.5 20.3358 8.16421 20 7.75 20H6.75Z" />
<path d="M10 20.75C10 20.3358 10.3358 20 10.75 20H11.75C12.1642 20 12.5 20.3358 12.5 20.75C12.5 21.1642 12.1642 21.5 11.75 21.5H10.75C10.3358 21.5 10 21.1642 10 20.75Z" />
<path d="M14.75 20C14.3358 20 14 20.3358 14 20.75C14 21.1642 14.3358 21.5 14.75 21.5H15.75C16.1642 21.5 16.5 21.1642 16.5 20.75C16.5 20.3358 16.1642 20 15.75 20H14.75Z" />
</svg>
