<svg width="16" height="17" viewBox="0 0 16 17" fill="none" xmlns="http://www.w3.org/2000/svg">
<path d="M3 4.50195H13C13.5304 4.50195 14.0391 4.71267 14.4142 5.08774C14.7893 5.46281 15 5.97152 15 6.50195V9.50195C15 10.0324 14.7893 10.5411 14.4142 10.9162C14.0391 11.2912 13.5304 11.502 13 11.502H3C2.46957 11.502 1.96086 11.2912 1.58579 10.9162C1.21071 10.5411 1 10.0324 1 9.50195V6.50195C1 5.97152 1.21071 5.46281 1.58579 5.08774C1.96086 4.71267 2.46957 4.50195 3 4.50195ZM3 5.50195C2.73478 5.50195 2.48043 5.60731 2.29289 5.79485C2.10536 5.98238 2 6.23674 2 6.50195V9.50195C2 9.76717 2.10536 10.0215 2.29289 10.2091C2.48043 10.3966 2.73478 10.502 3 10.502H13C13.2652 10.502 13.5196 10.3966 13.7071 10.2091C13.8946 10.0215 14 9.76717 14 9.50195V6.50195C14 6.23674 13.8946 5.98238 13.7071 5.79485C13.5196 5.60731 13.2652 5.50195 13 5.50195H3ZM1 2.00195C1 1.86934 1.05268 1.74217 1.14645 1.6484C1.24021 1.55463 1.36739 1.50195 1.5 1.50195H14.5C14.6326 1.50195 14.7598 1.55463 14.8536 1.6484C14.9473 1.74217 15 1.86934 15 2.00195C15 2.13456 14.9473 2.26174 14.8536 2.35551C14.7598 2.44927 14.6326 2.50195 14.5 2.50195H1.5C1.36739 2.50195 1.24021 2.44927 1.14645 2.35551C1.05268 2.26174 1 2.13456 1 2.00195ZM1 14.002C1 13.8693 1.05268 13.7422 1.14645 13.6484C1.24021 13.5546 1.36739 13.502 1.5 13.502H14.5C14.6326 13.502 14.7598 13.5546 14.8536 13.6484C14.9473 13.7422 15 13.8693 15 14.002C15 14.1346 14.9473 14.2617 14.8536 14.3555C14.7598 14.4493 14.6326 14.502 14.5 14.502H1.5C1.36739 14.502 1.24021 14.4493 1.14645 14.3555C1.05268 14.2617 1 14.1346 1 14.002Z" fill="#A9BBC9"/>
</svg>
