<svg width="24" height="24" viewBox="0 0 24 24" fill="none" xmlns="http://www.w3.org/2000/svg">
<path fill-rule="evenodd" clip-rule="evenodd" d="M2.03095 15.5C2.01052 15.3362 2 15.1693 2 15C2 13.389 2.95238 12.0004 4.32484 11.3666C4.1146 10.7838 4 10.1553 4 9.5C4 6.46243 6.46243 4 9.5 4C12.1581 4 14.3758 5.88567 14.8884 8.39229C15.3708 8.14164 15.9188 8 16.5 8C18.433 8 20 9.567 20 11.5C20 11.8333 19.9534 12.1558 19.8664 12.4612C21.1353 13.1318 22 14.4649 22 16C22 18.2091 20.2091 20 18 20H6C3.79086 20 2 18.2091 2 16C2 15.8307 2.01052 15.6638 2.03095 15.5Z" />
<path d="M12.75 13.9998C12.75 13.5856 12.4142 13.2498 12 13.2498C11.5858 13.2498 11.25 13.5856 11.25 13.9998H12.75ZM11.25 19.4998V20.2498H12.75V19.4998H11.25ZM8.44729 15.4928C8.1673 15.7981 8.18779 16.2725 8.49304 16.5525C8.7983 16.8325 9.27273 16.812 9.55271 16.5067L8.44729 15.4928ZM11.2929 13.4999L10.7626 12.9696L10.7511 12.981L10.7402 12.993L11.2929 13.4999ZM12.7071 13.4999L13.2598 12.993L13.2489 12.981L13.2374 12.9696L12.7071 13.4999ZM14.4473 16.5067C14.7273 16.812 15.2017 16.8325 15.507 16.5525C15.8122 16.2725 15.8327 15.7981 15.5527 15.4928L14.4473 16.5067ZM11.25 13.9998V19.4998H12.75V13.9998H11.25ZM9.55271 16.5067L11.8456 14.0069L10.7402 12.993L8.44729 15.4928L9.55271 16.5067ZM12.1544 14.0069L14.4473 16.5067L15.5527 15.4928L13.2598 12.993L12.1544 14.0069ZM11.8232 14.0303C11.9209 13.9326 12.0791 13.9326 12.1768 14.0303L13.2374 12.9696C12.554 12.2862 11.446 12.2862 10.7626 12.9696L11.8232 14.0303Z" fill="white"/>
</svg>
