<svg width="60" height="28" viewBox="0 0 60 28" fill="none" xmlns="http://www.w3.org/2000/svg">
<path d="M0.000835339 18.9999L5.75473 19.0739L5.75387 27.0102L0.000835339 18.9999Z" fill="#0ABC06"/>
<path d="M53.1016 10.5291L58.6722 18.2064C58.912 18.5369 58.6759 19 58.2675 19L0.748047 19C0.471905 19 0.248047 18.7761 0.248047 18.5L0.248048 1.5C0.248048 1.22386 0.471906 1 0.748048 1L58.2976 1.00001C58.7002 1.00001 58.9377 1.45149 58.7096 1.78324L53.0943 9.95221C52.9743 10.1267 52.9773 10.3577 53.1016 10.5291Z" fill="#0BDE07" stroke="#0BDE07"/>
<path d="M5.87586 11.455L5.87586 14H4.53086L4.53086 6.77H6.88586C7.36919 6.77 7.78753 6.82667 8.14086 6.94C8.49419 7.05333 8.78586 7.21167 9.01586 7.415C9.24586 7.61833 9.41586 7.86167 9.52586 8.145C9.63586 8.42833 9.69086 8.73833 9.69086 9.075C9.69086 9.425 9.63253 9.74667 9.51586 10.04C9.39919 10.33 9.22419 10.58 8.99086 10.79C8.75753 11 8.46586 11.1633 8.11586 11.28C7.76586 11.3967 7.35586 11.455 6.88586 11.455H5.87586ZM5.87586 10.405H6.88586C7.13253 10.405 7.34753 10.375 7.53086 10.315C7.71419 10.2517 7.86586 10.1633 7.98586 10.05C8.10586 9.93333 8.19586 9.79333 8.25586 9.63C8.31586 9.46333 8.34586 9.27833 8.34586 9.075C8.34586 8.88167 8.31586 8.70667 8.25586 8.55C8.19586 8.39333 8.10586 8.26 7.98586 8.15C7.86586 8.04 7.71419 7.95667 7.53086 7.9C7.34753 7.84 7.13253 7.81 6.88586 7.81H5.87586V10.405ZM12.0459 8.87V12.13C12.0459 12.4433 12.1175 12.6867 12.2609 12.86C12.4075 13.03 12.6259 13.115 12.9159 13.115C13.1292 13.115 13.3292 13.0683 13.5159 12.975C13.7025 12.8783 13.8792 12.7467 14.0459 12.58V8.87H15.2809V14H14.5259C14.3659 14 14.2609 13.925 14.2109 13.775L14.1259 13.365C14.0192 13.4717 13.9092 13.57 13.7959 13.66C13.6825 13.7467 13.5609 13.8217 13.4309 13.885C13.3042 13.945 13.1659 13.9917 13.0159 14.025C12.8692 14.0617 12.7109 14.08 12.5409 14.08C12.2609 14.08 12.0125 14.0333 11.7959 13.94C11.5825 13.8433 11.4025 13.7083 11.2559 13.535C11.1092 13.3617 10.9975 13.1567 10.9209 12.92C10.8475 12.68 10.8109 12.4167 10.8109 12.13V8.87H12.0459ZM16.8645 14V6.57H18.0995V9.5C18.3028 9.28333 18.5328 9.11167 18.7895 8.985C19.0461 8.855 19.3461 8.79 19.6895 8.79C19.9695 8.79 20.2245 8.84833 20.4545 8.965C20.6878 9.07833 20.8878 9.245 21.0545 9.465C21.2245 9.685 21.3545 9.95667 21.4445 10.28C21.5378 10.6033 21.5845 10.975 21.5845 11.395C21.5845 11.7783 21.5328 12.1333 21.4295 12.46C21.3261 12.7867 21.1778 13.07 20.9845 13.31C20.7945 13.55 20.5628 13.7383 20.2895 13.875C20.0195 14.0083 19.7161 14.075 19.3795 14.075C19.2228 14.075 19.0795 14.0583 18.9495 14.025C18.8195 13.995 18.7011 13.9517 18.5945 13.895C18.4878 13.8383 18.3878 13.77 18.2945 13.69C18.2045 13.6067 18.1178 13.515 18.0345 13.415L17.9795 13.76C17.9595 13.8467 17.9245 13.9083 17.8745 13.945C17.8278 13.9817 17.7628 14 17.6795 14H16.8645ZM19.2645 9.75C19.0078 9.75 18.7878 9.805 18.6045 9.915C18.4245 10.0217 18.2561 10.1733 18.0995 10.37V12.67C18.2395 12.8433 18.3911 12.965 18.5545 13.035C18.7211 13.1017 18.9011 13.135 19.0945 13.135C19.2811 13.135 19.4495 13.1 19.5995 13.03C19.7495 12.96 19.8761 12.8533 19.9795 12.71C20.0861 12.5667 20.1678 12.3867 20.2245 12.17C20.2811 11.95 20.3095 11.6917 20.3095 11.395C20.3095 11.095 20.2845 10.8417 20.2345 10.635C20.1878 10.425 20.1195 10.255 20.0295 10.125C19.9395 9.995 19.8295 9.9 19.6995 9.84C19.5728 9.78 19.4278 9.75 19.2645 9.75ZM24.1176 6.57V14H22.8826V6.57H24.1176ZM27.0824 8.87V14H25.8474V8.87H27.0824ZM27.2674 7.375C27.2674 7.48167 27.2458 7.58167 27.2024 7.675C27.1591 7.76833 27.1008 7.85 27.0274 7.92C26.9574 7.99 26.8741 8.04667 26.7774 8.09C26.6808 8.13 26.5774 8.15 26.4674 8.15C26.3608 8.15 26.2591 8.13 26.1624 8.09C26.0691 8.04667 25.9874 7.99 25.9174 7.92C25.8474 7.85 25.7908 7.76833 25.7474 7.675C25.7074 7.58167 25.6874 7.48167 25.6874 7.375C25.6874 7.265 25.7074 7.16167 25.7474 7.065C25.7908 6.96833 25.8474 6.885 25.9174 6.815C25.9874 6.745 26.0691 6.69 26.1624 6.65C26.2591 6.60667 26.3608 6.585 26.4674 6.585C26.5774 6.585 26.6808 6.60667 26.7774 6.65C26.8741 6.69 26.9574 6.745 27.0274 6.815C27.1008 6.885 27.1591 6.96833 27.2024 7.065C27.2458 7.16167 27.2674 7.265 27.2674 7.375ZM31.7773 9.87C31.7439 9.92333 31.7089 9.96167 31.6723 9.985C31.6356 10.005 31.5889 10.015 31.5323 10.015C31.4723 10.015 31.4073 9.99833 31.3373 9.965C31.2706 9.93167 31.1923 9.895 31.1023 9.855C31.0123 9.81167 30.9089 9.77333 30.7923 9.74C30.6789 9.70667 30.5439 9.69 30.3873 9.69C30.1439 9.69 29.9523 9.74167 29.8123 9.845C29.6723 9.94833 29.6023 10.0833 29.6023 10.25C29.6023 10.36 29.6373 10.4533 29.7073 10.53C29.7806 10.6033 29.8756 10.6683 29.9923 10.725C30.1123 10.7817 30.2473 10.8333 30.3973 10.88C30.5473 10.9233 30.7006 10.9717 30.8573 11.025C31.0139 11.0783 31.1673 11.14 31.3173 11.21C31.4673 11.2767 31.6006 11.3633 31.7173 11.47C31.8373 11.5733 31.9323 11.6983 32.0023 11.845C32.0756 11.9917 32.1123 12.1683 32.1123 12.375C32.1123 12.6217 32.0673 12.85 31.9773 13.06C31.8873 13.2667 31.7556 13.4467 31.5823 13.6C31.4089 13.75 31.1939 13.8683 30.9373 13.955C30.6839 14.0383 30.3923 14.08 30.0623 14.08C29.8856 14.08 29.7123 14.0633 29.5423 14.03C29.3756 14 29.2139 13.9567 29.0573 13.9C28.9039 13.8433 28.7606 13.7767 28.6273 13.7C28.4973 13.6233 28.3823 13.54 28.2823 13.45L28.5673 12.98C28.6039 12.9233 28.6473 12.88 28.6973 12.85C28.7473 12.82 28.8106 12.805 28.8873 12.805C28.9639 12.805 29.0356 12.8267 29.1023 12.87C29.1723 12.9133 29.2523 12.96 29.3423 13.01C29.4323 13.06 29.5373 13.1067 29.6573 13.15C29.7806 13.1933 29.9356 13.215 30.1223 13.215C30.2689 13.215 30.3939 13.1983 30.4973 13.165C30.6039 13.1283 30.6906 13.0817 30.7573 13.025C30.8273 12.9683 30.8773 12.9033 30.9073 12.83C30.9406 12.7533 30.9573 12.675 30.9573 12.595C30.9573 12.475 30.9206 12.3767 30.8473 12.3C30.7773 12.2233 30.6823 12.1567 30.5623 12.1C30.4456 12.0433 30.3106 11.9933 30.1573 11.95C30.0073 11.9033 29.8523 11.8533 29.6923 11.8C29.5356 11.7467 29.3806 11.685 29.2273 11.615C29.0773 11.5417 28.9423 11.45 28.8223 11.34C28.7056 11.23 28.6106 11.095 28.5373 10.935C28.4673 10.775 28.4323 10.5817 28.4323 10.355C28.4323 10.145 28.4739 9.945 28.5573 9.755C28.6406 9.565 28.7623 9.4 28.9223 9.26C29.0856 9.11667 29.2873 9.00333 29.5273 8.92C29.7706 8.83333 30.0506 8.79 30.3673 8.79C30.7206 8.79 31.0423 8.84833 31.3323 8.965C31.6223 9.08167 31.8639 9.235 32.0573 9.425L31.7773 9.87ZM33.3475 14V6.57H34.5825V9.425C34.7825 9.235 35.0025 9.08167 35.2425 8.965C35.4825 8.84833 35.7642 8.79 36.0875 8.79C36.3675 8.79 36.6158 8.83833 36.8325 8.935C37.0492 9.02833 37.2292 9.16167 37.3725 9.335C37.5192 9.505 37.6292 9.71 37.7025 9.95C37.7792 10.1867 37.8175 10.4483 37.8175 10.735V14H36.5825V10.735C36.5825 10.4217 36.5092 10.18 36.3625 10.01C36.2192 9.83667 36.0025 9.75 35.7125 9.75C35.4992 9.75 35.2992 9.79833 35.1125 9.895C34.9258 9.99167 34.7492 10.1233 34.5825 10.29V14H33.3475ZM41.4011 8.79C41.7244 8.79 42.0211 8.84167 42.2911 8.945C42.5644 9.04833 42.7994 9.2 42.9961 9.4C43.1928 9.59667 43.3461 9.84 43.4561 10.13C43.5661 10.4167 43.6211 10.745 43.6211 11.115C43.6211 11.2083 43.6161 11.2867 43.6061 11.35C43.5994 11.41 43.5844 11.4583 43.5611 11.495C43.5411 11.5283 43.5128 11.5533 43.4761 11.57C43.4394 11.5833 43.3928 11.59 43.3361 11.59H40.1661C40.2028 12.1167 40.3444 12.5033 40.5911 12.75C40.8378 12.9967 41.1644 13.12 41.5711 13.12C41.7711 13.12 41.9428 13.0967 42.0861 13.05C42.2328 13.0033 42.3594 12.9517 42.4661 12.895C42.5761 12.8383 42.6711 12.7867 42.7511 12.74C42.8344 12.6933 42.9144 12.67 42.9911 12.67C43.0411 12.67 43.0844 12.68 43.1211 12.7C43.1578 12.72 43.1894 12.7483 43.2161 12.785L43.5761 13.235C43.4394 13.395 43.2861 13.53 43.1161 13.64C42.9461 13.7467 42.7678 13.8333 42.5811 13.9C42.3978 13.9633 42.2094 14.0083 42.0161 14.035C41.8261 14.0617 41.6411 14.075 41.4611 14.075C41.1044 14.075 40.7728 14.0167 40.4661 13.9C40.1594 13.78 39.8928 13.605 39.6661 13.375C39.4394 13.1417 39.2611 12.855 39.1311 12.515C39.0011 12.1717 38.9361 11.775 38.9361 11.325C38.9361 10.975 38.9928 10.6467 39.1061 10.34C39.2194 10.03 39.3811 9.76167 39.5911 9.535C39.8044 9.305 40.0628 9.12333 40.3661 8.99C40.6728 8.85667 41.0178 8.79 41.4011 8.79ZM41.4261 9.675C41.0661 9.675 40.7844 9.77667 40.5811 9.98C40.3778 10.1833 40.2478 10.4717 40.1911 10.845H42.5111C42.5111 10.685 42.4894 10.535 42.4461 10.395C42.4028 10.2517 42.3361 10.1267 42.2461 10.02C42.1561 9.91333 42.0428 9.83 41.9061 9.77C41.7694 9.70667 41.6094 9.675 41.4261 9.675ZM48.4829 14C48.3229 14 48.2179 13.925 48.1679 13.775L48.0679 13.28C47.9612 13.4 47.8496 13.5083 47.7329 13.605C47.6162 13.7017 47.4896 13.785 47.3529 13.855C47.2196 13.925 47.0746 13.9783 46.9179 14.015C46.7646 14.055 46.5979 14.075 46.4179 14.075C46.1379 14.075 45.8812 14.0167 45.6479 13.9C45.4146 13.7833 45.2129 13.615 45.0429 13.395C44.8762 13.1717 44.7462 12.8967 44.6529 12.57C44.5629 12.2433 44.5179 11.87 44.5179 11.45C44.5179 11.07 44.5696 10.7167 44.6729 10.39C44.7762 10.0633 44.9246 9.78 45.1179 9.54C45.3112 9.3 45.5429 9.11333 45.8129 8.98C46.0829 8.84333 46.3862 8.775 46.7229 8.775C47.0096 8.775 47.2546 8.82167 47.4579 8.915C47.6612 9.005 47.8429 9.12667 48.0029 9.28V6.57H49.2379V14H48.4829ZM46.8379 13.095C47.0946 13.095 47.3129 13.0417 47.4929 12.935C47.6729 12.8283 47.8429 12.6767 48.0029 12.48V10.18C47.8629 10.01 47.7096 9.89 47.5429 9.82C47.3796 9.75 47.2029 9.715 47.0129 9.715C46.8262 9.715 46.6562 9.75 46.5029 9.82C46.3529 9.89 46.2246 9.99667 46.1179 10.14C46.0146 10.28 45.9346 10.46 45.8779 10.68C45.8212 10.8967 45.7929 11.1533 45.7929 11.45C45.7929 11.75 45.8162 12.005 45.8629 12.215C45.9129 12.4217 45.9829 12.5917 46.0729 12.725C46.1629 12.855 46.2729 12.95 46.4029 13.01C46.5329 13.0667 46.6779 13.095 46.8379 13.095Z" fill="white"/>
</svg>
