<svg width="24" height="24" viewBox="0 0 24 24" fill="none" xmlns="http://www.w3.org/2000/svg">
<path fill-rule="evenodd" clip-rule="evenodd" d="M4 4V8.5H8.5V4H4ZM5.5 7V5.5H7V7H5.5Z" fill="#723614"/>
<path fill-rule="evenodd" clip-rule="evenodd" d="M4 16V20.5H8.5V16H4ZM5.5 19V17.5H7V19H5.5Z" fill="#723614"/>
<path fill-rule="evenodd" clip-rule="evenodd" d="M15 4H19.5V8.5H15V4ZM16.5 5.5V7H18V5.5H16.5Z" fill="#723614"/>
<path d="M15 16V20.451H16.5V17.5H18V20.451H19.5V16H15Z" fill="#723614"/>
<path d="M11.5 6.5V11.5001H5.5V15H4V10.0001H10V6.5H11.5Z" fill="#723614"/>
<path d="M10 4V5.5H12.5V9H14V4H10Z" fill="#723614"/>
<path d="M19.5 9.67114V14.9999L15 15L15 13.5L18 13.4999V9.67114H19.5Z" fill="#723614"/>
<path d="M12.7544 10V13H9.5V17H12V20.5H13.5V15.5H11V14.5H14.2544V11.5H15.5V12.5H17V10H12.7544Z" fill="#723614"/>
<path d="M6.75 12.75H8.25V14.25H6.75V12.75Z" fill="#723614"/>
<path d="M10.75 17.75H9.25002L9.25 20.4933H10.75V17.75Z" fill="#723614"/>
</svg>
