<svg width="24" height="24" viewBox="0 0 24 24" fill="none" xmlns="http://www.w3.org/2000/svg">
<path d="M11.75 16.75C14.5114 16.75 16.75 14.5114 16.75 11.75C16.75 8.98858 14.5114 6.75 11.75 6.75C8.98858 6.75 6.75 8.98858 6.75 11.75C6.75 14.5114 8.98858 16.75 11.75 16.75Z" fill="#886CC4"/>
<path fill-rule="evenodd" clip-rule="evenodd" d="M11.75 3C6.91751 3 3 6.91751 3 11.75C3 16.5825 6.91751 20.5 11.75 20.5C16.5825 20.5 20.5 16.5825 20.5 11.75C20.5 6.91751 16.5825 3 11.75 3ZM4.5 11.75C4.5 7.74594 7.74594 4.5 11.75 4.5C15.7541 4.5 19 7.74594 19 11.75C19 15.7541 15.7541 19 11.75 19C7.74594 19 4.5 15.7541 4.5 11.75Z" fill="#886CC4"/>
</svg>
