<svg width="24" height="24" viewBox="0 0 24 24" fill="none" xmlns="http://www.w3.org/2000/svg">
<path d="M11.9972 4.34549C12.1468 3.88484 12.7985 3.88484 12.9482 4.34549L14.6056 9.4463C14.6725 9.65232 14.8645 9.7918 15.0811 9.7918H20.4444C20.9288 9.7918 21.1302 10.4116 20.7383 10.6963L16.3993 13.8488C16.224 13.9761 16.1507 14.2018 16.2177 14.4078L17.875 19.5086C18.0247 19.9693 17.4974 20.3523 17.1056 20.0676L12.7666 16.9152C12.5913 16.7878 12.354 16.7878 12.1788 16.9152L7.83978 20.0676C7.44792 20.3523 6.92068 19.9693 7.07036 19.5086L8.72771 14.4078C8.79465 14.2018 8.72132 13.9761 8.54608 13.8488L4.20707 10.6963C3.81521 10.4116 4.0166 9.7918 4.50096 9.7918H9.86427C10.0809 9.7918 10.2729 9.65232 10.3398 9.4463L11.9972 4.34549Z" stroke="#F1A81A" stroke-width="1.5"/>
</svg>
