<svg width="24" height="24" viewBox="0 0 24 24" fill="none" xmlns="http://www.w3.org/2000/svg">
<path d="M21.0964 9.09702C21.3781 9.30004 21.3722 9.72139 21.0848 9.9164L15.5315 13.685C15.1995 13.9103 14.7507 13.6725 14.7507 13.2712L14.7507 10.2744H7.56481C5.2713 10.2744 3.5 12.0003 3.5 14.0244C3.5 16.0485 5.2713 17.7744 7.56481 17.7744H11.25C11.6642 17.7744 12 18.1102 12 18.5244C12 18.9386 11.6642 19.2744 11.25 19.2744H7.56481C4.54003 19.2744 2 16.9708 2 14.0244C2 11.0779 4.54003 8.77437 7.56481 8.77437H14.7507L14.7508 5.50088C14.7508 5.09324 15.2124 4.85692 15.5431 5.09524L21.0964 9.09702Z" />
</svg>
