<svg width="24" height="24" viewBox="0 0 24 24" fill="none" xmlns="http://www.w3.org/2000/svg">
<path d="M18.1525 10.4886L12.9981 15.6429C12.7318 15.9089 12.5502 16.2477 12.4761 16.6168L12 19L14.3832 18.523C14.7522 18.4492 15.0907 18.2683 15.3571 18.0019L20.5114 12.8475C20.6663 12.6926 20.7892 12.5087 20.873 12.3063C20.9569 12.104 21 11.8871 21 11.668C21 11.449 20.9569 11.2321 20.873 11.0297C20.7892 10.8273 20.6663 10.6434 20.5114 10.4886C20.3566 10.3337 20.1727 10.2108 19.9703 10.127C19.7679 10.0431 19.551 10 19.332 10C19.1129 10 18.896 10.0431 18.6937 10.127C18.4913 10.2108 18.3074 10.3337 18.1525 10.4886Z" fill="none"/>
<path d="M15.6185 4.44359L14.9953 4.8609L14.9953 4.8609L15.6185 4.44359ZM17.8309 7.74749L17.2077 8.1648L17.2077 8.1648L17.8309 7.74749ZM17.25 10C17.25 10.4142 17.5858 10.75 18 10.75C18.4142 10.75 18.75 10.4142 18.75 10H17.25ZM18.75 18C18.75 17.5858 18.4142 17.25 18 17.25C17.5858 17.25 17.25 17.5858 17.25 18H18.75ZM17.4569 11.6366C17.1639 11.3438 16.6891 11.3439 16.3962 11.6369C16.1034 11.9298 16.1035 12.4047 16.3965 12.6975L17.4569 11.6366ZM18.3027 14.6029C18.5957 14.8957 19.0705 14.8956 19.3634 14.6026C19.6562 14.3097 19.6561 13.8348 19.3631 13.542L18.3027 14.6029ZM18.1525 10.4886L17.6222 9.95822L18.1525 10.4886ZM12.9981 15.6429L13.5281 16.1736L13.5284 16.1733L12.9981 15.6429ZM12.4761 16.6168L11.7408 16.4692L11.7406 16.4698L12.4761 16.6168ZM12 19L11.2645 18.8531C11.2154 19.099 11.2924 19.3531 11.4698 19.5304C11.6471 19.7077 11.9013 19.7846 12.1472 19.7354L12 19ZM14.3832 18.523L14.2362 17.7876L14.236 17.7876L14.3832 18.523ZM16.9286 20.25H4.07143V21.75H16.9286V20.25ZM3.75 20V5H2.25V20H3.75ZM4.07143 20.25C3.84433 20.25 3.75 20.0902 3.75 20H2.25C2.25 21.0144 3.11506 21.75 4.07143 21.75V20.25ZM17.25 20C17.25 20.0902 17.1557 20.25 16.9286 20.25V21.75C17.8849 21.75 18.75 21.0144 18.75 20H17.25ZM4.07143 3.25C3.11506 3.25 2.25 3.9856 2.25 5H3.75C3.75 4.90983 3.84433 4.75 4.07143 4.75V3.25ZM4.07143 4.75H14.7876V3.25H4.07143V4.75ZM14.9953 4.8609L17.2077 8.1648L18.4541 7.33018L16.2417 4.02628L14.9953 4.8609ZM17.25 8.3039V10H18.75V8.3039H17.25ZM17.25 18V20H18.75V18H17.25ZM14.7876 4.75C14.871 4.75 14.9489 4.79159 14.9953 4.8609L16.2417 4.02628C15.9168 3.54116 15.3714 3.25 14.7876 3.25V4.75ZM17.2077 8.1648C17.2353 8.20595 17.25 8.25437 17.25 8.3039H18.75C18.75 7.95718 18.647 7.61827 18.4541 7.33018L17.2077 8.1648ZM13.25 4V10H14.75V4H13.25ZM13 10.25H7V11.75H13V10.25ZM6.75 10V4H5.25V10H6.75ZM7 10.25C6.86193 10.25 6.75 10.1381 6.75 10H5.25C5.25 10.9665 6.0335 11.75 7 11.75V10.25ZM13.25 10C13.25 10.1381 13.1381 10.25 13 10.25V11.75C13.9665 11.75 14.75 10.9665 14.75 10H13.25ZM16.3965 12.6975L18.3027 14.6029L19.3631 13.542L17.4569 11.6366L16.3965 12.6975ZM17.6222 9.95822L12.4678 15.1126L13.5284 16.1733L18.6828 11.0189L17.6222 9.95822ZM12.4682 15.1122C12.097 15.4828 11.844 15.955 11.7408 16.4692L13.2114 16.7643C13.2564 16.5405 13.3665 16.335 13.5281 16.1736L12.4682 15.1122ZM11.7406 16.4698L11.2645 18.8531L12.7355 19.1469L13.2116 16.7637L11.7406 16.4698ZM12.1472 19.7354L14.5304 19.2584L14.236 17.7876L11.8528 18.2646L12.1472 19.7354ZM14.5303 19.2584C15.0444 19.1556 15.5162 18.9034 15.8874 18.5322L14.8267 17.4716C14.6651 17.6331 14.4601 17.7428 14.2362 17.7876L14.5303 19.2584ZM15.8874 18.5322L21.0418 13.3778L19.9811 12.3172L14.8267 17.4716L15.8874 18.5322ZM21.0418 13.3778C21.2663 13.1533 21.4444 12.8867 21.5659 12.5934L20.1801 12.0193C20.134 12.1307 20.0664 12.2319 19.9811 12.3172L21.0418 13.3778ZM21.5659 12.5934C21.6875 12.3 21.75 11.9856 21.75 11.668H20.25C20.25 11.7886 20.2263 11.908 20.1801 12.0193L21.5659 12.5934ZM21.75 11.668C21.75 11.3505 21.6875 11.0361 21.5659 10.7427L20.1801 11.3167C20.2263 11.4281 20.25 11.5475 20.25 11.668H21.75ZM21.5659 10.7427C21.4444 10.4493 21.2663 10.1828 21.0418 9.95822L19.9811 11.0189C20.0664 11.1041 20.134 11.2053 20.1801 11.3167L21.5659 10.7427ZM21.0418 9.95822C20.8172 9.73369 20.5507 9.55558 20.2573 9.43406L19.6833 10.8199C19.7947 10.866 19.8959 10.9336 19.9811 11.0189L21.0418 9.95822ZM20.2573 9.43406C19.9639 9.31254 19.6495 9.25 19.332 9.25V10.75C19.4525 10.75 19.5719 10.7737 19.6833 10.8199L20.2573 9.43406ZM19.332 9.25C19.0144 9.25 18.7 9.31254 18.4066 9.43406L18.9807 10.8199C19.092 10.7737 19.2114 10.75 19.332 10.75V9.25ZM18.4066 9.43406C18.1133 9.55558 17.8467 9.73369 17.6222 9.95822L18.6828 11.0189C18.7681 10.9336 18.8693 10.866 18.9807 10.8199L18.4066 9.43406Z" />
</svg>
