<svg width="24" height="24" viewBox="0 0 24 24" fill="none" xmlns="http://www.w3.org/2000/svg">
<path d="M19.4697 20.5303C19.7626 20.8232 20.2374 20.8232 20.5303 20.5303C20.8232 20.2374 20.8232 19.7626 20.5303 19.4697L19.4697 20.5303ZM10.6667 16.5833C7.39898 16.5833 4.75 13.9344 4.75 10.6667H3.25C3.25 14.7628 6.57055 18.0833 10.6667 18.0833V16.5833ZM4.75 10.6667C4.75 7.39898 7.39898 4.75 10.6667 4.75V3.25C6.57055 3.25 3.25 6.57055 3.25 10.6667H4.75ZM10.6667 4.75C13.9344 4.75 16.5833 7.39898 16.5833 10.6667H18.0833C18.0833 6.57055 14.7628 3.25 10.6667 3.25V4.75ZM20.5303 19.4697L15.911 14.8504L14.8504 15.911L19.4697 20.5303L20.5303 19.4697ZM16.5833 10.6667C16.5833 12.3007 15.9219 13.7789 14.8504 14.8504L15.911 15.911C17.2524 14.5697 18.0833 12.7145 18.0833 10.6667H16.5833ZM14.8504 14.8504C13.7789 15.9219 12.3007 16.5833 10.6667 16.5833V18.0833C12.7145 18.0833 14.5697 17.2524 15.911 15.911L14.8504 14.8504Z" />
</svg>
