<svg width="24" height="24" viewBox="0 0 24 24" fill="none" xmlns="http://www.w3.org/2000/svg">
<path d="M3 9.75C3 7.67893 4.67893 6 6.75 6H17.75C19.8211 6 21.5 7.67893 21.5 9.75C21.5 11.7201 20.1962 13.5 18.0309 13.5C17.6167 13.5 17.2809 13.1642 17.2809 12.75C17.2809 12.3358 17.6167 12 18.0309 12C19.1794 12 20 11.0936 20 9.75C20 8.50736 18.9926 7.5 17.75 7.5H6.75C5.50736 7.5 4.5 8.50736 4.5 9.75C4.5 10.9926 5.50736 12 6.75 12H11.25C11.6642 12 12 12.3358 12 12.75C12 13.1642 11.6642 13.5 11.25 13.5H6.75C4.67893 13.5 3 11.8211 3 9.75Z" fill="black"/>
<path d="M14.75 11C15.1642 11 15.5 11.3358 15.5 11.75V14H17.75C18.1642 14 18.5 14.3358 18.5 14.75C18.5 15.1642 18.1642 15.5 17.75 15.5H15.5V17.75C15.5 18.1642 15.1642 18.5 14.75 18.5C14.3358 18.5 14 18.1642 14 17.75V15.5H11.75C11.3358 15.5 11 15.1642 11 14.75C11 14.3358 11.3358 14 11.75 14H14V11.75C14 11.3358 14.3358 11 14.75 11Z" fill="black"/>
</svg>
