<svg width="24" height="24" viewBox="0 0 24 24" fill="none" xmlns="http://www.w3.org/2000/svg">
<path d="M13.25 14.2745C13.25 14.6887 13.5858 15.0245 14 15.0245C14.4142 15.0245 14.75 14.6887 14.75 14.2745H13.25ZM15.25 14C15.25 14.4142 15.5858 14.75 16 14.75C16.4142 14.75 16.75 14.4142 16.75 14H15.25ZM17.25 15C17.25 15.4142 17.5858 15.75 18 15.75C18.4142 15.75 18.75 15.4142 18.75 15H17.25ZM9.38859 19.9464L10.0493 19.5915L9.38859 19.9464ZM7.42722 16.2953L8.08792 15.9404L7.42722 16.2953ZM7.74759 14.9939L7.32717 14.3729L7.74759 14.9939ZM10.375 14.1211C10.718 13.8889 10.8078 13.4226 10.5756 13.0796C10.3434 12.7366 9.87714 12.6467 9.53412 12.8789L10.375 14.1211ZM18 15.5L18.7484 15.5495L18.75 15.5248V15.5H18ZM17.7599 19.1319L17.0115 19.0824L17.7599 19.1319ZM18.75 14.5C18.75 14.0858 18.4142 13.75 18 13.75C17.5858 13.75 17.25 14.0858 17.25 14.5H18.75ZM11.25 14.7921C11.25 15.2063 11.5858 15.5421 12 15.5421C12.4142 15.5421 12.75 15.2063 12.75 14.7921H11.25ZM9.25 16C9.25 16.4142 9.58579 16.75 10 16.75C10.4142 16.75 10.75 16.4142 10.75 16H9.25ZM14.7628 4.28849C14.3699 4.41947 14.1575 4.84421 14.2885 5.23717C14.4195 5.63013 14.8442 5.8425 15.2372 5.71151L14.7628 4.28849ZM15.1819 6.77239C14.7801 6.67193 14.3729 6.91625 14.2724 7.3181C14.1719 7.71994 14.4163 8.12715 14.8181 8.22761L15.1819 6.77239ZM13.25 12V14.2745H14.75V12H13.25ZM12.814 11.75C12.9729 11.75 13.096 11.8046 13.1692 11.8663C13.2407 11.9266 13.25 11.9767 13.25 12H14.75C14.75 10.9187 13.7583 10.25 12.814 10.25V11.75ZM12.814 10.25C12.3362 10.25 11.8835 10.4069 11.5329 10.686L12.4671 11.8595C12.5414 11.8004 12.6615 11.75 12.814 11.75V10.25ZM15.25 13V14H16.75V13H15.25ZM14.814 12.75C14.9729 12.75 15.096 12.8046 15.1692 12.8663C15.2407 12.9266 15.25 12.9767 15.25 13H16.75C16.75 11.9187 15.7583 11.25 14.814 11.25V12.75ZM14.814 11.25C14.3362 11.25 13.8835 11.4069 13.5329 11.686L14.4671 12.8595C14.5414 12.8004 14.6615 12.75 14.814 12.75V11.25ZM17.25 13.8653V15H18.75V13.8653H17.25ZM16.814 13.75C16.9997 13.75 17.1375 13.806 17.2106 13.8593C17.2843 13.9131 17.25 13.9244 17.25 13.8653H18.75C18.75 13.3284 18.4502 12.9069 18.0947 12.6476C17.7386 12.3877 17.2834 12.25 16.814 12.25V13.75ZM16.814 12.25C16.3617 12.25 15.9237 12.3778 15.5745 12.6184L16.4255 13.8537C16.5011 13.8016 16.636 13.75 16.814 13.75V12.25ZM15.7642 20.25H11.1505V21.75H15.7642V20.25ZM10.0493 19.5915L8.08792 15.9404L6.76652 16.6502L8.72789 20.3014L10.0493 19.5915ZM8.16802 15.615L10.375 14.1211L9.53412 12.8789L7.32717 14.3729L8.16802 15.615ZM17.2516 15.4505L17.0115 19.0824L18.5082 19.1814L18.7484 15.5495L17.2516 15.4505ZM17.25 14.5V15.5H18.75V14.5H17.25ZM11.1505 20.25C10.6902 20.25 10.2671 19.997 10.0493 19.5915L8.72789 20.3014C9.20711 21.1934 10.1378 21.75 11.1505 21.75V20.25ZM15.7642 21.75C17.2126 21.75 18.4127 20.6266 18.5082 19.1814L17.0115 19.0824C16.9681 19.7393 16.4226 20.25 15.7642 20.25V21.75ZM8.08792 15.9404C8.02725 15.8274 8.06185 15.6869 8.16802 15.615L7.32717 14.3729C6.584 14.8759 6.34182 15.8596 6.76652 16.6502L8.08792 15.9404ZM11.25 7V14.7921H12.75V7H11.25ZM10.75 16V7H9.25V16H10.75ZM11 6.75C11.1381 6.75 11.25 6.86193 11.25 7H12.75C12.75 6.0335 11.9665 5.25 11 5.25V6.75ZM11 5.25C10.0335 5.25 9.25 6.0335 9.25 7H10.75C10.75 6.86193 10.8619 6.75 11 6.75V5.25ZM4.8181 5.22761L6.8181 5.72761L7.1819 4.27239L5.1819 3.77239L4.8181 5.22761ZM15.2372 5.71151L18.2372 4.71151L17.7628 3.28849L14.7628 4.28849L15.2372 5.71151ZM7.96967 7.96967L6.46967 9.46967L7.53033 10.5303L9.03033 9.03033L7.96967 7.96967ZM14.8181 8.22761L16.8181 8.72761L17.1819 7.27239L15.1819 6.77239L14.8181 8.22761ZM7.75 6C7.75 4.20507 9.20507 2.75 11 2.75V1.25C8.37665 1.25 6.25 3.37665 6.25 6H7.75ZM11 2.75C12.7949 2.75 14.25 4.20507 14.25 6H15.75C15.75 3.37665 13.6234 1.25 11 1.25V2.75ZM10.1869 9.14765C8.78504 8.78683 7.75 7.51334 7.75 6H6.25C6.25 8.21434 7.76451 10.0731 9.81306 10.6003L10.1869 9.14765ZM14.25 6C14.25 7.51334 13.215 8.78683 11.8131 9.14765L12.1869 10.6003C14.2355 10.0731 15.75 8.21434 15.75 6H14.25ZM4.25 4C4.25 4.13807 4.13807 4.25 4 4.25V5.75C4.9665 5.75 5.75 4.9665 5.75 4H4.25ZM4 4.25C3.86193 4.25 3.75 4.13807 3.75 4H2.25C2.25 4.9665 3.0335 5.75 4 5.75V4.25ZM3.75 4C3.75 3.86193 3.86193 3.75 4 3.75V2.25C3.0335 2.25 2.25 3.0335 2.25 4H3.75ZM4 3.75C4.13807 3.75 4.25 3.86193 4.25 4H5.75C5.75 3.0335 4.9665 2.25 4 2.25V3.75ZM19.4576 3.1539C19.4916 3.28773 19.4106 3.42376 19.2768 3.45773L19.6459 4.91162C20.5826 4.67383 21.1493 3.72164 20.9115 2.78485L19.4576 3.1539ZM19.2768 3.45773C19.143 3.4917 19.007 3.41075 18.973 3.27692L17.5191 3.64598C17.7569 4.58276 18.7091 5.14941 19.6459 4.91162L19.2768 3.45773ZM18.973 3.27692C18.939 3.1431 19.02 3.00707 19.1538 2.9731L18.7847 1.51921C17.8479 1.757 17.2813 2.70919 17.5191 3.64598L18.973 3.27692ZM19.1538 2.9731C19.2876 2.93913 19.4236 3.02008 19.4576 3.1539L20.9115 2.78485C20.6737 1.84806 19.7215 1.28141 18.7847 1.51921L19.1538 2.9731ZM18.25 8C18.25 8.13807 18.1381 8.25 18 8.25V9.75C18.9665 9.75 19.75 8.9665 19.75 8H18.25ZM18 8.25C17.8619 8.25 17.75 8.13807 17.75 8H16.25C16.25 8.9665 17.0335 9.75 18 9.75V8.25ZM17.75 8C17.75 7.86193 17.8619 7.75 18 7.75V6.25C17.0335 6.25 16.25 7.0335 16.25 8H17.75ZM18 7.75C18.1381 7.75 18.25 7.86193 18.25 8H19.75C19.75 7.0335 18.9665 6.25 18 6.25V7.75ZM6.25 11C6.25 11.1381 6.13807 11.25 6 11.25V12.75C6.9665 12.75 7.75 11.9665 7.75 11H6.25ZM6 11.25C5.86193 11.25 5.75 11.1381 5.75 11H4.25C4.25 11.9665 5.0335 12.75 6 12.75V11.25ZM5.75 11C5.75 10.8619 5.86193 10.75 6 10.75V9.25C5.0335 9.25 4.25 10.0335 4.25 11H5.75ZM6 10.75C6.13807 10.75 6.25 10.8619 6.25 11H7.75C7.75 10.0335 6.9665 9.25 6 9.25V10.75Z" fill="#8A8A8A"/>
</svg>
