<svg width="13" height="12" viewBox="0 0 13 12" fill="none" xmlns="http://www.w3.org/2000/svg">
<path fill-rule="evenodd" clip-rule="evenodd" d="M6.49844 11.5984C9.59123 11.5984 12.0984 9.09123 12.0984 5.99844C12.0984 2.90564 9.59123 0.398438 6.49844 0.398438C3.40564 0.398438 0.898438 2.90564 0.898438 5.99844C0.898438 9.09123 3.40564 11.5984 6.49844 11.5984ZM9.19802 4.73223C9.36856 4.49774 9.31672 4.16939 9.08223 3.99885C8.84773 3.82831 8.51939 3.88015 8.34885 4.11465L5.91022 7.46776L4.59467 6.15221C4.38964 5.94718 4.05723 5.94718 3.85221 6.15221C3.64718 6.35723 3.64718 6.68964 3.85221 6.89467L5.60221 8.64467C5.71078 8.75324 5.86143 8.80884 6.0145 8.79683C6.16757 8.78482 6.30772 8.7064 6.39802 8.58223L9.19802 4.73223Z" fill="#0BE78B"/>
</svg>
