<svg width="24" height="23" viewBox="0 0 24 23" fill="none" xmlns="http://www.w3.org/2000/svg">
<g clip-path="url(#clip0_16445_43262)">
<path d="M5 5.97656C4.73478 5.97656 4.48043 6.08192 4.29289 6.26946C4.10536 6.45699 4 6.71135 4 6.97656V15.9766C4 16.2418 4.10536 16.4961 4.29289 16.6837C4.48043 16.8712 4.73478 16.9766 5 16.9766H19C19.2652 16.9766 19.5196 16.8712 19.7071 16.6837C19.8946 16.4961 20 16.2418 20 15.9766V6.97656C20 6.71135 19.8946 6.45699 19.7071 6.26946C19.5196 6.08192 19.2652 5.97656 19 5.97656H5ZM5 3.97656H19C19.7956 3.97656 20.5587 4.29263 21.1213 4.85524C21.6839 5.41785 22 6.18091 22 6.97656V15.9766C22 16.7722 21.6839 17.5353 21.1213 18.0979C20.5587 18.6605 19.7956 18.9766 19 18.9766H5C4.20435 18.9766 3.44129 18.6605 2.87868 18.0979C2.31607 17.5353 2 16.7722 2 15.9766V6.97656C2 6.18091 2.31607 5.41785 2.87868 4.85524C3.44129 4.29263 4.20435 3.97656 5 3.97656ZM9 19.9766H15C15.2652 19.9766 15.5196 20.0819 15.7071 20.2695C15.8946 20.457 16 20.7113 16 20.9766C16 21.2418 15.8946 21.4961 15.7071 21.6837C15.5196 21.8712 15.2652 21.9766 15 21.9766H9C8.73478 21.9766 8.48043 21.8712 8.29289 21.6837C8.10536 21.4961 8 21.2418 8 20.9766C8 20.7113 8.10536 20.457 8.29289 20.2695C8.48043 20.0819 8.73478 19.9766 9 19.9766Z" fill="#FF9A62"/>
</g>
<defs>
<clipPath id="clip0_16445_43262">
<rect width="24" height="21.8889" fill="white" transform="translate(0 0.976562)"/>
</clipPath>
</defs>
</svg>
