<svg width="24" height="24" viewBox="0 0 24 24" fill="none" xmlns="http://www.w3.org/2000/svg">
<!-- <rect width="24" height="24" fill="white"/> -->
<path d="M3.25 8C3.25 8.41421 3.58579 8.75 4 8.75C4.41421 8.75 4.75 8.41421 4.75 8H3.25ZM15.25 8C15.25 8.41421 15.5858 8.75 16 8.75C16.4142 8.75 16.75 8.41421 16.75 8H15.25ZM12.25 12C12.25 12.4142 12.5858 12.75 13 12.75C13.4142 12.75 13.75 12.4142 13.75 12H12.25ZM20.25 12C20.25 12.4142 20.5858 12.75 21 12.75C21.4142 12.75 21.75 12.4142 21.75 12H20.25ZM8 17.25C7.58579 17.25 7.25 17.5858 7.25 18C7.25 18.4142 7.58579 18.75 8 18.75V17.25ZM12 18.75C12.4142 18.75 12.75 18.4142 12.75 18C12.75 17.5858 12.4142 17.25 12 17.25V18.75ZM16 17.25C15.5858 17.25 15.25 17.5858 15.25 18C15.25 18.4142 15.5858 18.75 16 18.75V17.25ZM18 18.75C18.4142 18.75 18.75 18.4142 18.75 18C18.75 17.5858 18.4142 17.25 18 17.25V18.75ZM9.25 6V18H10.75V6H9.25ZM16.25 11V18H17.75V11H16.25ZM4.5 6.75H15.5V5.25H4.5V6.75ZM15.5 6.75C15.3619 6.75 15.25 6.63807 15.25 6.5H16.75C16.75 5.80964 16.1904 5.25 15.5 5.25V6.75ZM4.5 5.25C3.80964 5.25 3.25 5.80964 3.25 6.5H4.75C4.75 6.63807 4.63807 6.75 4.5 6.75V5.25ZM4.75 8V6.5H3.25V8H4.75ZM15.25 6.5V8H16.75V6.5H15.25ZM13.3333 11.75H20.6667V10.25H13.3333V11.75ZM20.6667 11.75C20.6121 11.75 20.5339 11.7344 20.4524 11.6732C20.3706 11.6119 20.25 11.47 20.25 11.25H21.75C21.75 10.892 21.5548 10.625 21.3524 10.4732C21.1502 10.3216 20.9053 10.25 20.6667 10.25V11.75ZM13.3333 10.25C13.0947 10.25 12.8498 10.3216 12.6476 10.4732C12.4452 10.625 12.25 10.892 12.25 11.25H13.75C13.75 11.47 13.6294 11.6119 13.5476 11.6732C13.4661 11.7344 13.3879 11.75 13.3333 11.75V10.25ZM13.75 12V11.25H12.25V12H13.75ZM20.25 11.25V12H21.75V11.25H20.25ZM8 18.75H12V17.25H8V18.75ZM16 18.75H18V17.25H16V18.75Z" fill="#18ACB6"/>
</svg>
