<svg width="17" height="18" viewBox="0 0 17 18" fill="none" xmlns="http://www.w3.org/2000/svg">
<path d="M7.42857 11.7143H3.14286M7.42857 6.35714H3.14286M4.21429 17.0714H12.7857C14.5609 17.0714 16 15.6323 16 13.8571V4.21429C16 2.43908 14.5609 1 12.7857 1H4.21429C2.43908 1 1 2.43908 1 4.21429V13.8571C1 15.6323 2.43909 17.0714 4.21429 17.0714ZM10.6429 6.35714C10.6429 6.94888 11.1226 7.42857 11.7143 7.42857C12.306 7.42857 12.7857 6.94888 12.7857 6.35714C12.7857 5.76541 12.306 5.28571 11.7143 5.28571C11.1226 5.28571 10.6429 5.76541 10.6429 6.35714ZM10.6429 11.7143C10.6429 12.306 11.1226 12.7857 11.7143 12.7857C12.306 12.7857 12.7857 12.306 12.7857 11.7143C12.7857 11.1226 12.306 10.6429 11.7143 10.6429C11.1226 10.6429 10.6429 11.1226 10.6429 11.7143Z" stroke="#00ACDD" stroke-width="1.5" stroke-linecap="round"/>
</svg>
