<svg width="24" height="24" viewBox="0 0 24 24" fill="none" xmlns="http://www.w3.org/2000/svg">
<path d="M2.20768 9.09702C1.92594 9.30004 1.93188 9.72139 2.21924 9.9164L7.77261 13.685C8.1046 13.9103 8.55338 13.6725 8.55337 13.2712L8.55335 10.2744H15.7392C18.0328 10.2744 19.8041 12.0003 19.8041 14.0244C19.8041 16.0485 18.0328 17.7744 15.7392 17.7744H12.0541C11.6398 17.7744 11.3041 18.1102 11.3041 18.5244C11.3041 18.9386 11.6398 19.2744 12.0541 19.2744H15.7392C18.764 19.2744 21.3041 16.9708 21.3041 14.0244C21.3041 11.0779 18.764 8.77437 15.7392 8.77437H8.55333L8.55331 5.50088C8.5533 5.09324 8.09171 4.85692 7.76099 5.09524L2.20768 9.09702Z" />
</svg>
