<svg width="35" height="37" viewBox="0 0 35 37" fill="none" xmlns="http://www.w3.org/2000/svg">
<path d="M22 15.41V17H10V8H10.62L11.62 6H14.19L15.38 8H22V10.59L23 9.59V7H16L15 5H11L10 7H9V18H23V16.41L22 15.41Z" fill="#1C2E45" fill-opacity="0.6"/>
<path d="M24.2007 12.6724L24.6718 12.2111L24.439 11.6981L23.7815 11.7491C23.6604 11.6185 23.5392 11.4879 23.3667 11.3805L23.3903 10.7511L22.8682 10.5551L22.4717 11.0444C22.2712 11.0117 22.094 11.0303 21.9169 11.0489L21.4555 10.5777L20.9425 10.8106L20.9935 11.4681C20.8629 11.5892 20.7323 11.7104 20.625 11.8828L19.9956 11.8592L19.7995 12.3814L20.3122 12.8292C20.2794 13.0297 20.298 13.2068 20.3166 13.384L19.8222 13.7941L20.0551 14.3071L20.7125 14.2561C20.8337 14.3867 20.9548 14.5173 21.1273 14.6246L21.1037 15.254L21.6258 15.4501L22.0736 14.9374C22.2741 14.9701 22.4513 14.9516 22.6285 14.933L23.0385 15.4274L23.5515 15.1945L23.5005 14.5371C23.6311 14.4159 23.7617 14.2948 23.869 14.1223L24.4985 14.1459L24.6945 13.6238L24.1818 13.176C24.2379 13.0268 24.2193 12.8496 24.2007 12.6724ZM22.7128 14.0285C22.1485 14.2847 21.4772 14.0326 21.2211 13.4683C20.9649 12.9041 21.217 12.2328 21.7812 11.9766C22.3455 11.7204 23.0168 11.9725 23.273 12.5368C23.5291 13.1011 23.2771 13.7723 22.7128 14.0285Z" fill="#1C2E45" fill-opacity="0.6"/>
<path d="M3.79697 28.2305C4.05497 28.2305 4.28597 28.187 4.48997 28.1C4.69397 28.013 4.86647 27.8915 5.00747 27.7355C5.14847 27.5765 5.25647 27.389 5.33147 27.173C5.40647 26.954 5.44397 26.7125 5.44397 26.4485V22.538H6.39797V26.4485C6.39797 26.8265 6.33797 27.176 6.21797 27.497C6.09797 27.818 5.92547 28.0955 5.70047 28.3295C5.47547 28.5635 5.20247 28.7465 4.88147 28.8785C4.56047 29.0105 4.19897 29.0765 3.79697 29.0765C3.39497 29.0765 3.03347 29.0105 2.71247 28.8785C2.39147 28.7465 2.11847 28.5635 1.89347 28.3295C1.66847 28.0955 1.49597 27.818 1.37597 27.497C1.25597 27.176 1.19597 26.8265 1.19597 26.4485V22.538H2.15447V26.444C2.15447 26.708 2.19047 26.9495 2.26247 27.1685C2.33747 27.3875 2.44547 27.5765 2.58647 27.7355C2.72747 27.8915 2.89997 28.013 3.10397 28.1C3.30797 28.187 3.53897 28.2305 3.79697 28.2305ZM9.46959 27.875C9.61359 28.064 9.76809 28.196 9.93309 28.271C10.1011 28.346 10.2886 28.3835 10.4956 28.3835C10.8976 28.3835 11.2081 28.2395 11.4271 27.9515C11.6491 27.6605 11.7601 27.2375 11.7601 26.6825C11.7601 26.3915 11.7346 26.144 11.6836 25.94C11.6356 25.733 11.5636 25.565 11.4676 25.436C11.3746 25.304 11.2591 25.208 11.1211 25.148C10.9831 25.085 10.8271 25.0535 10.6531 25.0535C10.3981 25.0535 10.1761 25.1105 9.98709 25.2245C9.80109 25.3385 9.62859 25.5005 9.46959 25.7105V27.875ZM9.42459 25.112C9.52059 24.998 9.62259 24.8945 9.73059 24.8015C9.84159 24.7055 9.96009 24.6245 10.0861 24.5585C10.2121 24.4895 10.3456 24.437 10.4866 24.401C10.6306 24.362 10.7836 24.3425 10.9456 24.3425C11.2066 24.3425 11.4421 24.3935 11.6521 24.4955C11.8651 24.5975 12.0466 24.7475 12.1966 24.9455C12.3466 25.1435 12.4621 25.388 12.5431 25.679C12.6271 25.97 12.6691 26.3045 12.6691 26.6825C12.6691 27.0215 12.6226 27.3365 12.5296 27.6275C12.4396 27.9155 12.3091 28.166 12.1381 28.379C11.9701 28.592 11.7631 28.76 11.5171 28.883C11.2741 29.003 10.9996 29.063 10.6936 29.063C10.4206 29.063 10.1866 29.018 9.99159 28.928C9.79659 28.838 9.62259 28.712 9.46959 28.55V30.5345H8.59209V24.428H9.11859C9.24159 24.428 9.31809 24.4865 9.34809 24.6035L9.42459 25.112ZM17.6021 25.535C17.4581 25.346 17.3021 25.214 17.1341 25.139C16.9691 25.064 16.7831 25.0265 16.5761 25.0265C16.1741 25.0265 15.8621 25.172 15.6401 25.463C15.4211 25.751 15.3116 26.1725 15.3116 26.7275C15.3116 27.0185 15.3356 27.2675 15.3836 27.4745C15.4346 27.6785 15.5066 27.8465 15.5996 27.9785C15.6956 28.1075 15.8126 28.2035 15.9506 28.2665C16.0886 28.3265 16.2446 28.3565 16.4186 28.3565C16.6736 28.3565 16.8941 28.2995 17.0801 28.1855C17.2661 28.0715 17.4401 27.911 17.6021 27.704V25.535ZM18.4841 22.358V29H17.9531C17.8301 29 17.7536 28.9415 17.7236 28.8245L17.6471 28.298C17.4521 28.529 17.2301 28.715 16.9811 28.856C16.7351 28.994 16.4501 29.063 16.1261 29.063C15.8651 29.063 15.6281 29.012 15.4151 28.91C15.2051 28.808 15.0251 28.6595 14.8751 28.4645C14.7251 28.2665 14.6096 28.022 14.5286 27.731C14.4476 27.44 14.4071 27.1055 14.4071 26.7275C14.4071 26.3885 14.4521 26.0735 14.5421 25.7825C14.6321 25.4915 14.7626 25.2395 14.9336 25.0265C15.1046 24.8135 15.3116 24.647 15.5546 24.527C15.7976 24.404 16.0721 24.3425 16.3781 24.3425C16.6541 24.3425 16.8881 24.3875 17.0801 24.4775C17.2751 24.5675 17.4491 24.695 17.6021 24.86V22.358H18.4841ZM23.1653 26.9705C22.8083 26.9825 22.5053 27.011 22.2563 27.056C22.0073 27.098 21.8048 27.155 21.6488 27.227C21.4928 27.299 21.3803 27.3845 21.3113 27.4835C21.2423 27.5795 21.2078 27.6875 21.2078 27.8075C21.2078 27.9215 21.2258 28.0205 21.2618 28.1045C21.3008 28.1855 21.3518 28.253 21.4148 28.307C21.4808 28.358 21.5573 28.3955 21.6443 28.4195C21.7313 28.4435 21.8258 28.4555 21.9278 28.4555C22.0628 28.4555 22.1858 28.442 22.2968 28.415C22.4108 28.388 22.5173 28.3505 22.6163 28.3025C22.7153 28.2515 22.8098 28.19 22.8998 28.118C22.9898 28.046 23.0783 27.9635 23.1653 27.8705V26.9705ZM20.5913 25.067C20.8463 24.824 21.1223 24.6425 21.4193 24.5225C21.7193 24.4025 22.0478 24.3425 22.4048 24.3425C22.6658 24.3425 22.8968 24.386 23.0978 24.473C23.2988 24.557 23.4683 24.6755 23.6063 24.8285C23.7443 24.9815 23.8478 25.1645 23.9168 25.3775C23.9888 25.5905 24.0248 25.826 24.0248 26.084V29H23.6333C23.5463 29 23.4803 28.9865 23.4353 28.9595C23.3903 28.9295 23.3543 28.8755 23.3273 28.7975L23.2328 28.397C23.1158 28.505 23.0003 28.601 22.8863 28.685C22.7723 28.766 22.6523 28.8365 22.5263 28.8965C22.4033 28.9535 22.2713 28.997 22.1303 29.027C21.9893 29.057 21.8333 29.072 21.6623 29.072C21.4823 29.072 21.3128 29.048 21.1538 29C20.9978 28.949 20.8613 28.8725 20.7443 28.7705C20.6273 28.6685 20.5343 28.541 20.4653 28.388C20.3993 28.235 20.3663 28.0565 20.3663 27.8525C20.3663 27.6725 20.4143 27.5 20.5103 27.335C20.6093 27.167 20.7683 27.017 20.9873 26.885C21.2093 26.753 21.4973 26.645 21.8513 26.561C22.2083 26.477 22.6463 26.429 23.1653 26.417V26.084C23.1653 25.739 23.0918 25.481 22.9448 25.31C22.7978 25.139 22.5818 25.0535 22.2968 25.0535C22.1048 25.0535 21.9428 25.0775 21.8108 25.1255C21.6818 25.1735 21.5693 25.2275 21.4733 25.2875C21.3803 25.3445 21.2978 25.397 21.2258 25.445C21.1568 25.493 21.0848 25.517 21.0098 25.517C20.9498 25.517 20.8973 25.5005 20.8523 25.4675C20.8103 25.4345 20.7758 25.3955 20.7488 25.3505L20.5913 25.067ZM27.569 29.072C27.2 29.072 26.915 28.9685 26.714 28.7615C26.516 28.5545 26.417 28.259 26.417 27.875V25.139H25.886C25.835 25.139 25.7915 25.124 25.7555 25.094C25.7225 25.061 25.706 25.013 25.706 24.95V24.5945L26.4485 24.491L26.6465 23.1275C26.6585 23.0765 26.681 23.0375 26.714 23.0105C26.75 22.9805 26.795 22.9655 26.849 22.9655H27.2945V24.5H28.5905V25.139H27.2945V27.8165C27.2945 27.9965 27.338 28.1315 27.425 28.2215C27.515 28.3085 27.629 28.352 27.767 28.352C27.848 28.352 27.917 28.3415 27.974 28.3205C28.034 28.2995 28.085 28.277 28.127 28.253C28.169 28.226 28.205 28.202 28.235 28.181C28.265 28.16 28.292 28.1495 28.316 28.1495C28.346 28.1495 28.3685 28.157 28.3835 28.172C28.4015 28.184 28.4195 28.205 28.4375 28.235L28.6985 28.658C28.5545 28.79 28.3835 28.892 28.1855 28.964C27.9875 29.036 27.782 29.072 27.569 29.072ZM33.4009 26.2055C33.4009 26.0315 33.3754 25.871 33.3244 25.724C33.2764 25.577 33.2044 25.4495 33.1084 25.3415C33.0124 25.2335 32.8954 25.1495 32.7574 25.0895C32.6194 25.0295 32.4604 24.9995 32.2804 24.9995C31.9114 24.9995 31.6204 25.106 31.4074 25.319C31.1974 25.532 31.0639 25.8275 31.0069 26.2055H33.4009ZM34.1254 28.3475C34.0174 28.4735 33.8929 28.583 33.7519 28.676C33.6109 28.766 33.4609 28.8395 33.3019 28.8965C33.1429 28.9535 32.9779 28.9955 32.8069 29.0225C32.6389 29.0495 32.4724 29.063 32.3074 29.063C31.9924 29.063 31.6999 29.0105 31.4299 28.9055C31.1629 28.7975 30.9304 28.6415 30.7324 28.4375C30.5374 28.2305 30.3844 27.9755 30.2734 27.6725C30.1654 27.3665 30.1114 27.0155 30.1114 26.6195C30.1114 26.3015 30.1609 26.006 30.2599 25.733C30.3589 25.457 30.4999 25.217 30.6829 25.013C30.8689 24.809 31.0954 24.6485 31.3624 24.5315C31.6294 24.4145 31.9294 24.356 32.2624 24.356C32.5414 24.356 32.7979 24.4025 33.0319 24.4955C33.2689 24.5855 33.4729 24.7175 33.6439 24.8915C33.8149 25.0655 33.9484 25.28 34.0444 25.535C34.1434 25.79 34.1929 26.081 34.1929 26.408C34.1929 26.543 34.1779 26.6345 34.1479 26.6825C34.1179 26.7275 34.0624 26.75 33.9814 26.75H30.9844C30.9934 27.023 31.0324 27.2615 31.1014 27.4655C31.1704 27.6665 31.2649 27.8345 31.3849 27.9695C31.5079 28.1045 31.6534 28.205 31.8214 28.271C31.9894 28.337 32.1769 28.37 32.3839 28.37C32.5789 28.37 32.7469 28.3475 32.8879 28.3025C33.0319 28.2575 33.1549 28.2095 33.2569 28.1585C33.3619 28.1045 33.4489 28.055 33.5179 28.01C33.5899 27.965 33.6529 27.9425 33.7069 27.9425C33.7789 27.9425 33.8344 27.9695 33.8734 28.0235L34.1254 28.3475Z" fill="#3C3C3C"/>
</svg>
