<svg width="26" height="26" viewBox="0 0 26 26" fill="none" xmlns="http://www.w3.org/2000/svg">
<path fill-rule="evenodd" clip-rule="evenodd" d="M23.7596 3.93944H15.5289V2L2 4.08813V22.3913L15.5289 24.7216V21.8469H23.7596C24.0088 21.8596 24.253 21.773 24.4386 21.6061C24.6242 21.4392 24.7361 21.2056 24.75 20.9564V4.82913C24.7359 4.58006 24.6239 4.34669 24.4383 4.17999C24.2527 4.01329 24.0087 3.9268 23.7596 3.93944ZM23.8896 21.1043H15.5013L15.4875 19.5695H17.5082V17.782H15.4721L15.4623 16.7258H17.5082V14.9383H15.4469L15.4371 13.882H17.5082V12.0945H15.4306V11.0383H17.5082V9.25075H15.4306V8.1945H17.5082V6.407H15.4306V4.782H23.8896V21.1043Z" fill="#038C00"/>
<path d="M18.6455 6.40457H22.1579V8.19207H18.6455V6.40457ZM18.6455 9.24913H22.1579V11.0366H18.6455V9.24913ZM18.6455 12.0937H22.1579V13.8812H18.6455V12.0937ZM18.6455 14.9383H22.1579V16.7258H18.6455V14.9383ZM18.6455 17.7828H22.1579V19.5703H18.6455V17.7828Z" fill="#038C00"/>
<path fill-rule="evenodd" clip-rule="evenodd" d="M5.53231 9.0322L7.27594 8.93226L8.372 11.9458L9.66713 8.80795L11.4108 8.70801L9.29338 12.9866L11.4108 17.2758L9.56719 17.1515L8.32244 13.882L7.07688 17.0272L5.38281 16.8777L7.35069 13.089L5.53231 9.0322Z" fill="white"/>
</svg>
