<svg width="80" height="80" viewBox="0 0 80 80" fill="none" xmlns="http://www.w3.org/2000/svg">
<rect x="0.5" y="0.5" width="79" height="79" rx="1.5" fill="#F4F3F3" stroke="#8A8A8A" stroke-dasharray="2 2"/>
<path fill-rule="evenodd" clip-rule="evenodd" d="M23 27.9988C23 26.8948 23.8953 26 24.9999 26H55.0001C56.1047 26 57 26.8948 57 27.9988V51.986C57 53.09 56.1047 53.9852 55.0001 53.9852H24.9999C23.8953 53.9852 23 53.09 23 51.986V27.9988ZM54.9999 27.9988H24.9997V45.9892L30.7058 41.7121C31.5023 41.1151 32.6163 41.1944 33.3201 41.8979L36.074 44.65L44.7501 37.7125C45.4806 37.1286 46.5186 37.1286 47.2492 37.7125L54.9997 43.9098L54.9999 27.9988ZM24.9997 51.986V48.488L31.9058 43.3111L34.6597 46.0635C35.3802 46.7836 36.5277 46.8472 37.3232 46.2111L46.0001 39.2736L55.0002 46.4698V51.9861L24.9997 51.986ZM30.9998 33.9956C30.9998 32.8916 31.8951 31.9968 32.9997 31.9968C34.1043 31.9968 34.9999 32.8916 34.9999 33.9956C34.9999 35.0996 34.1043 35.9948 32.9997 35.9948C31.8951 35.9948 30.9998 35.0996 30.9998 33.9956ZM32.9997 29.998C30.7905 29.998 28.9999 31.7877 28.9999 33.9956C28.9999 36.2036 30.7905 37.9936 32.9997 37.9936C35.2088 37.9936 36.9998 36.2036 36.9998 33.9956C36.9998 31.7877 35.2088 29.998 32.9997 29.998Z" fill="#C4C4C4"/>
</svg>
