<svg width="17" height="13" viewBox="0 0 17 13" fill="none" xmlns="http://www.w3.org/2000/svg">
<g id="Vector">
<path d="M15.5031 5.44021C15.0795 4.90906 14.51 4.53722 13.8801 4.36645C13.8821 4.31165 13.8834 4.25626 13.8834 4.20028C13.8834 1.88412 11.9846 0 9.65055 0C8.37436 0 7.19713 0.554014 6.39904 1.50721C5.73505 1.02225 4.87631 0.869171 4.03989 1.11029C3.21821 1.34694 2.568 1.96803 2.30043 2.77236C2.12075 3.31331 2.11255 3.88042 2.26492 4.39494C1.68336 4.57478 1.15822 4.92093 0.767126 5.39279C0.22463 6.04781 -0.0213239 6.87725 0.0752335 7.72874C0.252539 9.29945 1.62657 10.4838 3.27081 10.4838H6.5965V9.48259L3.27081 9.48247C2.14082 9.48247 1.19799 8.68013 1.07744 7.61639C1.01177 7.03667 1.17862 6.47252 1.54643 6.02799C1.91587 5.58217 2.43806 5.3104 2.97496 5.26442L3.26818 5.26277L3.56543 4.75048L3.40653 4.49533C3.1474 4.07919 3.09491 3.57831 3.25879 3.08581C3.41935 2.60249 3.82658 2.21371 4.32107 2.07134C4.98019 1.88172 5.65901 2.07653 6.09082 2.58164L6.54007 3.10726L6.90453 2.52036C7.49594 1.56883 8.5225 1.00079 9.65058 1.00079C11.4285 1.00079 12.8747 2.43598 12.8747 4.20002C12.8747 4.35358 12.8643 4.49949 12.8433 4.63514L12.775 4.80755L13.0226 5.24161L13.2793 5.27025C13.8468 5.33283 14.3552 5.6138 14.7118 6.06092C15.0664 6.50605 15.2228 7.06631 15.1525 7.6386C15.0225 8.68997 14.0813 9.48251 12.9621 9.48251L9.86991 9.48263V10.4838H12.9621C14.5903 10.4838 15.9623 9.31316 16.1534 7.76C16.2573 6.92079 16.0259 6.09653 15.5031 5.44021Z" fill="#C4C4C4"/>
<path d="M9.5738 3.12366C10.203 3.11647 10.8026 3.40486 11.1914 3.90808L11.9913 3.29832C11.4081 2.54419 10.5306 2.14115 9.56653 2.1225C8.99187 2.12674 8.43356 2.29103 7.95248 2.59732L8.49698 3.44009C8.81775 3.23573 9.19021 3.12626 9.5738 3.12366Z" fill="#C4C4C4"/>
<path d="M8.49001 5.69805C8.42755 5.59222 8.27269 5.59446 8.21342 5.70206L7.00281 7.89729C6.92906 8.03106 7.07038 8.18037 7.20945 8.11579L7.88377 7.8029V12.8018H8.89285L8.89309 7.79385L9.56394 8.08188C9.70491 8.14245 9.84184 7.98901 9.76417 7.85749L8.49001 5.69805Z" fill="#C4C4C4"/>
</g>
</svg>
