<svg width="24" height="24" viewBox="0 0 24 24" fill="none" xmlns="http://www.w3.org/2000/svg">
<path fill-rule="evenodd" clip-rule="evenodd" d="M3.75 3C2.7835 3 2 3.7835 2 4.75V14.75C2 15.7165 2.7835 16.5 3.75 16.5H9V19.9714C9 19.981 9.00018 19.9905 9.00053 20H6.75C6.33579 20 6 20.3358 6 20.75C6 21.1642 6.33579 21.5 6.75 21.5H16.75C17.1642 21.5 17.5 21.1642 17.5 20.75C17.5 20.3358 17.1642 20 16.75 20H14.5V16.5H19.75C20.7165 16.5 21.5 15.7165 21.5 14.75V4.75C21.5 3.7835 20.7165 3 19.75 3H3.75ZM19.75 15C19.8881 15 20 14.8881 20 14.75V4.75C20 4.61193 19.8881 4.5 19.75 4.5H3.75C3.61193 4.5 3.5 4.61193 3.5 4.75V14.75C3.5 14.8881 3.61193 15 3.75 15H19.75ZM13 16.5V20H10.4995C10.4998 19.9905 10.5 19.981 10.5 19.9714V16.5H13Z" />
</svg>
