<svg width="13" height="16" viewBox="0 0 13 16" fill="none" xmlns="http://www.w3.org/2000/svg">
<path d="M1.75 15.5C1.3375 15.5 0.98425 15.3533 0.69025 15.0597C0.39675 14.7657 0.25 14.4125 0.25 14V3.5H1.75V14H10V15.5H1.75ZM4.75 12.5C4.3375 12.5 3.9845 12.3533 3.691 12.0597C3.397 11.7657 3.25 11.4125 3.25 11V2C3.25 1.5875 3.397 1.23425 3.691 0.94025C3.9845 0.64675 4.3375 0.5 4.75 0.5H11.5C11.9125 0.5 12.2657 0.64675 12.5597 0.94025C12.8533 1.23425 13 1.5875 13 2V11C13 11.4125 12.8533 11.7657 12.5597 12.0597C12.2657 12.3533 11.9125 12.5 11.5 12.5H4.75ZM4.75 11H11.5V2H4.75V11Z" fill="#FF7F4A"/>
</svg>
