<svg width="24" height="23" viewBox="0 0 24 23" fill="none" xmlns="http://www.w3.org/2000/svg">
<path d="M2.96338 5.67896C2.96338 5.43446 3.06682 5.19998 3.25095 5.02709C3.43507 4.85421 3.6848 4.75708 3.9452 4.75708H6.89065C7.15105 4.75708 7.40078 4.85421 7.5849 5.02709C7.76903 5.19998 7.87247 5.43446 7.87247 5.67896C7.87247 5.92345 7.76903 6.15793 7.5849 6.33082C7.40078 6.5037 7.15105 6.60083 6.89065 6.60083H3.9452C3.6848 6.60083 3.43507 6.5037 3.25095 6.33082C3.06682 6.15793 2.96338 5.92345 2.96338 5.67896ZM9.42374 5.67896C9.42374 5.43446 9.52718 5.19998 9.71131 5.02709C9.89544 4.85421 10.1452 4.75708 10.4056 4.75708H13.351C13.6114 4.75708 13.8611 4.85421 14.0453 5.02709C14.2294 5.19998 14.3328 5.43446 14.3328 5.67896C14.3328 5.92345 14.2294 6.15793 14.0453 6.33082C13.8611 6.5037 13.6114 6.60083 13.351 6.60083H10.4056C10.1452 6.60083 9.89544 6.5037 9.71131 6.33082C9.52718 6.15793 9.42374 5.92345 9.42374 5.67896ZM15.727 5.67896C15.727 5.43446 15.8305 5.19998 16.0146 5.02709C16.1987 4.85421 16.4484 4.75708 16.7088 4.75708H19.6543C19.9147 4.75708 20.1644 4.85421 20.3485 5.02709C20.5327 5.19998 20.6361 5.43446 20.6361 5.67896C20.6361 5.92345 20.5327 6.15793 20.3485 6.33082C20.1644 6.5037 19.9147 6.60083 19.6543 6.60083H16.7088C16.4484 6.60083 16.1987 6.5037 16.0146 6.33082C15.8305 6.15793 15.727 5.92345 15.727 5.67896ZM2.96338 9.36646C2.96338 9.12196 3.06682 8.88748 3.25095 8.71459C3.43507 8.54171 3.6848 8.44458 3.9452 8.44458H6.89065C7.15105 8.44458 7.40078 8.54171 7.5849 8.71459C7.76903 8.88748 7.87247 9.12196 7.87247 9.36646C7.87247 9.61095 7.76903 9.84543 7.5849 10.0183C7.40078 10.1912 7.15105 10.2883 6.89065 10.2883H3.9452C3.6848 10.2883 3.43507 10.1912 3.25095 10.0183C3.06682 9.84543 2.96338 9.61095 2.96338 9.36646ZM9.42374 9.36646C9.42374 9.12196 9.52718 8.88748 9.71131 8.71459C9.89544 8.54171 10.1452 8.44458 10.4056 8.44458H13.351C13.6114 8.44458 13.8611 8.54171 14.0453 8.71459C14.2294 8.88748 14.3328 9.12196 14.3328 9.36646C14.3328 9.61095 14.2294 9.84543 14.0453 10.0183C13.8611 10.1912 13.6114 10.2883 13.351 10.2883H10.4056C10.1452 10.2883 9.89544 10.1912 9.71131 10.0183C9.52718 9.84543 9.42374 9.61095 9.42374 9.36646ZM15.727 9.36646C15.727 9.12196 15.8305 8.88748 16.0146 8.71459C16.1987 8.54171 16.4484 8.44458 16.7088 8.44458H19.6543C19.9147 8.44458 20.1644 8.54171 20.3485 8.71459C20.5327 8.88748 20.6361 9.12196 20.6361 9.36646C20.6361 9.61095 20.5327 9.84543 20.3485 10.0183C20.1644 10.1912 19.9147 10.2883 19.6543 10.2883H16.7088C16.4484 10.2883 16.1987 10.1912 16.0146 10.0183C15.8305 9.84543 15.727 9.61095 15.727 9.36646ZM2.96338 13.054C2.96338 12.8095 3.06682 12.575 3.25095 12.4021C3.43507 12.2292 3.6848 12.1321 3.9452 12.1321H6.89065C7.15105 12.1321 7.40078 12.2292 7.5849 12.4021C7.76903 12.575 7.87247 12.8095 7.87247 13.054C7.87247 13.2985 7.76903 13.5329 7.5849 13.7058C7.40078 13.8787 7.15105 13.9758 6.89065 13.9758H3.9452C3.6848 13.9758 3.43507 13.8787 3.25095 13.7058C3.06682 13.5329 2.96338 13.2985 2.96338 13.054ZM9.42374 13.054C9.42374 12.8095 9.52718 12.575 9.71131 12.4021C9.89544 12.2292 10.1452 12.1321 10.4056 12.1321H13.351C13.6114 12.1321 13.8611 12.2292 14.0453 12.4021C14.2294 12.575 14.3328 12.8095 14.3328 13.054C14.3328 13.2985 14.2294 13.5329 14.0453 13.7058C13.8611 13.8787 13.6114 13.9758 13.351 13.9758H10.4056C10.1452 13.9758 9.89544 13.8787 9.71131 13.7058C9.52718 13.5329 9.42374 13.2985 9.42374 13.054ZM15.727 13.054C15.727 12.8095 15.8305 12.575 16.0146 12.4021C16.1987 12.2292 16.4484 12.1321 16.7088 12.1321H19.6543C19.9147 12.1321 20.1644 12.2292 20.3485 12.4021C20.5327 12.575 20.6361 12.8095 20.6361 13.054C20.6361 13.2985 20.5327 13.5329 20.3485 13.7058C20.1644 13.8787 19.9147 13.9758 19.6543 13.9758H16.7088C16.4484 13.9758 16.1987 13.8787 16.0146 13.7058C15.8305 13.5329 15.727 13.2985 15.727 13.054ZM2.96338 16.7415C2.96338 16.497 3.06682 16.2625 3.25095 16.0896C3.43507 15.9167 3.6848 15.8196 3.9452 15.8196H6.89065C7.15105 15.8196 7.40078 15.9167 7.5849 16.0896C7.76903 16.2625 7.87247 16.497 7.87247 16.7415C7.87247 16.986 7.76903 17.2204 7.5849 17.3933C7.40078 17.5662 7.15105 17.6633 6.89065 17.6633H3.9452C3.6848 17.6633 3.43507 17.5662 3.25095 17.3933C3.06682 17.2204 2.96338 16.986 2.96338 16.7415ZM9.42374 16.7415C9.42374 16.497 9.52718 16.2625 9.71131 16.0896C9.89544 15.9167 10.1452 15.8196 10.4056 15.8196H13.351C13.6114 15.8196 13.8611 15.9167 14.0453 16.0896C14.2294 16.2625 14.3328 16.497 14.3328 16.7415C14.3328 16.986 14.2294 17.2204 14.0453 17.3933C13.8611 17.5662 13.6114 17.6633 13.351 17.6633H10.4056C10.1452 17.6633 9.89544 17.5662 9.71131 17.3933C9.52718 17.2204 9.42374 16.986 9.42374 16.7415ZM15.727 16.7415C15.727 16.497 15.8305 16.2625 16.0146 16.0896C16.1987 15.9167 16.4484 15.8196 16.7088 15.8196H19.6543C19.9147 15.8196 20.1644 15.9167 20.3485 16.0896C20.5327 16.2625 20.6361 16.497 20.6361 16.7415C20.6361 16.986 20.5327 17.2204 20.3485 17.3933C20.1644 17.5662 19.9147 17.6633 19.6543 17.6633H16.7088C16.4484 17.6633 16.1987 17.5662 16.0146 17.3933C15.8305 17.2204 15.727 16.986 15.727 16.7415Z" fill="white"/>
</svg>
