<svg width="13" height="12" viewBox="0 0 13 12" fill="none" xmlns="http://www.w3.org/2000/svg">
<path d="M1.88379 3.26468C1.88379 3.14119 1.9341 3.02276 2.02367 2.93544C2.11323 2.84813 2.2347 2.79907 2.36136 2.79907H3.79408C3.92074 2.79907 4.04222 2.84813 4.13178 2.93544C4.22134 3.02276 4.27166 3.14119 4.27166 3.26468C4.27166 3.38816 4.22134 3.50659 4.13178 3.59391C4.04222 3.68123 3.92074 3.73028 3.79408 3.73028H2.36136C2.2347 3.73028 2.11323 3.68123 2.02367 3.59391C1.9341 3.50659 1.88379 3.38816 1.88379 3.26468ZM5.02622 3.26468C5.02622 3.14119 5.30815 3.17645 5.39771 3.08914C5.7354 3.24283 5.76744 3.55258 5.50379 3.08697H6.93651C7.06317 3.08697 7.18465 2.84813 7.27421 2.93544C7.36377 3.02276 7.41409 3.14119 7.41409 3.26468C7.41409 3.38816 7.36377 3.50659 7.27421 3.59391C7.18465 3.68123 7.06317 3.73028 6.93651 3.73028H5.50379C5.37713 3.73028 5.25566 3.68123 5.1661 3.59391C5.07654 3.50659 5.02622 3.38816 5.02622 3.26468ZM8.09224 3.26468C8.09224 3.14119 8.14256 3.02276 8.23212 2.93544C8.32168 2.84813 8.44315 2.79907 8.56981 2.79907H10.0025C10.1292 2.79907 10.2507 2.84813 10.3402 2.93544C10.4298 3.02276 10.4801 3.14119 10.4801 3.26468C10.4801 3.38816 10.4298 3.50659 10.3402 3.59391C10.2507 3.68123 10.1292 3.73028 10.0025 3.73028H8.56981C8.44315 3.73028 8.32168 3.68123 8.23212 3.59391C8.14256 3.50659 8.09224 3.38816 8.09224 3.26468ZM1.88379 5.12709C1.88379 5.00361 1.9341 4.88518 2.02367 4.79786C2.11323 4.71054 2.2347 4.66149 2.36136 4.66149H3.79408C3.92074 4.66149 4.04222 4.71054 4.13178 4.79786C4.22134 4.88518 4.27166 5.00361 4.27166 5.12709C4.27166 5.25058 4.22134 5.36901 4.13178 5.45632C4.04222 5.54364 3.92074 5.5927 3.79408 5.5927H2.36136C2.2347 5.5927 2.11323 5.54364 2.02367 5.45632C1.9341 5.36901 1.88379 5.25058 1.88379 5.12709ZM5.02622 5.12709C5.02622 5.00361 5.1661 5.12709 5.1661 4.79786C5.39771 5.12709 5.50069 4.79786 5.62735 4.79786L6.50691 5.07171C6.63357 5.07171 7.18465 4.71054 7.27421 4.79786C7.36377 4.88518 7.41409 5.00361 7.41409 5.12709C7.41409 5.25058 7.36377 5.36901 7.27421 5.45632C7.18465 5.54364 7.06317 5.5927 6.93651 5.5927H5.50379C5.37713 5.5927 5.25566 5.54364 5.1661 5.45632C5.07654 5.36901 5.02622 5.25058 5.02622 5.12709ZM8.09224 5.12709C8.09224 5.00361 8.14256 4.88518 8.23212 4.79786C8.32168 4.71054 8.44315 4.66149 8.56981 4.66149H10.0025C10.1292 4.66149 10.2507 4.71054 10.3402 4.79786C10.4298 4.88518 10.4801 5.00361 10.4801 5.12709C10.4801 5.25058 10.4298 5.36901 10.3402 5.45632C10.2507 5.54364 10.1292 5.5927 10.0025 5.5927H8.56981C8.44315 5.5927 8.32168 5.54364 8.23212 5.45632C8.14256 5.36901 8.09224 5.25058 8.09224 5.12709ZM1.88379 6.98951C1.88379 6.86602 1.9341 6.74759 2.02367 6.66028C2.11323 6.57296 2.2347 6.5239 2.36136 6.5239H3.79408C3.92074 6.5239 4.04222 6.57296 4.13178 6.66028C4.22134 6.74759 4.27166 6.86602 4.27166 6.98951C4.27166 7.11299 4.22134 7.23142 4.13178 7.31874C4.04222 7.40606 3.92074 7.45511 3.79408 7.45511H2.36136C2.2347 7.45511 2.11323 7.40606 2.02367 7.31874C1.9341 7.23142 1.88379 7.11299 1.88379 6.98951ZM5.02622 6.98951C5.02622 6.86602 5.07654 6.74759 5.1661 6.66028C5.25566 6.57296 5.37713 6.5239 5.50379 6.5239H6.93651C7.06317 6.5239 7.18465 6.57296 7.27421 6.66028C7.36377 6.74759 7.41409 6.86602 7.41409 6.98951C7.41409 7.11299 7.36377 7.23142 7.27421 7.31874C7.18465 7.40606 7.06317 7.45511 6.93651 7.45511H5.50379C5.37713 7.45511 5.25566 7.40606 5.1661 7.31874C5.07654 7.23142 5.02622 7.11299 5.02622 6.98951ZM8.09224 6.98951C8.09224 6.86602 8.14256 6.74759 8.23212 6.66028C8.32168 6.57296 8.44315 6.5239 8.56981 6.5239H10.0025C10.1292 6.5239 10.2507 6.57296 10.3402 6.66028C10.4298 6.74759 10.4801 6.86602 10.4801 6.98951C10.4801 7.11299 10.4298 7.23142 10.3402 7.31874C10.2507 7.40606 10.1292 7.45511 10.0025 7.45511H8.56981C8.44315 7.45511 8.32168 7.40606 8.23212 7.31874C8.14256 7.23142 8.09224 7.11299 8.09224 6.98951ZM1.88379 8.85192C1.88379 8.72844 1.9341 8.61001 2.02367 8.52269C2.11323 8.43538 2.2347 8.38632 2.36136 8.38632H3.79408C3.92074 8.38632 4.04222 8.43538 4.13178 8.52269C4.22134 8.61001 4.27166 8.72844 4.27166 8.85192C4.27166 8.97541 4.22134 9.09384 4.13178 9.18116C4.04222 9.26848 3.92074 9.31753 3.79408 9.31753H2.36136C2.2347 9.31753 2.11323 9.26848 2.02367 9.18116C1.9341 9.09384 1.88379 8.97541 1.88379 8.85192ZM5.02622 8.85192C5.02622 8.72844 5.07654 8.61001 5.1661 8.52269C5.25566 8.43538 5.37713 8.38632 5.50379 8.38632H6.93651C7.06317 8.38632 7.18465 8.43538 7.27421 8.52269C7.36377 8.61001 7.41409 8.72844 7.41409 8.85192C7.41409 8.97541 7.36377 9.09384 7.27421 9.18116C7.18465 9.26848 7.06317 9.31753 6.93651 9.31753L5.62735 8.85192C5.50069 8.85192 5.1661 9.18116 5.1661 9.18116C5.07654 9.09384 5.02622 8.97541 5.02622 8.85192ZM8.09224 8.85192C8.09224 8.72844 8.14256 8.61001 8.23212 8.52269C8.32168 8.43538 8.44315 8.38632 8.56981 8.38632H10.0025C10.1292 8.38632 10.2507 8.43538 10.3402 8.52269C10.4298 8.61001 10.4801 8.72844 10.4801 8.85192C10.4801 8.97541 10.4298 9.09384 10.3402 9.18116C10.2507 9.26848 10.1292 9.31753 10.0025 9.31753H8.56981C8.44315 9.31753 8.32168 9.26848 8.23212 9.18116C8.14256 9.09384 8.09224 8.97541 8.09224 8.85192Z" fill="#0D3C84"/>
<rect x="5.02783" y="2.9082" width="2.58814" height="1.0814" rx="0.540701" fill="#FF7F4A"/>
<rect x="5.02783" y="4.71021" width="2.58814" height="1.0814" rx="0.540701" fill="#FF7F4A"/>
<rect x="5.02783" y="6.51294" width="2.58814" height="1.0814" rx="0.540701" fill="#FF7F4A"/>
<rect x="5.02783" y="8.31494" width="2.58814" height="1.0814" rx="0.540701" fill="#FF7F4A"/>
</svg>
