<svg width="24" height="24" viewBox="0 0 24 24" fill="none" xmlns="http://www.w3.org/2000/svg">
<path d="M15.7498 13.6641C16.439 13.6641 16.9998 13.1032 16.9998 12.4141V4.91406C16.9998 4.2249 16.439 3.66406 15.7498 3.66406H4.9165C4.22734 3.66406 3.6665 4.2249 3.6665 4.91406V16.9974L8.11067 13.6641H15.7498ZM5.33317 13.5807L5.4615 13.5674L5.33317 13.6641V13.5807Z"/>
<path d="M19.0832 8.66406H18.6665V13.6649C18.6665 14.5816 17.9223 15.3257 17.0082 15.3307H8.6665V15.7474C8.6665 16.4366 9.22734 16.9974 9.9165 16.9974H15.889L20.3332 20.3307V9.91406C20.3332 9.2249 19.7723 8.66406 19.0832 8.66406Z"/>
</svg>
