<svg width="8" height="8" viewBox="0 0 8 8" fill="none" xmlns="http://www.w3.org/2000/svg">
<g clip-path="url(#clip0_1892_10844)">
<path d="M3.99989 0.445312C3.29667 0.445313 2.60924 0.653842 2.02453 1.04453C1.43982 1.43522 0.9841 1.99052 0.714988 2.64022C0.445876 3.28991 0.375465 4.00481 0.512657 4.69452C0.649848 5.38423 0.988482 6.01777 1.48574 6.51503C1.98299 7.01228 2.61653 7.35091 3.30624 7.4881C3.99595 7.6253 4.71085 7.55488 5.36055 7.28577C6.01024 7.01666 6.56554 6.56094 6.95623 5.97623C7.34692 5.39152 7.55545 4.70409 7.55545 4.00087C7.55545 3.05788 7.18085 2.15351 6.51405 1.48671C5.84726 0.819915 4.94289 0.445313 3.99989 0.445312ZM5.77767 5.35642C5.83661 5.41536 5.86972 5.4953 5.86972 5.57865C5.86972 5.66199 5.83661 5.74193 5.77767 5.80087C5.71873 5.8598 5.6388 5.89292 5.55545 5.89292C5.4721 5.89292 5.39216 5.8598 5.33323 5.80087L3.99989 4.46753L2.66656 5.80531C2.63738 5.8345 2.60273 5.85764 2.5646 5.87344C2.52647 5.88923 2.48561 5.89736 2.44434 5.89736C2.40307 5.89736 2.3622 5.88923 2.32407 5.87344C2.28594 5.85764 2.2513 5.8345 2.22212 5.80531C2.19293 5.77613 2.16978 5.74148 2.15399 5.70336C2.1382 5.66523 2.13007 5.62436 2.13007 5.58309C2.13007 5.54182 2.1382 5.50095 2.15399 5.46282C2.16978 5.4247 2.19293 5.39005 2.22212 5.36087L3.55545 4.01865L2.18434 2.63642C2.1254 2.57749 2.09229 2.49755 2.09229 2.4142C2.09229 2.33085 2.1254 2.25092 2.18434 2.19198C2.24327 2.13304 2.32321 2.09993 2.40656 2.09993C2.48991 2.09993 2.56985 2.13304 2.62878 2.19198L3.99989 3.57865L5.37101 2.20753C5.40019 2.17835 5.43483 2.1552 5.47296 2.13941C5.51109 2.12362 5.55196 2.11549 5.59323 2.11549C5.6345 2.11549 5.67536 2.12362 5.71349 2.13941C5.75162 2.1552 5.78627 2.17835 5.81545 2.20753C5.84463 2.23672 5.86778 2.27136 5.88357 2.30949C5.89937 2.34762 5.9075 2.38849 5.9075 2.42976C5.9075 2.47103 5.89937 2.51189 5.88357 2.55002C5.86778 2.58815 5.84463 2.6228 5.81545 2.65198L4.44434 4.01865L5.77767 5.35642Z" fill="#8A8A8A" fill-opacity="0.5"/>
</g>
<defs>
<clipPath id="clip0_1892_10844">
<rect width="8" height="8" fill="white"/>
</clipPath>
</defs>
</svg>
