<svg width="16" height="19" viewBox="0 0 16 19" fill="none" xmlns="http://www.w3.org/2000/svg">
<path d="M13.4844 13.7132H14.3672C14.6013 13.7132 14.8259 13.6038 14.9914 13.409C15.157 13.2143 15.25 12.9501 15.25 12.6746V2.2886C15.25 2.01315 15.157 1.74898 14.9914 1.5542C14.8259 1.35942 14.6013 1.25 14.3672 1.25H5.53906C5.30493 1.25 5.08038 1.35942 4.91482 1.5542C4.74926 1.74898 4.65625 2.01315 4.65625 2.2886V3.32721M10.8359 17.8676H2.00781C1.77368 17.8676 1.54913 17.7582 1.38357 17.5634C1.21801 17.3687 1.125 17.1045 1.125 16.829V6.44301C1.125 6.16756 1.21801 5.90339 1.38357 5.70861C1.54913 5.51383 1.77368 5.40441 2.00781 5.40441H10.8359C11.0701 5.40441 11.2946 5.51383 11.4602 5.70861C11.6257 5.90339 11.7187 6.16756 11.7187 6.44301V16.829C11.7187 17.1045 11.6257 17.3687 11.4602 17.5634C11.2946 17.7582 11.0701 17.8676 10.8359 17.8676Z" stroke="#0D3C84" stroke-width="1.5" stroke-linecap="round" stroke-linejoin="round"/>
</svg>
