<svg xmlns:xlink="http://www.w3.org/1999/xlink" width="14" height="14" viewBox="0 0 14 14" fill="none" xmlns="http://www.w3.org/2000/svg">
    <path d="M8.83265 7.00019L13.5244 2.71019C13.7299 2.52188 13.8453 2.26649 13.8453 2.00019C13.8453 1.73388 13.7299 1.47849 13.5244 1.29019C13.319 1.10188 13.0403 0.996094 12.7497 0.996094C12.4592 0.996094 12.1805 1.10188 11.975 1.29019L7.29419 5.59019L2.61333 1.29019C2.40787 1.10188 2.12921 0.996094 1.83865 0.996094C1.54808 0.996094 1.26942 1.10188 1.06396 1.29019C0.858499 1.47849 0.743073 1.73388 0.743073 2.00019C0.743073 2.26649 0.858499 2.52188 1.06396 2.71019L5.75573 7.00019L1.06396 11.2902C0.961691 11.3831 0.880519 11.4937 0.825125 11.6156C0.769731 11.7375 0.741211 11.8682 0.741211 12.0002C0.741211 12.1322 0.769731 12.2629 0.825125 12.3848C0.880519 12.5066 0.961691 12.6172 1.06396 12.7102C1.16539 12.8039 1.28607 12.8783 1.41903 12.9291C1.55199 12.9798 1.69461 13.006 1.83865 13.006C1.98269 13.006 2.1253 12.9798 2.25826 12.9291C2.39122 12.8783 2.5119 12.8039 2.61333 12.7102L7.29419 8.41019L11.975 12.7102C12.0765 12.8039 12.1972 12.8783 12.3301 12.9291C12.4631 12.9798 12.6057 13.006 12.7497 13.006C12.8938 13.006 13.0364 12.9798 13.1693 12.9291C13.3023 12.8783 13.423 12.8039 13.5244 12.7102C13.6267 12.6172 13.7079 12.5066 13.7633 12.3848C13.8186 12.2629 13.8472 12.1322 13.8472 12.0002C13.8472 11.8682 13.8186 11.7375 13.7633 11.6156C13.7079 11.4937 13.6267 11.3831 13.5244 11.2902L8.83265 7.00019Z" fill="#FFFFFF"></path>
</svg>