<svg width="15" height="17" viewBox="0 0 15 17" fill="none" xmlns="http://www.w3.org/2000/svg">
<path d="M5.91073 5.29257C6.2711 5.2736 6.57861 5.55036 6.59758 5.91073L7.03319 14.1872C7.05215 14.5476 6.77539 14.8551 6.41502 14.8741C6.05465 14.8931 5.74714 14.6163 5.72818 14.2559L5.29257 5.97942C5.2736 5.61905 5.55036 5.31154 5.91073 5.29257Z" fill="#0D3C84"/>
<path d="M9.89615 6.14064C9.91826 5.78045 9.64419 5.47054 9.284 5.44843C8.92381 5.42633 8.6139 5.7004 8.59179 6.06059L8.09239 14.1972C8.07028 14.5574 8.34436 14.8673 8.70455 14.8894C9.06474 14.9116 9.37465 14.6375 9.39676 14.2773L9.89615 6.14064Z" fill="#0D3C84"/>
<path fill-rule="evenodd" clip-rule="evenodd" d="M4.06578 0.822061C4.34701 0.611139 4.70558 0.5 5.07386 0.5H10.3011C10.6694 0.5 11.028 0.611139 11.3092 0.822061C11.5907 1.03313 11.8258 1.37461 11.8258 1.80682V3.54924H14.2216C14.5825 3.54924 14.875 3.84178 14.875 4.20265C14.875 4.56352 14.5825 4.85606 14.2216 4.85606H13.4996L12.3435 15.2612C12.2577 16.0333 11.605 16.6174 10.8282 16.6174H4.1112C3.33433 16.6174 2.68169 16.0333 2.5959 15.2612L1.43979 4.85606H1.15341C0.792541 4.85606 0.5 4.56352 0.5 4.20265C0.5 3.84178 0.792541 3.54924 1.15341 3.54924H3.54924V1.80682C3.54924 1.37461 3.78435 1.03313 4.06578 0.822061ZM10.5189 1.8631V3.54924H4.85606V1.8631C4.89278 1.83809 4.96737 1.80682 5.07386 1.80682H10.3011C10.4076 1.80682 10.4822 1.83809 10.5189 1.8631ZM12.1847 4.85606H2.75465L3.89473 15.1169C3.90698 15.2272 4.00022 15.3106 4.1112 15.3106H10.8282C10.9391 15.3106 11.0324 15.2272 11.0446 15.1169L12.1847 4.85606Z" fill="#0D3C84"/>
</svg>
