<svg width="16" height="16" viewBox="0 0 16 16" fill="none" xmlns="http://www.w3.org/2000/svg">
<circle cx="8" cy="8" r="8" fill="#FFF3F3"/>
<path d="M11.4769 5.14517H10.4774C10.464 5.14054 10.4501 5.13753 10.436 5.13614H9.37174V4.25348C9.3718 4.18714 9.34579 4.12346 9.29945 4.07608C9.25304 4.02871 9.18995 4.00138 9.12369 4H6.60672C6.53948 4 6.47501 4.02667 6.42752 4.07422C6.37997 4.12177 6.35324 4.18624 6.35324 4.25348V5.13614H5.29439C5.2803 5.13753 5.2664 5.14054 5.25303 5.14517H4.25347C4.16288 5.14517 4.07921 5.19345 4.03395 5.27188C3.98868 5.35031 3.98868 5.44691 4.03395 5.52535C4.07921 5.60378 4.16288 5.65211 4.25347 5.65211H5.06783L5.72585 11.7735C5.7329 11.8358 5.76263 11.8933 5.8094 11.9351C5.85611 11.9769 5.91661 11.9999 5.97932 12H9.75462C9.81668 11.9991 9.87627 11.9756 9.92233 11.9339C9.96831 11.8922 9.99751 11.8352 10.0045 11.7735L10.6625 5.66105H11.4769C11.5675 5.66105 11.6511 5.61277 11.6964 5.53434C11.7417 5.45591 11.7417 5.35924 11.6964 5.28087C11.6511 5.20244 11.5675 5.1541 11.4769 5.1541L11.4769 5.14517ZM6.86566 4.50695H8.86472V5.13614H6.86566V4.50695ZM9.52455 11.4894H6.20582L5.57663 5.66111H10.1537L9.52455 11.4894Z" fill="#E41D1D"/>
<path d="M7.86529 10.8957C7.93252 10.8957 7.99699 10.869 8.04454 10.8215C8.09209 10.7739 8.11876 10.7095 8.11876 10.6422V6.50742C8.11876 6.41683 8.07049 6.33316 7.99205 6.2879C7.91362 6.24257 7.81696 6.24257 7.73852 6.2879C7.66009 6.33317 7.61182 6.41683 7.61182 6.50742V10.6422C7.61182 10.7095 7.63848 10.7739 7.68603 10.8215C7.73359 10.869 7.79805 10.8957 7.86529 10.8957H7.86529Z" fill="#E41D1D"/>
<path d="M6.8674 10.8944H6.87817C6.94511 10.8917 7.00819 10.8625 7.0537 10.8133C7.09915 10.7641 7.12334 10.6989 7.12088 10.632L6.96805 6.49719L6.96811 6.49713C6.96672 6.42941 6.93777 6.36512 6.88787 6.31926C6.83791 6.27345 6.77146 6.25004 6.7038 6.25443C6.63687 6.25726 6.57379 6.28645 6.52834 6.33563C6.48283 6.38481 6.45869 6.45 6.4611 6.51694L6.61393 10.6517C6.61712 10.7169 6.64517 10.7784 6.69236 10.8236C6.73949 10.8687 6.80215 10.8941 6.8674 10.8944L6.8674 10.8944Z" fill="#E41D1D"/>
<path d="M8.85372 10.8951H8.86269C8.9295 10.8966 8.99421 10.8718 9.04296 10.8261C9.09166 10.7803 9.12055 10.7173 9.12338 10.6506L9.27621 6.51575H9.27615C9.27862 6.44881 9.25442 6.38362 9.20898 6.33444C9.16347 6.28526 9.10039 6.25607 9.03345 6.25324C8.96501 6.2462 8.89675 6.26829 8.84541 6.31415C8.79406 6.35996 8.76445 6.42533 8.76378 6.4942L8.60915 10.629H8.60921C8.60578 10.6968 8.62974 10.7632 8.67572 10.8133C8.72165 10.8633 8.78582 10.8928 8.85372 10.8951L8.85372 10.8951Z" fill="#E41D1D"/>
</svg>
