<svg width="8" height="6" viewBox="0 0 8 6" fill="none" xmlns="http://www.w3.org/2000/svg">
<path d="M3.75073 5.625C3.59117 5.6242 3.4338 5.58788 3.29002 5.5187C3.14624 5.44951 3.01967 5.34918 2.91948 5.225L0.28823 2.0375C0.134476 1.84561 0.0377211 1.61438 0.00899058 1.37017C-0.01974 1.12596 0.0207095 0.878589 0.12573 0.65625C0.210905 0.463016 0.349901 0.298383 0.526117 0.182014C0.702333 0.0656449 0.908321 0.00245816 1.11948 0L6.38198 0C6.59314 0.00245816 6.79913 0.0656449 6.97534 0.182014C7.15156 0.298383 7.29055 0.463016 7.37573 0.65625C7.48075 0.878589 7.5212 1.12596 7.49247 1.37017C7.46374 1.61438 7.36698 1.84561 7.21323 2.0375L4.58198 5.225C4.48179 5.34918 4.35522 5.44951 4.21144 5.5187C4.06766 5.58788 3.91029 5.6242 3.75073 5.625Z" fill="#A9BBC9"/>
</svg>
