<svg width="8" height="8" viewBox="0 0 8 8" fill="none" xmlns="http://www.w3.org/2000/svg">
<path d="M7.11111 5.74486V1.91762C7.11111 1.08787 5.48311 0.386719 3.55556 0.386719C1.628 0.386719 0 1.08787 0 1.91762V5.74486C0 6.57461 1.628 7.27576 3.55556 7.27576C5.48311 7.27576 7.11111 6.57461 7.11111 5.74486ZM3.55556 1.15217C5.196 1.15217 6.19156 1.72893 6.22222 1.91532C6.19156 2.1063 5.196 2.68307 3.55556 2.68307C1.91511 2.68307 0.919556 2.1063 0.888889 1.91991C0.919556 1.72893 1.91511 1.15217 3.55556 1.15217ZM0.888889 2.91538C1.54622 3.23955 2.50533 3.44852 3.55556 3.44852C4.60578 3.44852 5.56489 3.23955 6.22222 2.91538V3.82894C6.19156 4.01992 5.196 4.59669 3.55556 4.59669C1.91511 4.59669 0.919556 4.01992 0.888889 3.83124V2.91538ZM0.888889 5.74486V4.829C1.54622 5.15317 2.50533 5.36214 3.55556 5.36214C4.60578 5.36214 5.56489 5.15317 6.22222 4.829V5.74257C6.19156 5.93355 5.196 6.51031 3.55556 6.51031C1.91511 6.51031 0.919556 5.93355 0.888889 5.74486Z" fill="#0D3C84"/>
</svg>
