<svg width="20" height="19" viewBox="0 0 20 19" fill="none" xmlns="http://www.w3.org/2000/svg">
<path fill-rule="evenodd" clip-rule="evenodd" d="M8.67317 6.4901C8.16809 6.98572 7.78012 7.58794 7.53763 8.25274L6.47687 11.1608C6.31912 11.5933 6.42697 12.078 6.75321 12.4028C7.06317 12.7114 7.51828 12.8235 7.9361 12.6941L10.6516 11.8533C11.139 11.7024 11.5965 11.4748 12.0079 11.1809L12.0362 11.2096L12.2745 10.9757C12.4617 10.8209 12.6374 10.6513 12.7999 10.4682L12.8547 10.4065L18.4613 4.90481C19.5895 3.79773 19.6067 1.98568 18.4996 0.857484C17.3925 -0.270716 15.5805 -0.287845 14.4523 0.81923L8.67317 6.4901ZM11.2737 9.85631C10.958 10.1082 10.5968 10.3 10.208 10.4204L8.10624 11.0712L8.94681 8.76675C9.11273 8.31189 9.37818 7.89985 9.72376 7.56074L12.8509 4.49217L14.804 6.39211L11.2737 9.85631ZM15.8749 5.34124L13.9218 3.4413L15.5028 1.88987C16.0398 1.36302 16.9021 1.37117 17.4289 1.90807C17.9558 2.44498 17.9476 3.30732 17.4107 3.83417L15.8749 5.34124Z"/>
<path d="M3.58333 0.125164C1.60431 0.125164 0 1.72948 0 3.7085V15.0418C0 17.0209 1.60431 18.6252 3.58333 18.6252H14.9167C16.8957 18.6252 18.5 17.0209 18.5 15.0418V11.2641C18.5 10.8498 18.1642 10.5141 17.75 10.5141C17.3358 10.5141 17 10.8498 17 11.2641V15.0418C17 16.1924 16.0673 17.1252 14.9167 17.1252H3.58333C2.43274 17.1252 1.5 16.1924 1.5 15.0418V3.7085C1.5 2.5579 2.43274 1.62516 3.58333 1.62516H7.36111C7.77532 1.62516 8.11111 1.28938 8.11111 0.875164C8.11111 0.46095 7.77532 0.125164 7.36111 0.125164H3.58333Z"/>
</svg>
