<svg width="22" height="23" viewBox="0 0 22 23" fill="none" xmlns="http://www.w3.org/2000/svg">
<mask id="path-1-outside-1_6970_26067" maskUnits="userSpaceOnUse" x="0" y="0" width="22" height="23" fill="black">
<rect fill="white" width="22" height="23"/>
<path fill-rule="evenodd" clip-rule="evenodd" d="M10.9921 1.00005C10.8665 1.00153 10.7442 1.03944 10.6398 1.10918L5.02291 4.85371C4.94014 4.90923 4.87129 4.98312 4.82169 5.06959H1.32457C1.14526 5.06959 1 5.215 1 5.39431V17.4048C1 17.5841 1.14526 17.7295 1.32457 17.7295H4.73375V20.9328C4.73389 21.1051 4.8023 21.2703 4.92401 21.392C5.04587 21.5139 5.21097 21.5823 5.38317 21.5823H16.6166C16.7888 21.5823 16.9539 21.5139 17.0756 21.392C17.1974 21.2703 17.2658 21.105 17.2658 20.9328V17.7295H20.6753C20.8546 17.7295 21 17.5841 21 17.4048V5.39431C21 5.215 20.8546 5.06959 20.6753 5.06959H17.1792C17.1293 4.98312 17.0602 4.90923 16.977 4.85371L11.3605 1.10918C11.2516 1.03647 11.123 0.99842 10.9921 1.00005ZM10.9999 2.42997L15.4459 5.39402L10.9999 8.35807L6.55355 5.39402L10.9999 2.42997ZM1.64929 5.71906H4.82126C4.87116 5.80539 4.94016 5.87898 5.02293 5.93436L10.6398 9.67858C10.7464 9.74981 10.872 9.78771 11.0001 9.78771C11.1283 9.78771 11.2537 9.74981 11.3603 9.67858L16.9768 5.93436C17.0595 5.87898 17.1283 5.80524 17.1779 5.71906H20.3504V17.0798H17.2657V13.8768C17.2657 13.7046 17.1973 13.5395 17.0754 13.4176C16.9537 13.2959 16.7886 13.2275 16.6164 13.2275H5.38303C5.21083 13.2275 5.04573 13.2959 4.92388 13.4176C4.80217 13.5395 4.73376 13.7046 4.73361 13.8768V17.0798H1.64917L1.64929 5.71906ZM6.03273 14.5265H15.9671V20.2836H6.03273V14.5265Z"/>
</mask>
<path fill-rule="evenodd" clip-rule="evenodd" d="M10.9921 1.00005C10.8665 1.00153 10.7442 1.03944 10.6398 1.10918L5.02291 4.85371C4.94014 4.90923 4.87129 4.98312 4.82169 5.06959H1.32457C1.14526 5.06959 1 5.215 1 5.39431V17.4048C1 17.5841 1.14526 17.7295 1.32457 17.7295H4.73375V20.9328C4.73389 21.1051 4.8023 21.2703 4.92401 21.392C5.04587 21.5139 5.21097 21.5823 5.38317 21.5823H16.6166C16.7888 21.5823 16.9539 21.5139 17.0756 21.392C17.1974 21.2703 17.2658 21.105 17.2658 20.9328V17.7295H20.6753C20.8546 17.7295 21 17.5841 21 17.4048V5.39431C21 5.215 20.8546 5.06959 20.6753 5.06959H17.1792C17.1293 4.98312 17.0602 4.90923 16.977 4.85371L11.3605 1.10918C11.2516 1.03647 11.123 0.99842 10.9921 1.00005ZM10.9999 2.42997L15.4459 5.39402L10.9999 8.35807L6.55355 5.39402L10.9999 2.42997ZM1.64929 5.71906H4.82126C4.87116 5.80539 4.94016 5.87898 5.02293 5.93436L10.6398 9.67858C10.7464 9.74981 10.872 9.78771 11.0001 9.78771C11.1283 9.78771 11.2537 9.74981 11.3603 9.67858L16.9768 5.93436C17.0595 5.87898 17.1283 5.80524 17.1779 5.71906H20.3504V17.0798H17.2657V13.8768C17.2657 13.7046 17.1973 13.5395 17.0754 13.4176C16.9537 13.2959 16.7886 13.2275 16.6164 13.2275H5.38303C5.21083 13.2275 5.04573 13.2959 4.92388 13.4176C4.80217 13.5395 4.73376 13.7046 4.73361 13.8768V17.0798H1.64917L1.64929 5.71906ZM6.03273 14.5265H15.9671V20.2836H6.03273V14.5265Z" fill="#0D3C84"/>
<path fill-rule="evenodd" clip-rule="evenodd" d="M10.9921 1.00005C10.8665 1.00153 10.7442 1.03944 10.6398 1.10918L5.02291 4.85371C4.94014 4.90923 4.87129 4.98312 4.82169 5.06959H1.32457C1.14526 5.06959 1 5.215 1 5.39431V17.4048C1 17.5841 1.14526 17.7295 1.32457 17.7295H4.73375V20.9328C4.73389 21.1051 4.8023 21.2703 4.92401 21.392C5.04587 21.5139 5.21097 21.5823 5.38317 21.5823H16.6166C16.7888 21.5823 16.9539 21.5139 17.0756 21.392C17.1974 21.2703 17.2658 21.105 17.2658 20.9328V17.7295H20.6753C20.8546 17.7295 21 17.5841 21 17.4048V5.39431C21 5.215 20.8546 5.06959 20.6753 5.06959H17.1792C17.1293 4.98312 17.0602 4.90923 16.977 4.85371L11.3605 1.10918C11.2516 1.03647 11.123 0.99842 10.9921 1.00005ZM10.9999 2.42997L15.4459 5.39402L10.9999 8.35807L6.55355 5.39402L10.9999 2.42997ZM1.64929 5.71906H4.82126C4.87116 5.80539 4.94016 5.87898 5.02293 5.93436L10.6398 9.67858C10.7464 9.74981 10.872 9.78771 11.0001 9.78771C11.1283 9.78771 11.2537 9.74981 11.3603 9.67858L16.9768 5.93436C17.0595 5.87898 17.1283 5.80524 17.1779 5.71906H20.3504V17.0798H17.2657V13.8768C17.2657 13.7046 17.1973 13.5395 17.0754 13.4176C16.9537 13.2959 16.7886 13.2275 16.6164 13.2275H5.38303C5.21083 13.2275 5.04573 13.2959 4.92388 13.4176C4.80217 13.5395 4.73376 13.7046 4.73361 13.8768V17.0798H1.64917L1.64929 5.71906ZM6.03273 14.5265H15.9671V20.2836H6.03273V14.5265Z" stroke="#0D3C84" mask="url(#path-1-outside-1_6970_26067)"/>
</svg>
