<svg width="23" height="24" viewBox="0 0 23 24" fill="none" xmlns="http://www.w3.org/2000/svg">
<path d="M5.32982 4.43344C5.59611 4.16091 5.95723 4.00781 6.33376 4.00781C6.71029 4.00781 7.07141 4.16091 7.3377 4.43344L12.3588 9.5738L17.3799 4.43344C17.6478 4.16864 18.0064 4.02211 18.3788 4.02542C18.7511 4.02873 19.1072 4.18162 19.3705 4.45115C19.6338 4.72068 19.7831 5.08529 19.7864 5.46645C19.7896 5.84761 19.6465 6.21483 19.3878 6.489L14.3667 11.6294L19.3878 16.7697C19.6465 17.0439 19.7896 17.4111 19.7864 17.7923C19.7831 18.1734 19.6338 18.538 19.3705 18.8076C19.1072 19.0771 18.7511 19.23 18.3788 19.2333C18.0064 19.2366 17.6478 19.0901 17.3799 18.8253L12.3588 13.6849L7.3377 18.8253C7.06988 19.0901 6.71119 19.2366 6.33887 19.2333C5.96655 19.23 5.6104 19.0771 5.34712 18.8076C5.08384 18.538 4.9345 18.1734 4.93126 17.7923C4.92803 17.4111 5.07115 17.0439 5.32982 16.7697L10.3509 11.6294L5.32982 6.489C5.06361 6.21639 4.91406 5.8467 4.91406 5.46122C4.91406 5.07575 5.06361 4.70605 5.32982 4.43344V4.43344Z" fill="white" fill-opacity="0.53"/>
</svg>
