<svg width="14" height="12" viewBox="0 0 14 12" fill="none" xmlns="http://www.w3.org/2000/svg">
<path d="M12.9406 5.90394L7.30917 0.2766C7.26863 0.235973 7.22047 0.203741 7.16745 0.181749C7.11443 0.159757 7.05759 0.148438 7.00019 0.148438C6.94279 0.148438 6.88596 0.159757 6.83294 0.181749C6.77992 0.203741 6.73175 0.235973 6.69121 0.2766L1.05977 5.90394C0.895703 6.06801 0.802734 6.29086 0.802734 6.52328C0.802734 7.0059 1.19512 7.39828 1.67773 7.39828H2.27109V11.4137C2.27109 11.6557 2.4666 11.8512 2.70859 11.8512H6.12519V8.78871H7.65644V11.8512H11.2918C11.5338 11.8512 11.7293 11.6557 11.7293 11.4137V7.39828H12.3226C12.5551 7.39828 12.7779 7.30668 12.942 7.14125C13.2824 6.79945 13.2824 6.24574 12.9406 5.90394Z" fill="#0D3C84" fill-opacity="0.8"/>
</svg>
