   <svg
        width="38"
        height="36"
        viewBox="0 0 38 36"
        fill="none"
        xmlns="http://www.w3.org/2000/svg"
      >
        <mask
          id="path-1-outside-1_4311_25863"
          maskUnits="userSpaceOnUse"
          x="0"
          y="0"
          width="38"
          height="36"
          fill="black"
        >
          <rect fill="white" width="38" height="36" />
          <path
            fill-rule="evenodd"
            clip-rule="evenodd"
            d="M22.7383 5.77181C23.154 5.77181 23.5874 5.88079 24.0384 6.10144C24.6399 6.40689 25.084 6.89727 25.3739 7.56975L25.9451 8.92794C26.1185 9.33202 26.384 9.71059 26.7429 10.0662C27.0896 10.4205 27.5001 10.7201 27.9741 10.9652C28.5752 11.2707 29.1642 11.4241 29.7411 11.4241C30.0542 11.4241 30.3602 11.3811 30.6609 11.2952L32.0476 10.9281C32.2545 10.8679 32.4688 10.8363 32.6879 10.8363C33.1282 10.8363 33.5899 10.9596 34.0746 11.2034C34.7912 11.5592 35.3112 12.0665 35.6347 12.7275L36.3634 14.1772C36.7222 14.8629 36.7912 15.5537 36.5721 16.2507C36.3405 16.9604 35.8947 17.4192 35.2367 17.6273L33.781 18.1049C32.8681 18.3985 32.2438 19.0281 31.9078 19.9961C31.5154 21.0731 31.5505 22.1611 32.0121 23.2623L32.7922 25.0977C33.1389 25.9181 33.2148 26.7929 33.0186 27.7219C32.6719 28.5177 32.1287 29.1415 31.3878 29.5944L29.6897 30.2915C29.3077 30.3902 28.9381 30.439 28.5808 30.439C28.0607 30.439 27.5407 30.3286 27.0207 30.1079C26.1875 29.546 25.6162 28.8173 25.3049 27.9242L24.6115 25.9423C24.2755 24.963 24.2701 24.0942 24.5939 23.3357C24.9635 22.4797 25.5702 21.9159 26.414 21.6479L28.043 21.0973C29.037 20.7662 29.7182 20.1121 30.0877 19.1327C30.4344 18.1779 30.3887 17.1813 29.9498 16.1418L29.2741 14.5817C28.8459 13.5894 28.1703 12.8623 27.2452 12.3964C26.6334 12.0797 26.0267 11.9204 25.4251 11.9204C25.1139 11.9317 24.7955 11.9806 24.4717 12.0665L22.9294 12.471C22.641 12.544 22.3581 12.58 22.0804 12.58C21.594 12.58 21.1093 12.4522 20.6246 12.1957C19.9648 11.8646 19.5032 11.3194 19.2379 10.561L18.7338 9.12984C18.4914 8.4202 18.532 7.79661 18.8559 7.25734C19.1797 6.7196 19.6414 6.38997 20.2426 6.26663C20.347 6.242 20.4444 6.22335 20.538 6.21186L22.0273 5.89955C22.1316 5.86358 22.2183 5.83935 22.2873 5.82614C22.4378 5.78902 22.5883 5.77181 22.7383 5.77181Z"
          />
          <path
            fill-rule="evenodd"
            clip-rule="evenodd"
            d="M15.1314 7.62245C15.5703 7.62245 16.0158 7.73845 16.4668 7.97231C17.1019 8.28906 17.5404 8.80958 17.7828 9.53239L18.2693 10.9819C18.616 11.9598 19.2562 12.7013 20.1936 13.2032C20.7934 13.5086 21.407 13.662 22.0297 13.662C22.3995 13.6734 22.7813 13.6246 23.174 13.5145L24.7165 13.0926C24.9606 13.0196 25.203 12.9822 25.4452 12.9822C25.9192 12.9954 26.3986 13.1227 26.8833 13.3679C27.6349 13.7465 28.1605 14.2915 28.461 15.0011L29.1208 16.5798C29.4443 17.314 29.455 18.0596 29.1543 18.8183C28.8431 19.5896 28.3176 20.0972 27.5766 20.3424L25.9475 20.8744C24.8507 21.2172 24.0707 21.9213 23.6074 22.9851C23.3651 23.5357 23.2378 24.0995 23.2271 24.6744C23.2147 25.2492 23.3191 25.8674 23.5385 26.527L24.2141 28.5287C24.5147 29.4221 24.5147 30.3813 24.2141 31.4095C23.648 32.3642 22.9546 33.0797 22.134 33.5572L20.1936 34.3461C19.8238 34.4434 19.4527 34.4937 19.0829 34.4937C18.4938 34.4937 17.9226 34.3704 17.3671 34.1266C16.4436 33.6247 15.8476 32.8477 15.5825 31.7949L15.0269 29.6111C14.7386 28.4971 14.8536 27.5305 15.3736 26.7105C15.8708 25.7568 16.5587 25.1391 17.4361 24.8579L19.2738 24.2327C20.4765 23.8296 21.3204 23.0955 21.805 22.0303C22.0595 21.4796 22.21 20.9231 22.2561 20.3612C22.2897 19.7863 22.2206 19.2412 22.0473 18.7266L21.4583 17.0575C21.1117 16.0539 20.4127 15.2764 19.3605 14.7258C18.7487 14.4075 18.1188 14.2486 17.4715 14.2486C17.0788 14.2486 16.6737 14.3044 16.2581 14.4134L14.5247 14.8722C14.2469 14.9468 13.9693 14.9828 13.6933 14.9828C13.1733 14.9828 12.6533 14.8477 12.1332 14.5797C11.3816 14.2614 10.9022 13.6862 10.6934 12.8533L10.2778 11.2932C10.0815 10.4988 10.2195 9.82492 10.6934 9.2743C11.1216 8.67494 11.6416 8.30786 12.2535 8.17307C12.3579 8.16173 12.4568 8.14855 12.549 8.13706L14.2133 7.76998C14.3284 7.73298 14.438 7.70288 14.5424 7.67821C14.7386 7.64121 14.9351 7.62245 15.1314 7.62245Z"
          />
          <path
            fill-rule="evenodd"
            clip-rule="evenodd"
            d="M12.7725 1C13.2358 1 13.7436 1.09177 14.299 1.27531C14.9448 1.72685 15.3498 2.21022 15.5124 2.72482L15.9458 3.99095C16.142 4.56609 16.0838 5.15385 15.7724 5.75322C15.286 6.35273 14.6848 6.72568 13.9683 6.87324L12.3569 7.22153C11.2708 7.45396 10.4324 7.96717 9.84343 8.76296C9.24228 9.57053 9.06894 10.4824 9.3234 11.4977L9.7214 13.0761C9.96546 14.0672 10.5774 14.8257 11.5591 15.352C12.2064 15.6831 12.9352 15.8479 13.7436 15.8479C14.0903 15.8479 14.4425 15.8163 14.8014 15.7561L16.5525 15.2786C16.6782 15.2415 16.7893 15.2113 16.8815 15.1868C17.0884 15.1252 17.3027 15.0951 17.5218 15.0951C17.9621 15.0951 18.4523 15.2113 18.9952 15.4438C19.7011 15.8967 20.1802 16.4902 20.4351 17.2244L21.0063 18.931C21.3069 19.8127 21.284 20.6144 20.9373 21.3354C20.4295 22.216 19.7646 22.7853 18.9439 23.0419L17.1238 23.6483C16.7771 23.7588 16.4426 23.8132 16.1191 23.8132C15.5866 23.8264 15.0614 23.6843 14.5414 23.3917C13.8126 22.9014 13.2696 22.2288 12.9123 21.3728L12.4613 19.5734C12.1713 18.4722 11.5255 17.6517 10.519 17.114C9.8028 16.734 9.07559 16.545 8.33466 16.545C7.94221 16.545 7.53867 16.6008 7.12126 16.7098L5.19855 17.2244C4.85187 17.3107 4.50518 17.3522 4.1585 17.3522C3.63847 17.3522 3.12371 17.2491 2.61436 17.0409C1.87523 16.5391 1.44188 15.9026 1.31431 15.1325L1.03832 13.4432C0.910749 12.6117 1.10183 11.8831 1.60967 11.2594C2.17574 10.5499 2.89199 10.1024 3.7587 9.91885L5.57879 9.53456C6.75863 9.27647 7.64822 8.74461 8.24799 7.93704C8.83874 7.14125 9.01735 6.2984 8.78563 5.40493L8.43894 4.04561C8.2889 3.45898 8.43381 2.84673 8.8723 2.21022C9.34628 1.73416 9.93565 1.43462 10.6412 1.31128L12.1658 1.05433C12.3624 1.01722 12.5656 1 12.7725 1Z"
          />
        </mask>
        <path
          fill-rule="evenodd"
          clip-rule="evenodd"
          d="M22.7383 5.77181C23.154 5.77181 23.5874 5.88079 24.0384 6.10144C24.6399 6.40689 25.084 6.89727 25.3739 7.56975L25.9451 8.92794C26.1185 9.33202 26.384 9.71059 26.7429 10.0662C27.0896 10.4205 27.5001 10.7201 27.9741 10.9652C28.5752 11.2707 29.1642 11.4241 29.7411 11.4241C30.0542 11.4241 30.3602 11.3811 30.6609 11.2952L32.0476 10.9281C32.2545 10.8679 32.4688 10.8363 32.6879 10.8363C33.1282 10.8363 33.5899 10.9596 34.0746 11.2034C34.7912 11.5592 35.3112 12.0665 35.6347 12.7275L36.3634 14.1772C36.7222 14.8629 36.7912 15.5537 36.5721 16.2507C36.3405 16.9604 35.8947 17.4192 35.2367 17.6273L33.781 18.1049C32.8681 18.3985 32.2438 19.0281 31.9078 19.9961C31.5154 21.0731 31.5505 22.1611 32.0121 23.2623L32.7922 25.0977C33.1389 25.9181 33.2148 26.7929 33.0186 27.7219C32.6719 28.5177 32.1287 29.1415 31.3878 29.5944L29.6897 30.2915C29.3077 30.3902 28.9381 30.439 28.5808 30.439C28.0607 30.439 27.5407 30.3286 27.0207 30.1079C26.1875 29.546 25.6162 28.8173 25.3049 27.9242L24.6115 25.9423C24.2755 24.963 24.2701 24.0942 24.5939 23.3357C24.9635 22.4797 25.5702 21.9159 26.414 21.6479L28.043 21.0973C29.037 20.7662 29.7182 20.1121 30.0877 19.1327C30.4344 18.1779 30.3887 17.1813 29.9498 16.1418L29.2741 14.5817C28.8459 13.5894 28.1703 12.8623 27.2452 12.3964C26.6334 12.0797 26.0267 11.9204 25.4251 11.9204C25.1139 11.9317 24.7955 11.9806 24.4717 12.0665L22.9294 12.471C22.641 12.544 22.3581 12.58 22.0804 12.58C21.594 12.58 21.1093 12.4522 20.6246 12.1957C19.9648 11.8646 19.5032 11.3194 19.2379 10.561L18.7338 9.12984C18.4914 8.4202 18.532 7.79661 18.8559 7.25734C19.1797 6.7196 19.6414 6.38997 20.2426 6.26663C20.347 6.242 20.4444 6.22335 20.538 6.21186L22.0273 5.89955C22.1316 5.86358 22.2183 5.83935 22.2873 5.82614C22.4378 5.78902 22.5883 5.77181 22.7383 5.77181Z"
          fill="#00ACDD"
        />
        <path
          fill-rule="evenodd"
          clip-rule="evenodd"
          d="M15.1314 7.62245C15.5703 7.62245 16.0158 7.73845 16.4668 7.97231C17.1019 8.28906 17.5404 8.80958 17.7828 9.53239L18.2693 10.9819C18.616 11.9598 19.2562 12.7013 20.1936 13.2032C20.7934 13.5086 21.407 13.662 22.0297 13.662C22.3995 13.6734 22.7813 13.6246 23.174 13.5145L24.7165 13.0926C24.9606 13.0196 25.203 12.9822 25.4452 12.9822C25.9192 12.9954 26.3986 13.1227 26.8833 13.3679C27.6349 13.7465 28.1605 14.2915 28.461 15.0011L29.1208 16.5798C29.4443 17.314 29.455 18.0596 29.1543 18.8183C28.8431 19.5896 28.3176 20.0972 27.5766 20.3424L25.9475 20.8744C24.8507 21.2172 24.0707 21.9213 23.6074 22.9851C23.3651 23.5357 23.2378 24.0995 23.2271 24.6744C23.2147 25.2492 23.3191 25.8674 23.5385 26.527L24.2141 28.5287C24.5147 29.4221 24.5147 30.3813 24.2141 31.4095C23.648 32.3642 22.9546 33.0797 22.134 33.5572L20.1936 34.3461C19.8238 34.4434 19.4527 34.4937 19.0829 34.4937C18.4938 34.4937 17.9226 34.3704 17.3671 34.1266C16.4436 33.6247 15.8476 32.8477 15.5825 31.7949L15.0269 29.6111C14.7386 28.4971 14.8536 27.5305 15.3736 26.7105C15.8708 25.7568 16.5587 25.1391 17.4361 24.8579L19.2738 24.2327C20.4765 23.8296 21.3204 23.0955 21.805 22.0303C22.0595 21.4796 22.21 20.9231 22.2561 20.3612C22.2897 19.7863 22.2206 19.2412 22.0473 18.7266L21.4583 17.0575C21.1117 16.0539 20.4127 15.2764 19.3605 14.7258C18.7487 14.4075 18.1188 14.2486 17.4715 14.2486C17.0788 14.2486 16.6737 14.3044 16.2581 14.4134L14.5247 14.8722C14.2469 14.9468 13.9693 14.9828 13.6933 14.9828C13.1733 14.9828 12.6533 14.8477 12.1332 14.5797C11.3816 14.2614 10.9022 13.6862 10.6934 12.8533L10.2778 11.2932C10.0815 10.4988 10.2195 9.82492 10.6934 9.2743C11.1216 8.67494 11.6416 8.30786 12.2535 8.17307C12.3579 8.16173 12.4568 8.14855 12.549 8.13706L14.2133 7.76998C14.3284 7.73298 14.438 7.70288 14.5424 7.67821C14.7386 7.64121 14.9351 7.62245 15.1314 7.62245Z"
          fill="#004166"
        />
        <path
          fill-rule="evenodd"
          clip-rule="evenodd"
          d="M12.7725 1C13.2358 1 13.7436 1.09177 14.299 1.27531C14.9448 1.72685 15.3498 2.21022 15.5124 2.72482L15.9458 3.99095C16.142 4.56609 16.0838 5.15385 15.7724 5.75322C15.286 6.35273 14.6848 6.72568 13.9683 6.87324L12.3569 7.22153C11.2708 7.45396 10.4324 7.96717 9.84343 8.76296C9.24228 9.57053 9.06894 10.4824 9.3234 11.4977L9.7214 13.0761C9.96546 14.0672 10.5774 14.8257 11.5591 15.352C12.2064 15.6831 12.9352 15.8479 13.7436 15.8479C14.0903 15.8479 14.4425 15.8163 14.8014 15.7561L16.5525 15.2786C16.6782 15.2415 16.7893 15.2113 16.8815 15.1868C17.0884 15.1252 17.3027 15.0951 17.5218 15.0951C17.9621 15.0951 18.4523 15.2113 18.9952 15.4438C19.7011 15.8967 20.1802 16.4902 20.4351 17.2244L21.0063 18.931C21.3069 19.8127 21.284 20.6144 20.9373 21.3354C20.4295 22.216 19.7646 22.7853 18.9439 23.0419L17.1238 23.6483C16.7771 23.7588 16.4426 23.8132 16.1191 23.8132C15.5866 23.8264 15.0614 23.6843 14.5414 23.3917C13.8126 22.9014 13.2696 22.2288 12.9123 21.3728L12.4613 19.5734C12.1713 18.4722 11.5255 17.6517 10.519 17.114C9.8028 16.734 9.07559 16.545 8.33466 16.545C7.94221 16.545 7.53867 16.6008 7.12126 16.7098L5.19855 17.2244C4.85187 17.3107 4.50518 17.3522 4.1585 17.3522C3.63847 17.3522 3.12371 17.2491 2.61436 17.0409C1.87523 16.5391 1.44188 15.9026 1.31431 15.1325L1.03832 13.4432C0.910749 12.6117 1.10183 11.8831 1.60967 11.2594C2.17574 10.5499 2.89199 10.1024 3.7587 9.91885L5.57879 9.53456C6.75863 9.27647 7.64822 8.74461 8.24799 7.93704C8.83874 7.14125 9.01735 6.2984 8.78563 5.40493L8.43894 4.04561C8.2889 3.45898 8.43381 2.84673 8.8723 2.21022C9.34628 1.73416 9.93565 1.43462 10.6412 1.31128L12.1658 1.05433C12.3624 1.01722 12.5656 1 12.7725 1Z"
          fill="#96BC33"
        />
        <path
          d="M24.0384 6.10144L24.4911 5.2098L24.4845 5.20645L24.4779 5.2032L24.0384 6.10144ZM25.3739 7.56975L26.2958 7.18207L26.2922 7.17381L25.3739 7.56975ZM25.9451 8.92794L25.0233 9.31562L25.0261 9.32218L25.9451 8.92794ZM26.7429 10.0662L27.4577 9.36684L27.4523 9.36128L27.4468 9.35581L26.7429 10.0662ZM27.9741 10.9652L27.5146 11.8535L27.5211 11.8567L27.9741 10.9652ZM30.6609 11.2952L30.405 10.3285L30.3955 10.331L30.3862 10.3337L30.6609 11.2952ZM32.0476 10.9281L32.3035 11.8948L32.3154 11.8917L32.3271 11.8882L32.0476 10.9281ZM34.0746 11.2034L33.6253 12.0968L33.63 12.0991L34.0746 11.2034ZM35.6347 12.7275L34.7364 13.167L34.7412 13.1766L35.6347 12.7275ZM36.3634 14.1772L35.47 14.6263L35.4736 14.6336L35.4774 14.6408L36.3634 14.1772ZM36.5721 16.2507L37.5228 16.561L37.5261 16.5506L36.5721 16.2507ZM35.2367 17.6273L34.9352 16.6738L34.925 16.6771L35.2367 17.6273ZM33.781 18.1049L34.0872 19.0569L34.0927 19.0551L33.781 18.1049ZM31.9078 19.9961L32.8474 20.3384L32.85 20.3312L32.8525 20.324L31.9078 19.9961ZM32.0121 23.2623L31.0899 23.6489L31.0918 23.6535L32.0121 23.2623ZM32.7922 25.0977L33.7133 24.7084L33.7125 24.7065L32.7922 25.0977ZM33.0186 27.7219L33.9354 28.1213L33.976 28.0281L33.997 27.9286L33.0186 27.7219ZM31.3878 29.5944L31.7675 30.5195L31.8413 30.4892L31.9094 30.4476L31.3878 29.5944ZM29.6897 30.2915L29.9401 31.2596L30.0062 31.2425L30.0695 31.2166L29.6897 30.2915ZM27.0207 30.1079L26.4615 30.937L26.5414 30.9908L26.6301 31.0285L27.0207 30.1079ZM25.3049 27.9242L26.2491 27.595L26.2488 27.594L25.3049 27.9242ZM24.6115 25.9423L23.6656 26.2668L23.6676 26.2725L24.6115 25.9423ZM24.5939 23.3357L23.6758 22.9394L23.6742 22.9431L24.5939 23.3357ZM26.414 21.6479L26.7167 22.601L26.7255 22.5982L26.7342 22.5953L26.414 21.6479ZM28.043 21.0973L27.727 20.1485L27.7228 20.15L28.043 21.0973ZM30.0877 19.1327L31.0234 19.4858L31.0277 19.474L30.0877 19.1327ZM29.9498 16.1418L30.8711 15.7528L30.8674 15.7444L29.9498 16.1418ZM29.2741 14.5817L28.356 14.9779L28.3565 14.9791L29.2741 14.5817ZM27.2452 12.3964L26.7854 13.2845L26.7954 13.2896L27.2452 12.3964ZM25.4251 11.9204V10.9204H25.4069L25.3887 10.921L25.4251 11.9204ZM24.4717 12.0665L24.7254 13.0337L24.728 13.0331L24.4717 12.0665ZM22.9294 12.471L23.1747 13.4405L23.1831 13.4383L22.9294 12.471ZM20.6246 12.1957L21.0924 11.3118L21.0828 11.3068L21.0731 11.3019L20.6246 12.1957ZM19.2379 10.561L20.1818 10.2309L20.1811 10.2288L19.2379 10.561ZM18.7338 9.12984L17.7875 9.4531L17.7906 9.46204L18.7338 9.12984ZM18.8559 7.25734L17.9992 6.74148L17.9985 6.74256L18.8559 7.25734ZM20.2426 6.26663L20.4436 7.24622L20.4579 7.24328L20.4722 7.23992L20.2426 6.26663ZM20.538 6.21186L20.6598 7.20441L20.7018 7.19926L20.7432 7.19058L20.538 6.21186ZM22.0273 5.89955L22.2326 6.87826L22.294 6.86537L22.3534 6.84488L22.0273 5.89955ZM22.2873 5.82614L22.4753 6.80832L22.5012 6.80336L22.5268 6.79704L22.2873 5.82614ZM16.4668 7.97231L16.0064 8.86004L16.0134 8.86368L16.0205 8.8672L16.4668 7.97231ZM17.7828 9.53239L16.8347 9.85035L16.8348 9.85056L17.7828 9.53239ZM18.2693 10.9819L17.3212 11.3001L17.3239 11.3081L17.3267 11.316L18.2693 10.9819ZM20.1936 13.2032L19.7217 14.0848L19.7307 14.0896L19.7399 14.0943L20.1936 13.2032ZM22.0297 13.662L22.0603 12.6625L22.045 12.662H22.0297V13.662ZM23.174 13.5145L22.9102 12.5499L22.904 12.5516L23.174 13.5145ZM24.7165 13.0926L24.9803 14.0572L24.9917 14.0541L25.003 14.0507L24.7165 13.0926ZM25.4452 12.9822L25.4731 11.9826L25.4592 11.9822H25.4452V12.9822ZM26.8833 13.3679L26.4319 14.2602L26.4334 14.261L26.8833 13.3679ZM28.461 15.0011L29.3836 14.6155L29.3818 14.6112L28.461 15.0011ZM29.1208 16.5798L28.1981 16.9655L28.2018 16.9743L28.2057 16.9831L29.1208 16.5798ZM29.1543 18.8183L30.0817 19.1925L30.084 19.1867L29.1543 18.8183ZM27.5766 20.3424L27.887 21.293L27.8908 21.2918L27.5766 20.3424ZM25.9475 20.8744L26.2459 21.8289L26.2579 21.825L25.9475 20.8744ZM23.6074 22.9851L24.5227 23.3878L24.5242 23.3844L23.6074 22.9851ZM23.2271 24.6744L24.2269 24.6961L24.227 24.6929L23.2271 24.6744ZM23.5385 26.527L22.5896 26.8426L22.591 26.8468L23.5385 26.527ZM24.2141 28.5287L25.1619 28.2097L25.1616 28.2089L24.2141 28.5287ZM24.2141 31.4095L25.0742 31.9195L25.1385 31.8111L25.1739 31.6901L24.2141 31.4095ZM22.134 33.5572L22.5106 34.4836L22.5759 34.457L22.6369 34.4215L22.134 33.5572ZM20.1936 34.3461L20.4479 35.3133L20.5104 35.2968L20.5703 35.2725L20.1936 34.3461ZM17.3671 34.1266L16.8895 35.0052L16.9266 35.0254L16.9652 35.0423L17.3671 34.1266ZM15.5825 31.7949L16.5522 31.5507L16.5516 31.5484L15.5825 31.7949ZM15.0269 29.6111L15.9961 29.3646L15.995 29.3606L15.0269 29.6111ZM15.3736 26.7105L16.2181 27.246L16.2408 27.2103L16.2604 27.1727L15.3736 26.7105ZM17.4361 24.8579L17.7413 25.8102L17.7498 25.8075L17.7582 25.8046L17.4361 24.8579ZM19.2738 24.2327L18.956 23.2845L18.9518 23.286L19.2738 24.2327ZM21.805 22.0303L20.8973 21.6107L20.8948 21.6161L21.805 22.0303ZM22.2561 20.3612L23.2528 20.4431L23.2538 20.4313L23.2544 20.4195L22.2561 20.3612ZM22.0473 18.7266L22.995 18.4073L22.9927 18.4005L22.9903 18.3938L22.0473 18.7266ZM21.4583 17.0575L20.5131 17.384L20.5153 17.3902L21.4583 17.0575ZM19.3605 14.7258L19.8241 13.8398L19.822 13.8387L19.3605 14.7258ZM16.2581 14.4134L16.0044 13.4461L16.0022 13.4467L16.2581 14.4134ZM14.5247 14.8722L14.2688 13.9055L14.2654 13.9064L14.5247 14.8722ZM12.1332 14.5797L12.5913 13.6908L12.5579 13.6736L12.5232 13.6589L12.1332 14.5797ZM10.6934 12.8533L11.6634 12.6101L11.6616 12.603L11.6597 12.5959L10.6934 12.8533ZM10.2778 11.2932L9.30695 11.533L9.30913 11.5419L9.31147 11.5507L10.2778 11.2932ZM10.6934 9.2743L11.4513 9.92659L11.4808 9.89237L11.507 9.85564L10.6934 9.2743ZM12.2535 8.17307L12.1455 7.17892L12.0914 7.18479L12.0383 7.19649L12.2535 8.17307ZM12.549 8.13706L12.6726 9.12939L12.7188 9.12362L12.7643 9.11359L12.549 8.13706ZM14.2133 7.76998L14.4287 8.74651L14.4746 8.73638L14.5194 8.722L14.2133 7.76998ZM14.5424 7.67821L14.3571 6.69553L14.3347 6.69975L14.3125 6.70499L14.5424 7.67821ZM14.299 1.27531L14.872 0.455766L14.7519 0.371794L14.6128 0.325812L14.299 1.27531ZM15.5124 2.72482L14.5589 3.02622L14.5625 3.03748L14.5663 3.04865L15.5124 2.72482ZM15.9458 3.99095L16.8922 3.66805L16.8919 3.66712L15.9458 3.99095ZM15.7724 5.75322L16.5489 6.38331L16.613 6.30438L16.6599 6.21416L15.7724 5.75322ZM13.9683 6.87324L13.7666 5.89375L13.757 5.89581L13.9683 6.87324ZM12.3569 7.22153L12.5662 8.19939L12.5682 8.19896L12.3569 7.22153ZM9.84343 8.76296L10.6456 9.36008L10.6472 9.35785L9.84343 8.76296ZM9.3234 11.4977L8.3534 11.7408L8.35375 11.7422L9.3234 11.4977ZM9.7214 13.0761L10.6924 12.837L10.691 12.8316L9.7214 13.0761ZM11.5591 15.352L11.0866 16.2333L11.0951 16.2379L11.1037 16.2423L11.5591 15.352ZM14.8014 15.7561L14.967 16.7423L15.0163 16.734L15.0645 16.7209L14.8014 15.7561ZM16.5525 15.2786L16.8156 16.2434L16.8255 16.2406L16.8355 16.2377L16.5525 15.2786ZM16.8815 15.1868L17.1385 16.1532L17.1528 16.1494L17.167 16.1452L16.8815 15.1868ZM18.9952 15.4438L19.5353 14.6022L19.4653 14.5572L19.3888 14.5245L18.9952 15.4438ZM20.4351 17.2244L21.3834 16.907L21.3797 16.8964L20.4351 17.2244ZM21.0063 18.931L20.0579 19.2484L20.0598 19.2537L21.0063 18.931ZM20.9373 21.3354L21.8036 21.8349L21.8223 21.8025L21.8385 21.7687L20.9373 21.3354ZM18.9439 23.0419L18.6455 22.0874L18.6366 22.0902L18.6278 22.0931L18.9439 23.0419ZM17.1238 23.6483L17.4277 24.6011L17.4399 24.597L17.1238 23.6483ZM16.1191 23.8132V22.8132H16.1067L16.0943 22.8135L16.1191 23.8132ZM14.5414 23.3917L13.9832 24.2214L14.0163 24.2437L14.0511 24.2633L14.5414 23.3917ZM12.9123 21.3728L11.9423 21.6159L11.9605 21.6888L11.9895 21.7581L12.9123 21.3728ZM12.4613 19.5734L13.4314 19.3303L13.4284 19.3188L12.4613 19.5734ZM10.519 17.114L10.9903 16.232L10.9877 16.2306L10.519 17.114ZM7.12126 16.7098L6.86863 15.7422L6.86272 15.7438L7.12126 16.7098ZM5.19855 17.2244L5.4402 18.1948L5.44867 18.1927L5.4571 18.1904L5.19855 17.2244ZM2.61436 17.0409L2.05273 17.8682L2.13922 17.927L2.23599 17.9665L2.61436 17.0409ZM1.31431 15.1325L0.327397 15.2937L0.327757 15.2959L1.31431 15.1325ZM1.03832 13.4432L0.0498368 13.5949L0.0514034 13.6044L1.03832 13.4432ZM1.60967 11.2594L2.38518 11.8908L2.39136 11.8831L1.60967 11.2594ZM3.7587 9.91885L3.55212 8.94042L3.55153 8.94055L3.7587 9.91885ZM5.57879 9.53456L5.78538 10.513L5.79249 10.5115L5.57879 9.53456ZM8.24799 7.93704L9.0508 8.53327L9.05093 8.53309L8.24799 7.93704ZM8.78563 5.40493L7.81664 5.65207L7.81765 5.65598L8.78563 5.40493ZM8.43894 4.04561L9.40792 3.79848L9.40775 3.79781L8.43894 4.04561ZM8.8723 2.21022L8.16365 1.50466L8.09998 1.5686L8.04879 1.64291L8.8723 2.21022ZM10.6412 1.31128L10.475 0.32517L10.469 0.326218L10.6412 1.31128ZM12.1658 1.05433L12.332 2.04042L12.3416 2.03879L12.3513 2.03698L12.1658 1.05433ZM22.7383 6.77181C22.9751 6.77181 23.2587 6.83323 23.5989 6.99969L24.4779 5.2032C23.9161 4.92835 23.333 4.77181 22.7383 4.77181V6.77181ZM23.5856 6.99309C23.9585 7.18241 24.2487 7.48578 24.4557 7.9657L26.2922 7.17381C25.9192 6.30875 25.3214 5.63137 24.4911 5.2098L23.5856 6.99309ZM24.4521 7.95742L25.0233 9.31561L26.8669 8.54027L26.2957 7.18209L24.4521 7.95742ZM25.0261 9.32218C25.2573 9.86111 25.6026 10.3441 26.0391 10.7765L27.4468 9.35581C27.1655 9.07712 26.9796 8.80293 26.8641 8.53371L25.0261 9.32218ZM26.0281 10.7655C26.4551 11.2019 26.9536 11.5632 27.5146 11.8534L28.4335 10.077C28.0466 9.87688 27.7242 9.63917 27.4577 9.36684L26.0281 10.7655ZM27.5211 11.8567C28.2382 12.2211 28.9815 12.4241 29.7411 12.4241V10.4241C29.3469 10.4241 28.9123 10.3202 28.4271 10.0737L27.5211 11.8567ZM29.7411 12.4241C30.1473 12.4241 30.5458 12.3681 30.9356 12.2567L30.3862 10.3337C30.1747 10.3941 29.9611 10.4241 29.7411 10.4241V12.4241ZM30.9168 12.2619L32.3035 11.8948L31.7917 9.96141L30.405 10.3285L30.9168 12.2619ZM32.3271 11.8882C32.4454 11.8538 32.5656 11.8363 32.6879 11.8363V9.83634C32.372 9.83634 32.0637 9.88192 31.7681 9.96798L32.3271 11.8882ZM32.6879 11.8363C32.9381 11.8363 33.246 11.906 33.6253 12.0968L34.5239 10.3101C33.9338 10.0133 33.3182 9.83634 32.6879 9.83634V11.8363ZM33.63 12.0991C34.1682 12.3663 34.5187 12.7221 34.7365 13.167L36.5329 12.288C36.1037 11.4109 35.4142 10.752 34.5193 10.3077L33.63 12.0991ZM34.7412 13.1766L35.47 14.6263L37.2569 13.728L36.5282 12.2784L34.7412 13.1766ZM35.4774 14.6408C35.7207 15.1058 35.7527 15.5227 35.6181 15.9509L37.5261 16.5506C37.8297 15.5847 37.7237 14.6199 37.2494 13.7135L35.4774 14.6408ZM35.6215 15.9405C35.4806 16.372 35.2584 16.5716 34.9352 16.6738L35.5382 18.5808C36.531 18.2668 37.2004 17.5487 37.5228 16.561L35.6215 15.9405ZM34.925 16.6771L33.4692 17.1547L34.0927 19.0551L35.5484 18.5775L34.925 16.6771ZM33.4747 17.1529C32.2405 17.55 31.3942 18.4264 30.9631 19.6682L32.8525 20.324C33.0935 19.6297 33.4958 19.2471 34.0872 19.0568L33.4747 17.1529ZM30.9683 19.6537C30.4856 20.9782 30.5355 22.3265 31.0899 23.6489L32.9344 22.8757C32.5654 21.9956 32.5451 21.168 32.8474 20.3384L30.9683 19.6537ZM31.0918 23.6535L31.8719 25.4889L33.7125 24.7065L32.9324 22.8712L31.0918 23.6535ZM31.8711 25.487C32.1331 26.107 32.197 26.7727 32.0402 27.5153L33.997 27.9286C34.2326 26.8131 34.1447 25.7292 33.7133 24.7084L31.8711 25.487ZM32.1018 27.3225C31.8372 27.93 31.432 28.3954 30.8662 28.7412L31.9094 30.4476C32.8255 29.8876 33.5067 29.1054 33.9354 28.1213L32.1018 27.3225ZM31.0081 28.6693L29.31 29.3664L30.0695 31.2166L31.7675 30.5195L31.0081 28.6693ZM29.4394 29.3233C29.1319 29.4028 28.8465 29.439 28.5808 29.439V31.439C29.0298 31.439 29.4835 31.3777 29.9401 31.2596L29.4394 29.3233ZM28.5808 29.439C28.2063 29.439 27.8186 29.3602 27.4113 29.1874L26.6301 31.0285C27.2628 31.2969 27.9152 31.439 28.5808 31.439V29.439ZM27.5799 29.2789C26.9147 28.8302 26.4852 28.2721 26.2491 27.595L24.3606 28.2534C24.7472 29.3625 25.4604 30.2617 26.4615 30.937L27.5799 29.2789ZM26.2488 27.594L25.5554 25.6121L23.6676 26.2725L24.361 28.2544L26.2488 27.594ZM25.5574 25.6178C25.2806 24.811 25.3098 24.2058 25.5136 23.7284L23.6742 22.9431C23.2304 23.9826 23.2704 25.1149 23.6656 26.2668L25.5574 25.6178ZM25.512 23.7321C25.7742 23.1249 26.1663 22.7758 26.7167 22.601L26.1113 20.6948C24.974 21.056 24.1528 21.8346 23.6758 22.9394L25.512 23.7321ZM26.7342 22.5953L28.3632 22.0447L27.7228 20.15L26.0938 20.7006L26.7342 22.5953ZM28.359 22.0461C29.6381 21.62 30.5473 20.7474 31.0233 19.4858L29.1521 18.7797C28.8891 19.4767 28.4359 19.9124 27.727 20.1486L28.359 22.0461ZM31.0277 19.474C31.4702 18.2553 31.3963 16.997 30.871 15.7528L29.0285 16.5307C29.381 17.3656 29.3987 18.1005 29.1478 18.7914L31.0277 19.474ZM30.8674 15.7444L30.1918 14.1843L28.3565 14.9791L29.0321 16.5392L30.8674 15.7444ZM30.1923 14.1854C29.6753 12.9875 28.839 12.0794 27.695 11.5033L26.7954 13.2896C27.5016 13.6452 28.0165 14.1913 28.356 14.9779L30.1923 14.1854ZM27.705 11.5084C26.9727 11.1293 26.2095 10.9204 25.4251 10.9204V12.9204C25.8439 12.9204 26.294 13.03 26.7854 13.2845L27.705 11.5084ZM25.3887 10.921C24.9975 10.9353 24.6054 10.9965 24.2154 11.0999L24.728 13.0331C24.9857 12.9647 25.2303 12.9281 25.4615 12.9197L25.3887 10.921ZM24.218 11.0992L22.6757 11.5037L23.1831 13.4383L24.7254 13.0337L24.218 11.0992ZM22.6841 11.5015C22.4712 11.5554 22.2707 11.58 22.0804 11.58V13.58C22.4454 13.58 22.8107 13.5325 23.1747 13.4404L22.6841 11.5015ZM22.0804 11.58C21.7765 11.58 21.4512 11.5017 21.0924 11.3118L20.1569 13.0795C20.7674 13.4026 21.4114 13.58 22.0804 13.58V11.58ZM21.0731 11.3019C20.6677 11.0984 20.37 10.7689 20.1818 10.2309L18.294 10.8912C18.6364 11.87 19.2619 12.6307 20.1761 13.0894L21.0731 11.3019ZM20.1811 10.2288L19.677 8.79763L17.7906 9.46204L18.2947 10.8932L20.1811 10.2288ZM19.6801 8.80659C19.5128 8.31665 19.5705 8.00973 19.7132 7.77211L17.9985 6.74256C17.4936 7.58348 17.4701 8.52375 17.7875 9.45308L19.6801 8.80659ZM19.7125 7.77319C19.8957 7.46902 20.1228 7.31204 20.4436 7.24622L20.0416 5.28703C19.1601 5.4679 18.4636 5.97018 17.9992 6.74148L19.7125 7.77319ZM20.4722 7.23992C20.5521 7.22107 20.6122 7.21026 20.6598 7.20441L20.4161 5.21931C20.2766 5.23644 20.142 5.26292 20.013 5.29334L20.4722 7.23992ZM20.7432 7.19058L22.2326 6.87826L21.8221 4.92084L20.3327 5.23315L20.7432 7.19058ZM22.3534 6.84488C22.3907 6.83204 22.4198 6.823 22.4416 6.81686C22.4524 6.81383 22.4606 6.81171 22.4665 6.81029C22.4725 6.80885 22.4753 6.80831 22.4753 6.80832L22.0994 4.84396C21.967 4.8693 21.8313 4.90933 21.7012 4.95422L22.3534 6.84488ZM22.5268 6.79704C22.5957 6.78005 22.6655 6.77181 22.7383 6.77181V4.77181C22.511 4.77181 22.2799 4.79799 22.0479 4.85523L22.5268 6.79704ZM15.1314 8.62245C15.388 8.62245 15.6767 8.68907 16.0064 8.86004L16.9271 7.08458C16.3549 6.78782 15.7525 6.62245 15.1314 6.62245V8.62245ZM16.0205 8.8672C16.3991 9.05604 16.6694 9.35741 16.8347 9.85035L18.7309 9.21444C18.4114 8.26175 17.8047 7.52209 16.9131 7.07743L16.0205 8.8672ZM16.8348 9.85056L17.3212 11.3001L19.2173 10.6637L18.7308 9.21422L16.8348 9.85056ZM17.3267 11.316C17.7583 12.5334 18.5691 13.4678 19.7217 14.0848L20.6656 12.3216C19.9433 11.9348 19.4736 11.3863 19.2118 10.6478L17.3267 11.316ZM19.7399 14.0943C20.4684 14.4653 21.2366 14.662 22.0297 14.662V12.662C21.5774 12.662 21.1184 12.5519 20.6474 12.3121L19.7399 14.0943ZM21.999 14.6615C22.4791 14.6763 22.9623 14.6124 23.444 14.4773L22.904 12.5516C22.6003 12.6368 22.32 12.6705 22.0603 12.6625L21.999 14.6615ZM23.4378 14.479L24.9803 14.0572L24.4527 12.128L22.9102 12.5499L23.4378 14.479ZM25.003 14.0507C25.1617 14.0032 25.3077 13.9822 25.4452 13.9822V11.9822C25.0982 11.9822 24.7594 12.036 24.43 12.1345L25.003 14.0507ZM25.4174 13.9818C25.7263 13.9904 26.062 14.0731 26.4319 14.2602L27.3347 12.4756C26.7352 12.1724 26.1121 12.0004 25.4731 11.9826L25.4174 13.9818ZM26.4334 14.261C26.9935 14.5431 27.3404 14.9195 27.5401 15.3911L29.3818 14.6112C28.9805 13.6635 28.2763 12.9499 27.3331 12.4748L26.4334 14.261ZM27.5383 15.3867L28.1981 16.9655L30.0434 16.1942L29.3836 14.6155L27.5383 15.3867ZM28.2057 16.9831C28.4189 17.467 28.4289 17.9346 28.2247 18.4499L30.084 19.1867C30.4811 18.1847 30.4697 17.161 30.0359 16.1766L28.2057 16.9831ZM28.227 18.4442C28.0175 18.9632 27.7043 19.2468 27.2625 19.393L27.8908 21.2918C28.9308 20.9476 29.6687 20.216 30.0817 19.1925L28.227 18.4442ZM27.2662 19.3918L25.6371 19.9238L26.2579 21.825L27.887 21.293L27.2662 19.3918ZM25.6491 19.9199C24.272 20.3504 23.2683 21.2593 22.6906 22.5858L24.5242 23.3844C24.8731 22.5832 25.4295 22.084 26.2459 21.8288L25.6491 19.9199ZM22.6921 22.5823C22.3993 23.2478 22.2406 23.9418 22.2273 24.6558L24.227 24.6929C24.2351 24.2572 24.331 23.8235 24.5227 23.3878L22.6921 22.5823ZM22.2274 24.6526C22.2119 25.3639 22.3417 26.0972 22.5896 26.8426L24.4873 26.2114C24.2965 25.6375 24.2174 25.1345 24.2269 24.6961L22.2274 24.6526ZM22.591 26.8468L23.2666 28.8485L25.1616 28.2089L24.4859 26.2072L22.591 26.8468ZM23.2663 28.8476C23.493 29.5214 23.5056 30.2692 23.2543 31.1289L25.1739 31.6901C25.5238 30.4933 25.5364 29.3229 25.1619 28.2097L23.2663 28.8476ZM23.3539 30.8995C22.8602 31.7322 22.2814 32.3144 21.6311 32.6929L22.6369 34.4215C23.6278 33.845 24.4359 32.9962 25.0742 31.9195L23.3539 30.8995ZM21.7573 32.6308L19.817 33.4198L20.5703 35.2725L22.5106 34.4836L21.7573 32.6308ZM19.9394 33.379C19.647 33.4559 19.3613 33.4937 19.0829 33.4937V35.4937C19.5441 35.4937 20.0006 35.4308 20.4479 35.3133L19.9394 33.379ZM19.0829 33.4937C18.6381 33.4937 18.2034 33.4015 17.7689 33.2109L16.9652 35.0423C17.6418 35.3392 18.3494 35.4937 19.0829 35.4937V33.4937ZM17.8446 33.248C17.1747 32.8839 16.7513 32.3415 16.5522 31.5507L14.6127 32.0392C14.9439 33.3539 15.7126 34.3656 16.8895 35.0052L17.8446 33.248ZM16.5516 31.5484L15.9961 29.3646L14.0578 29.8576L14.6133 32.0415L16.5516 31.5484ZM15.995 29.3606C15.762 28.46 15.8739 27.7888 16.2181 27.246L14.5291 26.175C13.8333 27.2723 13.7153 28.5343 14.0588 29.8617L15.995 29.3606ZM16.2604 27.1727C16.6576 26.4107 17.1564 25.9976 17.7413 25.8102L17.1309 23.9056C15.961 24.2805 15.0839 25.1029 14.4869 26.2483L16.2604 27.1727ZM17.7582 25.8046L19.5959 25.1794L18.9518 23.286L17.114 23.9112L17.7582 25.8046ZM19.5916 25.1809C21.0326 24.6979 22.1054 23.7848 22.7152 22.4444L20.8948 21.6161C20.5354 22.4061 19.9204 22.9613 18.956 23.2846L19.5916 25.1809ZM22.7128 22.4498C23.0127 21.8009 23.1963 21.1306 23.2528 20.4431L21.2595 20.2793C21.2236 20.7157 21.1063 21.1584 20.8973 21.6107L22.7128 22.4498ZM23.2544 20.4195C23.2949 19.7257 23.212 19.0516 22.995 18.4073L21.0996 19.0458C21.2293 19.4307 21.2845 19.847 21.2578 20.3029L23.2544 20.4195ZM22.9903 18.3938L22.4014 16.7247L20.5153 17.3902L21.1043 19.0593L22.9903 18.3938ZM22.4035 16.731C21.9636 15.4574 21.0738 14.4937 19.8241 13.8398L18.8969 15.6118C19.7517 16.0592 20.2597 16.6504 20.5132 17.384L22.4035 16.731ZM19.822 13.8387C19.0769 13.4511 18.2896 13.2486 17.4715 13.2486V15.2486C17.948 15.2486 18.4204 15.364 18.899 15.6129L19.822 13.8387ZM17.4715 13.2486C16.9837 13.2486 16.4932 13.3179 16.0044 13.4461L16.5117 15.3807C16.8542 15.2909 17.1738 15.2486 17.4715 15.2486V13.2486ZM16.0022 13.4467L14.2688 13.9055L14.7805 15.8389L16.514 15.3801L16.0022 13.4467ZM14.2654 13.9064C14.0719 13.9584 13.8814 13.9828 13.6933 13.9828V15.9828C14.0571 15.9828 14.4219 15.9352 14.7839 15.8381L14.2654 13.9064ZM13.6933 13.9828C13.3529 13.9828 12.9888 13.8957 12.5913 13.6908L11.6751 15.4686C12.3177 15.7998 12.9937 15.9828 13.6933 15.9828V13.9828ZM12.5232 13.6589C12.0779 13.4703 11.8006 13.1575 11.6634 12.6101L9.7234 13.0965C10.0038 14.215 10.6853 15.0525 11.7432 15.5005L12.5232 13.6589ZM11.6597 12.5959L11.2441 11.0358L9.31147 11.5507L9.72708 13.1107L11.6597 12.5959ZM11.2486 11.0534C11.1183 10.5261 11.2185 10.1971 11.4513 9.92659L9.93541 8.62201C9.22054 9.4527 9.04476 10.4716 9.30695 11.533L11.2486 11.0534ZM11.507 9.85564C11.8183 9.41999 12.1398 9.22209 12.4686 9.14965L12.0383 7.19649C11.1434 7.39363 10.4249 7.92989 9.87971 8.69297L11.507 9.85564ZM12.3614 9.16722C12.4763 9.15474 12.5912 9.13953 12.6726 9.12939L12.4253 7.14473C12.3223 7.15756 12.2395 7.16871 12.1455 7.17892L12.3614 9.16722ZM12.7643 9.11359L14.4287 8.74651L13.998 6.79345L12.3336 7.16053L12.7643 9.11359ZM14.5194 8.722C14.6088 8.69326 14.6929 8.67018 14.7723 8.65142L14.3125 6.70499C14.1831 6.73557 14.0481 6.7727 13.9073 6.81796L14.5194 8.722ZM14.7277 8.66089C14.8647 8.63506 14.9992 8.62245 15.1314 8.62245V6.62245C14.8711 6.62245 14.6126 6.64735 14.3571 6.69553L14.7277 8.66089ZM12.7725 2C13.1051 2 13.5054 2.06622 13.9852 2.2248L14.6128 0.325812C13.9819 0.117314 13.3665 0 12.7725 0V2ZM13.726 2.09485C14.2717 2.47641 14.4871 2.7989 14.5589 3.02622L16.4659 2.42343C16.2124 1.62153 15.6179 0.977291 14.872 0.455766L13.726 2.09485ZM14.5663 3.04865L14.9997 4.31478L16.8919 3.66712L16.4585 2.401L14.5663 3.04865ZM14.9993 4.31385C15.0969 4.59977 15.0863 4.90466 14.885 5.29227L16.6599 6.21416C17.0812 5.40304 17.1871 4.5324 16.8922 3.66805L14.9993 4.31385ZM14.9959 5.12312C14.6465 5.55376 14.2441 5.79546 13.7666 5.8938L14.17 7.85269C15.1256 7.65589 15.9255 7.15169 16.5489 6.38331L14.9959 5.12312ZM13.757 5.89581L12.1456 6.2441L12.5682 8.19896L14.1795 7.85067L13.757 5.89581ZM12.1476 6.24367C10.8554 6.52022 9.79187 7.15163 9.03962 8.16807L10.6472 9.35785C11.0729 8.78271 11.6862 8.3877 12.5662 8.19938L12.1476 6.24367ZM9.04128 8.16584C8.25286 9.22498 8.02934 10.4478 8.3534 11.7408L10.2934 11.2546C10.1085 10.5169 10.2317 9.91608 10.6456 9.36008L9.04128 8.16584ZM8.35375 11.7422L8.75175 13.3206L10.691 12.8316L10.2931 11.2532L8.35375 11.7422ZM8.75041 13.3152C9.06873 14.6079 9.88046 15.5866 11.0866 16.2333L12.0316 14.4707C11.2744 14.0647 10.8622 13.5266 10.6924 12.837L8.75041 13.3152ZM11.1037 16.2423C11.9079 16.6537 12.7957 16.8479 13.7436 16.8479V14.8479C13.0746 14.8479 12.5049 14.7126 12.0145 14.4617L11.1037 16.2423ZM13.7436 16.8479C14.1511 16.8479 14.5589 16.8108 14.967 16.7423L14.6359 14.7699C14.3262 14.8219 14.0295 14.8479 13.7436 14.8479V16.8479ZM15.0645 16.7209L16.8156 16.2434L16.2894 14.3138L14.5383 14.7913L15.0645 16.7209ZM16.8355 16.2377C16.949 16.2042 17.0504 16.1767 17.1385 16.1532L16.6246 14.2204C16.5283 14.246 16.4075 14.2787 16.2695 14.3195L16.8355 16.2377ZM17.167 16.1452C17.2774 16.1123 17.3952 16.0951 17.5218 16.0951V14.0951C17.2102 14.0951 16.8995 14.138 16.5961 14.2284L17.167 16.1452ZM17.5218 16.0951C17.7886 16.0951 18.1424 16.1665 18.6016 16.3631L19.3888 14.5245C18.7622 14.2562 18.1355 14.0951 17.5218 14.0951V16.0951ZM18.4551 16.2854C18.9876 16.6271 19.3147 17.0464 19.4904 17.5524L21.3797 16.8964C21.0457 15.9341 20.4146 15.1664 19.5353 14.6022L18.4551 16.2854ZM19.4868 17.5418L20.058 19.2484L21.9545 18.6136L21.3834 16.907L19.4868 17.5418ZM20.0598 19.2537C20.2908 19.9314 20.2504 20.4563 20.0361 20.902L21.8385 21.7687C22.3176 20.7725 22.323 19.6941 21.9527 18.6083L20.0598 19.2537ZM20.0711 20.8358C19.6643 21.5411 19.1837 21.9192 18.6455 22.0874L19.2423 23.9963C20.3454 23.6515 21.1947 22.8909 21.8036 21.8349L20.0711 20.8358ZM18.6278 22.0931L16.8077 22.6995L17.4399 24.597L19.26 23.9906L18.6278 22.0931ZM16.82 22.6955C16.5611 22.7781 16.3291 22.8132 16.1191 22.8132V24.8132C16.5561 24.8132 16.9931 24.7396 17.4276 24.601L16.82 22.6955ZM16.0943 22.8135C15.766 22.8216 15.4171 22.737 15.0317 22.5202L14.0511 24.2633C14.7058 24.6315 15.4072 24.8311 16.1439 24.8128L16.0943 22.8135ZM15.0996 22.562C14.5423 22.1871 14.1214 21.6734 13.8351 20.9876L11.9895 21.7581C12.4179 22.7843 13.0828 23.6156 13.9832 24.2214L15.0996 22.562ZM13.8823 21.1297L13.4313 19.3303L11.4913 19.8165L11.9423 21.6159L13.8823 21.1297ZM13.4284 19.3188C13.0678 17.9496 12.2431 16.9013 10.9903 16.232L10.0478 17.996C10.808 18.4021 11.2749 18.9947 11.4943 19.828L13.4284 19.3188ZM10.9877 16.2306C10.1405 15.7812 9.25351 15.545 8.33466 15.545V17.545C8.89767 17.545 9.4651 17.6869 10.0504 17.9974L10.9877 16.2306ZM8.33466 15.545C7.84669 15.545 7.35796 15.6145 6.86863 15.7422L7.37389 17.6774C7.71938 17.5871 8.03773 17.545 8.33466 17.545V15.545ZM6.86272 15.7438L4.94 16.2584L5.4571 18.1904L7.37981 17.6758L6.86272 15.7438ZM4.9569 16.254C4.69004 16.3205 4.42454 16.3522 4.1585 16.3522V18.3522C4.58582 18.3522 5.01369 18.301 5.4402 18.1948L4.9569 16.254ZM4.1585 16.3522C3.77442 16.3522 3.38785 16.2767 2.99274 16.1152L2.23599 17.9665C2.85957 18.2214 3.50252 18.3522 4.1585 18.3522V16.3522ZM3.17599 16.2135C2.62791 15.8414 2.37712 15.4294 2.30087 14.9691L0.327757 15.2959C0.506645 16.3758 1.12256 17.2368 2.05273 17.8682L3.17599 16.2135ZM2.30123 14.9713L2.02523 13.282L0.0514034 13.6044L0.327399 15.2937L2.30123 14.9713ZM2.02675 13.2916C1.93992 12.7256 2.06442 12.2847 2.38515 11.8908L0.834197 10.628C0.139245 11.4816 -0.118423 12.4978 0.0498835 13.5948L2.02675 13.2916ZM2.39136 11.8831C2.81716 11.3494 3.3327 11.0312 3.96587 10.8972L3.55153 8.94055C2.45127 9.17354 1.53431 9.75043 0.827985 10.6357L2.39136 11.8831ZM3.96528 10.8973L5.78538 10.513L5.37221 8.55613L3.55212 8.94042L3.96528 10.8973ZM5.79249 10.5115C7.15807 10.2127 8.27915 9.57228 9.0508 8.53327L7.44517 7.3408C7.0173 7.91693 6.35919 8.3402 5.36509 8.55766L5.79249 10.5115ZM9.05093 8.53309C9.807 7.51461 10.0674 6.36364 9.7536 5.15389L7.81765 5.65598C7.96735 6.23316 7.87048 6.76789 7.44505 7.34098L9.05093 8.53309ZM9.75461 5.1578L9.40792 3.79848L7.46996 4.29274L7.81664 5.65206L9.75461 5.1578ZM9.40775 3.79781C9.34824 3.56514 9.37225 3.24721 9.6958 2.77752L8.04879 1.64291C7.49538 2.44626 7.22955 3.35282 7.47013 4.29341L9.40775 3.79781ZM9.58095 2.91578C9.89941 2.59592 10.297 2.38661 10.8134 2.29634L10.469 0.326218C9.57426 0.482629 8.79316 0.872393 8.16365 1.50466L9.58095 2.91578ZM10.8074 2.29737L12.332 2.04042L11.9996 0.0682343L10.475 0.325189L10.8074 2.29737ZM12.3513 2.03698C12.4802 2.01265 12.6207 2 12.7725 2V0C12.5105 0 12.2447 0.0217774 11.9803 0.071674L12.3513 2.03698Z"
          fill="white"
          mask="url(#path-1-outside-1_4311_25863)"
        />
      </svg>