<svg width="19" height="19" viewBox="0 0 19 19" fill="none" xmlns="http://www.w3.org/2000/svg">
<path d="M13.1688 5.92945C13.3055 6.07241 13.4815 6.17163 13.6745 6.21456C13.8676 6.2575 14.0691 6.24221 14.2535 6.17065C14.4378 6.09909 14.5969 5.97445 14.7104 5.81251C14.8239 5.65057 14.8869 5.4586 14.8914 5.26087C14.8958 5.06314 14.8415 4.86853 14.7354 4.70165C14.6292 4.53478 14.4759 4.40313 14.295 4.32336C14.114 4.24358 13.9134 4.21927 13.7186 4.25349C13.5238 4.28771 13.3435 4.37892 13.2006 4.5156C13.0089 4.69887 12.8978 4.9508 12.8919 5.21595C12.8859 5.4811 12.9855 5.73775 13.1688 5.92945ZM17.5282 0.77934L10.4589 0.620515C10.3274 0.618095 10.1966 0.641672 10.0741 0.689897C9.95167 0.738122 9.83994 0.810045 9.74534 0.901542L1.79442 8.50305C1.21932 9.05288 0.886187 9.80865 0.868315 10.6041C0.850444 11.3995 1.1493 12.1695 1.69913 12.7446L5.8454 17.0815C6.39523 17.6566 7.151 17.9897 7.94645 18.0076C8.7419 18.0255 9.51187 17.7266 10.087 17.1768L18.0379 9.57527C18.1335 9.48488 18.2104 9.37649 18.2641 9.25632C18.3178 9.13616 18.3472 9.00658 18.3507 8.87502L18.5095 1.80573C18.513 1.67377 18.4904 1.54241 18.4428 1.41925C18.3953 1.29608 18.3239 1.18354 18.2327 1.08812C18.1414 0.992705 18.0322 0.916292 17.9113 0.863294C17.7904 0.810296 17.6602 0.781764 17.5282 0.77934ZM16.3594 8.41298L8.70488 15.7312C8.51318 15.9144 8.25652 16.014 7.99137 16.0081C7.72622 16.0021 7.4743 15.8911 7.29102 15.6994L3.14475 11.3625C2.96147 11.1708 2.86185 10.9142 2.86781 10.649C2.87377 10.3839 2.98481 10.1319 3.17651 9.94867L10.8311 2.63049L16.4865 2.75755L16.3594 8.41298Z" fill="#723614"/>
</svg>
