<svg width="17" height="12" viewBox="0 0 17 12" fill="none" xmlns="http://www.w3.org/2000/svg">
<path fill-rule="evenodd" clip-rule="evenodd" d="M4.68 10.53C4.68 10.3748 4.74163 10.2261 4.85134 10.1163C4.96105 10.0066 5.10985 9.945 5.265 9.945H15.795C15.9502 9.945 16.0989 10.0066 16.2087 10.1163C16.3184 10.2261 16.38 10.3748 16.38 10.53C16.38 10.6852 16.3184 10.834 16.2087 10.9437C16.0989 11.0534 15.9502 11.115 15.795 11.115H5.265C5.10985 11.115 4.96105 11.0534 4.85134 10.9437C4.74163 10.834 4.68 10.6852 4.68 10.53ZM4.68 5.85C4.68 5.69485 4.74163 5.54605 4.85134 5.43634C4.96105 5.32663 5.10985 5.265 5.265 5.265H15.795C15.9502 5.265 16.0989 5.32663 16.2087 5.43634C16.3184 5.54605 16.38 5.69485 16.38 5.85C16.38 6.00515 16.3184 6.15395 16.2087 6.26366C16.0989 6.37337 15.9502 6.435 15.795 6.435H5.265C5.10985 6.435 4.96105 6.37337 4.85134 6.26366C4.74163 6.15395 4.68 6.00515 4.68 5.85ZM4.68 1.17C4.68 1.01485 4.74163 0.866051 4.85134 0.756343C4.96105 0.646634 5.10985 0.585 5.265 0.585H15.795C15.9502 0.585 16.0989 0.646634 16.2087 0.756343C16.3184 0.866051 16.38 1.01485 16.38 1.17C16.38 1.32515 16.3184 1.47395 16.2087 1.58366C16.0989 1.69337 15.9502 1.755 15.795 1.755H5.265C5.10985 1.755 4.96105 1.69337 4.85134 1.58366C4.74163 1.47395 4.68 1.32515 4.68 1.17ZM1.17 2.34C1.4803 2.34 1.7779 2.21673 1.99731 1.99731C2.21673 1.7779 2.34 1.4803 2.34 1.17C2.34 0.859697 2.21673 0.562103 1.99731 0.342685C1.7779 0.123267 1.4803 0 1.17 0C0.859697 0 0.562103 0.123267 0.342685 0.342685C0.123267 0.562103 0 0.859697 0 1.17C0 1.4803 0.123267 1.7779 0.342685 1.99731C0.562103 2.21673 0.859697 2.34 1.17 2.34ZM1.17 7.02C1.4803 7.02 1.7779 6.89673 1.99731 6.67732C2.21673 6.4579 2.34 6.1603 2.34 5.85C2.34 5.5397 2.21673 5.2421 1.99731 5.02269C1.7779 4.80327 1.4803 4.68 1.17 4.68C0.859697 4.68 0.562103 4.80327 0.342685 5.02269C0.123267 5.2421 0 5.5397 0 5.85C0 6.1603 0.123267 6.4579 0.342685 6.67732C0.562103 6.89673 0.859697 7.02 1.17 7.02ZM1.17 11.7C1.4803 11.7 1.7779 11.5767 1.99731 11.3573C2.21673 11.1379 2.34 10.8403 2.34 10.53C2.34 10.2197 2.21673 9.9221 1.99731 9.70269C1.7779 9.48327 1.4803 9.36 1.17 9.36C0.859697 9.36 0.562103 9.48327 0.342685 9.70269C0.123267 9.9221 0 10.2197 0 10.53C0 10.8403 0.123267 11.1379 0.342685 11.3573C0.562103 11.5767 0.859697 11.7 1.17 11.7Z" fill="#8A8A8A"/>
</svg>
