<svg width="24" height="24" viewBox="0 0 24 24" fill="none" xmlns="http://www.w3.org/2000/svg">
<path d="M4 7.84375V19.0361C4 19.3122 4.22386 19.5361 4.5 19.5361H19.7355M7.07812 13.4556L10.4971 10.0366C11.0794 9.45431 12.0236 9.45431 12.6059 10.0366L16.0249 13.4556M15.0308 12.4615L15.9646 11.5278C16.5469 10.9454 17.491 10.9454 18.0733 11.5278L20.0012 13.4556M8.07221 15.9408H19.0071C19.5561 15.9408 20.0012 15.4958 20.0012 14.9467V6.99408C20.0012 6.44507 19.5561 6 19.0071 6H8.07221C7.52319 6 7.07812 6.44507 7.07812 6.99408V14.9467C7.07812 15.4958 7.52319 15.9408 8.07221 15.9408ZM15.0308 8.48521H15.0358V8.49018H15.0308V8.48521ZM15.2793 8.48521C15.2793 8.62246 15.168 8.73373 15.0308 8.73373C14.8935 8.73373 14.7823 8.62246 14.7823 8.48521C14.7823 8.34795 14.8935 8.23669 15.0308 8.23669C15.168 8.23669 15.2793 8.34795 15.2793 8.48521Z" stroke="#723614" stroke-width="1.5" stroke-linecap="round" stroke-linejoin="round"/>
</svg>
