<svg width="8" height="8" viewBox="0 0 8 8" fill="none" xmlns="http://www.w3.org/2000/svg">
<path d="M0 7C0 7.26522 0.105357 7.51957 0.292893 7.70711C0.48043 7.89464 0.734784 8 1 8H7C7.26522 8 7.51957 7.89464 7.70711 7.70711C7.89464 7.51957 8 7.26522 8 7V1C8 0.734784 7.89464 0.48043 7.70711 0.292893C7.51957 0.105357 7.26522 0 7 0L1 0C0.734784 0 0.48043 0.105357 0.292893 0.292893C0.105357 0.48043 0 0.734784 0 1L0 7ZM2.25 3.75H5.1465L4.073 2.677C4.02606 2.63006 3.99968 2.56639 3.99968 2.5C3.99968 2.43361 4.02606 2.36994 4.073 2.323C4.11994 2.27606 4.18361 2.24968 4.25 2.24968C4.31639 2.24968 4.38006 2.27606 4.427 2.323L5.927 3.823C5.95028 3.84622 5.96875 3.87381 5.98136 3.90418C5.99396 3.93456 6.00045 3.96712 6.00045 4C6.00045 4.03288 5.99396 4.06544 5.98136 4.09582C5.96875 4.12619 5.95028 4.15378 5.927 4.177L4.427 5.677C4.38006 5.72394 4.31639 5.75032 4.25 5.75032C4.18361 5.75032 4.11994 5.72394 4.073 5.677C4.02606 5.63006 3.99968 5.56639 3.99968 5.5C3.99968 5.43361 4.02606 5.36994 4.073 5.323L5.1465 4.25H2.25C2.1837 4.25 2.12011 4.22366 2.07322 4.17678C2.02634 4.12989 2 4.0663 2 4C2 3.9337 2.02634 3.87011 2.07322 3.82322C2.12011 3.77634 2.1837 3.75 2.25 3.75Z" fill="#FF7F4A"/>
</svg>
