<svg width="24" height="24" viewBox="0 0 24 24" fill="none" xmlns="http://www.w3.org/2000/svg">
<path d="M10.5274 4.8356C10.6078 4.35341 11.025 4 11.5138 4H12.4862C12.975 4 13.3922 4.35341 13.4726 4.8356L13.605 5.6301C13.6679 6.00723 13.946 6.30967 14.2991 6.45628C14.6524 6.60295 15.058 6.58336 15.3693 6.36104L16.0249 5.89274C16.4227 5.60861 16.9676 5.65371 17.3133 5.99937L18.0009 6.68697C18.3465 7.03263 18.3916 7.57753 18.1075 7.97531L17.639 8.63117C17.4168 8.94233 17.3972 9.34785 17.5438 9.70101C17.6903 10.054 17.9927 10.3321 18.3698 10.395L19.1644 10.5274C19.6466 10.6078 20 11.025 20 11.5138V12.4862C20 12.975 19.6466 13.3922 19.1644 13.4726L18.3699 13.605C17.9928 13.6679 17.6903 13.946 17.5437 14.2991C17.3971 14.6524 17.4166 15.058 17.639 15.3692L18.1072 16.0247C18.3913 16.4225 18.3462 16.9674 18.0005 17.3131L17.313 18.0007C16.9673 18.3464 16.4224 18.3914 16.0246 18.1073L15.369 17.639C15.0578 17.4167 14.6522 17.3971 14.299 17.5438C13.946 17.6903 13.6679 17.9927 13.605 18.3698L13.4726 19.1644C13.3922 19.6466 12.975 20 12.4862 20H11.5138C11.025 20 10.6078 19.6466 10.5274 19.1644L10.395 18.3699C10.3321 17.9928 10.054 17.6903 9.70088 17.5437C9.34763 17.3971 8.942 17.4166 8.63076 17.639L7.97509 18.1073C7.57731 18.3914 7.03241 18.3463 6.68675 18.0007L5.99915 17.3131C5.65349 16.9674 5.60839 16.4225 5.89252 16.0247L6.36099 15.3689C6.58325 15.0577 6.60285 14.6522 6.45623 14.299C6.30966 13.946 6.00728 13.6679 5.63024 13.605L4.8356 13.4726C4.35341 13.3922 4 12.975 4 12.4862V11.5138C4 11.025 4.35341 10.6078 4.8356 10.5274L5.6301 10.395C6.00723 10.3321 6.30968 10.054 6.45628 9.70086C6.60296 9.3476 6.58337 8.94195 6.36105 8.6307L5.89287 7.97526C5.60874 7.57747 5.65384 7.03257 5.9995 6.68691L6.6871 5.99931C7.03276 5.65365 7.57766 5.60855 7.97544 5.89268L8.63108 6.361C8.94226 6.58327 9.3478 6.60286 9.70098 6.45623C10.054 6.30966 10.3321 6.00728 10.395 5.63022L10.5274 4.8356Z" stroke-width="1.5" stroke-linecap="round" stroke-linejoin="round"/>
<path d="M14.6673 12C14.6673 13.4728 13.4734 14.6667 12.0006 14.6667C10.5279 14.6667 9.33395 13.4728 9.33395 12C9.33395 10.5273 10.5279 9.33335 12.0006 9.33335C13.4734 9.33335 14.6673 10.5273 14.6673 12Z" stroke-width="1.5" stroke-linecap="round" stroke-linejoin="round"/>
</svg>
