<svg width="11" height="10" viewBox="0 0 13 12" fill="none" xmlns="http://www.w3.org/2000/svg">
<path d="M1.15727 0.456961C1.36496 0.244406 1.6466 0.125 1.94027 0.125C2.23394 0.125 2.51559 0.244406 2.72327 0.456961L6.63939 4.46608L10.5555 0.456961C10.7644 0.25043 11.0441 0.13615 11.3345 0.138733C11.6249 0.141316 11.9027 0.260557 12.108 0.470772C12.3134 0.680988 12.4298 0.965359 12.4324 1.26264C12.4349 1.55992 12.3233 1.84632 12.1215 2.06015L8.2054 6.06927L12.1215 10.0784C12.3233 10.2922 12.4349 10.5786 12.4324 10.8759C12.4298 11.1732 12.3134 11.4575 12.108 11.6678C11.9027 11.878 11.6249 11.9972 11.3345 11.9998C11.0441 12.0024 10.7644 11.8881 10.5555 11.6816L6.63939 7.67246L2.72327 11.6816C2.5144 11.8881 2.23464 12.0024 1.94426 11.9998C1.65387 11.9972 1.3761 11.878 1.17076 11.6678C0.96542 11.4575 0.848946 11.1732 0.846422 10.8759C0.843899 10.5786 0.955529 10.2922 1.15727 10.0784L5.07339 6.06927L1.15727 2.06015C0.949644 1.84753 0.833008 1.5592 0.833008 1.25856C0.833008 0.957914 0.949644 0.66958 1.15727 0.456961Z" fill="#ACACAC"/>
</svg>
