<svg width="9" height="11" viewBox="0 0 9 11" fill="none" xmlns="http://www.w3.org/2000/svg">
<path fill-rule="evenodd" clip-rule="evenodd" d="M4.5 11C4.18934 11 3.9375 10.7482 3.9375 10.4375L3.9375 2.45906L0.967968 5.57738C0.752647 5.80131 0.396561 5.80829 0.172626 5.59297C-0.0513072 5.37765 -0.0582891 5.02156 0.157031 4.79763L4.09453 0.672628C4.20058 0.562334 4.34699 0.500002 4.5 0.500002C4.65301 0.500002 4.79942 0.562334 4.90547 0.672628L8.84297 4.79763C9.05829 5.02156 9.05131 5.37765 8.82737 5.59297C8.60344 5.80829 8.24735 5.80131 8.03203 5.57737L5.0625 2.45906L5.0625 10.4375C5.0625 10.7482 4.81066 11 4.5 11Z" fill="white"/>
</svg>
