<svg width="9" height="8" viewBox="0 0 9 8" fill="none" xmlns="http://www.w3.org/2000/svg">
<path d="M5.33766 6.37766H2.62433C2.59132 6.27699 2.54313 6.18049 2.48099 6.09061L6.00433 3.05656C6.20498 3.1626 6.43557 3.21919 6.67099 3.22018C6.92055 3.22088 7.16533 3.16125 7.37748 3.04807C7.58963 2.9349 7.76064 2.77272 7.87106 2.57999C7.98147 2.38727 8.02685 2.17172 8.00205 1.95788C7.97724 1.74404 7.88324 1.54049 7.73074 1.37038C7.57823 1.20027 7.37335 1.07043 7.13939 0.995627C6.90543 0.920829 6.65179 0.904074 6.40732 0.947269C6.16286 0.990463 5.93737 1.09187 5.75652 1.23996C5.57567 1.38806 5.44672 1.57688 5.38433 1.78496H2.62433C2.5432 1.51438 2.35025 1.27856 2.08166 1.12172C1.81307 0.964874 1.48726 0.897769 1.16533 0.932982C0.843389 0.968195 0.547416 1.10331 0.332887 1.31299C0.118357 1.52268 0 1.79255 0 2.072C0 2.35146 0.118357 2.62133 0.332887 2.83101C0.547416 3.0407 0.843389 3.17581 1.16533 3.21103C1.48726 3.24624 1.81307 3.17913 2.08166 3.02229C2.35025 2.86545 2.5432 2.62963 2.62433 2.35905H5.38433C5.41733 2.45971 5.46552 2.55621 5.52766 2.64609L2.00433 5.68014C1.80367 5.57411 1.57308 5.51752 1.33766 5.51653C1.0881 5.51583 0.843322 5.57546 0.63117 5.68863C0.419018 5.80181 0.248009 5.96398 0.137596 6.15671C0.0271831 6.34944 -0.0182013 6.56498 0.00660515 6.77882C0.0314116 6.99266 0.125413 7.19622 0.277917 7.36633C0.430421 7.53644 0.635305 7.66628 0.869263 7.74108C1.10322 7.81587 1.35686 7.83263 1.60133 7.78943C1.8458 7.74624 2.07128 7.64483 2.25213 7.49674C2.43298 7.34865 2.56194 7.15982 2.62433 6.95174H5.33766V7.81287H8.00432V5.51653H5.33766V6.37766ZM1.33766 2.64609C1.20581 2.64609 1.07691 2.61242 0.967281 2.54934C0.857648 2.48626 0.7722 2.3966 0.721741 2.2917C0.671283 2.1868 0.658081 2.07137 0.683804 1.96001C0.709527 1.84864 0.773021 1.74635 0.866256 1.66606C0.959491 1.58578 1.07828 1.5311 1.2076 1.50895C1.33692 1.4868 1.47097 1.49817 1.59278 1.54162C1.7146 1.58507 1.81872 1.65865 1.89197 1.75306C1.96523 1.84747 2.00433 1.95846 2.00433 2.072C2.00433 2.22426 1.93409 2.37028 1.80906 2.47794C1.68404 2.58561 1.51447 2.64609 1.33766 2.64609ZM6.67099 1.49792C6.80285 1.49792 6.93174 1.53159 7.04137 1.59467C7.15101 1.65775 7.23645 1.74741 7.28691 1.85231C7.33737 1.95721 7.35057 2.07264 7.32485 2.184C7.29913 2.29537 7.23563 2.39766 7.1424 2.47794C7.04916 2.55823 6.93037 2.61291 6.80105 2.63506C6.67173 2.65721 6.53769 2.64584 6.41587 2.60239C6.29405 2.55894 6.18993 2.48536 6.11668 2.39095C6.04343 2.29654 6.00433 2.18555 6.00433 2.072C6.00433 1.91975 6.07456 1.77373 6.19959 1.66606C6.32461 1.5584 6.49418 1.49792 6.67099 1.49792ZM1.33766 7.23879C1.20581 7.23879 1.07691 7.20512 0.967281 7.14203C0.857648 7.07895 0.7722 6.98929 0.721741 6.88439C0.671283 6.77949 0.658081 6.66406 0.683804 6.5527C0.709527 6.44134 0.773021 6.33905 0.866256 6.25876C0.959491 6.17847 1.07828 6.12379 1.2076 6.10164C1.33692 6.07949 1.47097 6.09086 1.59278 6.13431C1.7146 6.17776 1.81872 6.25134 1.89197 6.34575C1.96523 6.44016 2.00433 6.55116 2.00433 6.6647C2.00433 6.81696 1.93409 6.96298 1.80906 7.07064C1.68404 7.1783 1.51447 7.23879 1.33766 7.23879ZM6.00433 6.09061H7.33766V7.23879H6.00433V6.09061Z" fill="#0D3C84"/>
</svg>
